<svg width="377" height="101" viewBox="0 0 377 101" fill="none" xmlns="http://www.w3.org/2000/svg">
<path d="M76.3598 83.2685C77.6078 83.2685 78.5838 83.6125 79.2878 84.3005C79.9918 84.9885 80.3438 85.9645 80.3438 87.2285C80.3438 88.4925 79.9918 89.4685 79.2878 90.1565C78.5838 90.8445 77.6078 91.1885 76.3598 91.1885H73.8038V83.2685H76.3598ZM76.4558 90.2885C77.3598 90.2885 78.0638 90.0205 78.5678 89.4845C79.0798 88.9405 79.3358 88.1885 79.3358 87.2285C79.3358 86.2685 79.0798 85.5205 78.5678 84.9845C78.0638 84.4405 77.3598 84.1685 76.4558 84.1685H74.7638V90.2885H76.4558ZM88.9082 87.9005H87.0122V91.1885H86.0522V83.2685H89.0522C89.8602 83.2685 90.5082 83.4765 90.9962 83.8925C91.4842 84.3085 91.7282 84.8725 91.7282 85.5845C91.7282 86.1445 91.5722 86.6165 91.2602 87.0005C90.9482 87.3845 90.5202 87.6485 89.9762 87.7925L92.2082 91.1885H91.0682L88.9082 87.9005ZM87.0122 87.0005H89.0402C90.1602 87.0005 90.7202 86.5285 90.7202 85.5845C90.7202 84.6405 90.1602 84.1685 89.0402 84.1685H87.0122V87.0005ZM100.754 83.1485C101.498 83.1485 102.146 83.3165 102.698 83.6525C103.25 83.9805 103.674 84.4525 103.97 85.0685C104.274 85.6765 104.426 86.3965 104.426 87.2285C104.426 88.0605 104.274 88.7845 103.97 89.4005C103.674 90.0085 103.25 90.4805 102.698 90.8165C102.146 91.1445 101.498 91.3085 100.754 91.3085C100.01 91.3085 99.3624 91.1445 98.8104 90.8165C98.2584 90.4805 97.8304 90.0085 97.5264 89.4005C97.2304 88.7845 97.0824 88.0605 97.0824 87.2285C97.0824 86.3965 97.2304 85.6765 97.5264 85.0685C97.8304 84.4525 98.2584 83.9805 98.8104 83.6525C99.3624 83.3165 100.01 83.1485 100.754 83.1485ZM100.754 84.0485C99.9304 84.0485 99.2784 84.3325 98.7984 84.9005C98.3264 85.4605 98.0904 86.2365 98.0904 87.2285C98.0904 88.2205 98.3264 89.0005 98.7984 89.5685C99.2784 90.1285 99.9304 90.4085 100.754 90.4085C101.578 90.4085 102.226 90.1285 102.698 89.5685C103.178 89.0005 103.418 88.2205 103.418 87.2285C103.418 86.2365 103.178 85.4605 102.698 84.9005C102.226 84.3325 101.578 84.0485 100.754 84.0485ZM116.355 91.1885H115.167L111.855 85.8845L111.015 84.3245H111.003L111.051 85.5965V91.1885H110.139V83.2685H111.327L114.627 88.5485L115.479 90.1325H115.491L115.443 88.8605V83.2685H116.355V91.1885ZM128.287 90.2885V91.1885H122.551V83.2685H128.107V84.1685H123.511V86.7245H127.087V87.6245H123.511V90.2885H128.287ZM136.36 83.2685C137.608 83.2685 138.584 83.6125 139.288 84.3005C139.992 84.9885 140.344 85.9645 140.344 87.2285C140.344 88.4925 139.992 89.4685 139.288 90.1565C138.584 90.8445 137.608 91.1885 136.36 91.1885H133.804V83.2685H136.36ZM136.456 90.2885C137.36 90.2885 138.064 90.0205 138.568 89.4845C139.08 88.9405 139.336 88.1885 139.336 87.2285C139.336 86.2685 139.08 85.5205 138.568 84.9845C138.064 84.4405 137.36 84.1685 136.456 84.1685H134.764V90.2885H136.456ZM151.788 90.2885V91.1885H146.052V83.2685H151.608V84.1685H147.012V86.7245H150.588V87.6245H147.012V90.2885H151.788ZM162.801 90.2885V91.1885H157.305V83.2685H158.265V90.2885H162.801ZM169.036 91.1885H168.076V83.2685H169.036V91.1885ZM178.371 91.1885H177.279L174.267 83.2685H175.299L177.315 88.7405L177.819 90.3125L178.323 88.7525L180.339 83.2685H181.371L178.371 91.1885ZM192.344 90.2885V91.1885H186.608V83.2685H192.164V84.1685H187.568V86.7245H191.144V87.6245H187.568V90.2885H192.344ZM200.717 87.9005H198.821V91.1885H197.861V83.2685H200.861C201.669 83.2685 202.317 83.4765 202.805 83.8925C203.293 84.3085 203.537 84.8725 203.537 85.5845C203.537 86.1445 203.381 86.6165 203.069 87.0005C202.757 87.3845 202.329 87.6485 201.785 87.7925L204.017 91.1885H202.877L200.717 87.9005ZM198.821 87.0005H200.849C201.969 87.0005 202.529 86.5285 202.529 85.5845C202.529 84.6405 201.969 84.1685 200.849 84.1685H198.821V87.0005ZM215.177 90.2885V91.1885H209.441V83.2685H214.997V84.1685H210.401V86.7245H213.977V87.6245H210.401V90.2885H215.177ZM223.25 83.2685C224.498 83.2685 225.474 83.6125 226.178 84.3005C226.882 84.9885 227.234 85.9645 227.234 87.2285C227.234 88.4925 226.882 89.4685 226.178 90.1565C225.474 90.8445 224.498 91.1885 223.25 91.1885H220.694V83.2685H223.25ZM223.346 90.2885C224.25 90.2885 224.954 90.0205 225.458 89.4845C225.97 88.9405 226.226 88.1885 226.226 87.2285C226.226 86.2685 225.97 85.5205 225.458 84.9845C224.954 84.4405 224.25 84.1685 223.346 84.1685H221.654V90.2885H223.346ZM247.016 89.1605C246.768 89.8325 246.36 90.3605 245.792 90.7445C245.224 91.1205 244.568 91.3085 243.824 91.3085C243.08 91.3085 242.432 91.1445 241.88 90.8165C241.328 90.4805 240.9 90.0085 240.596 89.4005C240.3 88.7845 240.152 88.0605 240.152 87.2285C240.152 86.4045 240.3 85.6845 240.596 85.0685C240.9 84.4525 241.328 83.9805 241.88 83.6525C242.432 83.3165 243.072 83.1485 243.8 83.1485C244.56 83.1485 245.196 83.3045 245.708 83.6165C246.228 83.9285 246.616 84.3885 246.872 84.9965L245.924 85.4405C245.748 84.9765 245.492 84.6285 245.156 84.3965C244.82 84.1645 244.392 84.0485 243.872 84.0485C243.328 84.0485 242.852 84.1765 242.444 84.4325C242.036 84.6805 241.72 85.0445 241.496 85.5245C241.272 86.0045 241.16 86.5725 241.16 87.2285C241.16 88.2205 241.396 89.0005 241.868 89.5685C242.348 90.1285 243 90.4085 243.824 90.4085C244.36 90.4085 244.824 90.2725 245.216 90.0005C245.608 89.7285 245.888 89.3285 246.056 88.8005L247.016 89.1605ZM255.65 83.1485C256.394 83.1485 257.042 83.3165 257.594 83.6525C258.146 83.9805 258.57 84.4525 258.866 85.0685C259.17 85.6765 259.322 86.3965 259.322 87.2285C259.322 88.0605 259.17 88.7845 258.866 89.4005C258.57 90.0085 258.146 90.4805 257.594 90.8165C257.042 91.1445 256.394 91.3085 255.65 91.3085C254.906 91.3085 254.258 91.1445 253.706 90.8165C253.154 90.4805 252.726 90.0085 252.422 89.4005C252.126 88.7845 251.978 88.0605 251.978 87.2285C251.978 86.3965 252.126 85.6765 252.422 85.0685C252.726 84.4525 253.154 83.9805 253.706 83.6525C254.258 83.3165 254.906 83.1485 255.65 83.1485ZM255.65 84.0485C254.826 84.0485 254.174 84.3325 253.694 84.9005C253.222 85.4605 252.986 86.2365 252.986 87.2285C252.986 88.2205 253.222 89.0005 253.694 89.5685C254.174 90.1285 254.826 90.4085 255.65 90.4085C256.474 90.4085 257.122 90.1285 257.594 89.5685C258.074 89.0005 258.314 88.2205 258.314 87.2285C258.314 86.2365 258.074 85.4605 257.594 84.9005C257.122 84.3325 256.474 84.0485 255.65 84.0485ZM265.995 84.1685V86.7245H269.571V87.6245H265.995V91.1885H265.035V83.2685H270.579V84.1685H265.995ZM276.919 84.1685V86.7245H280.495V87.6245H276.919V91.1885H275.959V83.2685H281.503V84.1685H276.919ZM292.619 90.2885V91.1885H286.883V83.2685H292.439V84.1685H287.843V86.7245H291.419V87.6245H287.843V90.2885H292.619ZM303.872 90.2885V91.1885H298.136V83.2685H303.692V84.1685H299.096V86.7245H302.672V87.6245H299.096V90.2885H303.872Z" fill="white"/>
<path d="M91.3037 54.0002L73.6637 54.0002L73.6637 52.5602L78.5237 52.0202L73.0037 38.2202L59.5037 38.2202L54.7037 51.0002L60.0437 52.5602L60.0437 54.0002L47.5037 54.0002L47.5037 52.5602L52.0637 51.0002L66.5837 13.9202L70.7837 13.9202L86.6837 52.0202L91.3037 52.5602L91.3037 54.0002ZM72.1037 36.0002L66.2237 21.4202L60.3437 36.0002L72.1037 36.0002ZM109.877 54.0002L91.4565 54.0002L91.4565 52.5602L96.6765 52.0202L96.6765 15.9002L91.4565 15.3602L91.4565 13.9202L109.877 13.9202L109.877 15.3602L104.657 15.9002L104.657 52.0202L109.877 52.5602L109.877 54.0002ZM126.799 33.0602L128.839 33.0602C135.239 33.0602 138.439 30.0002 138.439 23.8802C138.439 20.9202 137.819 18.7802 136.579 17.4602C135.339 16.1002 133.379 15.4202 130.699 15.4202C128.979 15.4202 127.679 15.5002 126.799 15.6602L126.799 33.0602ZM125.779 13.8002L132.499 13.6202C142.019 13.6202 146.779 17.0402 146.779 23.8802C146.779 26.9202 145.699 29.4002 143.539 31.3202C141.379 33.2402 138.599 34.2002 135.199 34.2002L133.819 34.2002C138.379 34.8002 141.499 36.1802 143.179 38.3402C144.899 40.5002 145.759 43.7802 145.759 48.1802C145.759 50.9002 146.319 52.5602 147.439 53.1602C147.839 53.4002 148.419 53.5202 149.179 53.5202C149.979 53.5202 151.059 53.2002 152.419 52.5602L152.479 54.0002C150.319 54.9202 148.119 55.3802 145.879 55.3802C141.399 55.3802 138.699 53.7002 137.779 50.3402C137.459 48.9402 137.299 47.2002 137.299 45.1202C137.299 43.0002 137.159 41.3802 136.879 40.2602C136.639 39.1002 136.259 38.1602 135.739 37.4402C134.579 35.6802 132.399 34.8002 129.199 34.8002L126.799 34.8002L126.799 52.0202L131.359 52.5602L131.359 54.0002L114.439 54.0002L114.439 52.5602L118.879 52.0802L118.879 15.7802L113.719 15.0602L113.719 13.5602C117.079 13.7202 120.099 13.8002 122.779 13.8002L125.779 13.8002ZM185.028 13.9202C194.588 13.9202 199.368 17.0602 199.368 23.3402C199.368 25.9002 198.548 28.0402 196.908 29.7602C195.268 31.4402 192.888 32.4602 189.768 32.8202C193.808 33.5802 196.748 34.7602 198.588 36.3602C200.428 37.9602 201.348 40.2202 201.348 43.1402C201.348 46.8202 199.788 49.5602 196.668 51.3602C193.548 53.1202 189.488 54.0002 184.488 54.0002L168.228 54.0002L168.228 52.5602L172.608 51.9602L172.608 15.9002L167.508 15.3002L167.508 13.9202L185.028 13.9202ZM182.268 34.0202L180.708 34.0802L180.708 52.3202C181.468 52.5202 182.348 52.6202 183.348 52.6202C186.108 52.6202 188.428 51.8602 190.308 50.3402C192.188 48.7802 193.128 46.2202 193.128 42.6602C193.128 38.1402 191.168 35.4402 187.248 34.5602C185.648 34.2002 183.988 34.0202 182.268 34.0202ZM180.708 15.5402L180.708 32.3402L182.148 32.3402C184.948 32.3402 187.128 31.5802 188.688 30.0602C190.248 28.5402 191.028 26.3402 191.028 23.4602C191.028 20.5402 190.428 18.5002 189.228 17.3402C188.028 16.1402 186.108 15.5402 183.468 15.5402L180.708 15.5402ZM205.48 54.0002L205.48 52.5602L210.7 52.0202L210.7 15.9002L205.48 15.3602L205.48 13.9202L236.08 13.9202L236.08 22.4402L234.16 22.4402L231.82 16.0802L218.68 15.9002L218.68 32.0402L230.32 32.0402L232.18 27.6002L233.86 27.6002L233.86 38.7602L232.12 38.7602L230.32 34.2002L218.68 34.2002L218.68 52.0802L233.62 51.9002L236.74 45.0602L238.66 45.0602L237.94 54.0002L205.48 54.0002ZM283.374 54.0002L265.734 54.0002L265.734 52.5602L270.594 52.0202L265.074 38.2202L251.574 38.2202L246.774 51.0002L252.114 52.5602L252.114 54.0002L239.574 54.0002L239.574 52.5602L244.134 51.0002L258.654 13.9202L262.854 13.9202L278.754 52.0202L283.374 52.5602L283.374 54.0002ZM264.174 36.0002L258.294 21.4202L252.414 36.0002L264.174 36.0002ZM314.067 13.9202L326.187 13.9202L326.187 15.3602L321.987 16.8002L321.987 54.0002L317.907 54.0002L291.207 21.1202L291.207 51.0602L296.247 52.5602L296.247 54.0002L284.247 54.0002L284.247 52.5602L288.627 51.0602L288.627 15.9002L283.407 15.3602L283.407 13.9202L294.687 13.9202L318.687 43.8002L318.687 16.7402L314.067 15.3602L314.067 13.9202Z" fill="white"/>
</svg>
