<svg width="169" height="400" viewBox="0 0 169 400" fill="none" xmlns="http://www.w3.org/2000/svg">
<g clip-path="url(#clip0_1774_4)">
<path d="M37.0788 253.851C37.0788 253.851 64.1707 79.5013 7.94124 -16.9098C-11.1328 -49.6253 -34.3157 -69.8183 -56.6388 -82.2026C-103.169 -108.038 -170.294 -79.9016 -179.37 -30.7723C-183.724 -7.21138 -182.202 22.0501 -167.637 56.6623C-124.709 158.653 37.0788 253.851 37.0788 253.851Z" fill="#2F8C91"/>
<path d="M-97.8838 -7.30043C-94.4339 -0.446012 -91.0003 6.40554 -87.5504 13.26C-109.493 36.7376 -131.452 60.2125 -153.399 83.7043C-152.922 84.479 -152.445 85.2537 -151.947 86.0172C-130.062 62.6045 -108.176 39.1919 -86.291 15.7793C-83.0387 22.2535 -79.775 28.7448 -76.5228 35.219C-97.1213 57.9259 -118.817 79.9446 -141.548 101.196C-141.025 101.889 -140.523 102.592 -140 103.285C-117.368 82.1668 -95.7799 60.3094 -75.2519 37.7553C-72.1222 43.9827 -68.9924 50.2102 -65.8627 56.4376C-86.3958 77.3082 -106.924 98.1646 -127.457 119.035C-126.891 119.705 -126.326 120.375 -125.744 121.048C-105.373 100.344 -84.9808 79.6294 -64.6098 58.9257C-61.3233 65.451 -58.058 71.9876 -54.7714 78.5129C-72.0856 99.2119 -90.3289 119.388 -109.476 138.969C-108.863 139.602 -108.267 140.233 -107.649 140.852C-88.6993 121.491 -70.6265 101.556 -53.4662 81.1004C-50.0915 87.8214 -46.7167 94.5425 -43.3256 101.266C-59.1586 119.701 -75.8551 137.624 -93.3742 154.968C-92.7513 155.573 -92.1071 156.166 -91.4842 156.771C-74.1846 139.66 -57.6847 122.003 -42.0319 103.837C-39.2811 109.307 -36.5352 114.791 -33.7844 120.261C-47.3401 137.337 -61.7414 153.95 -76.9521 170.046C-76.2867 170.628 -75.6376 171.208 -74.9721 171.79C-59.9955 155.969 -45.822 139.662 -32.4613 122.896C-29.1045 129.569 -25.7477 136.242 -22.3909 142.915C-32.4286 158.31 -44.2787 172.877 -57.7478 186.408C-57.0725 186.963 -56.3971 187.517 -55.7055 188.074C-42.5394 174.864 -30.9253 160.677 -20.9812 145.701C-19.8443 147.973 -18.6911 150.249 -17.5542 152.521C-17.6249 152.975 -17.4519 153.426 -16.9596 153.707C-16.1265 155.355 -15.3098 157.001 -14.4767 158.649C-22.2663 172.471 -32.773 185.17 -45.5543 196.223C-44.8576 196.766 -44.1774 197.306 -43.4808 197.849C-31.1056 187.115 -20.8154 174.889 -13.0017 161.597C-10.4894 166.604 -7.97219 171.598 -5.45991 176.605C-12.8363 187.54 -21.0845 198.036 -30.1733 208.055C-29.4554 208.586 -28.7539 209.115 -28.036 209.646C-19.26 199.979 -11.2642 189.859 -4.07308 179.357C-1.73066 184.004 0.590477 188.663 2.9329 193.31C-3.22231 199.982 -9.35623 206.643 -15.5114 213.315C-16.5187 214.415 -17.5637 215.524 -18.571 216.624C-17.8482 217.142 -17.1418 217.656 -16.4353 218.171C-14.9268 216.527 -13.3954 214.918 -11.8968 213.303C-6.52448 207.485 -1.16856 201.664 4.20373 195.846C6.18515 199.784 8.15512 203.705 10.1365 207.643C5.80097 214.274 1.16279 220.776 -3.80087 227.116C-3.0617 227.637 -2.31761 228.143 -1.58989 228.646C3.0576 222.716 7.44013 216.649 11.5364 210.457C13.8445 215.053 16.1575 219.635 18.4493 224.229C15.6001 228.281 12.5629 232.225 9.30486 236.055C10.0653 236.564 10.8143 237.056 11.547 237.545C14.461 234.105 17.2361 230.566 19.8296 226.949C21.2279 229.718 22.6098 232.484 24.008 235.254C22.3418 237.65 20.6919 240.05 19.0305 242.433C19.8073 242.944 20.5613 243.422 21.2989 243.897C22.6604 241.927 24.0219 239.958 25.3785 238.003C27.4645 242.139 29.5341 246.273 31.6151 250.423C35.2605 252.67 37.2804 253.851 37.2804 253.851C37.2804 253.851 37.6177 251.731 38.1202 247.839C35.8006 243.226 33.4811 238.612 31.1616 233.999C33.8294 235.113 36.5989 236.035 39.4389 236.803C39.5281 235.947 39.6221 235.078 39.726 234.179C36.0959 233.137 32.5805 231.815 29.2275 230.175C27.6022 226.96 25.9981 223.735 24.3728 220.52C29.5712 222.694 34.9712 224.437 40.5728 225.75C40.6619 224.894 40.7347 224.036 40.8173 223.149C34.9245 221.725 29.2252 219.794 23.8176 217.373C23.4594 217.205 23.0961 217.202 22.7573 217.278C19.7844 211.348 16.8065 205.433 13.8336 199.503C23.0876 202.643 32.4989 205.481 42.0414 208.041C42.1028 207.165 42.169 206.275 42.2189 205.383C32.0302 202.634 21.9923 199.552 12.1381 196.141C9.4575 190.819 6.78189 185.482 4.10134 180.16C16.9135 184.3 29.8944 188.154 42.9901 191.727C43.04 190.835 43.0686 189.953 43.107 189.044C29.3978 185.287 15.8297 181.225 2.42373 176.846C-0.862835 170.321 -4.14449 163.781 -7.43106 157.256C9.2723 163.235 26.2969 168.639 43.6051 173.478C43.6222 172.579 43.6394 171.681 43.6614 170.768C25.7284 165.731 8.09855 160.07 -9.18382 153.809C-11.3515 149.508 -13.5142 145.193 -15.6818 140.892C4.13249 144.712 23.9468 148.533 43.7611 152.353C43.752 151.48 43.743 150.608 43.7388 149.72C23.455 145.803 3.16624 141.899 -17.134 137.978C-21.3304 129.626 -25.5268 121.273 -29.7232 112.921C-5.96442 121.324 18.4368 128.578 43.3708 134.648C43.3389 133.741 43.302 132.849 43.2701 131.942C17.7602 125.68 -7.18565 118.195 -31.4481 109.494C-35.2999 101.848 -39.1353 94.2046 -42.9821 86.5445C-14.8391 92.4717 13.3203 98.4017 41.4633 104.329C41.3774 103.428 41.3078 102.529 41.2169 101.642C12.6535 95.6258 -15.91 89.6098 -44.4784 83.608C-45.9469 80.6915 -47.4154 77.775 -48.8676 74.8613C-50.6562 71.3178 -52.4236 67.7629 -54.2123 64.2194C-23.1746 70.1585 7.87943 76.1005 38.9171 82.0396C38.7935 81.1466 38.6749 80.2395 38.5349 79.3436C7.13732 73.3414 -24.2717 67.3221 -55.6694 61.3199C-58.4201 55.85 -61.1709 50.3801 -63.9217 44.9102C-31.1948 48.3363 1.53219 51.7625 34.2641 55.1745C34.0816 54.3012 33.8991 53.428 33.7002 52.5518C0.886531 49.1255 -31.9222 45.685 -64.7359 42.2586C-64.9208 42.2412 -65.0828 42.2579 -65.2448 42.2745C-69.1733 34.4498 -73.1068 26.6393 -77.0353 18.8146C-41.8139 23.3543 -6.59743 27.9081 28.624 32.4478C28.3597 31.5602 28.1003 30.6584 27.836 29.7708C-7.58175 25.1967 -42.9995 20.6226 -78.4221 16.0627C-81.3656 10.1984 -84.3141 4.34832 -87.2576 -1.51593C-52.2852 -0.354951 -17.2916 0.794731 17.6808 1.95571C17.3035 1.09336 16.9214 0.245165 16.5229 -0.605899C-18.5035 -1.76133 -53.5413 -2.93378 -88.5677 -4.08921C-91.6925 -10.3308 -94.8386 -16.5611 -97.9634 -22.8026C-63.921 -24.8092 -29.952 -25.2063 3.79146 -24.0055C3.22933 -24.8852 2.67865 -25.7479 2.10668 -26.5994C-31.4879 -27.729 -65.3032 -27.275 -99.1918 -25.2113C-104.285 -35.3284 -109.357 -45.4568 -114.45 -55.5738C-83.9636 -57.4379 -53.542 -58.0666 -23.2735 -57.5052C-24.1826 -58.3857 -25.0851 -59.235 -26.0039 -60.0872C-55.6081 -60.5621 -85.3556 -59.8754 -115.143 -58.0239C-115.322 -58.0101 -115.489 -57.9793 -115.649 -57.9173C-117.799 -62.1701 -119.927 -66.4343 -122.077 -70.6871C-97.7278 -73.0717 -73.3836 -75.4422 -49.0509 -77.8297C-50.2153 -78.5747 -51.3895 -79.2914 -52.5523 -79.9911C-76.1291 -77.6813 -99.7058 -75.3715 -123.278 -73.0759C-125.388 -77.2918 -127.515 -81.5106 -129.63 -85.7123C-131.796 -84.8753 -133.942 -83.9447 -136.037 -82.9601C-135.454 -81.7913 -134.871 -80.6224 -134.288 -79.4535C-148.875 -65.2017 -163.462 -50.9498 -178.045 -36.7121C-178.504 -35.1402 -178.887 -33.5398 -179.226 -31.9166C-163.831 -46.9433 -148.452 -61.9728 -133.053 -77.0136C-131.169 -73.2432 -129.265 -69.484 -127.381 -65.7135C-145.423 -47.8161 -163.453 -29.9016 -181.495 -12.0041C-181.543 -10.7658 -181.564 -9.50753 -181.568 -8.2464C-163.098 -26.5794 -144.622 -44.9265 -126.135 -63.2566C-123.203 -57.4094 -120.266 -51.5763 -117.334 -45.7291C-138.2 -25.698 -159.05 -5.66415 -179.916 14.3669C-179.755 15.4016 -179.594 16.4364 -179.405 17.4911C-158.303 -2.76901 -137.217 -23.032 -116.12 -43.2779C-113.551 -38.1853 -111.003 -33.0814 -108.433 -27.9888C-108.363 -27.8413 -108.288 -27.7079 -108.217 -27.5604C-129.252 -5.39573 -151.537 15.9189 -174.98 36.3241C-174.721 37.2259 -174.445 38.1305 -174.153 39.038C-150.565 18.5679 -128.148 -2.82857 -106.969 -25.0581C-106.643 -24.3999 -106.316 -23.7417 -105.984 -23.0977C-105.952 -22.9417 -105.882 -22.7942 -105.78 -22.6863C-103.636 -18.4193 -101.491 -14.1523 -99.3509 -9.87121C-119.951 15.0887 -141.868 39.292 -165.017 62.6934C-164.614 63.5303 -164.231 64.3785 -163.812 65.2183C-140.468 41.8059 -118.54 17.6197 -97.8838 -7.30043Z" fill="#286F7F"/>
<path d="M-2.25107 229.919C-2.25107 229.919 -102.588 323.659 -134.772 404.619C-145.692 432.098 -148.698 453.719 -147.889 470.29C-146.213 504.859 -109.485 515.399 -80.7454 489.579C-66.9572 477.193 -52.1014 458.983 -38.704 432.207C0.754013 353.347 -2.25107 229.919 -2.25107 229.919Z" fill="#BAE3DD"/>
<path d="M-94.9858 442.118C-92.5134 436.587 -90.0553 431.066 -87.5829 425.536C-68.0977 420.4 -48.6027 415.267 -29.1175 410.131C-28.8655 409.473 -28.6233 408.813 -28.3811 408.152C-47.8179 413.273 -67.2548 418.394 -86.6818 423.517C-84.353 418.294 -82.0097 413.061 -79.6809 407.837C-61.0354 402.618 -42.3988 398.249 -23.8232 394.779C-23.6241 394.147 -23.425 393.515 -23.2306 392.894C-41.6997 396.336 -60.2356 400.64 -78.7706 405.795C-76.5342 400.777 -74.2835 395.749 -72.0471 390.73C-54.3938 386.584 -36.7306 382.44 -19.0772 378.294C-18.9076 377.655 -18.7425 377.028 -18.5826 376.387C-36.1053 380.499 -53.6279 384.611 -71.1506 388.723C-68.7936 383.455 -66.451 378.197 -64.094 372.929C-47.5755 367.572 -31.0353 362.908 -14.5024 358.956C-14.3713 358.333 -14.2356 357.7 -14.1045 357.078C-30.4538 360.97 -46.8154 365.56 -63.1509 370.832C-60.7342 365.415 -58.3129 359.986 -55.8864 354.571C-41.0399 349.963 -26.1822 346.021 -11.3519 342.76C-11.245 342.146 -11.1335 341.519 -11.0265 340.904C-25.6536 344.108 -40.3133 347.981 -54.9525 352.497C-52.9792 348.084 -51.0156 343.669 -49.0423 339.257C-35.65 334.532 -22.2374 330.449 -8.81944 326.994C-8.73209 326.374 -8.64474 325.755 -8.54759 325.138C-21.7336 328.519 -34.9338 332.523 -48.09 337.137C-45.6871 331.754 -43.2842 326.371 -40.8812 320.988C-29.5253 315.844 -18.0129 311.935 -6.50871 309.301C-6.43575 308.691 -6.37258 308.08 -6.29961 307.47C-17.5378 310.024 -28.7659 313.807 -39.8785 318.742C-39.0607 316.905 -38.2474 315.08 -37.4198 313.246C-37.1627 313.002 -36.9714 312.655 -36.9948 312.287C-36.4033 310.965 -35.8071 309.631 -35.2156 308.308C-25.4128 303.188 -15.3233 299.857 -5.34833 298.441C-5.28515 297.829 -5.23636 297.227 -5.17319 296.615C-14.8516 298.008 -24.6292 301.144 -34.1525 305.937C-32.3503 301.9 -30.5527 297.874 -28.7505 293.837C-20.6049 290.283 -12.4004 287.354 -4.17606 285.043C-4.13248 284.427 -4.08369 283.825 -4.03031 283.211C-11.9743 285.432 -19.8847 288.237 -27.757 291.613C-26.0794 287.862 -24.4018 284.111 -22.7386 280.369C-17.2367 278.878 -11.7203 277.378 -6.2184 275.888C-5.30881 275.636 -4.39401 275.397 -3.48442 275.145C-3.44542 274.54 -3.40642 273.936 -3.37202 273.342C-4.72203 273.711 -6.07264 274.055 -7.40826 274.414C-12.2182 275.718 -17.0184 277.023 -21.8283 278.327C-20.4143 275.156 -19.0004 271.986 -17.5864 268.815C-12.6866 266.592 -7.76175 264.601 -2.82224 262.812C-2.78845 262.194 -2.76904 261.585 -2.74442 260.99C-7.38001 262.657 -11.982 264.506 -16.5791 266.557C-14.9199 262.851 -13.275 259.155 -11.6158 255.45C-8.56345 254.176 -5.49764 253.055 -2.42361 252.074C-2.4042 251.465 -2.38479 250.856 -2.37456 250.27C-5.13948 251.144 -7.89157 252.145 -10.6314 253.25C-9.63328 251.014 -8.63512 248.779 -7.63696 246.544C-5.84343 245.784 -4.0401 245.026 -2.24197 244.254C-2.22775 243.632 -2.22273 243.032 -2.2125 242.446C-3.68773 243.075 -5.16816 243.691 -6.64339 244.32C-5.15075 240.979 -3.66269 237.65 -2.17004 234.308C-2.20462 231.46 -2.25142 229.923 -2.25142 229.923C-2.25142 229.923 -3.47091 231.059 -5.67452 233.193C-7.33833 236.91 -8.99234 240.629 -10.6607 244.358C-10.9468 242.593 -11.3721 240.911 -11.8982 239.295C-12.3739 239.767 -12.8639 240.248 -13.3678 240.764C-12.7179 242.87 -12.2694 245.108 -12.0373 247.461C-13.2021 250.061 -14.3524 252.651 -15.5171 255.25C-16.077 251.824 -16.9351 248.558 -18.0756 245.493C-18.5461 245.979 -19.0264 246.462 -19.521 246.955C-18.3417 250.216 -17.488 253.706 -16.9951 257.38C-16.9649 257.625 -16.8489 257.788 -16.7054 257.882C-18.8356 262.661 -20.9755 267.437 -23.1056 272.216C-24.4843 266.547 -26.0696 260.995 -27.8569 255.549C-28.3319 256.046 -28.8214 256.553 -29.3057 257.073C-27.412 262.892 -25.749 268.837 -24.3163 274.931C-26.2339 279.231 -28.1515 283.53 -30.0744 287.816C-32.1017 280.091 -34.3213 272.473 -36.7232 264.966C-37.2075 265.486 -37.6774 265.997 -38.1662 266.528C-35.6486 274.386 -33.3423 282.373 -31.2568 290.487C-33.6138 295.755 -35.9611 301.024 -38.3135 306.281C-40.6395 295.861 -43.3794 285.652 -46.5037 275.66C-46.9828 276.194 -47.4618 276.727 -47.9409 277.261C-44.72 287.625 -41.922 298.222 -39.5615 309.062C-41.119 312.539 -42.6622 316.007 -44.2152 319.473C-48.6887 309.073 -53.1668 298.685 -57.6403 288.286C-58.0952 288.812 -58.5501 289.339 -59.0096 289.877C-54.4229 300.526 -49.846 311.174 -45.2547 321.811C-48.2583 328.54 -51.2666 335.28 -54.2703 342.008C-57.6215 327.248 -61.805 312.92 -66.7757 299.071C-67.2398 299.62 -67.6986 300.183 -68.1673 300.744C-63.1104 314.938 -58.8792 329.627 -55.5039 344.78C-58.2629 350.949 -61.0121 357.12 -63.7666 363.277C-69.8577 348.207 -75.9489 333.137 -82.0498 318.065C-82.4937 318.644 -82.9329 319.211 -83.3768 319.79C-77.1927 335.081 -70.9988 350.373 -64.8147 365.664C-65.8685 368.012 -66.9126 370.362 -67.9665 372.71C-69.2467 375.572 -70.5268 378.434 -71.7926 381.287C-78.8331 365.021 -85.8684 348.769 -92.9089 332.504C-93.3378 333.098 -93.7621 333.682 -94.191 334.276C-87.0731 350.722 -79.9552 367.167 -72.8321 383.626C-74.8054 388.038 -76.769 392.453 -78.7424 396.866C-87.6477 381.432 -96.5583 365.985 -105.464 350.552C-105.863 351.153 -106.263 351.754 -106.652 352.357C-97.7216 367.834 -88.7909 383.311 -79.8601 398.787C-79.8093 398.873 -79.7494 398.936 -79.6802 398.977C-82.4944 405.283 -85.3085 411.59 -88.1324 417.895C-97.2639 400.76 -106.4 383.637 -115.531 366.502C-115.915 367.144 -116.299 367.786 -116.673 368.43C-107.491 385.651 -98.3037 402.886 -89.1214 420.107C-91.2286 424.828 -93.3357 429.55 -95.4475 434.283C-106.281 419.28 -117.109 404.29 -127.943 389.287C-128.272 389.954 -128.597 390.634 -128.917 391.302C-118.069 406.321 -107.22 421.34 -96.3813 436.357C-98.6223 441.387 -100.873 446.415 -103.114 451.445C-115.3 438.738 -126.617 425.081 -137.025 410.558C-137.304 411.311 -137.573 412.066 -137.838 412.809C-127.442 427.228 -116.142 440.769 -103.988 453.395C-107.629 461.561 -111.275 469.713 -114.916 477.88C-125.856 466.533 -136.141 454.478 -145.751 441.769C-145.919 442.671 -146.068 443.552 -146.217 444.433C-136.786 456.815 -126.699 468.564 -115.989 479.635C-115.919 479.701 -115.85 479.741 -115.771 479.783C-117.301 483.216 -118.84 486.648 -120.369 490.081C-129.585 481.563 -138.787 473.035 -148.003 464.517C-148.01 465.442 -148.008 466.344 -147.986 467.249C-139.068 475.502 -130.151 483.755 -121.224 492.01C-122.74 495.408 -124.255 498.807 -125.781 502.204C-124.627 502.593 -123.445 502.913 -122.236 503.165C-121.816 502.218 -121.4 501.282 -120.97 500.337C-108.724 497.74 -96.4886 495.14 -84.2432 492.543C-83.2681 491.779 -82.2987 490.977 -81.3495 490.145C-94.2587 492.886 -107.178 495.624 -120.087 498.365C-118.728 495.332 -117.374 492.286 -116.016 489.254C-100.73 485.867 -85.4453 482.481 -70.155 479.109C-69.4908 478.378 -68.8219 477.635 -68.1583 476.879C-83.8164 480.346 -99.4746 483.814 -115.128 487.27C-113.026 482.56 -110.923 477.85 -108.82 473.14C-91.4975 469.635 -74.1699 466.119 -56.8469 462.614C-56.3616 461.931 -55.8718 461.237 -55.3774 460.532C-72.8991 464.081 -90.4207 467.63 -107.942 471.179C-106.113 467.073 -104.268 462.957 -102.439 458.851C-102.393 458.736 -102.337 458.623 -102.281 458.51C-83.7844 453.797 -65.3168 450.091 -46.951 447.415C-46.5625 446.761 -46.1838 446.105 -45.7953 445.452C-64.2394 448.111 -82.7952 451.798 -101.375 456.505C-101.144 455.98 -100.899 455.445 -100.668 454.92C-100.593 454.811 -100.547 454.696 -100.525 454.588C-98.991 451.143 -97.4473 447.7 -95.9133 444.256C-76.0878 437.68 -56.2288 432.088 -36.3893 427.505C-36.0792 426.834 -35.769 426.164 -35.4589 425.493C-55.3047 430.012 -75.1643 435.579 -94.9858 442.118Z" fill="#97C9CE"/>
<path d="M14.7702 277.199C15.0233 277.173 15.2755 277.126 15.5154 277.089C15.553 277.078 15.5916 277.087 15.6292 277.076C15.8692 277.04 16.1091 277.004 16.3359 276.958C16.3612 276.957 16.3989 276.946 16.4243 276.945C16.6765 276.898 16.9164 276.862 17.1555 276.806C17.2062 276.804 17.2562 276.783 17.3069 276.782C17.546 276.725 17.7859 276.689 18.025 276.633C18.0626 276.622 18.1134 276.62 18.1511 276.609C18.3901 276.553 18.6292 276.496 18.8683 276.44L18.8805 276.43C19.1196 276.373 19.3709 276.307 19.5968 276.241C19.6345 276.23 19.6721 276.219 19.7098 276.208C19.9357 276.142 20.1617 276.076 20.3876 276.01C20.4253 275.999 20.4629 275.988 20.5128 275.966C20.7387 275.9 20.9769 275.824 21.2029 275.758C21.2151 275.748 21.2283 275.757 21.2405 275.747C21.4665 275.681 21.6793 275.605 21.8921 275.529C21.9297 275.518 21.942 275.508 21.9796 275.497C22.1925 275.421 22.4053 275.346 22.6303 275.26C22.668 275.249 22.7056 275.238 22.7433 275.227C22.9561 275.151 23.1812 275.065 23.3809 274.98C23.3931 274.97 23.4185 274.969 23.443 274.948C23.6558 274.873 23.8678 274.777 24.0675 274.692C24.0797 274.681 24.0929 274.691 24.1051 274.681C24.3048 274.595 24.5167 274.5 24.7164 274.414C24.7541 274.403 24.7786 274.383 24.804 274.382C25.0037 274.297 25.1902 274.202 25.3899 274.116C25.4022 274.106 25.4398 274.095 25.4521 274.085C25.8506 273.894 26.2359 273.694 26.6213 273.494C26.6336 273.483 26.6712 273.472 26.6835 273.462C26.87 273.367 27.0435 273.262 27.2169 273.158C27.2291 273.148 27.2537 273.127 27.2791 273.126C27.6513 272.916 27.985 272.697 28.3187 272.479C28.331 272.468 28.331 272.468 28.3433 272.458C28.5036 272.344 28.6647 272.249 28.825 272.135C28.8373 272.125 28.8496 272.115 28.8618 272.104C29.0221 271.99 29.1701 271.886 29.3304 271.772C29.6257 271.544 29.9209 271.316 30.1907 271.089C30.2029 271.079 30.2152 271.068 30.2152 271.068C30.3501 270.955 30.4719 270.832 30.5945 270.728L30.6068 270.718C30.8635 270.481 31.0825 270.255 31.3007 270.01L31.3129 269.999C31.4224 269.886 31.5188 269.764 31.603 269.652L31.6152 269.641C31.8921 269.284 32.1314 268.938 32.319 268.573L32.3312 268.563C32.5066 268.208 32.6442 267.864 32.7311 267.522L32.7434 267.512C32.7767 267.401 32.7847 267.291 32.8049 267.17C32.8331 266.94 32.8367 266.73 32.8141 266.5C32.7967 266.391 32.7923 266.291 32.7495 266.182C32.7495 266.182 32.7495 266.182 32.7364 266.172C32.395 264.742 30.8565 263.553 27.8144 262.865C13.8997 259.698 -1.11832 267.767 -6.3929 271.007C-5.49324 268.884 -4.64436 266.762 -3.82173 264.62C-3.26219 263.156 -2.72806 261.692 -2.19392 260.228L-1.45628 258.179C0.469877 252.749 2.31899 247.301 4.33531 241.899C4.42634 241.947 4.51737 241.994 4.59613 242.052C4.84381 242.195 5.07837 242.329 5.32606 242.473C5.46959 242.559 5.61227 242.625 5.7558 242.711C5.97724 242.835 6.19781 242.939 6.41924 243.063C6.57503 243.139 6.73083 243.215 6.88662 243.291C7.10719 243.395 7.3155 243.509 7.52295 243.603C7.67874 243.679 7.83454 243.755 8.0026 243.821C8.21004 243.915 8.43062 244.019 8.65032 244.103C8.80612 244.179 8.96106 244.235 9.12912 244.3C9.34882 244.384 9.55627 244.479 9.77598 244.563C9.93091 244.619 10.099 244.684 10.2416 244.75C10.4614 244.834 10.6811 244.919 10.913 244.992C11.068 245.048 11.2229 245.104 11.3647 245.15C11.5967 245.224 11.8286 245.298 12.0737 245.381C12.2156 245.427 12.3574 245.474 12.4992 245.52C12.7697 245.603 13.027 245.676 13.2975 245.758C13.4131 245.785 13.5164 245.823 13.6197 245.86C13.9926 245.96 14.3655 246.06 14.7507 246.149C14.7761 246.149 14.8023 246.168 14.8277 246.167C15.1744 246.248 15.521 246.329 15.8677 246.409C15.9832 246.436 16.1111 246.453 16.2266 246.48C16.4831 246.533 16.7396 246.586 16.983 246.63C17.1239 246.656 17.2649 246.682 17.4058 246.708C17.6361 246.742 17.8672 246.796 18.0974 246.83C18.2384 246.856 18.3916 246.872 18.5448 246.888C18.775 246.922 18.9921 246.946 19.2224 246.98C19.3756 246.996 19.5288 247.011 19.6698 247.038C19.8869 247.062 20.104 247.086 20.3211 247.11C20.4743 247.126 20.6275 247.142 20.7807 247.158C20.9979 247.182 21.2272 247.196 21.4312 247.21C21.5844 247.226 21.7245 247.233 21.8777 247.249C22.1071 247.262 22.3234 247.267 22.5528 247.28C22.6928 247.287 22.8329 247.293 22.973 247.299C23.2024 247.313 23.444 247.317 23.6857 247.32C23.8126 247.317 23.9273 247.324 24.0674 247.33C24.3345 247.333 24.6138 247.325 24.8808 247.328C24.957 247.326 25.0463 247.334 25.1347 247.321C25.4902 247.312 25.8457 247.302 26.2011 247.293C26.2519 247.292 26.2896 247.281 26.3281 247.29C26.6328 247.281 26.9366 247.253 27.2413 247.245C27.3551 247.232 27.469 247.219 27.5837 247.226C27.8244 247.21 28.0398 247.194 28.2675 247.168C28.4067 247.154 28.5205 247.141 28.6598 247.127C28.8751 247.112 29.0774 247.086 29.2797 247.061C29.4189 247.047 29.5581 247.033 29.6842 247.01C29.8865 246.985 30.0888 246.959 30.2656 246.934C30.4048 246.921 30.5432 246.887 30.6824 246.873C30.8716 246.838 31.0616 246.823 31.2507 246.788C31.3899 246.774 31.5283 246.741 31.6675 246.727C31.8566 246.692 32.0458 246.657 32.2227 246.632C32.3487 246.609 32.5002 246.585 32.6263 246.561C32.8155 246.526 32.9915 246.482 33.1806 246.447C33.3067 246.423 33.4451 246.39 33.5712 246.366C33.7603 246.331 33.9486 246.276 34.1377 246.241C34.2507 246.208 34.3768 246.185 34.4897 246.152C34.7034 246.096 34.9048 246.051 35.1185 245.995C35.2192 245.972 35.2945 245.95 35.3952 245.928C35.6842 245.85 35.9731 245.772 36.2613 245.674C36.3488 245.642 36.4495 245.619 36.5371 245.587C36.7254 245.532 36.9259 245.467 37.1142 245.412C37.2394 245.368 37.3524 245.335 37.4776 245.292C37.6405 245.238 37.7911 245.194 37.9409 245.13C38.0661 245.086 38.1914 245.043 38.3166 245C38.4541 244.946 38.5916 244.892 38.7422 244.848C38.8674 244.805 38.9918 244.742 39.117 244.698C39.2545 244.645 39.3797 244.601 39.5041 244.538C39.6293 244.495 39.7537 244.432 39.8789 244.388C39.9911 244.335 40.1285 244.282 40.2407 244.229C40.365 244.165 40.4902 244.122 40.6146 244.059C40.7267 244.006 40.8388 243.953 40.9632 243.889C41.0875 243.826 41.1997 243.773 41.324 243.71C41.4361 243.657 41.5351 243.594 41.6472 243.541C41.7716 243.478 41.8837 243.425 41.9949 243.352C42.0939 243.289 42.1937 243.247 42.2804 243.194C42.4048 243.131 42.516 243.058 42.6281 243.005C42.7149 242.953 42.7893 242.911 42.876 242.859C43.3096 242.597 43.73 242.326 44.1119 242.046C44.1733 241.994 44.2354 241.962 44.2968 241.911C44.408 241.838 44.5061 241.755 44.6042 241.673C44.6655 241.621 44.7269 241.569 44.8013 241.527C44.8994 241.445 44.9853 241.373 45.0834 241.29C45.1447 241.238 45.206 241.187 45.2674 241.135C45.3532 241.063 45.4513 240.98 45.524 240.898C45.5854 240.847 45.6344 240.805 45.6826 240.744C45.7553 240.662 45.8412 240.59 45.9139 240.508C45.963 240.467 46.0111 240.405 46.0471 240.354C46.1198 240.273 46.1925 240.191 46.2652 240.109C46.3012 240.058 46.3502 240.017 46.3862 239.966C46.4589 239.884 46.5185 239.792 46.5912 239.71C46.6271 239.659 46.6508 239.619 46.6867 239.568C46.7463 239.476 46.819 239.394 46.8786 239.303C46.9023 239.262 46.9137 239.232 46.9374 239.191C46.997 239.099 47.0566 239.008 47.103 238.907L47.1153 238.896C47.316 238.541 47.4406 238.188 47.5143 237.836C47.5135 237.816 47.5249 237.786 47.5363 237.755C47.5574 237.655 47.5662 237.565 47.575 237.475C47.5733 237.435 47.5847 237.404 47.5952 237.354C47.604 237.264 47.6006 237.184 47.6094 237.094C47.6077 237.054 47.6059 237.014 47.6165 236.964C47.613 236.884 47.6096 236.804 47.593 236.714C47.5913 236.674 47.5764 236.625 47.5747 236.585C47.5712 236.505 47.5424 236.426 47.5258 236.336C47.511 236.287 47.5092 236.247 47.4821 236.207C47.4533 236.128 47.4244 236.049 47.3956 235.97C47.3807 235.92 47.3536 235.881 47.3396 235.851C47.3108 235.772 47.2566 235.694 47.2277 235.614C47.2006 235.575 47.1735 235.536 47.1595 235.506C47.1053 235.428 47.0633 235.339 47.009 235.26C46.9951 235.231 46.9557 235.202 46.9417 235.172C46.3223 234.369 45.2862 233.627 43.7351 233.029C31.1287 228.077 11.0616 237.251 4.99037 240.292C6.419 236.585 7.95004 232.895 9.67368 229.25L9.74383 229.109C9.80256 228.997 9.84902 228.896 9.89463 228.775C9.89463 228.775 9.89463 228.775 9.90689 228.764L10.9352 226.677C13.2426 222.127 15.9123 217.727 18.9444 213.477C19.6166 213.739 20.5086 214.085 21.6054 214.466C21.7218 214.513 21.8373 214.54 21.9538 214.587C22.4308 214.744 22.9473 214.93 23.4883 215.095C23.6301 215.142 23.7587 215.178 23.9005 215.224C24.2096 215.316 24.5317 215.417 24.8538 215.519C25.0858 215.592 25.3178 215.666 25.562 215.73C25.7423 215.785 25.9227 215.84 26.1284 215.895C26.7464 216.078 27.4021 216.25 28.0831 216.422C28.4175 216.513 28.7642 216.594 29.1108 216.675C33.4397 217.729 38.5734 218.581 43.7697 218.532C44.0236 218.525 44.2653 218.529 44.5192 218.522C44.5954 218.52 44.6715 218.518 44.7477 218.516C44.9377 218.501 45.1286 218.506 45.3186 218.491C45.3948 218.489 45.4455 218.487 45.5217 218.485C45.7625 218.469 46.0164 218.462 46.2572 218.446C46.308 218.444 46.3334 218.444 46.3841 218.442C46.5873 218.437 46.7895 218.411 46.9795 218.396C47.0557 218.394 47.1188 218.383 47.1949 218.381C47.3849 218.365 47.5749 218.35 47.7518 218.326C47.8026 218.324 47.8534 218.323 47.891 218.312C48.1187 218.286 48.3464 218.26 48.574 218.234C48.6248 218.232 48.6878 218.221 48.7255 218.21C48.9024 218.185 49.0792 218.16 49.2561 218.136C49.3192 218.124 49.3822 218.112 49.4453 218.1C49.6475 218.075 49.8498 218.05 50.0389 218.015C50.0643 218.014 50.0766 218.004 50.0897 218.013C50.3042 217.978 50.5188 217.942 50.7333 217.906C50.7963 217.894 50.834 217.883 50.8848 217.882C51.0485 217.848 51.2123 217.813 51.3638 217.789C51.4146 217.788 51.4645 217.767 51.5153 217.765C51.7167 217.72 51.9181 217.675 52.1195 217.629C52.1195 217.629 52.1317 217.619 52.1448 217.628C52.334 217.593 52.5223 217.538 52.6983 217.494C52.7359 217.483 52.799 217.471 52.8366 217.46C52.9873 217.416 53.151 217.382 53.3016 217.338C53.3393 217.327 53.3647 217.326 53.4023 217.315C53.5906 217.26 53.7666 217.215 53.9418 217.151C53.9672 217.15 53.9794 217.14 53.9917 217.129C54.1423 217.085 54.3052 217.031 54.4427 216.977C54.4803 216.966 54.518 216.955 54.5557 216.944C54.7185 216.89 54.8814 216.836 55.0312 216.772L55.0435 216.761C55.2063 216.707 55.3684 216.633 55.5181 216.569C55.5304 216.558 55.5558 216.558 55.5803 216.537C55.7178 216.483 55.8422 216.42 55.9797 216.366C55.9919 216.356 56.0296 216.345 56.0418 216.335C56.3282 216.197 56.6024 216.07 56.8502 215.923C56.8625 215.913 56.8748 215.903 56.9001 215.902C57.0114 215.829 57.1235 215.776 57.2347 215.703C57.247 215.693 57.247 215.693 57.2593 215.682C57.494 215.526 57.7034 215.371 57.8873 215.216C57.8996 215.205 57.9118 215.195 57.9241 215.185C58.1203 215.02 58.2789 214.865 58.4366 214.691C58.5093 214.609 58.5689 214.518 58.6294 214.446C58.6417 214.436 58.6417 214.436 58.6539 214.425C58.774 214.262 58.8678 214.08 58.9362 213.898L58.9484 213.888C58.9827 213.797 59.0046 213.716 59.0388 213.625C59.0388 213.625 59.0511 213.615 59.0379 213.605C59.0809 213.424 59.0986 213.244 59.1031 213.054L59.1022 213.034C59.0244 211.526 57.1868 209.886 53.0009 208.318C43.0414 204.616 26.3582 209.74 20.073 211.948C22.8956 208.143 25.9781 204.472 29.3722 200.952L31.3811 198.909C32.0513 198.242 32.7346 197.584 33.418 196.925C36.1899 194.302 39.1193 191.795 42.1931 189.393C42.3751 189.488 42.5826 189.583 42.8163 189.696C42.9336 189.763 43.0631 189.82 43.1927 189.876C43.4526 190.009 43.7379 190.142 44.0495 190.293C44.9843 190.748 46.1257 191.277 47.4876 191.911C47.941 192.109 48.4084 192.336 48.9135 192.553C49.1726 192.666 49.4317 192.779 49.6785 192.902C52.2965 194.072 55.5202 195.435 59.3103 196.963C59.4915 197.038 59.6727 197.114 59.8531 197.169C59.9178 197.197 59.9695 197.216 60.0342 197.244C60.1507 197.291 60.2793 197.327 60.4089 197.384C60.4737 197.412 60.5507 197.43 60.6155 197.458C60.7319 197.505 60.8474 197.532 60.9639 197.579C61.0409 197.597 61.1188 197.635 61.1958 197.653C61.2991 197.69 61.4278 197.726 61.5311 197.764C61.6081 197.782 61.686 197.819 61.763 197.837C61.8663 197.875 61.9819 197.902 62.1106 197.938C62.1876 197.956 62.2778 197.984 62.3425 198.012C62.4581 198.039 62.5614 198.076 62.6901 198.113C62.7671 198.13 62.8441 198.148 62.9089 198.177C63.0376 198.213 63.1532 198.24 63.2687 198.267C63.3457 198.285 63.3974 198.304 63.4744 198.322C63.6285 198.357 63.7826 198.393 63.9366 198.429C63.9752 198.438 64.0137 198.447 64.0522 198.456C64.2448 198.501 64.4374 198.546 64.63 198.591C64.6816 198.609 64.7455 198.617 64.7963 198.616C64.9373 198.642 65.0782 198.669 65.2069 198.705C65.2839 198.723 65.3478 198.731 65.4249 198.749C65.5404 198.776 65.6682 198.793 65.7838 198.82C65.8608 198.838 65.9501 198.845 66.0272 198.863C66.1427 198.89 66.2574 198.897 66.3598 198.914C66.4369 198.932 66.5262 198.94 66.6155 198.947C66.7179 198.965 66.8457 198.981 66.9481 198.998C67.0374 199.006 67.1145 199.024 67.2038 199.032C67.3062 199.049 67.4209 199.056 67.5365 199.083C67.6258 199.09 67.7028 199.108 67.7921 199.116C67.9068 199.123 68.0092 199.14 68.137 199.157C68.2263 199.164 68.2902 199.172 68.3795 199.18C68.5074 199.197 68.622 199.204 68.7499 199.22C68.8138 199.228 68.8899 199.226 68.9539 199.235C69.1325 199.25 69.3364 199.264 69.515 199.28C69.579 199.288 69.6297 199.287 69.6937 199.295C69.8215 199.312 69.9484 199.308 70.0762 199.325C70.1655 199.332 70.2417 199.33 70.331 199.338C70.4457 199.345 70.5473 199.342 70.6497 199.359C70.739 199.367 70.8152 199.365 70.9167 199.362C71.0183 199.359 71.1076 199.367 71.2092 199.364C71.2985 199.372 71.3869 199.36 71.4762 199.367C71.5778 199.365 71.6671 199.372 71.7686 199.369C71.8579 199.377 71.9464 199.365 72.0357 199.372C72.1372 199.37 72.2134 199.368 72.315 199.365C72.4165 199.362 72.4927 199.36 72.5943 199.357C72.6836 199.365 72.772 199.353 72.8736 199.35C72.9751 199.347 73.0513 199.345 73.1529 199.342C73.2291 199.34 73.3306 199.338 73.4068 199.336C73.5084 199.333 73.5968 199.321 73.6861 199.328C73.7623 199.326 73.8507 199.314 73.9269 199.312C74.1169 199.297 74.32 199.291 74.5223 199.266C74.5853 199.254 74.6492 199.262 74.7123 199.251C74.8138 199.248 74.9145 199.225 75.0161 199.223C75.0923 199.221 75.1553 199.209 75.2315 199.207C75.3199 199.195 75.4338 199.182 75.5222 199.169C75.5853 199.157 75.6614 199.155 75.7245 199.144C75.8129 199.131 75.9267 199.118 76.0152 199.106C76.0782 199.094 76.1544 199.092 76.2174 199.081C76.3059 199.068 76.4066 199.046 76.5082 199.043C76.5712 199.031 76.6342 199.019 76.6973 199.008C76.798 198.985 76.8864 198.973 76.9871 198.95C77.0502 198.938 77.1132 198.927 77.1763 198.915C77.277 198.892 77.3654 198.88 77.4661 198.857C77.5169 198.856 77.5668 198.835 77.6176 198.833C77.7183 198.811 77.819 198.788 77.9197 198.765C77.9451 198.764 77.9827 198.753 77.995 198.743C78.3724 198.653 78.749 198.543 79.1133 198.443C79.1387 198.443 79.1509 198.432 79.1763 198.432C79.2893 198.399 79.3769 198.366 79.4767 198.324C79.5144 198.313 79.552 198.302 79.5897 198.291C79.6772 198.258 79.7771 198.216 79.8778 198.193C79.9154 198.182 79.9531 198.171 80.003 198.15C80.0906 198.117 80.1781 198.085 80.278 198.042C80.3156 198.031 80.3533 198.02 80.3901 197.989C80.4777 197.957 80.5652 197.925 80.652 197.872C80.6896 197.861 80.7141 197.841 80.7518 197.83C80.8394 197.797 80.9261 197.745 81.0137 197.713C81.0382 197.692 81.0636 197.691 81.0881 197.671C81.1879 197.628 81.2747 197.576 81.3491 197.534C81.3614 197.524 81.3614 197.524 81.3736 197.513C81.7835 197.292 82.1549 197.062 82.4869 196.804C82.4992 196.793 82.5114 196.783 82.5114 196.783C82.585 196.721 82.6463 196.669 82.7199 196.608C82.7322 196.597 82.7567 196.577 82.769 196.566C82.8303 196.515 82.9039 196.453 82.9652 196.401C82.9897 196.38 83.002 196.37 83.0265 196.349C83.0878 196.298 83.136 196.236 83.2096 196.175C83.2341 196.154 83.2464 196.144 83.2578 196.113C83.306 196.052 83.3673 196 83.4278 195.929C83.4401 195.918 83.4646 195.898 83.4637 195.878C83.5119 195.817 83.5724 195.745 83.6206 195.684C83.6328 195.673 83.6328 195.673 83.6451 195.663C83.8729 195.347 84.0623 195.022 84.1999 194.679C84.2219 194.598 84.2569 194.527 84.2789 194.446C84.278 194.427 84.2903 194.416 84.2894 194.396C84.3114 194.316 84.321 194.245 84.3561 194.175C84.3552 194.155 84.3666 194.124 84.3658 194.104C84.3755 194.034 84.3974 193.953 84.4071 193.883C84.4062 193.863 84.4176 193.833 84.4168 193.813C84.4264 193.743 84.4352 193.653 84.4449 193.582C84.4441 193.562 84.4555 193.532 84.4546 193.512C84.4511 193.432 84.4608 193.362 84.4696 193.272C84.4688 193.252 84.4679 193.232 84.467 193.212C84.4553 192.352 84.1731 191.41 83.5951 190.386C78.1483 180.815 52.7359 186.002 44.0308 188.094C49.0895 184.27 54.5166 180.736 60.2639 177.554C60.2893 177.553 60.2893 177.553 60.3147 177.552L62.4623 176.365C65.879 174.545 69.4024 172.841 73.0202 171.265C73.0587 171.274 73.0973 171.283 73.1358 171.292C73.4054 171.354 73.6496 171.418 73.9061 171.471C73.9447 171.48 73.97 171.479 74.0086 171.488C74.2651 171.541 74.5216 171.594 74.7903 171.637C74.8157 171.636 74.8542 171.645 74.8674 171.655C75.1361 171.698 75.4049 171.741 75.6737 171.784C75.7244 171.782 75.7761 171.801 75.8269 171.799C76.0825 171.833 76.3513 171.875 76.6192 171.898C76.6699 171.897 76.7085 171.906 76.7593 171.904C77.0403 171.937 77.3082 171.96 77.6015 171.982L77.6269 171.981C77.8948 172.004 78.1749 172.017 78.4551 172.029C78.5059 172.028 78.5444 172.037 78.5952 172.035C78.8753 172.048 79.1424 172.051 79.4094 172.054C79.4602 172.052 79.511 172.051 79.5749 172.059C79.8419 172.062 80.1221 172.074 80.4014 172.067C80.4399 172.076 80.4776 172.065 80.5284 172.064C80.7954 172.066 81.0747 172.059 81.3409 172.042C81.3663 172.041 81.3917 172.041 81.417 172.04C81.6963 172.032 81.9879 172.015 82.2541 171.998C82.3049 171.996 82.3557 171.995 82.4064 171.993C82.6726 171.976 82.951 171.949 83.2172 171.932C83.268 171.93 83.3188 171.929 83.3696 171.928C83.648 171.9 83.9265 171.873 84.2049 171.845C84.2303 171.845 84.2425 171.834 84.2679 171.834C84.5464 171.806 84.8117 171.769 85.0901 171.742C85.1278 171.731 85.1786 171.729 85.204 171.729C85.4693 171.692 85.76 171.654 86.0253 171.617C86.0761 171.615 86.1391 171.604 86.1768 171.593C86.4543 171.545 86.7197 171.508 86.9972 171.461C87.0349 171.45 87.0857 171.449 87.1233 171.438C87.4009 171.39 87.6654 171.333 87.9429 171.286C87.9552 171.275 87.9683 171.285 87.9806 171.275C88.2704 171.217 88.5349 171.16 88.8247 171.102C88.8624 171.091 88.9254 171.079 88.9631 171.068C89.2275 171.011 89.5042 170.944 89.7687 170.887C89.8186 170.866 89.8694 170.864 89.9193 170.843C90.196 170.776 90.4727 170.708 90.7363 170.631C90.7617 170.63 90.7862 170.61 90.8116 170.609C91.0752 170.532 91.3397 170.475 91.6033 170.398C91.6409 170.387 91.6786 170.376 91.704 170.375C91.9676 170.298 92.2311 170.221 92.4947 170.144C92.5446 170.123 92.5954 170.122 92.6453 170.1C92.9089 170.023 93.1594 169.937 93.423 169.86C93.4606 169.849 93.5106 169.827 93.5482 169.816C93.8241 169.729 94.0745 169.642 94.3504 169.555C94.6131 169.458 94.8889 169.371 95.1517 169.274C95.1893 169.263 95.2392 169.241 95.2769 169.23C95.5274 169.144 95.777 169.037 96.0274 168.95C96.0773 168.929 96.115 168.918 96.1649 168.897C96.4145 168.79 96.665 168.703 96.9146 168.597C96.9522 168.586 96.9645 168.575 97.0021 168.564C97.2395 168.468 97.4891 168.361 97.7264 168.265C97.7387 168.255 97.7763 168.244 97.7886 168.233C98.0382 168.127 98.2755 168.03 98.512 167.914C98.5619 167.893 98.5996 167.882 98.6495 167.86C98.8737 167.755 99.1233 167.648 99.3475 167.542C99.3852 167.531 99.4219 167.5 99.4596 167.489C99.6961 167.373 99.9325 167.256 100.169 167.14L100.181 167.13C100.418 167.013 100.654 166.897 100.865 166.782C100.903 166.771 100.927 166.75 100.965 166.739C101.176 166.623 101.4 166.517 101.624 166.391C101.674 166.37 101.698 166.349 101.748 166.328C101.959 166.212 102.183 166.087 102.394 165.971C102.418 165.95 102.444 165.95 102.468 165.929C102.679 165.813 102.877 165.688 103.088 165.572C103.1 165.562 103.113 165.552 103.138 165.551C103.336 165.426 103.547 165.31 103.745 165.185C103.77 165.164 103.82 165.143 103.844 165.122C104.042 164.997 104.228 164.882 104.426 164.757C104.45 164.736 104.488 164.725 104.525 164.694C104.723 164.569 104.907 164.434 105.105 164.309L105.118 164.299C105.302 164.164 105.488 164.049 105.673 163.914C105.697 163.893 105.71 163.883 105.734 163.862C105.907 163.738 106.079 163.613 106.252 163.489C106.277 163.468 106.301 163.447 106.338 163.416C106.51 163.292 106.67 163.157 106.83 163.043C106.855 163.023 106.867 163.012 106.891 162.992C107.051 162.857 107.223 162.733 107.357 162.599L107.37 162.589C107.529 162.455 107.676 162.331 107.81 162.197C107.835 162.177 107.859 162.156 107.872 162.146C108.019 162.022 108.153 161.888 108.275 161.765C108.299 161.744 108.311 161.734 108.336 161.713C108.47 161.58 108.604 161.446 108.726 161.323C108.738 161.313 108.738 161.313 108.75 161.302C108.872 161.179 109.006 161.046 109.115 160.913C109.127 160.902 109.139 160.892 109.152 160.882C109.273 160.759 109.382 160.626 109.479 160.503C109.503 160.483 109.502 160.463 109.527 160.442C109.623 160.319 109.732 160.187 109.828 160.064C109.84 160.054 109.84 160.034 109.864 160.013C110.056 159.748 110.223 159.504 110.378 159.25C110.39 159.239 110.389 159.219 110.401 159.209C110.472 159.087 110.543 158.965 110.602 158.854C110.614 158.843 110.613 158.823 110.638 158.803C110.709 158.681 110.755 158.56 110.8 158.439C110.8 158.439 110.812 158.428 110.799 158.419C110.845 158.297 110.89 158.176 110.924 158.065L110.923 158.045C110.956 157.934 110.99 157.824 111.01 157.703C111.009 157.683 111.021 157.673 111.02 157.653C110.908 157.416 110.93 157.315 110.938 157.205C110.937 157.185 110.937 157.185 110.936 157.165C110.952 156.945 110.954 156.715 110.933 156.506C110.932 156.486 110.932 156.486 110.931 156.466C110.914 156.356 110.897 156.267 110.867 156.167C110.866 156.147 110.853 156.138 110.852 156.118C110.823 156.019 110.793 155.919 110.738 155.821C110.738 155.821 110.725 155.811 110.724 155.791C110.682 155.703 110.627 155.604 110.572 155.506L110.559 155.496C110.504 155.397 110.436 155.309 110.369 155.221C110.356 155.211 110.355 155.191 110.342 155.182C110.274 155.094 110.195 155.016 110.102 154.928C110.089 154.919 110.076 154.909 110.063 154.899C109.996 154.831 109.903 154.744 109.798 154.666C108.628 153.768 106.556 153.174 103.371 152.999C84.7989 152.056 75.1031 164.461 72.1864 169.028C68.4556 170.637 64.8323 172.383 61.3158 174.247L59.3785 175.298C53.4315 178.566 47.7924 182.196 42.5349 186.125C45.9965 179.754 53.42 163.591 44.0734 157.013C41.5959 155.27 39.3715 154.679 37.4627 154.92C37.4504 154.931 37.4373 154.921 37.425 154.931C36.869 155.006 36.3287 155.15 35.8295 155.364L35.8172 155.374C35.318 155.587 34.8346 155.87 34.3913 156.202L34.3791 156.212C33.9358 156.544 33.5083 156.945 33.1333 157.385C33.121 157.396 33.121 157.396 33.1088 157.406C33.036 157.488 32.9511 157.58 32.8915 157.672C32.6023 158.039 32.3271 158.436 32.0528 158.854C32.0406 158.864 32.0291 158.894 32.0169 158.905C31.9573 158.996 31.9108 159.097 31.839 159.199C31.8267 159.21 31.8276 159.23 31.8153 159.24C31.6382 159.555 31.4743 159.879 31.3112 160.223C31.299 160.233 31.2998 160.253 31.2876 160.264C31.2411 160.365 31.1946 160.466 31.1482 160.567C31.1368 160.598 31.1131 160.638 31.1017 160.669C31.0552 160.77 31.021 160.861 30.9877 160.971C30.9763 161.002 30.9649 161.032 30.9412 161.073C30.8158 161.406 30.6904 161.739 30.5904 162.072C30.5667 162.112 30.5684 162.152 30.557 162.183C30.5228 162.274 30.5017 162.374 30.4807 162.475C30.4701 162.525 30.4473 162.585 30.4368 162.636C30.4157 162.736 30.3815 162.827 30.3604 162.928C30.3376 162.988 30.3271 163.039 30.3174 163.109C30.2963 163.209 30.2621 163.3 30.2533 163.39C30.2428 163.441 30.2322 163.491 30.2217 163.541C30.1787 163.722 30.1357 163.903 30.118 164.084C30.1084 164.154 30.0987 164.224 30.0759 164.285C30.0671 164.375 30.0451 164.456 30.0363 164.546C30.0266 164.616 30.0047 164.697 30.0081 164.777C29.9993 164.867 29.9774 164.947 29.9686 165.037C29.9466 165.118 29.9501 165.198 29.9413 165.288C29.9325 165.378 29.9228 165.449 29.914 165.539C29.8938 165.659 29.8858 165.769 29.8787 165.9C29.8576 166 29.862 166.1 29.8409 166.201C29.8329 166.311 29.8241 166.401 29.8162 166.511C29.8065 166.581 29.8099 166.661 29.8003 166.731C29.7915 166.822 29.7958 166.922 29.787 167.012C29.7904 167.092 29.7807 167.162 29.7842 167.242C29.7885 167.342 29.7806 167.452 29.7717 167.542C29.7621 167.612 29.7646 167.672 29.7681 167.752C29.7627 167.922 29.7696 168.082 29.7643 168.252C29.766 168.292 29.7677 168.332 29.7572 168.382C29.7501 168.512 29.7684 168.642 29.7613 168.772C29.7639 168.832 29.7674 168.912 29.7699 168.972C29.7743 169.071 29.7794 169.191 29.7837 169.291C29.7863 169.351 29.7898 169.431 29.7924 169.491C29.7976 169.611 29.815 169.72 29.8202 169.84C29.8228 169.9 29.8253 169.96 29.8279 170.02C29.848 170.189 29.868 170.359 29.888 170.528C29.8889 170.548 29.9029 170.578 29.8915 170.608C29.9106 170.757 29.9298 170.907 29.949 171.056C29.9516 171.116 29.9664 171.166 29.9821 171.235C29.9996 171.345 30.0179 171.474 30.0353 171.584C30.0379 171.644 30.0536 171.713 30.0685 171.763C30.099 171.882 30.1042 172.002 30.1348 172.121C30.1496 172.17 30.1522 172.23 30.1671 172.28C30.2002 172.459 30.2325 172.618 30.278 172.787C30.2788 172.807 30.2919 172.816 30.2797 172.827C30.312 172.986 30.3565 173.135 30.3888 173.294C30.4037 173.343 30.4185 173.393 30.4342 173.462C30.4648 173.582 30.4954 173.701 30.5382 173.81C30.5662 173.869 30.5688 173.929 30.5968 173.988C30.6273 174.107 30.6702 174.216 30.7007 174.335C30.7156 174.385 30.7304 174.434 30.7453 174.484C30.803 174.642 30.8484 174.811 30.9192 174.979C30.9192 174.979 30.9323 174.989 30.9201 174.999C30.9777 175.157 31.0354 175.316 31.0931 175.474C31.108 175.524 31.1228 175.573 31.1631 175.622C31.2059 175.731 31.2619 175.85 31.3047 175.958C31.3327 176.018 31.3475 176.067 31.3755 176.126C31.4183 176.235 31.4743 176.354 31.5294 176.452C31.5442 176.502 31.5845 176.551 31.5993 176.6C31.6824 176.758 31.7524 176.906 31.8354 177.064C33.0545 179.391 34.1775 181.26 35.1825 182.753C35.4808 183.185 35.752 183.577 36.0223 183.95C36.2926 184.322 36.5489 184.666 36.8166 184.978C37.1928 185.448 37.5541 185.868 37.8875 186.229C37.9942 186.346 38.1009 186.463 38.2077 186.581C38.6338 187.029 39.0048 187.379 39.3478 187.67C39.4274 187.748 39.5062 187.806 39.5981 187.873C39.7294 187.969 39.8484 188.076 39.9534 188.153C36.8559 190.596 33.8906 193.154 31.0819 195.808L28.9223 197.895C25.0106 201.789 21.4252 205.883 18.2031 210.148C19.0526 203.038 20.3413 182.559 7.34285 181.477C6.78166 181.432 6.27211 181.406 5.76343 181.4C5.63647 181.403 5.52178 181.396 5.39482 181.399L5.36943 181.4C5.24248 181.403 5.14091 181.406 5.02708 181.419L5.00169 181.42C4.90013 181.423 4.7863 181.436 4.68473 181.438L4.65934 181.439C4.4816 181.444 4.36778 181.457 4.26621 181.46L4.24082 181.46C4.13925 181.463 4.03855 181.486 3.93699 181.488C3.92473 181.499 3.9116 181.489 3.89933 181.499C3.8109 181.512 3.69707 181.525 3.60863 181.537C3.59636 181.547 3.58324 181.538 3.57097 181.548C3.48254 181.561 3.38183 181.583 3.2934 181.596C3.28113 181.606 3.26801 181.596 3.25574 181.607C3.16731 181.619 3.07887 181.631 2.99129 181.664C2.97903 181.674 2.9659 181.664 2.95364 181.675C2.8652 181.687 2.78989 181.709 2.70232 181.741C2.69005 181.752 2.67692 181.742 2.66466 181.752C2.58935 181.774 2.50091 181.787 2.41334 181.819C2.40108 181.829 2.38795 181.82 2.37568 181.83C2.30037 181.852 2.22506 181.874 2.13748 181.906C2.12522 181.917 2.11209 181.907 2.09983 181.917C2.02452 181.939 1.94921 181.961 1.87476 182.003C1.8625 182.014 1.84937 182.004 1.83711 182.014C1.7618 182.036 1.69962 182.068 1.61204 182.1C1.59977 182.111 1.59977 182.111 1.57438 182.111C1.5122 182.143 1.43689 182.165 1.36244 182.207C1.35017 182.217 1.35017 182.217 1.32478 182.218C1.2626 182.25 1.20042 182.281 1.12597 182.323C1.1137 182.334 1.1137 182.334 1.10144 182.344C1.03926 182.376 0.977075 182.407 0.902624 182.449C0.890362 182.46 0.890362 182.46 0.878099 182.47C0.81591 182.502 0.754592 182.553 0.692409 182.585C0.680141 182.595 0.680147 182.595 0.667884 182.605C0.605701 182.637 0.544377 182.689 0.495321 182.73L0.483053 182.74C0.433997 182.782 0.372678 182.833 0.310495 182.865L0.298227 182.875C0.249171 182.917 0.187853 182.968 0.138791 183.009L0.126534 183.02C0.0774724 183.061 0.0161539 183.113 -0.019775 183.164C-0.019775 183.164 -0.019775 183.164 -0.0320376 183.174C-0.0933618 183.226 -0.129291 183.277 -0.190609 183.328C-0.238807 183.389 -0.287862 183.431 -0.336054 183.492C-1.39804 184.8 -1.6111 186.635 -1.20096 188.773C-1.18438 188.863 -1.1678 188.953 -1.15123 189.042C-1.15123 189.042 -1.15123 189.042 -1.1381 189.052C-1.12152 189.141 -1.10494 189.231 -1.0761 189.31L-1.07524 189.33C-1.05866 189.419 -1.02981 189.499 -1.01324 189.588C-1.00011 189.598 -1.01238 189.608 -0.99925 189.618C-0.982671 189.707 -0.95383 189.787 -0.924124 189.886C-0.910997 189.895 -0.92326 189.906 -0.910133 189.915C-0.893554 190.005 -0.864718 190.084 -0.822744 190.173C-0.821886 190.193 -0.808753 190.203 -0.821015 190.213C-0.792174 190.292 -0.775601 190.382 -0.733632 190.47C-0.732768 190.49 -0.719641 190.5 -0.718777 190.52C-0.689935 190.599 -0.673356 190.689 -0.631388 190.778C-0.630524 190.798 -0.617397 190.807 -0.616532 190.827C-0.587691 190.906 -0.55885 190.986 -0.529144 191.085C-0.52828 191.105 -0.515152 191.114 -0.514294 191.134C-0.485446 191.214 -0.443478 191.302 -0.414637 191.382C-0.413772 191.402 -0.400651 191.411 -0.38666 191.441C-0.357818 191.52 -0.315849 191.609 -0.287002 191.688C-0.286144 191.708 -0.259889 191.727 -0.259025 191.747C-0.230184 191.827 -0.188216 191.915 -0.159374 191.995C-0.15851 192.015 -0.144519 192.044 -0.131391 192.054C-0.10255 192.133 -0.060582 192.222 -0.0317407 192.301C-0.0308761 192.321 -0.0168906 192.351 -0.0037635 192.36C0.0250837 192.44 0.0670522 192.528 0.0958939 192.608C0.109885 192.637 0.110743 192.657 0.136997 192.677C0.165839 192.756 0.207813 192.845 0.236655 192.924C0.250646 192.953 0.25151 192.973 0.277764 192.993C0.306605 193.072 0.348574 193.161 0.402805 193.239C0.416796 193.269 0.417655 193.289 0.443909 193.308C0.485883 193.397 0.526987 193.466 0.568961 193.555C0.582947 193.584 0.583811 193.604 0.597797 193.634C0.639765 193.723 0.680875 193.792 0.722843 193.88C0.736835 193.91 0.750826 193.94 0.763953 193.949C0.805922 194.038 0.847025 194.107 0.888993 194.196C0.902985 194.226 0.916976 194.255 0.930103 194.265C0.972072 194.354 1.01318 194.423 1.05515 194.511C1.06914 194.541 1.08313 194.571 1.10938 194.59C1.15135 194.679 1.20559 194.757 1.23443 194.837C1.24842 194.866 1.2624 194.896 1.2764 194.925C1.31836 195.014 1.3726 195.093 1.41457 195.182C1.42856 195.211 1.44255 195.241 1.45567 195.25C1.49764 195.339 1.55187 195.418 1.59385 195.507C1.60783 195.536 1.62183 195.566 1.64808 195.585C1.70231 195.664 1.74428 195.753 1.79851 195.831C1.8125 195.861 1.83876 195.88 1.85275 195.91C1.90699 195.988 1.94895 196.077 2.00319 196.156C2.01718 196.185 2.03117 196.215 2.05742 196.234C2.11165 196.313 2.15362 196.401 2.20786 196.48C2.22184 196.51 2.2481 196.529 2.24896 196.549C2.30319 196.627 2.35829 196.726 2.41253 196.804C2.42652 196.834 2.45277 196.853 2.45363 196.873C2.50787 196.952 2.56296 197.05 2.61719 197.129C2.63118 197.158 2.64431 197.168 2.6583 197.198C2.72566 197.286 2.76763 197.375 2.83499 197.463C2.83586 197.483 2.8621 197.502 2.86297 197.522C2.93033 197.61 2.98543 197.709 3.05278 197.797C3.06591 197.807 3.06678 197.827 3.09303 197.846C3.14813 197.944 3.21548 198.033 3.29597 198.13C3.3091 198.14 3.30997 198.16 3.30997 198.16C3.37819 198.268 3.44555 198.356 3.51377 198.464C4.04297 199.24 4.60984 200.005 5.2021 200.769C5.26945 200.857 5.34994 200.955 5.4173 201.043C5.44355 201.062 5.44442 201.082 5.47067 201.101C5.5249 201.18 5.60453 201.258 5.65877 201.336C5.67275 201.366 5.71213 201.395 5.72612 201.424C5.78036 201.503 5.84686 201.571 5.90109 201.65C5.9282 201.689 5.96759 201.718 5.98158 201.747C6.04808 201.816 6.10231 201.894 6.15568 201.953C6.18279 201.992 6.20991 202.031 6.24929 202.06C6.31579 202.128 6.35689 202.197 6.42339 202.266C6.45051 202.305 6.49075 202.354 6.51787 202.393C6.57124 202.452 6.62547 202.53 6.67884 202.589C6.71908 202.638 6.74621 202.677 6.78645 202.726C6.83983 202.784 6.89319 202.843 6.94743 202.921C6.98767 202.97 7.01479 203.009 7.05503 203.058C7.1084 203.117 7.16178 203.175 7.21514 203.234C7.25539 203.283 7.29563 203.332 7.32275 203.371C7.37612 203.43 7.42948 203.488 7.48286 203.547C7.5231 203.596 7.56334 203.645 7.60359 203.694C7.65696 203.752 7.71033 203.811 7.7637 203.869C7.80394 203.918 7.84419 203.967 7.88443 204.016C7.93781 204.074 7.99118 204.133 8.04455 204.192C8.08479 204.24 8.12503 204.289 8.17754 204.328C8.23091 204.387 8.28428 204.445 8.33765 204.504C8.3779 204.553 8.41814 204.601 8.47065 204.64C8.52402 204.699 8.56427 204.748 8.61764 204.806C8.65788 204.855 8.71124 204.914 8.76375 204.952C8.81712 205.011 8.85737 205.06 8.923 205.108C8.96325 205.157 9.01661 205.215 9.06912 205.254C9.12249 205.312 9.16274 205.361 9.22838 205.41C9.26862 205.458 9.32199 205.517 9.3745 205.556C9.42786 205.614 9.46811 205.663 9.53375 205.711C9.57399 205.76 9.63963 205.808 9.67987 205.857C9.73325 205.916 9.78575 205.954 9.83912 206.013C9.87936 206.062 9.945 206.11 9.98524 206.159C10.0255 206.208 10.0911 206.256 10.1314 206.305C10.1716 206.354 10.2372 206.402 10.2775 206.451C10.3177 206.5 10.3834 206.548 10.4236 206.597C10.4638 206.646 10.5295 206.694 10.5697 206.743C10.61 206.792 10.6756 206.84 10.7158 206.889C10.7561 206.938 10.8217 206.986 10.862 207.035C10.9022 207.084 10.9679 207.133 11.0081 207.181C11.0483 207.23 11.114 207.279 11.1542 207.327C11.1945 207.376 11.2601 207.425 11.3003 207.474C11.3406 207.522 11.4062 207.571 11.4465 207.62C11.4867 207.668 11.5523 207.717 11.5926 207.766C11.6451 207.804 11.6985 207.863 11.751 207.901C11.8035 207.94 11.8568 207.999 11.9094 208.037C11.9619 208.076 12.0152 208.134 12.0677 208.173C12.1203 208.211 12.1605 208.26 12.2261 208.309C12.2786 208.347 12.332 208.406 12.3845 208.444C12.437 208.483 12.4773 208.532 12.5298 208.57C12.5823 208.609 12.6357 208.667 12.6882 208.706C12.7407 208.745 12.7809 208.794 12.8334 208.832C12.8859 208.871 12.9393 208.929 12.9918 208.968C13.0443 209.006 13.0846 209.055 13.1371 209.094C13.1896 209.133 13.2429 209.191 13.2955 209.23C13.348 209.268 13.3882 209.317 13.4407 209.356C13.4932 209.394 13.5466 209.453 13.5991 209.491C13.6516 209.53 13.7041 209.569 13.7444 209.618C13.7969 209.656 13.8625 209.704 13.9027 209.753C13.9553 209.792 14.0078 209.83 14.048 209.879C14.1005 209.918 14.153 209.957 14.2064 210.015C14.2589 210.054 14.3114 210.092 14.3639 210.131C14.4164 210.169 14.4821 210.218 14.5346 210.256C14.5871 210.295 14.6396 210.333 14.679 210.362C14.7315 210.401 14.784 210.439 14.8496 210.488C14.9021 210.526 14.9546 210.565 14.994 210.594C15.0465 210.632 15.099 210.671 15.1515 210.71C15.204 210.748 15.2434 210.777 15.2959 210.816C15.3484 210.854 15.4009 210.893 15.4535 210.931C15.506 210.97 15.5453 210.999 15.5979 211.038C15.6504 211.076 15.7029 211.115 15.7554 211.153C15.8079 211.192 15.8473 211.221 15.8998 211.259C15.9523 211.298 16.0048 211.337 16.0573 211.375C16.0967 211.404 16.1492 211.443 16.1886 211.472C16.2411 211.51 16.2936 211.549 16.3592 211.597C16.3986 211.626 16.4511 211.665 16.4905 211.693C16.543 211.732 16.6086 211.78 16.6734 211.809C16.6865 211.818 16.7128 211.837 16.7259 211.847C14.4466 214.987 12.3748 218.222 10.5095 221.53C9.99059 222.464 9.47167 223.398 8.97901 224.35L8.07609 226.104C6.21581 229.823 4.57437 233.605 3.04936 237.435C2.58863 230.889 -0.382239 217.433 -16.3648 212.592C-19.4942 211.646 -21.7521 211.456 -23.2863 211.837C-23.2863 211.837 -23.2986 211.847 -23.3117 211.838C-23.4501 211.871 -23.5753 211.915 -23.7005 211.958C-23.7005 211.958 -23.7128 211.968 -23.7259 211.959C-23.8512 212.002 -23.9633 212.055 -24.0885 212.098C-24.325 212.215 -24.5229 212.34 -24.72 212.485C-24.8058 212.557 -24.8917 212.63 -24.9644 212.711L-24.9767 212.722C-25.0494 212.804 -25.1221 212.886 -25.1817 212.977C-25.1817 212.977 -25.1817 212.977 -25.194 212.988C-25.3982 213.263 -25.5376 213.567 -25.6376 213.899C-25.6376 213.899 -25.6499 213.909 -25.6367 213.919C-25.6701 214.03 -25.6903 214.15 -25.7236 214.261C-25.7236 214.261 -25.7359 214.272 -25.7228 214.281C-25.7834 214.643 -25.8047 215.033 -25.7612 215.452L-25.7603 215.472C-25.7543 215.612 -25.736 215.741 -25.7168 215.891L-25.7159 215.911C-25.6462 216.349 -25.537 216.816 -25.3762 217.301C-25.3631 217.311 -25.3754 217.321 -25.3622 217.331C-25.3046 217.489 -25.26 217.638 -25.1892 217.806C-25.1761 217.816 -25.1752 217.836 -25.1752 217.836C-25.1175 217.994 -25.0467 218.162 -24.9759 218.33L-24.9628 218.34C-24.8211 218.676 -24.6533 219.031 -24.4854 219.387C-24.4723 219.396 -24.4714 219.416 -24.4714 219.416C-24.3875 219.594 -24.2913 219.761 -24.2073 219.939C-24.2065 219.959 -24.1933 219.969 -24.1793 219.998C-24.0831 220.166 -23.9861 220.353 -23.8899 220.52C-23.8767 220.53 -23.8759 220.55 -23.8759 220.55C-23.6695 220.914 -23.4377 221.278 -23.2051 221.662C-23.1919 221.671 -23.1911 221.691 -23.1779 221.701C-23.0686 221.878 -22.9461 222.065 -22.8114 222.241C-22.7974 222.271 -22.7843 222.28 -22.7703 222.31C-22.6479 222.497 -22.5131 222.673 -22.3907 222.86C-22.3776 222.869 -22.3636 222.899 -22.3504 222.908C-22.0801 223.281 -21.7836 223.673 -21.487 224.065C-21.4739 224.075 -21.473 224.095 -21.4599 224.104C-21.312 224.29 -21.1642 224.476 -21.0164 224.662C-21.0024 224.692 -20.9761 224.711 -20.9621 224.741C-20.8143 224.927 -20.6664 225.113 -20.5063 225.288C-20.4801 225.308 -20.4661 225.337 -20.4398 225.357C-20.2788 225.552 -20.1187 225.728 -19.9578 225.924C-19.9446 225.933 -19.9315 225.943 -19.9306 225.963C-19.7697 226.158 -19.5964 226.344 -19.4232 226.529C-19.4101 226.539 -19.3969 226.548 -19.3961 226.568C-19.2228 226.754 -19.0496 226.939 -18.8764 227.124C-18.8501 227.144 -18.823 227.183 -18.7967 227.202C-18.6235 227.387 -18.4502 227.573 -18.2648 227.748C-18.2254 227.777 -18.2114 227.806 -18.172 227.835C-17.9988 228.021 -17.8001 228.205 -17.6269 228.39C-17.6006 228.41 -17.5998 228.43 -17.5735 228.449C-17.3872 228.644 -17.2016 228.819 -17.003 229.004C-16.9899 229.013 -16.9768 229.023 -16.9636 229.033C-16.765 229.217 -16.5664 229.402 -16.3678 229.586C-16.3284 229.615 -16.3144 229.645 -16.275 229.674C-16.0895 229.849 -15.8909 230.034 -15.6931 230.198C-15.6537 230.227 -15.6266 230.266 -15.5872 230.295C-15.3886 230.48 -15.1908 230.645 -14.9922 230.829C-14.9659 230.849 -14.9266 230.878 -14.9126 230.907C-14.7017 231.081 -14.4899 231.276 -14.279 231.45L-14.2659 231.46C-14.055 231.634 -13.831 231.818 -13.6201 231.992C-13.5807 232.021 -13.5545 232.04 -13.5151 232.069C-13.3042 232.244 -13.0933 232.418 -12.8833 232.572C-12.8439 232.601 -12.8045 232.63 -12.7651 232.659C-12.5542 232.833 -12.3311 232.997 -12.121 233.152C-12.0816 233.181 -12.0554 233.2 -12.016 233.229C-11.7797 233.403 -11.5566 233.567 -11.3203 233.74C-11.3072 233.75 -11.3072 233.75 -11.294 233.76C-11.0709 233.923 -10.8346 234.097 -10.6114 234.261C-10.5852 234.28 -10.5458 234.309 -10.5195 234.329C-10.2964 234.493 -10.061 234.646 -9.8378 234.81C-9.79842 234.839 -9.75904 234.868 -9.71966 234.897C-9.48424 235.051 -9.2742 235.205 -9.03878 235.359C-8.9994 235.388 -8.96002 235.417 -8.90837 235.435C-8.67295 235.589 -8.43752 235.743 -8.18898 235.906C-8.17585 235.915 -8.1496 235.935 -8.13647 235.944C-7.90104 236.098 -7.65336 236.241 -7.41794 236.395C-7.39168 236.414 -7.36544 236.434 -7.32692 236.443C-7.07923 236.586 -6.84381 236.74 -6.60924 236.873C-6.56986 236.902 -6.51822 236.921 -6.47884 236.95C-6.24427 237.083 -5.99659 237.227 -5.76203 237.361C-5.72265 237.389 -5.671 237.408 -5.63162 237.437C-5.38394 237.58 -5.13711 237.704 -4.87716 237.837C-4.85091 237.856 -4.8124 237.865 -4.79927 237.875C-4.55245 237.998 -4.29248 238.131 -4.04566 238.254C-4.03253 238.264 -3.99402 238.273 -3.98089 238.283C-3.72094 238.416 -3.47412 238.539 -3.21502 238.652C-3.16339 238.671 -3.124 238.7 -3.08548 238.709C-2.83866 238.832 -2.57958 238.945 -2.33361 239.048C-2.28197 239.067 -2.24259 239.096 -2.19094 239.115C-1.93186 239.228 -1.67277 239.341 -1.4268 239.444C-1.38829 239.453 -1.36202 239.472 -1.32352 239.481C-1.06442 239.594 -0.793072 239.697 -0.533991 239.81C-0.520865 239.82 -0.507724 239.829 -0.495467 239.819C-0.224118 239.922 0.0472307 240.024 0.305454 240.117C0.343977 240.126 0.395623 240.145 0.421878 240.164C0.680101 240.257 0.938336 240.35 1.19656 240.444C1.2482 240.462 1.29985 240.481 1.33837 240.49C1.48017 240.536 1.62198 240.582 1.77691 240.638C-0.389355 246.394 -2.36215 252.215 -4.42599 257.988L-5.40135 260.714C-6.57223 263.914 -7.79476 267.096 -9.12059 270.24C-12.7476 264.249 -24.8707 245.479 -34.0351 244.294C-36.8339 243.939 -38.835 244.692 -40.0696 246.125C-40.0941 246.146 -40.0933 246.166 -40.1178 246.186C-40.3228 246.442 -40.5147 246.707 -40.6927 247.001C-40.7041 247.032 -40.7163 247.042 -40.7277 247.072C-40.8802 247.366 -41.0319 247.68 -41.1451 248.003C-41.1565 248.033 -41.1556 248.053 -41.167 248.084C-41.2232 248.255 -41.267 248.416 -41.3232 248.588C-41.3232 248.588 -41.3355 248.598 -41.3223 248.608C-41.3662 248.769 -41.3969 248.94 -41.44 249.121C-41.4514 249.151 -41.4505 249.171 -41.4619 249.201C-41.4927 249.372 -41.5226 249.563 -41.5402 249.743C-41.5393 249.763 -41.5516 249.774 -41.5507 249.793C-41.5683 249.974 -41.5737 250.144 -41.5913 250.324C-41.5905 250.344 -41.6019 250.375 -41.5879 250.404C-41.5924 250.594 -41.5969 250.784 -41.5882 250.984C-41.5874 251.004 -41.5857 251.044 -41.5848 251.064C-41.577 251.244 -41.5693 251.423 -41.5484 251.613C-41.5475 251.633 -41.5467 251.653 -41.5327 251.682C-41.524 251.882 -41.49 252.081 -41.456 252.28C-41.4543 252.32 -41.4403 252.35 -41.4517 252.38C-41.4308 252.569 -41.3845 252.758 -41.3636 252.948C-41.3628 252.967 -41.3619 252.987 -41.361 253.007C-41.327 253.206 -41.2799 253.415 -41.2327 253.624C-41.231 253.664 -41.2039 253.703 -41.2021 253.743C-41.1427 253.941 -41.1087 254.14 -41.0362 254.348C-41.0231 254.358 -41.0353 254.368 -41.0222 254.378C-40.9496 254.586 -40.8894 254.804 -40.8168 255.012C-40.802 255.062 -40.788 255.091 -40.7732 255.141C-40.6281 255.557 -40.4445 255.982 -40.2486 256.397C-40.2338 256.446 -40.2067 256.486 -40.1918 256.535C-40.0939 256.742 -39.9959 256.95 -39.8849 257.167C-39.8718 257.176 -39.8709 257.196 -39.8709 257.196C-39.7607 257.393 -39.6636 257.581 -39.5535 257.778C-39.5263 257.817 -39.4984 257.876 -39.4712 257.915C-39.3479 258.122 -39.2377 258.319 -39.1021 258.515C-39.0882 258.545 -39.0619 258.564 -39.0479 258.594C-38.9254 258.781 -38.8161 258.958 -38.6814 259.134C-38.6543 259.173 -38.614 259.222 -38.5869 259.261C-38.4513 259.458 -38.3035 259.644 -38.1548 259.85C-38.1277 259.889 -38.1014 259.908 -38.0743 259.947C-37.9396 260.124 -37.8057 260.28 -37.671 260.456C-37.6439 260.496 -37.6036 260.545 -37.5642 260.574C-37.4033 260.769 -37.2432 260.945 -37.0699 261.13C-37.0428 261.169 -36.9903 261.208 -36.9632 261.247C-36.8162 261.413 -36.6569 261.569 -36.4977 261.725C-36.4583 261.754 -36.4312 261.793 -36.3918 261.822C-36.2063 261.997 -36.0208 262.172 -35.8353 262.347C-35.7828 262.385 -35.7557 262.425 -35.7032 262.463C-35.5185 262.618 -35.3593 262.774 -35.1624 262.919C-35.1361 262.938 -35.0968 262.967 -35.0705 262.986C-34.8727 263.151 -34.6496 263.315 -34.4518 263.479C-34.3993 263.518 -34.3468 263.557 -34.2943 263.595C-34.0974 263.74 -33.8873 263.894 -33.6782 264.029C-33.6651 264.038 -33.6388 264.058 -33.6257 264.067C-33.3903 264.221 -33.168 264.365 -32.9325 264.519C-32.88 264.557 -32.8153 264.585 -32.7627 264.624C-32.5151 264.767 -32.2796 264.921 -32.0328 265.044C-24.4559 269.201 -17.3625 270.99 -12.8549 271.77C-11.6258 271.977 -10.6032 272.109 -9.79864 272.198C-12.0547 277.346 -14.632 282.414 -17.7766 287.296L-17.8362 287.388C-17.8844 287.449 -17.9194 287.52 -17.9676 287.581L-19.0175 289.169C-19.0175 289.169 -19.0175 289.169 -19.0167 289.189C-19.1008 289.301 -19.1718 289.423 -19.2559 289.535L-19.2919 289.586C-20.0218 290.635 -20.765 291.675 -21.5466 292.706C-30.9754 305.114 -43.9647 315.718 -59.3459 323.617C-60.8384 324.376 -59.1006 326.059 -57.6205 325.31C-44.0171 318.328 -32.2221 309.206 -23.0949 298.645C-21.0008 296.22 -19.0756 293.709 -17.3045 291.163L-15.9312 289.116C-12.5203 283.927 -9.6906 278.523 -7.23468 272.999C-7.03865 273.124 -6.83035 273.238 -6.62204 273.352C-6.58266 273.381 -6.51788 273.41 -6.4785 273.439C-6.21769 273.592 -5.9446 273.734 -5.67154 273.877C-5.64528 273.896 -5.61988 273.895 -5.59363 273.915C-5.33368 274.048 -5.07373 274.181 -4.81378 274.314C-4.76214 274.332 -4.73587 274.352 -4.6965 274.381C-4.42429 274.503 -4.16433 274.636 -3.89211 274.759C-3.84047 274.778 -3.7757 274.806 -3.73632 274.835C-3.46411 274.958 -3.20502 275.071 -2.93366 275.173C-2.89516 275.182 -2.85576 275.211 -2.81725 275.22C-2.54589 275.323 -2.29994 275.426 -2.02858 275.529C-1.99006 275.538 -1.97694 275.548 -1.95069 275.567C-1.67933 275.67 -1.39571 275.762 -1.13749 275.855C-1.08584 275.874 -1.03421 275.892 -0.98256 275.911C-0.712065 275.994 -0.453845 276.087 -0.171094 276.159C-0.119448 276.178 -0.0809212 276.187 -0.029275 276.205C0.24122 276.288 0.523965 276.36 0.794459 276.443L0.807585 276.453C1.09033 276.525 1.37309 276.598 1.65584 276.67C1.70749 276.689 1.75827 276.687 1.80991 276.706C2.07953 276.769 2.34917 276.832 2.63106 276.884C2.69497 276.892 2.74661 276.911 2.79739 276.91C3.07929 276.962 3.34891 277.025 3.61768 277.068C3.64306 277.067 3.68158 277.076 3.69471 277.085C3.96348 277.128 4.21998 277.181 4.47561 277.215C4.51413 277.224 4.56492 277.222 4.60342 277.231C4.8722 277.274 5.15322 277.306 5.40885 277.34C5.47277 277.348 5.52355 277.347 5.58746 277.355C5.85536 277.378 6.12412 277.42 6.39203 277.443C6.43055 277.452 6.48133 277.451 6.51985 277.46C6.78774 277.483 7.03026 277.506 7.28504 277.519C7.31043 277.519 7.34894 277.528 7.37433 277.527C7.64223 277.55 7.90928 277.553 8.18944 277.565C8.24022 277.564 8.30413 277.572 8.35491 277.571C8.62195 277.574 8.87672 277.587 9.14376 277.59C9.19454 277.588 9.24533 277.587 9.2961 277.586C9.56314 277.588 9.83018 277.591 10.0972 277.594L10.1226 277.593C10.3897 277.596 10.669 277.589 10.9351 277.572C10.9859 277.57 11.0367 277.569 11.0875 277.568C11.3414 277.561 11.6076 277.544 11.8615 277.537C11.9122 277.536 11.963 277.534 12.0261 277.523C12.2923 277.506 12.5584 277.488 12.8115 277.462C12.8369 277.461 12.8623 277.46 12.8877 277.46C13.1284 277.443 13.3815 277.416 13.6345 277.39C13.6853 277.388 13.723 277.377 13.7738 277.376C14.0268 277.349 14.2799 277.322 14.5198 277.286C14.6564 277.212 14.7072 277.211 14.7702 277.199Z" fill="#3D4775"/>
<path d="M26.2195 317.57C26.2195 317.57 -72.2714 398.383 -88.4727 471.336C-93.9738 496.088 -91.2386 515.895 -85.2063 531.259C-72.6423 563.296 -23.0307 575.162 5.49758 552.962C19.1796 542.316 32.4483 526.344 41.2857 502.385C67.3199 431.782 26.2195 317.57 26.2195 317.57Z" fill="#2F8C91"/>
<path d="M-26.81 508.211C-25.3647 503.246 -23.9119 498.289 -22.4665 493.324C0.605666 489.704 23.6853 486.092 46.7669 482.467C46.8835 481.871 47 481.275 47.0997 480.677C24.0896 484.286 1.07947 487.894 -21.9307 491.502C-20.5621 486.815 -19.1914 482.115 -17.8228 477.428C4.15708 473.679 26.395 470.727 48.8194 468.588C48.8718 468.018 48.9411 467.449 48.9936 466.878C26.6859 468.986 4.58361 471.897 -17.2849 475.593C-15.9693 471.084 -14.6537 466.575 -13.3381 462.066C7.7234 459.255 28.7754 456.45 49.8369 453.639C49.8556 453.063 49.8743 452.488 49.8857 451.904C28.9915 454.691 8.08046 457.476 -12.8137 460.263C-11.439 455.536 -10.0474 450.811 -8.67262 446.083C10.5785 442.086 30.0765 438.732 49.774 436.049C49.7496 435.474 49.7325 434.906 49.6986 434.336C30.2136 436.982 10.9228 440.277 -8.12855 444.208C-6.70699 439.342 -5.28543 434.477 -3.87127 429.604C13.4956 426.208 31.0798 423.423 48.8266 421.268C48.7832 420.704 48.723 420.137 48.6797 419.572C31.1623 421.692 13.8116 424.416 -3.32926 427.742C-2.17461 423.781 -1.0105 419.814 0.144169 415.853C15.6353 412.267 31.3572 409.259 47.2647 406.844C47.1876 406.274 47.118 405.713 47.0409 405.143C31.3911 407.507 15.9385 410.445 0.701789 413.945C2.10979 409.112 3.51779 404.28 4.9258 399.447C17.7197 395.348 31.0878 392.403 44.8271 390.642C44.7311 390.084 44.6351 389.525 44.5318 388.959C31.1102 390.67 18.0512 393.51 5.50929 397.426C5.99218 395.783 6.46766 394.131 6.95055 392.488C7.20659 392.278 7.33063 391.973 7.20186 391.63C7.54759 390.434 7.90074 389.247 8.24648 388.052C19.0766 383.887 30.8252 381.389 43.0031 380.657C42.8903 380.096 42.7849 379.542 42.6721 378.981C30.8658 379.707 19.4608 382.043 8.87266 385.92C9.93288 382.296 10.9836 378.677 12.0439 375.053C21.2634 372.24 30.7401 370.002 40.4381 368.349C40.3084 367.785 40.1862 367.23 40.0565 366.666C30.6951 368.26 21.535 370.4 12.6232 373.059C13.6013 369.692 14.5963 366.327 15.5744 362.959C22.088 361.899 28.5847 360.835 35.0983 359.775C36.1682 359.597 37.2625 359.429 38.3325 359.251C38.1933 358.693 38.0616 358.143 37.9299 357.593C36.3297 357.857 34.7335 358.094 33.1522 358.348C27.4697 359.271 21.7947 360.201 16.1123 361.124C16.943 358.272 17.7716 355.433 18.6023 352.581C24.1192 350.821 29.7369 349.248 35.4512 347.889C35.3047 347.322 35.1487 346.762 35.0001 346.209C29.6528 347.478 24.3821 348.924 19.2046 350.549C20.1766 347.222 21.1391 343.9 22.1184 340.581C25.597 339.585 29.1246 338.719 32.716 338.001C32.5526 337.433 32.3871 336.877 32.2291 336.33C29.0102 336.98 25.818 337.737 22.6863 338.606C23.2677 336.599 23.8565 334.599 24.438 332.592C26.4853 331.994 28.5253 331.389 30.5633 330.798C30.3925 330.221 30.2176 329.672 30.0501 329.13C28.3718 329.624 26.6936 330.117 25.0248 330.605C25.8948 327.608 26.7723 324.618 27.6519 321.614C26.7758 318.99 26.2595 317.569 26.2595 317.569C26.2595 317.569 25.059 318.548 22.9167 320.391C21.9427 323.732 20.9687 327.073 19.9947 330.413C19.0985 328.771 18.055 327.189 16.9002 325.66C16.4408 326.073 15.9719 326.493 15.4841 326.923C16.9313 328.909 18.1821 330.997 19.1932 333.187C18.5194 335.518 17.8287 337.847 17.1549 340.179C15.4101 336.977 13.35 333.921 10.9747 331.01C10.5152 331.424 10.0632 331.846 9.59221 332.278C12.0704 335.362 14.2008 338.636 15.9391 342.05C16.0506 342.28 16.2439 342.426 16.4622 342.521C15.2057 346.811 13.9587 351.096 12.7022 355.387C9.24531 350.07 5.55829 344.849 1.66742 339.722C1.21332 340.157 0.749779 340.597 0.293618 341.046C4.44072 346.528 8.34614 352.126 11.9951 357.823C10.8737 361.679 9.74283 365.541 8.62144 369.397C3.73546 362.144 -1.37862 354.974 -6.68917 347.906C-7.14533 348.355 -7.58463 348.806 -8.04282 349.268C-2.49085 356.675 2.83835 364.187 7.92792 371.801C6.55317 376.529 5.16898 381.262 3.79423 385.989C-2.29578 376.228 -8.83464 366.641 -15.7981 357.239C-16.2394 357.704 -16.6808 358.169 -17.1316 358.639C-9.92876 368.393 -3.18835 378.355 3.0769 388.493C2.17149 391.61 1.25663 394.732 0.351222 397.848C-8.44701 387.987 -17.2452 378.125 -26.0435 368.263C-26.4585 368.725 -26.8735 369.186 -27.298 369.654C-18.2946 379.753 -9.2817 389.846 -0.270871 399.953C-2.03612 406 -3.80137 412.047 -5.56662 418.094C-14.2778 404.264 -23.8866 390.781 -34.3507 377.709C-34.7699 378.198 -35.1795 378.681 -35.5987 379.169C-24.9174 392.57 -15.1272 406.39 -6.2893 420.577C-7.89973 426.117 -9.51757 431.648 -11.1375 437.194C-23.3931 422.924 -35.6561 408.646 -47.9117 394.376C-48.2991 394.883 -48.694 395.382 -49.072 395.884C-36.6335 410.367 -24.1948 424.85 -11.7468 439.328C-12.3615 441.441 -12.9762 443.554 -13.5983 445.658C-14.3427 448.227 -15.104 450.793 -15.8485 453.362C-29.6522 437.938 -43.4632 422.507 -57.2669 407.083C-57.6301 407.6 -58.0028 408.123 -58.3586 408.649C-44.3921 424.249 -30.4277 439.862 -16.4611 455.462C-17.6158 459.423 -18.7704 463.384 -19.9251 467.345C-35.8444 452.57 -51.7637 437.795 -67.6924 423.026C-68.0145 423.557 -68.3366 424.087 -68.6513 424.626C-52.6856 439.435 -36.7293 454.25 -20.7635 469.06C-20.6727 469.142 -20.5777 469.198 -20.4827 469.253C-22.1379 474.917 -23.7837 480.575 -25.4389 486.239C-42.1615 469.891 -58.8747 453.537 -75.5973 437.189C-75.8824 437.759 -76.177 438.336 -76.4621 438.906C-59.6506 455.35 -42.8392 471.795 -26.0183 488.233C-27.2591 492.478 -28.4906 496.717 -29.7315 500.962C-47.9457 486.485 -66.1768 472.006 -84.391 457.53C-84.6034 458.132 -84.8062 458.728 -85.0017 459.333C-66.7558 473.828 -48.512 488.337 -30.2661 502.832C-31.5912 507.346 -32.8994 511.863 -34.2244 516.378C-53.4632 503.932 -71.8884 490.671 -89.4238 476.661C-89.5452 477.345 -89.6646 478.016 -89.7672 478.69C-72.2774 492.604 -53.9074 505.774 -34.7237 518.129C-36.8565 525.458 -39.0061 532.784 -41.1388 540.113C-58.4003 529.002 -75.0327 517.269 -91.0103 504.972C-90.9459 505.795 -90.87 506.599 -90.7867 507.41C-75.124 519.398 -58.8256 530.833 -41.9453 541.673C-41.8429 541.737 -41.7385 541.787 -41.6225 541.818C-42.5144 544.902 -43.4231 547.984 -44.3149 551.068C-58.5323 542.664 -72.7403 534.255 -86.9503 525.86C-86.6836 526.712 -86.3981 527.554 -86.1104 528.382C-72.3437 536.519 -58.5769 544.655 -44.8196 552.797C-45.7147 555.847 -46.6025 558.904 -47.4882 561.948C-45.9231 562.367 -44.3235 562.73 -42.7251 563.044C-42.4758 562.199 -42.2266 561.355 -41.9773 560.51C-27.2913 558.815 -12.6053 557.12 2.07125 555.431C3.07407 554.788 4.04933 554.1 5.01184 553.383C-10.4803 555.164 -25.965 556.953 -41.4665 558.74C-40.6638 556.015 -39.8779 553.287 -39.0751 550.561C-20.7812 548.323 -2.4853 546.071 15.8086 543.833C16.4303 543.202 17.0467 542.55 17.6557 541.89C-1.07799 544.187 -19.8211 546.489 -38.5622 548.778C-37.3234 544.546 -36.094 540.321 -34.8552 536.09C-14.0188 533.852 6.81019 531.606 27.6466 529.368C28.0579 528.761 28.4692 528.154 28.8751 527.526C7.80194 529.79 -13.2638 532.063 -34.3275 534.322C-33.2571 530.631 -32.1697 526.942 -31.0992 523.251C-31.066 523.145 -31.0422 523.046 -31.0089 522.94C-9.05556 519.65 13.1595 517.301 35.5595 515.888C35.8541 515.312 36.1412 514.728 36.421 514.136C13.9125 515.525 -8.41323 517.865 -30.4751 521.132C-30.3339 520.657 -30.1926 520.182 -30.0608 519.713C-30.0033 519.618 -29.97 519.513 -29.9725 519.416C-29.0712 516.326 -28.1699 513.237 -27.2591 510.142C-4.19434 505.212 19.2132 501.201 42.896 498.1C43.082 497.5 43.2849 496.904 43.4635 496.297C19.6709 499.327 -3.73456 503.324 -26.81 508.211Z" fill="#286F7F"/>
<path d="M-3.48421 420.491C-19.1279 418.596 -39.3393 425.886 -46.5047 428.747C-40.5941 421.997 -35.2586 415.139 -30.5254 408.176C21.8274 406.305 69.9034 384.861 69.9034 384.861C69.9034 384.861 58.2795 388.032 25.4834 391.203C-3.46504 394.005 -22.8664 403.142 -29.5672 406.752C-25.1948 400.19 -21.3578 393.558 -18.0668 386.862C-16.8741 384.433 -15.758 381.995 -14.7125 379.555C-0.792545 373.301 23.5584 377.578 46.3666 374.086C63.5322 371.463 79.1822 351.159 79.1822 351.159C79.1822 351.159 62.8868 368.171 36.1426 366.076C14.782 364.403 -6.79573 375.032 -14.6394 379.38C-11.3289 371.61 -8.7493 363.769 -6.92073 355.888C-2.1322 355.212 13.8505 352.829 29.5019 349.187C47.9396 344.891 87.1461 329.282 87.1461 329.282C87.1461 329.282 69.936 329.718 46.3292 334.222C27.2579 337.867 0.0398109 351.691 -6.7666 355.249C-5.28195 348.695 -4.30351 342.114 -3.8419 335.509C0.871959 334.405 16.8094 330.615 33.1589 326.016C52.6366 320.534 96.6784 295.885 96.6784 295.885C96.6784 295.885 82.2136 299.933 51.1713 308.352C24.4865 315.594 1.98666 330.683 -3.80608 334.78C-3.42211 328.824 -3.4514 322.855 -3.90459 316.876C-1.16072 312.595 4.58376 299.738 -1.69586 273.336C-9.07647 242.286 -14.5073 232.785 -14.5073 232.785C-14.5073 232.785 -26.0768 289.623 -6.70891 316.583C-6.28236 322.003 -6.2248 327.313 -6.46561 332.513C-11.4512 327.459 -29.9107 309.535 -54.6392 295.283C-83.7215 278.529 -93.1921 274.367 -93.1921 274.367C-93.1921 274.367 -53.6772 310.005 -34.6104 320.052C-19.5643 327.974 -9.92081 332.005 -6.51757 333.36C-6.91206 340.461 -7.90807 347.358 -9.38759 354.019C-14.3437 349.127 -33.9847 330.905 -56.8104 324.799C-83.2765 317.718 -96.7028 303.115 -96.7028 303.115C-96.7028 303.115 -88.3486 319.508 -55.7586 333.202C-28.7248 344.565 -13.7994 352.234 -9.49367 354.527C-11.4768 363.267 -14.2931 371.608 -17.7436 379.517C-21.5279 374.951 -34.1127 361.259 -54.7791 353.075C-79.8611 343.14 -104.503 324.788 -104.503 324.788C-104.503 324.788 -80.9226 353.447 -52.0165 367.986C-31.1699 378.472 -21.9416 380.623 -18.4054 381.008C-22.4182 389.989 -27.2231 398.412 -32.437 406.225C-35.0059 401.986 -44.4571 388.32 -66.2423 375.342C-92.4473 359.725 -112.76 347.685 -112.76 347.685C-112.76 347.685 -63.8789 398.169 -33.0751 407.189C-38.325 414.93 -43.9733 422.058 -49.7017 428.53C-51.4016 424.641 -57.7196 413.043 -75.2708 404.157C-96.6603 393.33 -102.99 386.04 -109.805 375.529C-109.805 375.529 -100.401 399.019 -85.6985 407.709C-68.4991 417.871 -54.9483 422.099 -49.913 428.767C-53.7406 433.089 -57.5991 437.107 -61.3635 440.819C-91.6749 470.616 -123.746 487.526 -124.068 487.702C-124.709 488.042 -124.894 488.716 -124.484 489.226C-124.427 489.289 -124.37 489.351 -124.302 489.409C-123.851 489.757 -123.137 489.825 -122.569 489.54C-122.241 489.372 -89.8627 472.303 -59.2703 442.25C-55.1111 438.165 -51.1824 434.029 -47.4676 429.844C-40.9393 429.79 -17.1033 429.641 -1.42883 430.358C16.8734 431.194 51.7545 409.117 51.7545 409.117C51.7545 409.117 15.8671 422.836 -3.48421 420.491Z" fill="#E5674E"/>
<path d="M164.394 111.843C164.394 111.843 139.133 -17.7798 66.8065 -67.0672C42.2555 -83.7926 17.7571 -90.5252 -3.90466 -92.1054C-49.0835 -95.4145 -96.4385 -54.7618 -90.5034 -17.79C-87.6577 -0.0524714 -78.4518 19.7955 -57.0843 39.2635C5.84774 96.6006 164.394 111.843 164.394 111.843Z" fill="#BAE3DD"/>
<path d="M-17.4 -26.99C-12.7135 -23.3078 -8.02541 -19.6435 -3.33888 -15.9613C-14.9265 7.23328 -26.5258 30.4388 -38.1134 53.6333C-37.5163 54.023 -36.9073 54.4017 -36.2984 54.7804C-24.7374 31.6437 -13.1763 8.50698 -1.62708 -14.6188C2.80571 -11.1482 7.23701 -7.65963 11.6698 -4.18904C0.965734 18.052 -10.8018 40.1544 -23.6487 62.0501C-23.0353 62.3749 -22.4218 62.6997 -21.8186 63.0175C-9.03655 41.2484 2.72041 19.2718 13.4022 -2.83249C17.6619 0.500653 21.9201 3.85177 26.1798 7.18492C15.0421 28.1221 3.89258 49.0703 -7.24514 70.0075C-6.59635 70.2995 -5.95782 70.5845 -5.29726 70.8655C5.76227 50.0838 16.8218 29.3021 27.8813 8.52037C32.3434 12.03 36.807 15.5217 41.2691 19.0314C32.7122 38.8465 23.2608 58.5815 12.9177 78.2004C13.5813 78.4455 14.2551 78.6976 14.9187 78.9427C25.1673 59.5442 34.5463 40.0257 43.0411 20.434C47.6367 24.035 52.2425 27.643 56.8264 31.255C48.8747 49.0331 40.0724 66.7232 30.4345 84.2785C31.1113 84.4946 31.7985 84.7179 32.4753 84.9341C41.9952 67.6211 50.7015 50.1693 58.5778 32.6436C62.3167 35.5823 66.0675 38.5102 69.8064 41.4489C63.3509 57.5717 56.0654 73.6206 47.9837 89.5807C48.6841 89.775 49.3845 89.9693 50.0732 90.1745C58.0338 74.4926 65.2218 58.7001 71.5989 42.8656C76.1637 46.4455 80.7285 50.0255 85.2933 53.6054C81.2549 67.4491 75.5123 81.2856 68.1687 94.9195C68.8706 95.0958 69.5843 95.2612 70.2862 95.4375C77.4838 82.1217 83.1213 68.6314 87.1987 55.0994C88.7579 56.3185 90.3069 57.5305 91.8544 58.7606C91.9242 59.0934 92.1837 59.3659 92.67 59.3947C93.7906 60.2756 94.9216 61.1636 96.0423 62.0445C93.4137 74.0978 88.2609 86.2097 80.7978 97.8997C81.5115 98.0651 82.2268 98.2126 82.9405 98.3779C90.1574 87.0325 95.2668 75.3089 98.0489 63.6267C101.472 66.3117 104.886 68.9896 108.309 71.6746C105.242 81.5841 101.329 91.4665 96.6188 101.278C97.3561 101.422 98.0713 101.569 98.7968 101.724C103.359 92.2479 107.155 82.7226 110.194 73.1545C113.373 75.6528 116.552 78.1511 119.732 80.6314C116.511 87.1869 113.288 93.7603 110.067 100.316C109.542 101.4 108.995 102.489 108.469 103.574C109.196 103.71 109.923 103.846 110.64 103.976C111.426 102.367 112.245 100.761 113.03 99.1701C115.845 93.4391 118.649 87.719 121.464 81.988C124.154 84.095 126.844 86.202 129.535 88.3091C127.796 94.2827 125.743 100.25 123.419 106.204C124.168 106.336 124.919 106.451 125.647 106.569C127.842 100.984 129.775 95.4095 131.45 89.8101C134.588 92.2803 137.727 94.7325 140.864 97.2027C139.642 100.907 138.213 104.604 136.601 108.289C137.352 108.404 138.102 108.518 138.832 108.619C140.294 105.306 141.582 101.988 142.729 98.6686C144.624 100.156 146.519 101.642 148.414 103.129C147.71 105.308 146.995 107.497 146.301 109.683C147.074 109.794 147.826 109.89 148.556 109.991C149.129 108.198 149.725 106.402 150.299 104.609C153.132 106.833 155.954 109.049 158.786 111.273C162.413 111.664 164.396 111.843 164.396 111.843C164.396 111.843 164.094 110.268 163.443 107.41C160.295 104.933 157.136 102.466 153.977 99.982C156.469 99.9202 158.987 99.6858 161.514 99.3255C161.36 98.7068 161.207 98.0701 161.023 97.4123C157.762 97.8407 154.522 98.0176 151.337 97.9281C149.137 96.1943 146.935 94.4786 144.735 92.7448C149.578 92.6197 154.495 92.1274 159.42 91.2796C159.243 90.6648 159.079 90.039 158.915 89.3953C153.707 90.258 148.511 90.7114 143.417 90.7217C143.08 90.7195 142.767 90.8282 142.516 90.9791C138.46 87.8044 134.416 84.6189 130.36 81.4443C138.793 80.7171 147.27 79.7345 155.8 78.5034C155.613 77.8815 155.428 77.2417 155.221 76.6058C146.12 77.9027 137.077 78.9153 128.057 79.6403C124.409 76.7827 120.761 73.9252 117.135 71.0637C128.765 69.9019 140.436 68.5025 152.138 66.8765C151.93 66.2406 151.722 65.6227 151.504 64.9797C139.253 66.6856 127.035 68.1289 114.861 69.2987C110.399 65.7891 105.925 62.2904 101.473 58.7877C116.779 57.6903 132.204 56.0849 147.711 54.0045C147.482 53.3725 147.253 52.7405 147.023 52.1085C130.957 54.2438 114.989 55.8572 99.1206 56.9306C96.1767 54.6119 93.2313 52.3112 90.2976 49.9996C107.57 46.4286 124.832 42.8506 142.104 39.2797C141.862 38.6766 141.619 38.0735 141.366 37.4634C123.674 41.1267 105.993 44.779 88.31 48.4493C82.604 43.9744 76.8878 39.4925 71.1818 35.0176C92.9165 33.3983 114.878 30.7563 136.965 27.1361C136.702 26.5189 136.417 25.9057 136.144 25.2815C113.542 28.9488 91.0808 31.591 68.8275 33.1784C63.6012 29.0697 58.363 24.972 53.147 20.8704C77.8135 16.1461 102.48 11.4218 127.158 6.68648C126.839 6.08811 126.53 5.49677 126.211 4.8984C101.18 9.69629 76.1375 14.5051 51.1065 19.303C49.1205 17.7349 47.1226 16.1776 45.1365 14.6094C42.7119 12.7031 40.2872 10.7968 37.861 8.9084C64.9169 3.27303 91.9507 -2.3584 119.007 -7.99376C118.654 -8.57727 118.311 -9.15376 117.958 -9.73727C90.604 -4.04009 63.2497 1.6571 35.8734 7.3582C32.1345 4.41943 28.3837 1.4916 24.6448 -1.44716C52.3797 -9.354 80.1368 -17.2648 107.872 -25.1716C107.484 -25.7223 107.095 -26.273 106.695 -26.8127C78.8825 -18.8832 51.0696 -10.9537 23.2567 -3.02415C23.1008 -2.97878 22.9656 -2.91935 22.8508 -2.84588C17.5012 -7.03887 12.1517 -11.2319 6.81388 -15.4358C36.9055 -23.345 66.9869 -31.2612 97.0785 -39.1704C96.6241 -39.7094 96.1698 -40.2483 95.7037 -40.7763C65.4562 -32.8217 35.1867 -24.8633 4.93927 -16.9087C0.934792 -20.0482 -3.06967 -23.1876 -7.08441 -26.3341C21.8953 -36.5244 50.853 -46.7107 79.8328 -56.9009C79.2975 -57.3812 78.7402 -57.8576 78.1932 -58.327C49.1796 -48.1219 20.166 -37.9168 -8.83579 -27.7227C-13.1058 -31.0629 -17.364 -34.414 -21.634 -37.7542C5.70274 -49.8479 33.4323 -60.7986 61.4106 -70.5721C60.7195 -71.0071 60.0166 -71.4311 59.324 -71.848C31.4867 -62.0731 3.92027 -51.1247 -23.2842 -39.0545C-30.2135 -44.4806 -37.1208 -49.9106 -44.0502 -55.3368C-19.5854 -66.2036 5.16547 -76.2096 30.1144 -85.339C29.1322 -85.6691 28.1587 -85.9743 27.1852 -86.2795C2.81404 -77.3057 -21.3679 -67.4805 -45.271 -56.8372C-45.418 -56.7669 -45.5328 -56.6934 -45.6593 -56.609C-48.5739 -58.8886 -51.4768 -61.1792 -54.3914 -63.4588C-35.0957 -72.7707 -15.8015 -82.0646 3.49417 -91.3764C2.3338 -91.5245 1.19394 -91.6585 0.0305552 -91.7706C-18.6533 -82.7621 -37.3372 -73.7536 -56.0328 -64.7341C-58.9166 -66.9926 -61.8004 -69.2512 -64.6725 -71.5207C-66.234 -70.2521 -67.7338 -68.9413 -69.1721 -67.5884C-68.3668 -66.9613 -67.5718 -66.3412 -66.7782 -65.7032C-74.8553 -51.2221 -82.9207 -36.752 -90.9978 -22.2709C-90.9386 -21.0334 -90.8251 -19.7966 -90.6558 -18.5786C-82.1436 -33.845 -73.6196 -49.1224 -65.1075 -64.3888C-62.5405 -62.3661 -59.9516 -60.3473 -57.3846 -58.3246C-67.2852 -40.2271 -77.1858 -22.1295 -87.1084 -4.02807C-86.8017 -3.15312 -86.4847 -2.27115 -86.1457 -1.39309C-76.0018 -19.9321 -65.8578 -38.4712 -55.7036 -57.0032C-51.7094 -53.8708 -47.7152 -50.7383 -43.721 -47.6059C-55.3617 -27.1459 -66.9921 -6.67885 -78.6328 13.7812C-78.2213 14.4428 -77.7995 15.1114 -77.3675 15.7871C-65.5985 -4.90811 -53.8295 -25.6033 -42.0606 -46.2986C-38.5753 -43.5714 -35.0916 -40.8264 -31.6064 -38.0992C-31.5037 -38.029 -31.4128 -37.9477 -31.3218 -37.8665C-42.5264 -15.8729 -54.975 5.93431 -68.6278 27.4685C-68.1632 28.0145 -67.6869 28.5495 -67.2222 29.0955C-53.4752 7.47375 -40.9206 -14.432 -29.6321 -36.5201C-29.1832 -36.1749 -28.7359 -35.8118 -28.287 -35.4666C-28.2196 -35.3635 -28.1169 -35.2932 -28.0009 -35.2518C-25.0761 -32.9652 -22.1629 -30.6676 -19.2381 -28.3809C-29.3239 -4.57668 -40.6819 19.117 -53.2956 42.6354C-52.7368 43.0938 -52.178 43.5523 -51.6192 44.0107C-38.9187 20.4947 -27.5284 -3.19595 -17.4 -26.99Z" fill="#97C9CE"/>
<path d="M-41.7195 40.6812C-56.8667 45.7771 -79.4032 42.4658 -87.4733 41.0181C-79.4624 46.6616 -72.0122 52.5475 -65.137 58.6464C-11.9362 49.9485 42.936 61.9494 42.936 61.9494C42.936 61.9494 30.289 61.0859 -3.64303 64.5099C-33.5875 67.5333 -55.8897 62.196 -63.7181 59.8864C-57.3191 65.6521 -51.4391 71.6064 -46.0764 77.7354C-44.1312 79.9509 -42.2789 82.202 -40.4811 84.4633C-24.5918 87.9929 -1.39745 78.7097 22.5703 77.6285C40.6301 76.8203 62.5476 94.2332 62.5476 94.2332C62.5476 94.2332 40.9756 80.2798 14.7341 87.8196C-6.21982 93.8487 -31.1672 87.4361 -40.3742 84.6131C-34.6742 91.8171 -29.6933 99.2517 -25.4282 106.889C-20.4069 106.607 -3.62259 105.776 13.2343 106.312C33.0807 106.941 77.2439 114.83 77.2439 114.83C77.2439 114.83 59.812 117.884 34.7032 118.086C14.4263 118.263 -17.1655 109.741 -25.0916 107.51C-21.6003 113.855 -18.6037 120.334 -16.1196 126.946C-11.0432 127.108 6.12407 127.724 23.9685 129.085C45.2422 130.728 97.0321 146.815 97.0321 146.815C97.0321 146.815 81.2616 145.635 47.4892 143.381C18.4552 141.449 -8.75973 130.697 -15.8346 127.705C-13.6309 133.671 -11.8467 139.735 -10.4645 145.896C-6.39365 149.687 3.31144 161.558 5.0536 189.626C7.11283 222.628 4.57476 233.367 4.57476 233.367C4.57476 233.367 -24.4261 178.04 -13.1934 146.773C-14.4119 141.191 -15.97 135.783 -17.8166 130.567C-21.279 136.71 -34.36 158.632 -54.861 178.09C-78.9728 200.984 -87.2095 207.116 -87.2095 207.116C-87.2095 207.116 -58.3836 162.959 -42.2878 148.894C-29.5908 137.813 -21.1319 131.755 -18.1063 129.694C-20.6726 122.565 -23.7758 115.78 -27.307 109.318C-30.801 115.275 -44.9586 137.756 -66.0401 148.572C-90.481 161.112 -99.5045 178.651 -99.5045 178.651C-99.5045 178.651 -96.1245 160.326 -67.5503 139.833C-43.853 122.825 -31.2061 112.024 -27.5701 108.831C-32.237 100.369 -37.6091 92.48 -43.4897 85.1492C-45.9072 90.5472 -54.3587 106.979 -72.6345 119.478C-94.8046 134.64 -113.974 158.241 -113.974 158.241C-113.974 158.241 -99.0327 124.381 -74.4227 103.779C-56.6722 88.9145 -48.0554 84.8686 -44.6251 83.7598C-51.4049 75.4544 -58.8023 67.8838 -66.4411 61.019C-67.7275 65.8479 -73.0488 81.617 -90.9902 99.2064C-112.557 120.359 -129.288 136.69 -129.288 136.69C-129.288 136.69 -95.5881 75.5668 -67.3742 60.1838C-75.0035 53.3907 -82.8743 47.3035 -90.6103 41.8931C-91.1419 46.1817 -93.9309 59.2432 -108.859 71.805C-127.052 87.1196 -131.18 95.7968 -134.828 107.844C-134.828 107.844 -132.561 82.1008 -120.438 70.3108C-106.256 56.5162 -93.9378 49.48 -90.9076 41.7008C-96.0655 38.0986 -101.17 34.7983 -106.113 31.7938C-145.683 7.68431 -183.082 -2.96876 -183.442 -3.08049C-184.199 -3.29249 -184.585 -3.94537 -184.32 -4.55012C-184.292 -4.63324 -184.231 -4.69969 -184.188 -4.76744C-183.835 -5.20962 -183.135 -5.42752 -182.481 -5.25146C-182.102 -5.1525 -144.343 5.6123 -104.42 29.9038C-98.9963 33.1994 -93.7804 36.6072 -88.7695 40.0993C-82.1971 38.8396 -58.1857 34.1574 -42.6439 30.2542C-24.5065 25.7056 17.3058 41.0269 17.3058 41.0269C17.3058 41.0269 -22.9722 34.3897 -41.7195 40.6812Z" fill="#FCF4DF"/>
</g>
<defs>
<clipPath id="clip0_1774_4">
<rect width="522" height="169" fill="white" transform="translate(0 522) rotate(-90)"/>
</clipPath>
</defs>
</svg>
