<svg width="143" height="400" viewBox="0 0 143 400" fill="none" xmlns="http://www.w3.org/2000/svg">
<g clip-path="url(#clip0_1774_61)">
<path d="M115.224 200.356C115.224 200.356 75.4123 336.578 121.004 410.004C136.468 434.92 156.846 449.994 177.038 459.023C219.126 477.859 285.128 454.2 297.715 415.776C303.753 397.349 304.672 374.649 293.643 348.139C261.13 270.021 115.224 200.356 115.224 200.356Z" fill="#2F8C91"/>
<path d="M222.097 399.804C219.374 394.566 216.665 389.331 213.942 384.093C236.692 365.252 259.457 346.413 282.213 327.561C281.822 326.971 281.431 326.381 281.019 325.801C258.329 344.59 235.639 363.379 212.949 382.168C210.382 377.221 207.806 372.261 205.24 367.313C226.65 349.108 249.048 331.408 272.366 314.277C271.926 313.752 271.506 313.218 271.065 312.694C247.85 329.719 225.568 347.29 204.237 365.375C201.767 360.617 199.297 355.858 196.827 351.1C218.027 334.323 239.22 317.558 260.42 300.782C259.937 300.276 259.454 299.77 258.955 299.263C237.923 315.905 216.87 332.556 195.838 349.199C193.243 344.213 190.669 339.217 188.074 334.231C206.201 317.674 225.168 301.5 244.947 285.763C244.416 285.287 243.9 284.813 243.363 284.348C223.79 299.908 205.004 315.891 187.043 332.254C184.38 327.118 181.717 321.983 179.039 316.845C195.575 302.088 212.891 287.706 230.941 273.753C230.398 273.3 229.834 272.855 229.291 272.401C211.468 286.168 194.361 300.338 178.017 314.881C175.846 310.701 173.68 306.511 171.509 302.331C185.772 288.691 200.8 275.389 216.556 262.468C215.971 262.033 215.401 261.599 214.816 261.164C199.305 273.866 184.517 286.924 170.465 300.317C167.815 295.218 165.166 290.119 162.516 285.021C173.299 272.782 185.738 261.139 199.632 250.258C199.035 249.845 198.438 249.432 197.826 249.018C184.246 259.64 172.062 270.982 161.402 282.892C160.505 281.155 159.593 279.417 158.697 277.68C158.801 277.326 158.673 276.98 158.228 276.774C157.57 275.515 156.927 274.257 156.268 272.998C164.789 262.043 175.8 251.888 188.839 242.952C188.221 242.549 187.618 242.147 187 241.743C174.373 250.42 163.606 260.201 155.105 270.745C153.123 266.919 151.135 263.103 149.153 259.277C157.047 250.578 165.734 242.196 175.181 234.163C174.542 233.769 173.918 233.377 173.279 232.983C164.158 240.734 155.741 248.817 148.058 257.174C146.208 253.623 144.38 250.063 142.53 246.512C148.918 241.16 155.286 235.817 161.675 230.465C162.721 229.582 163.803 228.692 164.85 227.81C164.205 227.427 163.575 227.046 162.945 226.665C161.379 227.983 159.794 229.275 158.239 230.571C152.663 235.238 147.103 239.907 141.527 244.574C139.963 241.565 138.408 238.569 136.844 235.56C141.501 230.289 146.434 225.109 151.664 220.046C151.003 219.662 150.337 219.288 149.686 218.916C144.79 223.651 140.135 228.485 135.742 233.409C133.92 229.897 132.093 226.396 130.287 222.886C133.322 219.659 136.528 216.511 139.933 213.446C139.252 213.071 138.58 212.708 137.923 212.348C134.876 215.1 131.953 217.926 129.196 220.807C128.091 218.692 127.002 216.578 125.897 214.462C127.674 212.554 129.436 210.644 131.208 208.747C130.511 208.37 129.833 208.018 129.171 207.669C127.718 209.237 126.265 210.804 124.817 212.361C123.17 209.2 121.538 206.042 119.896 202.87C116.614 201.22 114.79 200.356 114.79 200.356C114.79 200.356 114.298 202.013 113.506 205.053C115.337 208.578 117.167 212.103 118.998 215.628C116.553 214.833 113.996 214.191 111.36 213.669C111.206 214.337 111.046 215.016 110.875 215.717C114.24 216.43 117.473 217.365 120.527 218.55C121.811 221.006 123.074 223.472 124.359 225.928C119.595 224.376 114.605 223.165 109.388 222.294C109.234 222.962 109.095 223.631 108.945 224.323C114.43 225.273 119.689 226.622 124.632 228.36C124.958 228.481 125.303 228.474 125.631 228.406C127.976 232.937 130.327 237.457 132.673 241.988C124.133 239.793 115.42 237.839 106.56 236.103C106.431 236.785 106.296 237.479 106.176 238.174C115.635 240.039 124.924 242.168 134.012 244.557C136.128 248.623 138.239 252.701 140.355 256.768C128.516 253.892 116.493 251.242 104.338 248.813C104.219 249.508 104.12 250.194 104.01 250.902C116.733 253.457 129.297 256.253 141.681 259.3C144.277 264.286 146.866 269.283 149.461 274.269C134.073 270.066 118.333 266.319 102.277 263.019C102.188 263.718 102.099 264.417 102.005 265.127C118.637 268.565 134.932 272.496 150.847 276.903C152.559 280.189 154.265 283.486 155.977 286.773C137.458 284.331 118.939 281.89 100.42 279.448C100.358 280.127 100.296 280.805 100.228 281.495C119.185 284 138.148 286.493 157.121 289C160.433 295.382 163.744 301.764 167.056 308.146C145.16 302.247 122.56 297.259 99.3584 293.204C99.3153 293.909 99.2781 294.602 99.2351 295.306C122.969 299.494 146.067 304.647 168.418 310.765C171.459 316.607 174.486 322.448 177.521 328.301C151.258 324.444 124.98 320.585 98.7178 316.728C98.7266 317.427 98.72 318.124 98.7345 318.811C125.39 322.726 152.045 326.641 178.705 330.544C179.865 332.773 181.024 335.002 182.168 337.228C183.581 339.936 184.973 342.653 186.386 345.36C157.374 341.571 128.346 337.78 99.3339 333.991C99.3791 334.682 99.4184 335.384 99.4789 336.077C128.828 339.906 158.187 343.747 187.536 347.576C189.707 351.755 191.879 355.935 194.05 360.115C163.229 358.325 132.408 356.535 101.582 354.756C101.684 355.43 101.787 356.104 101.905 356.78C132.808 358.568 163.706 360.367 194.609 362.155C194.783 362.163 194.939 362.146 195.094 362.129C198.194 368.108 201.299 374.076 204.399 380.055C171.298 377.466 138.203 374.865 105.102 372.276C105.282 372.959 105.455 373.654 105.634 374.337C138.919 376.947 172.204 379.558 205.494 382.158C207.817 386.639 210.145 391.109 212.468 395.59C179.33 395.621 146.171 395.662 113.034 395.693C113.322 396.354 113.617 397.003 113.927 397.654C147.116 397.617 180.315 397.593 213.505 397.556C215.969 402.325 218.454 407.086 220.919 411.855C188.408 414.325 156.098 415.541 124.131 415.508C124.594 416.177 125.048 416.833 125.522 417.48C157.353 417.461 189.522 416.205 221.891 413.695C225.912 421.426 229.912 429.166 233.933 436.896C204.813 439.16 175.855 440.461 147.139 440.833C147.931 441.493 148.72 442.13 149.524 442.768C177.616 442.346 205.939 441.018 234.394 438.783C234.564 438.767 234.726 438.739 234.883 438.686C236.582 441.936 238.259 445.194 239.958 448.444C216.628 450.948 193.303 453.442 169.988 455.948C171.035 456.496 172.092 457.022 173.141 457.535C195.731 455.109 218.321 452.684 240.905 450.269C242.57 453.491 244.249 456.714 245.919 459.925C248.045 459.216 250.159 458.435 252.23 457.614C251.77 456.721 251.311 455.827 250.851 454.934C265.866 443.463 280.88 431.992 295.889 420.532C296.453 419.297 296.946 418.043 297.399 416.772C281.554 428.867 265.725 440.964 249.875 453.07C248.391 450.188 246.885 447.316 245.4 444.435C263.992 430.037 282.574 415.626 301.166 401.228C301.312 400.264 301.434 399.285 301.54 398.304C282.505 413.052 263.465 427.812 244.415 442.558C242.102 438.09 239.783 433.633 237.47 429.164C258.918 413.032 280.351 396.898 301.799 380.766C301.73 379.965 301.661 379.165 301.566 378.35C279.876 394.667 258.2 410.985 236.515 427.291C234.485 423.4 232.477 419.499 230.448 415.608C230.393 415.495 230.332 415.394 230.277 415.281C252.059 397.485 274.958 380.317 298.886 363.825C298.712 363.13 298.524 362.434 298.319 361.737C274.25 378.283 251.217 395.518 229.294 413.369C229.037 412.866 228.78 412.363 228.517 411.871C228.498 411.75 228.443 411.637 228.356 411.556C226.663 408.296 224.97 405.035 223.283 401.764C244.878 381.806 267.662 362.401 291.552 343.587C291.236 342.948 290.942 342.298 290.611 341.656C266.535 360.484 243.741 379.876 222.097 399.804Z" fill="#286F7F"/>
<path d="M130.515 220.374C130.515 220.374 228.618 145.932 264.145 83.2869C276.201 62.0245 280.64 45.4636 281.232 32.8649C282.475 6.58238 250.143 -0.335259 222.125 20.2022C208.683 30.0542 193.813 44.3753 179.576 65.1771C137.647 126.443 130.515 220.374 130.515 220.374Z" fill="#BAE3DD"/>
<path d="M231.194 55.926C228.52 60.2135 225.86 64.4933 223.186 68.7808C205.179 73.2821 187.163 77.7821 169.155 82.2834C168.875 82.7925 168.604 83.303 168.332 83.8134C186.295 79.3246 204.257 74.8358 222.211 70.3456C219.691 74.3952 217.158 78.4523 214.638 82.5019C197.382 87.0411 180.202 90.9332 163.149 94.1378C162.919 94.6255 162.689 95.1132 162.464 95.592C179.418 92.4111 196.502 88.5721 213.653 84.0846C211.233 87.9751 208.799 91.8732 206.379 95.7638C190.105 99.4559 173.822 103.147 157.548 106.839C157.344 107.331 157.145 107.813 156.949 108.306C173.103 104.644 189.256 100.982 205.409 97.3197C202.86 101.404 200.325 105.48 197.777 109.564C182.431 114.144 167.121 118.197 151.874 121.708C151.706 122.186 151.533 122.673 151.365 123.151C166.441 119.691 181.584 115.7 196.758 111.19C194.143 115.389 191.523 119.598 188.9 123.796C175.124 127.756 161.391 131.208 147.737 134.14C147.591 134.612 147.441 135.092 147.295 135.564C160.761 132.681 174.31 129.287 187.891 125.404C185.757 128.825 183.631 132.248 181.497 135.669C169.025 139.673 156.586 143.189 144.192 146.227C144.064 146.701 143.936 147.175 143.799 147.648C155.977 144.674 168.218 141.225 180.468 137.313C177.869 141.485 175.269 145.658 172.67 149.831C162.003 154.093 151.294 157.419 140.694 159.774C140.58 160.24 140.474 160.708 140.359 161.175C150.713 158.889 161.155 155.668 171.585 151.573C170.7 152.997 169.82 154.412 168.926 155.834C168.674 156.028 168.474 156.297 168.466 156.577C167.826 157.602 167.181 158.637 166.541 159.662C157.28 163.859 147.902 166.701 138.78 168.081C138.674 168.549 138.582 169.01 138.476 169.478C147.328 168.124 156.409 165.44 165.392 161.5C163.443 164.63 161.498 167.751 159.548 170.881C151.908 173.835 144.265 176.313 136.653 178.322C136.564 178.793 136.472 179.253 136.375 179.723C143.727 177.79 151.095 175.414 158.474 172.605C156.659 175.513 154.845 178.421 153.045 181.322C147.957 182.624 142.855 183.933 137.767 185.235C136.926 185.454 136.08 185.664 135.239 185.883C135.155 186.345 135.072 186.807 134.993 187.26C136.242 186.938 137.489 186.635 138.724 186.321C143.172 185.183 147.612 184.043 152.06 182.905C150.53 185.363 149 187.821 147.47 190.279C142.867 192.12 138.261 193.786 133.657 195.298C133.577 195.77 133.511 196.234 133.441 196.688C137.761 195.278 142.065 193.73 146.38 192.029C144.586 194.902 142.806 197.767 141.012 200.64C138.153 201.702 135.295 202.649 132.441 203.489C132.375 203.954 132.308 204.418 132.252 204.865C134.819 204.116 137.385 203.27 139.947 202.346C138.867 204.079 137.788 205.811 136.708 207.544C135.027 208.177 133.338 208.809 131.653 209.451C131.59 209.926 131.538 210.383 131.482 210.83C132.865 210.306 134.251 209.792 135.633 209.268C134.019 211.858 132.409 214.44 130.795 217.03C130.599 219.199 130.518 220.368 130.518 220.368C130.518 220.368 131.71 219.466 133.871 217.773C135.67 214.892 137.46 212.009 139.264 209.118C139.382 210.453 139.632 211.722 139.978 212.937C140.445 212.564 140.926 212.182 141.423 211.774C141.004 210.189 140.777 208.498 140.755 206.712C142.014 204.697 143.26 202.689 144.519 200.674C144.752 203.267 145.266 205.729 146.052 208.029C146.515 207.645 146.988 207.262 147.474 206.871C146.669 204.423 146.176 201.791 146.024 199.007C146.016 198.821 145.924 198.701 145.802 198.634C148.107 194.929 150.421 191.225 152.726 187.521C153.519 191.798 154.508 195.979 155.687 200.073C156.156 199.68 156.639 199.279 157.117 198.869C155.871 194.493 154.844 190.015 154.036 185.416C156.11 182.083 158.185 178.75 160.264 175.427C161.479 181.25 162.876 186.986 164.446 192.632C164.925 192.221 165.39 191.818 165.874 191.398C164.227 185.488 162.781 179.474 161.545 173.357C164.094 169.273 166.634 165.188 169.177 161.113C170.447 168.979 172.107 176.673 174.132 184.19C174.607 183.769 175.083 183.348 175.558 182.927C173.475 175.129 171.794 167.142 170.526 158.956C172.21 156.26 173.881 153.572 175.56 150.885C178.77 158.671 181.986 166.449 185.197 174.235C185.65 173.821 186.103 173.406 186.561 172.982C183.267 165.009 179.983 157.037 176.685 149.072C179.934 143.856 183.189 138.631 186.438 133.415C188.288 144.557 190.923 155.345 194.308 165.744C194.771 165.311 195.23 164.868 195.698 164.427C192.263 153.768 189.613 142.707 187.773 131.266C190.757 126.483 193.732 121.7 196.711 116.926C201.01 128.222 205.309 139.517 209.617 150.813C210.064 150.359 210.506 149.913 210.953 149.459C206.588 137.998 202.213 126.537 197.848 115.076C198.987 113.256 200.117 111.434 201.257 109.613C202.641 107.395 204.025 105.176 205.396 102.965C210.457 115.142 215.515 127.309 220.576 139.486C221.011 139.02 221.441 138.563 221.875 138.097C216.759 125.785 211.642 113.474 206.521 101.152C208.656 97.7307 210.781 94.3083 212.915 90.8873C219.727 102.374 226.542 113.871 233.354 125.358C233.763 124.888 234.172 124.418 234.572 123.947C227.741 112.428 220.909 100.909 214.078 89.39C214.039 89.3259 213.99 89.2796 213.931 89.2512C216.975 84.3619 220.02 79.4727 223.073 74.5848C229.953 87.3608 236.839 100.128 243.719 112.904C244.117 112.403 244.515 111.903 244.904 111.4C237.985 98.5603 231.062 85.7099 224.143 72.8698C226.422 69.2096 228.702 65.5493 230.986 61.8801C239.574 72.9809 248.158 84.0715 256.745 95.1723C257.096 94.6546 257.444 94.1268 257.786 93.6078C249.186 82.4955 240.586 71.3831 231.995 60.2721C234.42 56.3726 236.854 52.4745 239.279 48.5751C249.271 57.8863 258.403 67.947 266.644 78.6945C266.956 78.1127 267.26 77.5297 267.558 76.9555C259.319 66.286 250.194 56.3135 240.224 47.0637C244.163 40.7329 248.107 34.4125 252.047 28.0818C261.022 36.3944 269.349 45.2662 277.014 54.6562C277.238 53.9641 277.443 53.2885 277.648 52.6128C270.118 43.4663 261.945 34.8215 253.156 26.7119C253.098 26.6643 253.039 26.6358 252.971 26.606C254.626 23.9444 256.29 21.2842 257.945 18.6227C265.589 24.8324 273.219 31.0498 280.863 37.2596C280.943 36.5551 281.012 35.8684 281.065 35.1791C273.67 29.1624 266.274 23.1457 258.87 17.1278C260.51 14.4929 262.15 11.8581 263.799 9.2246C262.787 8.9629 261.746 8.75464 260.674 8.59983C260.219 9.33393 259.769 10.0591 259.305 10.7919C248.038 13.1409 236.781 15.4912 225.514 17.8402C224.573 18.4512 223.633 19.0916 222.71 19.7539C234.587 17.2758 246.473 14.7991 258.35 12.3211C256.881 14.6722 255.416 17.0335 253.947 19.3846C239.872 22.4262 225.797 25.4679 211.719 28.4993C211.061 29.0764 210.398 29.6623 209.738 30.2585C224.156 27.1436 238.574 24.0287 252.987 20.9227C250.712 24.5741 248.438 28.2254 246.163 31.8767C230.239 35.0704 214.309 38.273 198.385 41.4666C197.892 42.0012 197.394 42.5448 196.891 43.0972C212.999 39.8638 229.106 36.6304 245.214 33.397C243.234 36.5802 241.24 39.771 239.26 42.9541C239.209 43.0432 239.15 43.131 239.091 43.2187C222.01 47.3682 205.035 50.7495 188.235 53.3438C187.832 53.8534 187.438 54.3644 187.035 54.8741C203.904 52.2904 220.957 48.9211 238.112 44.7733C237.862 45.1805 237.598 45.5952 237.347 46.0023C237.271 46.0874 237.22 46.1765 237.192 46.2594C235.532 48.9298 233.863 51.599 232.203 54.2694C213.773 59.878 195.392 64.7384 177.108 68.8293C176.775 69.3496 176.441 69.8699 176.108 70.3902C194.391 66.3478 212.771 61.5065 231.194 55.926Z" fill="#97C9CE"/>
<path d="M178.23 158.557C177.977 158.578 177.725 158.613 177.485 158.641C177.447 158.649 177.408 158.642 177.371 158.651C177.131 158.679 176.891 158.706 176.664 158.742C176.639 158.742 176.601 158.75 176.576 158.751C176.324 158.787 176.084 158.814 175.845 158.857C175.794 158.858 175.744 158.875 175.693 158.876C175.454 158.919 175.214 158.947 174.975 158.99C174.937 158.998 174.887 158.999 174.849 159.007C174.61 159.05 174.371 159.093 174.132 159.136L174.12 159.144C173.88 159.187 173.629 159.238 173.403 159.288C173.366 159.297 173.328 159.305 173.29 159.314C173.064 159.364 172.838 159.414 172.612 159.465C172.575 159.473 172.537 159.482 172.487 159.498C172.261 159.548 172.023 159.606 171.797 159.657C171.785 159.665 171.772 159.657 171.759 159.665C171.534 159.716 171.321 159.773 171.108 159.831C171.07 159.839 171.058 159.847 171.02 159.856C170.808 159.913 170.595 159.971 170.37 160.037C170.332 160.045 170.294 160.053 170.257 160.062C170.044 160.12 169.819 160.185 169.619 160.25C169.607 160.258 169.582 160.259 169.557 160.274C169.344 160.332 169.132 160.405 168.933 160.47C168.92 160.478 168.907 160.471 168.895 160.479C168.695 160.544 168.483 160.617 168.284 160.682C168.246 160.69 168.221 160.706 168.196 160.706C167.996 160.771 167.81 160.844 167.61 160.909C167.598 160.917 167.56 160.925 167.548 160.933C167.149 161.078 166.764 161.231 166.379 161.384C166.366 161.392 166.329 161.4 166.317 161.408C166.13 161.481 165.957 161.56 165.783 161.64C165.771 161.648 165.746 161.664 165.721 161.664C165.349 161.824 165.015 161.991 164.681 162.158C164.669 162.166 164.669 162.166 164.657 162.174C164.496 162.261 164.335 162.333 164.175 162.42C164.163 162.428 164.15 162.436 164.138 162.444C163.978 162.531 163.83 162.61 163.67 162.697C163.374 162.871 163.079 163.045 162.809 163.218C162.797 163.226 162.785 163.234 162.785 163.234C162.65 163.321 162.528 163.415 162.406 163.493L162.393 163.501C162.137 163.682 161.918 163.854 161.699 164.042L161.687 164.05C161.578 164.136 161.481 164.229 161.397 164.315L161.385 164.323C161.108 164.595 160.869 164.859 160.681 165.138L160.669 165.146C160.493 165.416 160.356 165.678 160.269 165.939L160.257 165.947C160.223 166.032 160.215 166.116 160.195 166.208C160.167 166.384 160.163 166.544 160.186 166.719C160.203 166.802 160.208 166.878 160.251 166.961C160.251 166.961 160.251 166.961 160.264 166.969C160.605 168.06 162.144 168.967 165.186 169.492C179.1 171.908 194.118 165.752 199.393 163.281C198.493 164.901 197.644 166.519 196.822 168.153C196.262 169.27 195.728 170.387 195.194 171.503L194.456 173.067C192.53 177.209 190.681 181.364 188.665 185.485C188.574 185.449 188.483 185.413 188.404 185.369C188.156 185.259 187.922 185.157 187.674 185.048C187.53 184.982 187.388 184.932 187.244 184.866C187.023 184.772 186.802 184.692 186.581 184.597C186.425 184.54 186.269 184.482 186.113 184.424C185.893 184.345 185.685 184.257 185.477 184.185C185.321 184.127 185.165 184.07 184.997 184.02C184.79 183.948 184.569 183.868 184.35 183.804C184.194 183.746 184.039 183.704 183.871 183.654C183.651 183.59 183.444 183.518 183.224 183.453C183.069 183.411 182.901 183.361 182.758 183.31C182.539 183.246 182.319 183.182 182.087 183.126C181.932 183.083 181.777 183.041 181.635 183.005C181.403 182.949 181.171 182.893 180.926 182.829C180.784 182.794 180.643 182.759 180.501 182.723C180.23 182.66 179.973 182.605 179.703 182.541C179.587 182.521 179.484 182.493 179.38 182.464C179.007 182.388 178.635 182.312 178.249 182.243C178.224 182.244 178.198 182.229 178.172 182.229C177.826 182.168 177.479 182.106 177.132 182.045C177.017 182.024 176.889 182.012 176.773 181.991C176.517 181.951 176.26 181.91 176.017 181.877C175.876 181.857 175.735 181.837 175.594 181.817C175.364 181.791 175.133 181.75 174.903 181.724C174.762 181.704 174.608 181.692 174.455 181.68C174.225 181.654 174.008 181.636 173.778 181.61C173.624 181.598 173.471 181.586 173.33 181.566C173.113 181.547 172.896 181.529 172.679 181.51C172.526 181.498 172.372 181.486 172.219 181.474C172.002 181.455 171.773 181.445 171.569 181.434C171.416 181.422 171.275 181.417 171.122 181.405C170.893 181.394 170.677 181.391 170.447 181.38C170.307 181.376 170.167 181.371 170.027 181.366C169.798 181.355 169.556 181.353 169.314 181.35C169.187 181.353 169.073 181.347 168.933 181.343C168.666 181.34 168.386 181.346 168.119 181.344C168.043 181.345 167.954 181.34 167.865 181.349C167.51 181.356 167.154 181.364 166.799 181.371C166.748 181.372 166.71 181.38 166.672 181.373C166.367 181.38 166.063 181.401 165.759 181.407C165.645 181.417 165.531 181.427 165.416 181.422C165.176 181.434 164.96 181.446 164.733 181.466C164.593 181.477 164.479 181.487 164.34 181.497C164.125 181.509 163.923 181.529 163.72 181.548C163.581 181.558 163.442 181.569 163.316 181.587C163.114 181.606 162.911 181.625 162.734 181.644C162.595 181.655 162.457 181.68 162.318 181.691C162.128 181.718 161.938 181.729 161.749 181.756C161.61 181.766 161.472 181.792 161.333 181.803C161.143 181.829 160.954 181.856 160.777 181.875C160.651 181.893 160.5 181.911 160.374 181.929C160.185 181.956 160.009 181.99 159.819 182.016C159.693 182.034 159.555 182.06 159.429 182.078C159.24 182.105 159.051 182.146 158.862 182.173C158.749 182.198 158.623 182.216 158.51 182.241C158.297 182.284 158.095 182.318 157.882 182.361C157.781 182.378 157.706 182.395 157.605 182.412C157.316 182.472 157.027 182.531 156.739 182.605C156.651 182.63 156.55 182.647 156.463 182.672C156.275 182.714 156.074 182.764 155.886 182.806C155.761 182.839 155.648 182.864 155.522 182.897C155.36 182.939 155.209 182.972 155.059 183.021C154.934 183.054 154.809 183.087 154.683 183.12C154.546 183.161 154.408 183.202 154.258 183.236C154.133 183.269 154.008 183.317 153.883 183.35C153.746 183.391 153.62 183.424 153.496 183.472C153.371 183.505 153.246 183.554 153.121 183.587C153.009 183.627 152.871 183.668 152.759 183.708C152.635 183.757 152.51 183.79 152.385 183.838C152.273 183.879 152.161 183.919 152.037 183.967C151.912 184.016 151.8 184.056 151.676 184.104C151.564 184.145 151.465 184.192 151.353 184.233C151.228 184.281 151.116 184.322 151.005 184.377C150.906 184.425 150.806 184.457 150.72 184.497C150.595 184.546 150.484 184.601 150.372 184.642C150.285 184.682 150.211 184.714 150.124 184.754C149.69 184.953 149.27 185.16 148.888 185.374C148.827 185.413 148.765 185.437 148.703 185.476C148.592 185.532 148.494 185.595 148.396 185.658C148.334 185.698 148.273 185.737 148.199 185.769C148.101 185.832 148.015 185.887 147.917 185.95C147.855 185.989 147.794 186.029 147.733 186.068C147.647 186.123 147.549 186.186 147.476 186.249C147.415 186.288 147.366 186.32 147.317 186.367C147.245 186.429 147.159 186.484 147.086 186.547C147.037 186.578 146.989 186.625 146.953 186.664C146.88 186.726 146.808 186.789 146.735 186.851C146.699 186.89 146.65 186.922 146.614 186.96C146.541 187.023 146.482 187.093 146.409 187.155C146.373 187.194 146.349 187.225 146.313 187.264C146.254 187.334 146.181 187.396 146.121 187.466C146.098 187.497 146.086 187.52 146.063 187.551C146.003 187.621 145.943 187.691 145.897 187.768L145.885 187.776C145.684 188.047 145.559 188.316 145.486 188.585C145.487 188.6 145.475 188.623 145.464 188.646C145.443 188.723 145.434 188.792 145.425 188.861C145.427 188.891 145.415 188.914 145.405 188.953C145.396 189.021 145.399 189.082 145.391 189.151C145.392 189.182 145.394 189.212 145.384 189.25C145.387 189.311 145.39 189.372 145.407 189.441C145.409 189.471 145.424 189.509 145.425 189.539C145.429 189.6 145.458 189.661 145.474 189.729C145.489 189.767 145.491 189.797 145.518 189.827C145.547 189.888 145.576 189.948 145.604 190.009C145.619 190.046 145.646 190.076 145.66 190.099C145.689 190.159 145.743 190.219 145.772 190.28C145.799 190.31 145.827 190.34 145.841 190.362C145.895 190.422 145.937 190.49 145.991 190.55C146.005 190.572 146.044 190.594 146.058 190.617C146.678 191.23 147.714 191.796 149.265 192.252C161.871 196.029 181.938 189.031 188.01 186.711C186.581 189.539 185.05 192.354 183.326 195.134L183.256 195.243C183.197 195.328 183.151 195.405 183.105 195.497C183.105 195.497 183.105 195.497 183.093 195.505L182.065 197.097C179.757 200.568 177.088 203.925 174.056 207.167C173.383 206.967 172.491 206.703 171.395 206.413C171.278 206.377 171.163 206.356 171.046 206.32C170.569 206.201 170.053 206.059 169.512 205.932C169.37 205.897 169.241 205.869 169.099 205.834C168.79 205.764 168.468 205.687 168.146 205.609C167.914 205.553 167.682 205.497 167.438 205.448C167.258 205.406 167.077 205.364 166.872 205.323C166.254 205.183 165.598 205.051 164.917 204.92C164.583 204.851 164.236 204.789 163.889 204.728C159.56 203.924 154.427 203.273 149.23 203.311C148.976 203.316 148.735 203.313 148.481 203.318C148.405 203.32 148.328 203.321 148.252 203.323C148.062 203.334 147.871 203.331 147.681 203.342C147.605 203.344 147.554 203.345 147.478 203.346C147.238 203.359 146.984 203.364 146.743 203.377C146.692 203.378 146.667 203.378 146.616 203.379C146.413 203.383 146.21 203.403 146.02 203.414C145.944 203.416 145.881 203.425 145.805 203.426C145.615 203.438 145.425 203.449 145.248 203.468C145.197 203.469 145.147 203.47 145.109 203.479C144.881 203.498 144.654 203.518 144.426 203.538C144.375 203.539 144.312 203.548 144.275 203.557C144.098 203.575 143.921 203.594 143.744 203.613C143.681 203.622 143.618 203.631 143.555 203.64C143.353 203.659 143.15 203.679 142.961 203.705C142.936 203.706 142.923 203.714 142.91 203.706C142.696 203.734 142.481 203.761 142.267 203.788C142.204 203.797 142.166 203.805 142.115 203.807C141.952 203.833 141.788 203.859 141.636 203.877C141.585 203.878 141.536 203.895 141.485 203.896C141.283 203.93 141.082 203.965 140.881 203.999C140.881 203.999 140.868 204.007 140.855 204C140.666 204.027 140.478 204.069 140.302 204.103C140.264 204.111 140.201 204.12 140.163 204.128C140.013 204.162 139.849 204.188 139.698 204.222C139.661 204.23 139.635 204.231 139.598 204.239C139.409 204.281 139.233 204.315 139.058 204.365C139.033 204.365 139.021 204.373 139.008 204.381C138.858 204.414 138.695 204.456 138.557 204.497C138.52 204.505 138.482 204.514 138.444 204.522C138.281 204.563 138.119 204.605 137.969 204.654L137.957 204.662C137.794 204.703 137.632 204.76 137.482 204.808C137.47 204.816 137.444 204.817 137.42 204.833C137.282 204.874 137.158 204.922 137.02 204.963C137.008 204.971 136.97 204.979 136.958 204.987C136.672 205.092 136.398 205.189 136.15 205.301C136.138 205.309 136.125 205.317 136.1 205.317C135.989 205.373 135.877 205.413 135.765 205.469C135.753 205.477 135.753 205.477 135.741 205.485C135.506 205.604 135.297 205.722 135.113 205.841C135.1 205.848 135.088 205.856 135.076 205.864C134.88 205.99 134.721 206.108 134.563 206.241C134.491 206.303 134.431 206.373 134.371 206.428C134.358 206.435 134.358 206.435 134.346 206.443C134.226 206.568 134.132 206.707 134.064 206.846L134.052 206.854C134.017 206.923 133.995 206.984 133.961 207.054C133.961 207.054 133.949 207.062 133.962 207.069C133.919 207.207 133.901 207.345 133.897 207.49L133.898 207.505C133.976 208.655 135.813 209.906 139.999 211.102C149.959 213.926 166.642 210.017 172.927 208.334C170.104 211.236 167.022 214.036 163.628 216.721L161.619 218.28C160.949 218.789 160.265 219.291 159.582 219.793C156.81 221.794 153.881 223.707 150.807 225.539C150.625 225.466 150.417 225.394 150.184 225.308C150.066 225.257 149.937 225.213 149.807 225.17C149.547 225.069 149.262 224.968 148.95 224.852C148.016 224.505 146.874 224.101 145.512 223.618C145.059 223.467 144.592 223.294 144.087 223.129C143.827 223.043 143.568 222.956 143.322 222.862C140.704 221.97 137.48 220.93 133.69 219.764C133.508 219.707 133.327 219.65 133.147 219.607C133.082 219.586 133.031 219.572 132.966 219.55C132.849 219.514 132.721 219.487 132.591 219.443C132.526 219.422 132.449 219.408 132.385 219.387C132.268 219.351 132.153 219.33 132.036 219.295C131.959 219.281 131.881 219.252 131.804 219.238C131.701 219.21 131.572 219.182 131.469 219.154C131.392 219.14 131.314 219.111 131.237 219.097C131.134 219.069 131.018 219.048 130.889 219.021C130.812 219.007 130.722 218.986 130.657 218.964C130.542 218.944 130.439 218.915 130.31 218.887C130.233 218.874 130.156 218.86 130.091 218.839C129.962 218.811 129.847 218.79 129.731 218.77C129.654 218.756 129.603 218.742 129.526 218.728C129.372 218.701 129.217 218.673 129.063 218.646C129.025 218.639 128.986 218.632 128.948 218.625C128.755 218.591 128.563 218.557 128.37 218.523C128.318 218.509 128.255 218.502 128.204 218.503C128.063 218.483 127.922 218.463 127.793 218.435C127.716 218.422 127.652 218.415 127.575 218.402C127.46 218.381 127.332 218.369 127.216 218.348C127.139 218.334 127.05 218.329 126.973 218.315C126.857 218.294 126.743 218.289 126.64 218.276C126.563 218.262 126.474 218.256 126.385 218.251C126.282 218.237 126.154 218.225 126.052 218.212C125.963 218.206 125.886 218.192 125.796 218.186C125.694 218.173 125.579 218.168 125.464 218.147C125.374 218.142 125.297 218.128 125.208 218.122C125.093 218.117 124.991 218.104 124.863 218.091C124.774 218.085 124.71 218.079 124.62 218.073C124.493 218.06 124.378 218.055 124.25 218.042C124.186 218.036 124.11 218.038 124.046 218.031C123.868 218.02 123.664 218.009 123.485 217.997C123.421 217.991 123.37 217.992 123.306 217.985C123.179 217.973 123.052 217.975 122.924 217.963C122.834 217.957 122.758 217.959 122.669 217.953C122.554 217.947 122.453 217.949 122.35 217.936C122.261 217.931 122.185 217.932 122.083 217.934C121.982 217.936 121.892 217.93 121.791 217.932C121.702 217.927 121.613 217.936 121.524 217.93C121.422 217.932 121.333 217.927 121.231 217.929C121.142 217.923 121.054 217.932 120.964 217.926C120.863 217.929 120.787 217.93 120.685 217.932C120.583 217.934 120.507 217.936 120.406 217.938C120.316 217.932 120.228 217.941 120.126 217.944C120.025 217.946 119.949 217.947 119.847 217.949C119.771 217.951 119.669 217.953 119.593 217.954C119.492 217.956 119.403 217.966 119.314 217.96C119.238 217.962 119.149 217.971 119.073 217.973C118.883 217.984 118.68 217.988 118.478 218.008C118.415 218.017 118.351 218.01 118.288 218.019C118.186 218.021 118.085 218.039 117.984 218.041C117.908 218.042 117.845 218.051 117.769 218.053C117.68 218.062 117.566 218.072 117.478 218.081C117.415 218.09 117.339 218.092 117.276 218.101C117.187 218.11 117.073 218.12 116.985 218.13C116.922 218.139 116.846 218.14 116.783 218.149C116.694 218.158 116.593 218.176 116.492 218.178C116.429 218.187 116.366 218.196 116.303 218.205C116.202 218.222 116.114 218.231 116.013 218.249C115.95 218.257 115.887 218.266 115.824 218.275C115.723 218.293 115.635 218.302 115.534 218.319C115.483 218.32 115.433 218.337 115.382 218.338C115.282 218.355 115.181 218.372 115.08 218.39C115.055 218.39 115.017 218.398 115.005 218.406C114.628 218.475 114.251 218.559 113.887 218.635C113.861 218.636 113.849 218.643 113.824 218.644C113.711 218.669 113.623 218.694 113.523 218.726C113.486 218.735 113.448 218.743 113.41 218.752C113.323 218.776 113.223 218.809 113.122 218.826C113.085 218.834 113.047 218.843 112.997 218.859C112.909 218.884 112.822 218.908 112.722 218.941C112.684 218.949 112.647 218.958 112.61 218.981C112.522 219.006 112.435 219.031 112.348 219.071C112.31 219.079 112.286 219.095 112.248 219.103C112.161 219.128 112.074 219.168 111.986 219.192C111.962 219.208 111.936 219.209 111.912 219.224C111.812 219.257 111.725 219.297 111.651 219.329C111.639 219.337 111.639 219.337 111.626 219.345C111.217 219.513 110.845 219.688 110.513 219.886C110.501 219.894 110.489 219.902 110.489 219.902C110.415 219.949 110.354 219.988 110.28 220.036C110.268 220.043 110.243 220.059 110.231 220.067C110.17 220.106 110.096 220.154 110.035 220.193C110.01 220.209 109.998 220.217 109.974 220.232C109.912 220.272 109.864 220.319 109.79 220.366C109.766 220.382 109.754 220.389 109.742 220.413C109.694 220.459 109.633 220.499 109.572 220.553C109.56 220.561 109.535 220.577 109.536 220.592C109.488 220.639 109.428 220.694 109.379 220.74C109.367 220.748 109.367 220.748 109.355 220.756C109.127 220.997 108.938 221.245 108.8 221.507C108.778 221.568 108.743 221.623 108.721 221.684C108.722 221.699 108.71 221.707 108.711 221.722C108.689 221.784 108.679 221.837 108.644 221.892C108.645 221.907 108.633 221.93 108.634 221.945C108.625 221.999 108.603 222.06 108.593 222.114C108.594 222.129 108.582 222.152 108.583 222.167C108.574 222.221 108.565 222.29 108.555 222.343C108.556 222.358 108.545 222.382 108.545 222.397C108.549 222.458 108.539 222.511 108.53 222.58C108.531 222.595 108.532 222.611 108.533 222.626C108.545 223.281 108.827 224 109.405 224.782C114.852 232.083 140.264 228.126 148.969 226.53C143.911 229.447 138.483 232.143 132.736 234.57C132.711 234.571 132.711 234.571 132.685 234.572L130.538 235.477C127.121 236.866 123.598 238.166 119.98 239.368C119.941 239.361 119.903 239.354 119.864 239.348C119.595 239.3 119.35 239.251 119.094 239.211C119.055 239.204 119.03 239.204 118.991 239.198C118.735 239.157 118.478 239.116 118.21 239.084C118.184 239.084 118.146 239.078 118.133 239.07C117.864 239.037 117.595 239.005 117.326 238.972C117.276 238.973 117.224 238.959 117.173 238.96C116.918 238.935 116.649 238.902 116.381 238.885C116.33 238.886 116.292 238.879 116.241 238.88C115.96 238.855 115.692 238.838 115.399 238.821L115.373 238.821C115.105 238.804 114.825 238.794 114.545 238.785C114.494 238.786 114.456 238.779 114.405 238.78C114.125 238.771 113.858 238.768 113.591 238.766C113.54 238.767 113.489 238.768 113.425 238.762C113.158 238.76 112.878 238.75 112.599 238.756C112.56 238.749 112.522 238.757 112.472 238.759C112.205 238.756 111.925 238.762 111.659 238.775C111.634 238.776 111.608 238.776 111.583 238.777C111.304 238.782 111.012 238.796 110.746 238.809C110.695 238.81 110.644 238.811 110.594 238.812C110.327 238.825 110.049 238.846 109.783 238.859C109.732 238.86 109.681 238.861 109.63 238.862C109.352 238.883 109.074 238.904 108.795 238.925C108.77 238.925 108.757 238.933 108.732 238.934C108.454 238.955 108.188 238.983 107.91 239.004C107.872 239.012 107.821 239.013 107.796 239.014C107.531 239.042 107.24 239.071 106.975 239.099C106.924 239.1 106.861 239.109 106.823 239.118C106.546 239.154 106.28 239.182 106.003 239.218C105.965 239.227 105.914 239.228 105.877 239.236C105.599 239.272 105.335 239.316 105.057 239.352C105.045 239.36 105.032 239.353 105.019 239.36C104.73 239.404 104.465 239.448 104.175 239.492C104.138 239.5 104.075 239.509 104.037 239.518C103.773 239.561 103.496 239.613 103.231 239.656C103.181 239.672 103.131 239.673 103.081 239.69C102.804 239.741 102.527 239.792 102.264 239.851C102.238 239.852 102.214 239.868 102.188 239.868C101.925 239.927 101.66 239.97 101.397 240.029C101.359 240.037 101.321 240.046 101.296 240.046C101.032 240.105 100.769 240.164 100.505 240.223C100.455 240.239 100.405 240.24 100.355 240.256C100.091 240.315 99.8406 240.381 99.5771 240.44C99.5394 240.448 99.4895 240.465 99.4518 240.473C99.176 240.54 98.9255 240.606 98.6497 240.672C98.3869 240.746 98.1111 240.813 97.8484 240.887C97.8107 240.895 97.7608 240.912 97.7231 240.92C97.4727 240.986 97.2231 241.067 96.9726 241.134C96.9227 241.15 96.885 241.158 96.8351 241.174C96.5855 241.256 96.3351 241.322 96.0855 241.403C96.0478 241.412 96.0355 241.42 95.9979 241.428C95.7606 241.501 95.511 241.583 95.2736 241.656C95.2614 241.664 95.2237 241.672 95.2114 241.68C94.9618 241.762 94.7245 241.835 94.488 241.924C94.4381 241.94 94.4005 241.949 94.3505 241.965C94.1263 242.046 93.8767 242.127 93.6525 242.208C93.6149 242.216 93.5781 242.24 93.5404 242.248C93.304 242.337 93.0675 242.426 92.831 242.514L92.8188 242.522C92.5823 242.611 92.3458 242.7 92.1347 242.788C92.0971 242.796 92.0726 242.812 92.0349 242.82C91.8238 242.909 91.5996 242.989 91.3763 243.085C91.3263 243.102 91.3018 243.118 91.2519 243.134C91.0408 243.222 90.8175 243.318 90.6064 243.406C90.5819 243.422 90.5565 243.423 90.532 243.438C90.3209 243.526 90.1229 243.622 89.9118 243.71C89.8996 243.718 89.8873 243.726 89.8619 243.726C89.664 243.822 89.4529 243.91 89.2549 244.006C89.2304 244.021 89.1805 244.038 89.156 244.054C88.958 244.149 88.7723 244.237 88.5744 244.332C88.5498 244.348 88.5122 244.356 88.4754 244.38C88.2774 244.476 88.0926 244.579 87.8947 244.674L87.8824 244.682C87.6976 244.785 87.5119 244.873 87.3271 244.975C87.3025 244.991 87.2903 244.999 87.2657 245.015C87.0932 245.11 86.9206 245.205 86.7481 245.3C86.7235 245.316 86.699 245.331 86.6622 245.355C86.4896 245.45 86.3302 245.552 86.1699 245.64C86.1454 245.655 86.1331 245.663 86.1086 245.679C85.9492 245.781 85.7766 245.876 85.6426 245.978L85.6303 245.986C85.4709 246.089 85.3237 246.183 85.1896 246.285C85.1651 246.301 85.1406 246.316 85.1283 246.324C84.9812 246.419 84.8471 246.521 84.7253 246.615C84.7008 246.63 84.6885 246.638 84.664 246.654C84.53 246.756 84.3959 246.858 84.2741 246.952C84.2619 246.96 84.2619 246.96 84.2496 246.968C84.1278 247.062 83.9938 247.163 83.8851 247.265C83.8729 247.273 83.8606 247.281 83.8483 247.288C83.7266 247.382 83.6179 247.484 83.5215 247.577C83.497 247.593 83.4979 247.608 83.4733 247.624C83.3769 247.717 83.2683 247.819 83.1719 247.912C83.1596 247.92 83.1605 247.935 83.136 247.951C82.9441 248.153 82.7767 248.34 82.6224 248.534C82.6102 248.541 82.611 248.557 82.5988 248.565C82.5278 248.657 82.4568 248.75 82.398 248.836C82.3858 248.843 82.3866 248.859 82.3621 248.874C82.2911 248.967 82.2455 249.06 82.1999 249.152C82.1999 249.152 82.1876 249.16 82.2008 249.167C82.1552 249.26 82.1095 249.352 82.0762 249.437L82.0771 249.452C82.0437 249.537 82.0104 249.621 81.9902 249.713C81.991 249.728 81.9788 249.736 81.9796 249.752C82.0916 249.932 82.0705 250.009 82.0625 250.093C82.0634 250.108 82.0634 250.108 82.0643 250.124C82.0483 250.292 82.0456 250.467 82.0673 250.627C82.0682 250.642 82.0682 250.642 82.0691 250.657C82.0865 250.741 82.1031 250.809 82.1328 250.885C82.1336 250.9 82.1468 250.907 82.1476 250.923C82.1773 250.998 82.207 251.074 82.2621 251.149C82.2621 251.149 82.2753 251.156 82.2761 251.172C82.3181 251.239 82.3732 251.315 82.4283 251.39L82.4414 251.397C82.4965 251.472 82.5639 251.539 82.6312 251.607C82.6444 251.614 82.6452 251.629 82.6583 251.637C82.7257 251.704 82.8053 251.763 82.8981 251.83C82.9112 251.837 82.9243 251.845 82.9375 251.852C83.004 251.904 83.0967 251.971 83.2017 252.03C84.3718 252.715 86.4438 253.169 89.6289 253.302C108.201 254.021 117.897 244.558 120.814 241.075C124.544 239.847 128.168 238.515 131.684 237.093L133.622 236.291C139.569 233.798 145.208 231.029 150.465 228.032C147.004 232.892 139.58 245.222 148.927 250.24C151.404 251.57 153.629 252.02 155.537 251.836C155.55 251.828 155.563 251.836 155.575 251.828C156.131 251.771 156.671 251.66 157.171 251.498L157.183 251.49C157.682 251.327 158.165 251.111 158.609 250.858L158.621 250.851C159.064 250.597 159.492 250.291 159.867 249.956C159.879 249.948 159.879 249.948 159.891 249.94C159.964 249.877 160.049 249.807 160.109 249.737C160.398 249.457 160.673 249.154 160.947 248.836C160.959 248.828 160.971 248.805 160.983 248.797C161.043 248.727 161.089 248.65 161.161 248.572C161.173 248.564 161.172 248.549 161.185 248.541C161.362 248.301 161.526 248.054 161.689 247.791C161.701 247.783 161.7 247.768 161.712 247.76C161.759 247.683 161.805 247.606 161.852 247.528C161.863 247.505 161.887 247.474 161.898 247.451C161.945 247.374 161.979 247.305 162.012 247.22C162.024 247.197 162.035 247.174 162.059 247.143C162.184 246.889 162.31 246.634 162.41 246.381C162.433 246.35 162.432 246.319 162.443 246.296C162.477 246.227 162.498 246.15 162.519 246.073C162.53 246.035 162.553 245.989 162.563 245.95C162.584 245.874 162.619 245.804 162.64 245.728C162.662 245.682 162.673 245.643 162.683 245.59C162.704 245.513 162.738 245.444 162.747 245.375C162.757 245.336 162.768 245.298 162.778 245.26C162.821 245.122 162.864 244.983 162.882 244.846C162.892 244.792 162.901 244.739 162.924 244.692C162.933 244.624 162.955 244.562 162.964 244.493C162.973 244.44 162.995 244.378 162.992 244.317C163.001 244.249 163.023 244.187 163.031 244.118C163.053 244.057 163.05 243.996 163.059 243.927C163.068 243.858 163.077 243.805 163.086 243.736C163.106 243.644 163.114 243.56 163.121 243.461C163.142 243.384 163.138 243.308 163.159 243.231C163.167 243.147 163.176 243.078 163.184 242.994C163.194 242.941 163.19 242.88 163.2 242.826C163.209 242.757 163.204 242.681 163.213 242.612C163.21 242.551 163.219 242.498 163.216 242.437C163.212 242.361 163.219 242.277 163.228 242.208C163.238 242.154 163.235 242.109 163.232 242.048C163.237 241.918 163.23 241.796 163.236 241.666C163.234 241.636 163.232 241.605 163.243 241.567C163.25 241.468 163.232 241.369 163.239 241.27C163.236 241.224 163.233 241.163 163.23 241.117C163.226 241.041 163.221 240.95 163.216 240.873C163.214 240.828 163.21 240.767 163.208 240.721C163.202 240.63 163.185 240.546 163.18 240.455C163.177 240.409 163.175 240.363 163.172 240.318C163.152 240.188 163.132 240.059 163.112 239.93C163.111 239.915 163.097 239.892 163.109 239.869C163.089 239.755 163.07 239.641 163.051 239.527C163.048 239.481 163.034 239.444 163.018 239.39C163 239.307 162.982 239.208 162.965 239.125C162.962 239.079 162.946 239.026 162.932 238.988C162.901 238.897 162.896 238.806 162.865 238.715C162.85 238.677 162.848 238.631 162.833 238.593C162.8 238.457 162.768 238.336 162.722 238.207C162.721 238.192 162.708 238.184 162.72 238.176C162.688 238.055 162.644 237.942 162.611 237.82C162.596 237.782 162.582 237.745 162.566 237.691C162.535 237.601 162.505 237.51 162.462 237.427C162.434 237.381 162.431 237.336 162.403 237.291C162.373 237.2 162.33 237.117 162.299 237.026C162.284 236.988 162.27 236.95 162.255 236.912C162.197 236.791 162.152 236.663 162.081 236.535C162.081 236.535 162.068 236.527 162.08 236.519C162.022 236.398 161.965 236.278 161.907 236.157C161.892 236.119 161.877 236.081 161.837 236.044C161.794 235.961 161.738 235.87 161.695 235.787C161.667 235.742 161.653 235.704 161.625 235.659C161.582 235.576 161.526 235.486 161.471 235.411C161.456 235.373 161.416 235.336 161.401 235.298C161.318 235.177 161.248 235.064 161.165 234.944C159.946 233.169 158.823 231.743 157.818 230.605C157.519 230.275 157.248 229.976 156.978 229.691C156.707 229.407 156.451 229.145 156.183 228.907C155.807 228.548 155.446 228.228 155.113 227.952C155.006 227.863 154.899 227.774 154.792 227.684C154.366 227.342 153.995 227.075 153.652 226.854C153.573 226.794 153.494 226.75 153.402 226.699C153.271 226.625 153.152 226.543 153.047 226.485C156.144 224.622 159.109 222.67 161.918 220.645L164.078 219.053C167.989 216.083 171.575 212.96 174.797 209.706C173.947 215.13 172.659 230.752 185.657 231.577C186.218 231.612 186.728 231.632 187.237 231.637C187.364 231.634 187.478 231.639 187.605 231.637L187.631 231.636C187.758 231.634 187.859 231.632 187.973 231.622L187.998 231.621C188.1 231.619 188.214 231.609 188.315 231.607L188.341 231.607C188.518 231.603 188.632 231.593 188.734 231.591L188.759 231.59C188.861 231.588 188.961 231.571 189.063 231.569C189.075 231.561 189.088 231.568 189.101 231.561C189.189 231.551 189.303 231.541 189.391 231.532C189.404 231.524 189.417 231.531 189.429 231.523C189.517 231.514 189.618 231.497 189.707 231.487C189.719 231.479 189.732 231.487 189.744 231.479C189.833 231.469 189.921 231.46 190.009 231.435C190.021 231.427 190.034 231.435 190.046 231.427C190.135 231.417 190.21 231.401 190.298 231.376C190.31 231.368 190.323 231.376 190.335 231.368C190.411 231.351 190.499 231.341 190.587 231.317C190.599 231.309 190.612 231.316 190.624 231.308C190.7 231.292 190.775 231.275 190.863 231.25C190.875 231.242 190.888 231.25 190.9 231.242C190.976 231.225 191.051 231.208 191.125 231.176C191.138 231.168 191.151 231.176 191.163 231.168C191.238 231.151 191.3 231.127 191.388 231.102C191.4 231.094 191.4 231.094 191.426 231.094C191.488 231.07 191.563 231.053 191.638 231.021C191.65 231.013 191.65 231.013 191.675 231.012C191.737 230.988 191.8 230.964 191.874 230.932C191.886 230.924 191.886 230.924 191.899 230.916C191.961 230.892 192.023 230.868 192.097 230.836C192.11 230.828 192.11 230.828 192.122 230.82C192.184 230.796 192.245 230.757 192.308 230.733C192.32 230.725 192.32 230.725 192.332 230.717C192.394 230.693 192.456 230.653 192.505 230.622L192.517 230.614C192.566 230.582 192.627 230.543 192.69 230.519L192.702 230.511C192.751 230.48 192.812 230.44 192.861 230.409L192.873 230.401C192.923 230.369 192.984 230.33 193.02 230.291C193.02 230.291 193.02 230.291 193.032 230.283C193.093 230.244 193.129 230.205 193.191 230.166C193.239 230.119 193.288 230.087 193.336 230.041C194.398 229.043 194.611 227.643 194.201 226.012C194.184 225.943 194.168 225.875 194.151 225.807C194.151 225.807 194.151 225.807 194.138 225.799C194.122 225.731 194.105 225.663 194.076 225.602L194.075 225.587C194.059 225.519 194.03 225.458 194.013 225.39C194 225.383 194.012 225.375 193.999 225.368C193.983 225.299 193.954 225.239 193.924 225.163C193.911 225.156 193.923 225.148 193.91 225.141C193.894 225.072 193.865 225.012 193.823 224.944C193.822 224.929 193.809 224.921 193.821 224.914C193.792 224.853 193.776 224.785 193.734 224.717C193.733 224.702 193.72 224.694 193.719 224.679C193.69 224.619 193.673 224.551 193.631 224.483C193.631 224.468 193.617 224.46 193.617 224.445C193.588 224.385 193.559 224.324 193.529 224.248C193.528 224.233 193.515 224.226 193.514 224.211C193.485 224.15 193.444 224.082 193.415 224.022C193.414 224.007 193.401 223.999 193.387 223.977C193.358 223.916 193.316 223.849 193.287 223.788C193.286 223.773 193.26 223.758 193.259 223.743C193.23 223.683 193.188 223.615 193.159 223.554C193.159 223.539 193.145 223.517 193.131 223.509C193.103 223.449 193.061 223.381 193.032 223.321C193.031 223.305 193.017 223.283 193.004 223.275C192.975 223.215 192.933 223.147 192.904 223.087C192.89 223.064 192.889 223.049 192.863 223.034C192.834 222.974 192.792 222.906 192.763 222.846C192.749 222.823 192.749 222.808 192.722 222.793C192.693 222.733 192.651 222.665 192.597 222.605C192.583 222.582 192.582 222.567 192.556 222.552C192.514 222.485 192.473 222.432 192.431 222.364C192.417 222.342 192.416 222.326 192.402 222.304C192.36 222.236 192.319 222.184 192.277 222.116C192.263 222.093 192.249 222.071 192.236 222.063C192.194 221.995 192.153 221.943 192.111 221.875C192.097 221.853 192.083 221.83 192.07 221.823C192.028 221.755 191.987 221.702 191.945 221.635C191.931 221.612 191.917 221.589 191.891 221.575C191.849 221.507 191.794 221.447 191.766 221.387C191.752 221.364 191.738 221.341 191.724 221.319C191.682 221.251 191.627 221.191 191.585 221.123C191.571 221.101 191.557 221.078 191.544 221.071C191.502 221.003 191.448 220.943 191.406 220.875C191.392 220.853 191.378 220.83 191.352 220.815C191.298 220.755 191.256 220.688 191.202 220.628C191.188 220.605 191.161 220.59 191.147 220.568C191.093 220.508 191.051 220.44 190.997 220.38C190.983 220.358 190.969 220.335 190.943 220.32C190.888 220.26 190.846 220.193 190.792 220.133C190.778 220.11 190.752 220.095 190.751 220.08C190.697 220.02 190.642 219.945 190.588 219.885C190.574 219.863 190.547 219.848 190.546 219.833C190.492 219.773 190.437 219.698 190.383 219.638C190.369 219.615 190.356 219.608 190.342 219.585C190.274 219.518 190.232 219.45 190.165 219.383C190.164 219.368 190.138 219.353 190.137 219.338C190.07 219.271 190.015 219.195 189.947 219.128C189.934 219.121 189.933 219.106 189.907 219.091C189.852 219.016 189.785 218.948 189.704 218.874C189.691 218.866 189.69 218.851 189.69 218.851C189.622 218.769 189.554 218.701 189.486 218.619C188.957 218.027 188.39 217.444 187.798 216.861C187.731 216.794 187.65 216.719 187.583 216.652C187.556 216.637 187.556 216.622 187.529 216.607C187.475 216.548 187.395 216.488 187.341 216.428C187.327 216.406 187.288 216.384 187.274 216.361C187.22 216.301 187.153 216.249 187.099 216.189C187.072 216.159 187.032 216.137 187.018 216.115C186.952 216.063 186.898 216.003 186.844 215.958C186.817 215.928 186.79 215.898 186.751 215.876C186.684 215.824 186.643 215.771 186.577 215.719C186.55 215.689 186.509 215.652 186.482 215.622C186.429 215.578 186.375 215.518 186.321 215.473C186.281 215.436 186.254 215.406 186.214 215.368C186.16 215.324 186.107 215.279 186.053 215.219C186.012 215.182 185.985 215.152 185.945 215.115C185.892 215.07 185.838 215.025 185.785 214.981C185.745 214.943 185.704 214.906 185.677 214.876C185.624 214.831 185.571 214.787 185.517 214.742C185.477 214.705 185.437 214.667 185.396 214.63C185.343 214.585 185.29 214.541 185.236 214.496C185.196 214.459 185.156 214.421 185.116 214.384C185.062 214.339 185.009 214.295 184.955 214.25C184.915 214.213 184.875 214.176 184.822 214.146C184.769 214.101 184.716 214.057 184.662 214.012C184.622 213.975 184.582 213.937 184.529 213.908C184.476 213.863 184.436 213.826 184.382 213.781C184.342 213.744 184.289 213.699 184.236 213.67C184.183 213.625 184.143 213.588 184.077 213.551C184.037 213.514 183.983 213.469 183.931 213.44C183.878 213.395 183.837 213.358 183.772 213.321C183.731 213.284 183.678 213.239 183.626 213.21C183.572 213.165 183.532 213.128 183.466 213.091C183.426 213.054 183.36 213.017 183.32 212.979C183.267 212.935 183.214 212.905 183.161 212.861C183.121 212.823 183.055 212.787 183.015 212.749C182.975 212.712 182.909 212.675 182.869 212.638C182.828 212.601 182.763 212.564 182.723 212.526C182.682 212.489 182.617 212.452 182.576 212.415C182.536 212.378 182.471 212.341 182.43 212.304C182.39 212.266 182.324 212.229 182.284 212.192C182.244 212.155 182.178 212.118 182.138 212.081C182.098 212.043 182.032 212.007 181.992 211.969C181.952 211.932 181.886 211.895 181.846 211.858C181.806 211.821 181.74 211.784 181.7 211.747C181.659 211.709 181.594 211.672 181.554 211.635C181.513 211.598 181.448 211.561 181.407 211.524C181.355 211.494 181.302 211.45 181.249 211.42C181.197 211.391 181.143 211.346 181.091 211.317C181.038 211.287 180.985 211.243 180.932 211.213C180.88 211.184 180.84 211.146 180.774 211.11C180.721 211.08 180.668 211.035 180.616 211.006C180.563 210.977 180.523 210.939 180.47 210.91C180.418 210.88 180.364 210.836 180.312 210.806C180.259 210.777 180.219 210.74 180.167 210.71C180.114 210.681 180.061 210.636 180.008 210.607C179.956 210.577 179.915 210.54 179.863 210.51C179.81 210.481 179.757 210.436 179.705 210.407C179.652 210.377 179.612 210.34 179.559 210.311C179.507 210.281 179.453 210.237 179.401 210.207C179.348 210.178 179.296 210.148 179.256 210.111C179.203 210.082 179.138 210.045 179.097 210.007C179.045 209.978 178.992 209.949 178.952 209.911C178.9 209.882 178.847 209.852 178.794 209.808C178.741 209.778 178.689 209.749 178.636 209.719C178.584 209.69 178.518 209.653 178.465 209.624C178.413 209.594 178.36 209.565 178.321 209.543C178.269 209.513 178.216 209.484 178.15 209.447C178.098 209.418 178.045 209.388 178.006 209.366C177.954 209.337 177.901 209.307 177.849 209.278C177.796 209.249 177.757 209.226 177.704 209.197C177.652 209.168 177.599 209.138 177.547 209.109C177.494 209.079 177.455 209.057 177.402 209.028C177.35 208.998 177.297 208.969 177.245 208.939C177.192 208.91 177.153 208.888 177.1 208.859C177.048 208.829 176.995 208.8 176.943 208.77C176.903 208.748 176.851 208.719 176.811 208.697C176.759 208.667 176.706 208.638 176.641 208.601C176.601 208.579 176.549 208.549 176.51 208.527C176.457 208.498 176.391 208.461 176.327 208.44C176.314 208.432 176.287 208.418 176.274 208.41C178.553 206.015 180.625 203.548 182.491 201.023C183.009 200.311 183.528 199.599 184.021 198.872L184.924 197.535C186.784 194.698 188.426 191.812 189.951 188.891C190.411 193.884 193.382 204.149 209.365 207.842C212.494 208.564 214.752 208.709 216.286 208.418C216.286 208.418 216.299 208.41 216.312 208.418C216.45 208.392 216.575 208.359 216.701 208.326C216.701 208.326 216.713 208.318 216.726 208.325C216.851 208.292 216.963 208.252 217.089 208.219C217.325 208.13 217.523 208.034 217.72 207.924C217.806 207.868 217.892 207.813 217.964 207.751L217.977 207.743C218.049 207.68 218.122 207.618 218.182 207.548C218.182 207.548 218.182 207.548 218.194 207.54C218.398 207.33 218.538 207.099 218.638 206.845C218.638 206.845 218.65 206.837 218.637 206.83C218.67 206.745 218.69 206.653 218.724 206.569C218.724 206.569 218.736 206.561 218.723 206.553C218.783 206.278 218.805 205.98 218.761 205.66L218.76 205.645C218.754 205.538 218.736 205.44 218.717 205.326L218.716 205.31C218.646 204.976 218.537 204.62 218.376 204.25C218.363 204.242 218.375 204.235 218.362 204.227C218.305 204.106 218.26 203.993 218.189 203.865C218.176 203.857 218.175 203.842 218.175 203.842C218.118 203.721 218.047 203.593 217.976 203.465L217.963 203.457C217.821 203.201 217.653 202.93 217.485 202.659C217.472 202.651 217.471 202.636 217.471 202.636C217.387 202.501 217.291 202.373 217.207 202.237C217.206 202.222 217.193 202.215 217.179 202.192C217.083 202.065 216.986 201.922 216.89 201.794C216.877 201.787 216.876 201.771 216.876 201.771C216.67 201.493 216.438 201.216 216.205 200.923C216.192 200.916 216.191 200.901 216.178 200.893C216.069 200.758 215.946 200.616 215.811 200.481C215.797 200.459 215.784 200.451 215.77 200.429C215.648 200.286 215.513 200.152 215.391 200.01C215.378 200.002 215.364 199.98 215.35 199.972C215.08 199.688 214.784 199.389 214.487 199.09C214.474 199.083 214.473 199.067 214.46 199.06C214.312 198.918 214.164 198.776 214.016 198.634C214.002 198.612 213.976 198.597 213.962 198.574C213.814 198.433 213.666 198.291 213.506 198.157C213.48 198.142 213.466 198.119 213.44 198.105C213.279 197.955 213.119 197.821 212.958 197.672C212.945 197.665 212.932 197.657 212.931 197.642C212.77 197.493 212.596 197.352 212.423 197.21C212.41 197.203 212.397 197.196 212.396 197.18C212.223 197.039 212.05 196.898 211.876 196.756C211.85 196.742 211.823 196.712 211.797 196.697C211.624 196.555 211.45 196.414 211.265 196.281C211.225 196.259 211.211 196.236 211.172 196.214C210.999 196.073 210.8 195.932 210.627 195.79C210.601 195.776 210.6 195.76 210.574 195.746C210.387 195.597 210.202 195.463 210.003 195.323C209.99 195.315 209.977 195.308 209.964 195.301C209.765 195.16 209.566 195.019 209.368 194.878C209.328 194.856 209.314 194.833 209.275 194.811C209.09 194.678 208.891 194.537 208.693 194.411C208.654 194.389 208.627 194.359 208.587 194.337C208.389 194.196 208.191 194.071 207.992 193.93C207.966 193.915 207.927 193.893 207.913 193.871C207.702 193.738 207.49 193.589 207.279 193.456L207.266 193.449C207.055 193.316 206.831 193.176 206.62 193.043C206.581 193.021 206.554 193.006 206.515 192.984C206.304 192.851 206.093 192.718 205.883 192.6C205.844 192.578 205.805 192.556 205.765 192.534C205.554 192.401 205.331 192.276 205.121 192.158C205.082 192.136 205.055 192.121 205.016 192.099C204.78 191.967 204.557 191.842 204.32 191.709C204.307 191.702 204.307 191.702 204.294 191.695C204.071 191.57 203.835 191.437 203.611 191.312C203.585 191.297 203.546 191.275 203.52 191.26C203.296 191.135 203.061 191.018 202.838 190.893C202.798 190.871 202.759 190.849 202.72 190.827C202.484 190.71 202.274 190.592 202.039 190.475C201.999 190.453 201.96 190.431 201.908 190.416C201.673 190.299 201.438 190.182 201.189 190.057C201.176 190.05 201.15 190.035 201.136 190.028C200.901 189.911 200.653 189.801 200.418 189.684C200.392 189.669 200.365 189.655 200.327 189.648C200.079 189.538 199.844 189.421 199.609 189.319C199.57 189.297 199.518 189.283 199.479 189.261C199.244 189.159 198.997 189.05 198.762 188.948C198.723 188.926 198.671 188.911 198.632 188.889C198.384 188.78 198.137 188.686 197.877 188.584C197.851 188.57 197.812 188.563 197.799 188.555C197.552 188.461 197.293 188.36 197.046 188.266C197.033 188.258 196.994 188.252 196.981 188.244C196.721 188.143 196.474 188.049 196.215 187.962C196.163 187.948 196.124 187.926 196.086 187.919C195.839 187.825 195.58 187.739 195.334 187.66C195.282 187.646 195.243 187.624 195.191 187.61C194.932 187.523 194.673 187.437 194.427 187.358C194.388 187.351 194.362 187.337 194.324 187.33C194.064 187.244 193.793 187.165 193.534 187.079C193.521 187.072 193.508 187.064 193.495 187.072C193.224 186.994 192.953 186.916 192.695 186.845C192.656 186.838 192.604 186.824 192.578 186.809C192.32 186.738 192.062 186.667 191.803 186.596C191.752 186.582 191.7 186.567 191.662 186.561C191.52 186.525 191.378 186.49 191.223 186.447C193.389 182.056 195.362 177.616 197.426 173.212L198.401 171.133C199.572 168.692 200.795 166.265 202.121 163.866C205.748 168.436 217.871 182.755 227.035 183.658C229.834 183.929 231.835 183.355 233.07 182.262C233.094 182.246 233.093 182.231 233.118 182.215C233.323 182.02 233.515 181.818 233.693 181.593C233.704 181.57 233.716 181.562 233.728 181.539C233.88 181.315 234.032 181.075 234.145 180.829C234.157 180.806 234.156 180.791 234.167 180.768C234.223 180.637 234.267 180.514 234.323 180.383C234.323 180.383 234.335 180.375 234.322 180.368C234.366 180.245 234.397 180.115 234.44 179.977C234.451 179.953 234.451 179.938 234.462 179.915C234.493 179.785 234.523 179.639 234.54 179.502C234.539 179.486 234.552 179.479 234.551 179.463C234.568 179.326 234.574 179.196 234.591 179.058C234.591 179.043 234.602 179.02 234.588 178.997C234.592 178.852 234.597 178.707 234.588 178.555C234.587 178.54 234.586 178.509 234.585 178.494C234.577 178.357 234.569 178.22 234.548 178.075C234.548 178.06 234.547 178.045 234.533 178.022C234.524 177.87 234.49 177.718 234.456 177.566C234.454 177.536 234.44 177.513 234.452 177.49C234.431 177.346 234.385 177.202 234.364 177.057C234.363 177.042 234.362 177.027 234.361 177.012C234.327 176.86 234.28 176.701 234.233 176.541C234.231 176.511 234.204 176.481 234.202 176.451C234.143 176.299 234.109 176.147 234.036 175.989C234.023 175.981 234.035 175.973 234.022 175.966C233.95 175.807 233.889 175.641 233.817 175.482C233.802 175.444 233.788 175.422 233.773 175.384C233.628 175.067 233.445 174.742 233.249 174.426C233.234 174.388 233.207 174.358 233.192 174.321C233.094 174.162 232.996 174.004 232.885 173.839C232.872 173.831 232.871 173.816 232.871 173.816C232.761 173.666 232.664 173.523 232.553 173.373C232.526 173.343 232.498 173.298 232.471 173.268C232.348 173.11 232.238 172.96 232.102 172.81C232.088 172.787 232.062 172.773 232.048 172.75C231.925 172.608 231.816 172.473 231.681 172.338C231.654 172.308 231.614 172.271 231.587 172.241C231.451 172.091 231.304 171.949 231.155 171.792C231.128 171.762 231.101 171.747 231.074 171.718C230.94 171.583 230.806 171.464 230.671 171.329C230.644 171.299 230.604 171.262 230.564 171.24C230.403 171.091 230.243 170.957 230.07 170.815C230.043 170.785 229.99 170.756 229.963 170.726C229.816 170.599 229.657 170.48 229.498 170.362C229.458 170.34 229.431 170.31 229.392 170.288C229.206 170.154 229.021 170.021 228.835 169.887C228.783 169.858 228.756 169.828 228.703 169.798C228.519 169.68 228.359 169.561 228.162 169.451C228.136 169.436 228.097 169.414 228.071 169.399C227.873 169.274 227.65 169.149 227.452 169.023C227.399 168.994 227.347 168.964 227.294 168.935C227.097 168.824 226.887 168.707 226.678 168.604C226.665 168.597 226.639 168.582 226.626 168.575C226.39 168.458 226.168 168.348 225.933 168.23C225.88 168.201 225.815 168.179 225.763 168.15C225.515 168.041 225.28 167.923 225.033 167.829C217.456 164.659 210.363 163.294 205.855 162.699C204.626 162.541 203.603 162.44 202.799 162.373C205.055 158.445 207.632 154.579 210.777 150.855L210.836 150.785C210.884 150.738 210.919 150.684 210.968 150.637L212.018 149.426C212.018 149.426 212.018 149.426 212.017 149.411C212.101 149.325 212.172 149.232 212.256 149.147L212.292 149.108C213.022 148.308 213.765 147.515 214.547 146.728C223.975 137.263 236.965 129.174 252.346 123.148C253.838 122.569 252.101 121.285 250.62 121.857C237.017 127.182 225.222 134.141 216.095 142.198C214.001 144.048 212.076 145.963 210.305 147.905L208.931 149.466C205.52 153.425 202.691 157.547 200.235 161.761C200.039 161.666 199.83 161.579 199.622 161.492C199.583 161.47 199.518 161.448 199.479 161.426C199.218 161.309 198.945 161.2 198.672 161.092C198.645 161.077 198.62 161.077 198.594 161.063C198.334 160.961 198.074 160.86 197.814 160.758C197.762 160.744 197.736 160.729 197.697 160.707C197.424 160.614 197.164 160.512 196.892 160.419C196.84 160.404 196.776 160.383 196.736 160.361C196.464 160.267 196.205 160.181 195.934 160.103C195.895 160.096 195.856 160.074 195.817 160.067C195.546 159.989 195.3 159.91 195.029 159.831C194.99 159.824 194.977 159.817 194.951 159.802C194.679 159.724 194.396 159.654 194.138 159.583C194.086 159.568 194.034 159.554 193.983 159.54C193.712 159.477 193.454 159.406 193.171 159.351C193.119 159.336 193.081 159.33 193.029 159.315C192.759 159.252 192.476 159.197 192.206 159.134L192.192 159.127C191.91 159.071 191.627 159.016 191.344 158.961C191.293 158.947 191.242 158.948 191.19 158.933C190.92 158.886 190.651 158.838 190.369 158.798C190.305 158.791 190.253 158.777 190.203 158.778C189.921 158.738 189.651 158.69 189.382 158.658C189.357 158.658 189.318 158.651 189.305 158.644C189.037 158.611 188.78 158.571 188.524 158.545C188.486 158.539 188.435 158.54 188.397 158.533C188.128 158.5 187.847 158.475 187.591 158.45C187.527 158.444 187.476 158.445 187.413 158.439C187.145 158.421 186.876 158.388 186.608 158.371C186.569 158.364 186.519 158.365 186.48 158.358C186.212 158.341 185.97 158.323 185.715 158.313C185.69 158.314 185.651 158.307 185.626 158.307C185.358 158.29 185.091 158.288 184.811 158.278C184.76 158.279 184.696 158.273 184.645 158.274C184.378 158.272 184.123 158.262 183.856 158.259C183.805 158.26 183.755 158.261 183.704 158.262C183.437 158.26 183.17 158.258 182.903 158.256L182.877 158.256C182.61 158.254 182.331 158.26 182.065 158.273C182.014 158.274 181.963 158.275 181.913 158.276C181.659 158.281 181.392 158.294 181.139 158.3C181.088 158.301 181.037 158.302 180.974 158.311C180.708 158.324 180.442 158.337 180.189 158.357C180.163 158.358 180.138 158.358 180.112 158.359C179.872 158.371 179.619 158.392 179.365 158.412C179.315 158.413 179.277 158.421 179.226 158.422C178.973 158.443 178.72 158.463 178.48 158.491C178.344 158.547 178.293 158.548 178.23 158.557Z" fill="#3D4775"/>
<path d="M112.708 151.749C112.708 151.749 207.293 91.7056 220.228 35.9952C224.62 17.0928 221.024 1.81934 214.337 -10.1096C200.409 -34.9828 150.452 -45.1276 123.002 -28.6639C109.837 -20.7689 97.3185 -8.7731 89.5664 9.45013C66.7306 63.1522 112.708 151.749 112.708 151.749Z" fill="#2F8C91"/>
<path d="M157.101 6.43534C155.879 10.2185 154.65 13.9954 153.429 17.7786C130.606 20.0804 107.775 22.3759 84.9421 24.6817C84.8522 25.1368 84.7623 25.5919 84.6893 26.0493C107.451 23.755 130.213 21.4607 152.975 19.1664C151.818 22.7378 150.659 26.3195 149.502 29.8908C127.773 32.3139 105.751 34.1201 83.5079 35.2979C83.4807 35.7352 83.4367 36.1703 83.4096 36.6076C105.538 35.4511 127.426 33.6742 149.047 31.2889C147.935 34.7246 146.823 38.1603 145.71 41.596C124.854 43.3179 104.008 45.0359 83.1517 46.7578C83.1583 47.1997 83.165 47.6416 83.1794 48.0898C103.87 46.3823 124.577 44.677 145.267 42.9694C144.106 46.5717 142.927 50.1717 141.766 53.774C122.765 56.4446 103.491 58.6161 83.9878 60.2687C84.0374 60.7111 84.0793 61.1473 84.1382 61.5857C103.431 59.9573 122.502 57.8265 141.306 55.203C140.104 58.9101 138.902 62.6171 137.708 66.3305C120.558 68.5787 103.164 70.3531 85.5814 71.6399C85.6494 72.0744 85.7343 72.5111 85.8023 72.9455C103.158 71.6806 120.322 69.9486 137.25 67.7492C136.274 70.7675 135.289 73.7898 134.313 76.8081C119.039 79.2414 103.511 81.2254 87.7715 82.7505C87.8733 83.1894 87.9674 83.6221 88.0692 84.0611C103.554 82.57 118.817 80.6342 133.841 78.2617C132.651 81.9442 131.461 85.6266 130.271 89.309C117.707 92.1918 104.52 94.1769 90.912 95.244C91.0322 95.6749 91.1523 96.1059 91.2802 96.5431C104.574 95.5071 117.458 93.5967 129.779 90.8491C129.37 92.1012 128.969 93.3596 128.56 94.6117C128.314 94.7675 128.204 94.9994 128.347 95.2655C128.056 96.1764 127.756 97.081 127.464 97.9919C116.859 100.966 105.266 102.641 93.168 102.951C93.305 103.384 93.4343 103.811 93.5714 104.244C105.3 103.932 116.558 102.374 126.934 99.6161C126.037 102.377 125.15 105.135 124.253 107.896C115.193 109.865 105.852 111.387 96.2642 112.456C96.4181 112.892 96.5644 113.321 96.7183 113.757C105.973 112.727 115.004 111.273 123.764 109.415C122.937 111.981 122.094 114.545 121.268 117.111C114.827 117.791 108.402 118.473 101.96 119.152C100.902 119.267 99.8197 119.373 98.7617 119.487C98.9248 119.919 99.0802 120.344 99.2356 120.769C100.818 120.599 102.397 120.45 103.962 120.288C109.581 119.697 115.193 119.1 120.813 118.509C120.111 120.682 119.41 122.845 118.708 125.019C113.29 126.256 107.764 127.348 102.131 128.274C102.302 128.711 102.482 129.145 102.655 129.573C107.925 128.709 113.112 127.708 118.198 126.567C117.376 129.102 116.563 131.633 115.734 134.162C112.312 134.855 108.837 135.447 105.291 135.924C105.478 136.364 105.668 136.794 105.849 137.217C109.027 136.785 112.173 136.27 115.255 135.667C114.764 137.197 114.265 138.72 113.774 140.25C111.761 140.666 109.756 141.089 107.752 141.501C107.947 141.947 108.146 142.373 108.336 142.792C109.986 142.448 111.636 142.104 113.277 141.763C112.542 144.048 111.8 146.326 111.056 148.614C112.044 150.648 112.62 151.749 112.62 151.749C112.62 151.749 113.773 151.023 115.826 149.651C116.649 147.106 117.473 144.561 118.296 142.015C119.261 143.295 120.37 144.531 121.588 145.73C122.027 145.422 122.476 145.11 122.943 144.789C121.414 143.234 120.076 141.604 118.973 139.901C119.541 138.125 120.127 136.351 120.695 134.574C122.574 137.069 124.761 139.459 127.255 141.743C127.694 141.435 128.126 141.121 128.576 140.798C125.972 138.378 123.706 135.82 121.824 133.162C121.703 132.983 121.504 132.867 121.282 132.79C122.345 129.52 123.399 126.255 124.462 122.986C128.139 127.142 132.042 131.228 136.143 135.246C136.576 134.921 137.018 134.592 137.453 134.257C133.081 129.961 128.945 125.581 125.059 121.13C126.007 118.191 126.964 115.249 127.911 112.311C133.097 117.983 138.506 123.595 144.107 129.133C144.542 128.798 144.959 128.461 145.395 128.116C139.539 122.312 133.901 116.432 128.496 110.479C129.658 106.877 130.828 103.271 131.99 99.6682C138.485 107.291 145.42 114.789 152.77 122.154C153.189 121.807 153.608 121.459 154.037 121.107C146.433 113.466 139.281 105.676 132.594 97.76C133.359 95.3852 134.133 93.0064 134.898 90.6316C144.096 98.3879 153.293 106.144 162.491 113.9C162.884 113.554 163.277 113.209 163.679 112.859C154.267 104.916 144.845 96.977 135.425 89.028C136.918 84.4204 138.41 79.8127 139.903 75.2051C149.188 86.0077 159.352 96.5614 170.35 106.818C170.746 106.452 171.133 106.089 171.529 105.722C160.3 95.2089 149.941 84.3925 140.513 73.3135C141.874 69.0923 143.242 64.8775 144.612 60.6523C157.447 71.8656 170.29 83.0853 183.126 94.2986C183.489 93.9172 183.861 93.5421 184.215 93.1647C171.188 81.7837 158.161 70.4027 145.125 59.0258C145.644 57.4158 146.164 55.8059 146.691 54.2023C147.32 52.2449 147.965 50.2897 148.594 48.3323C163.022 60.464 177.458 72.6021 191.886 84.7339C192.225 84.3439 192.573 83.9499 192.904 83.5536C178.306 71.2834 163.71 59.0029 149.112 46.7327C150.088 43.7143 151.064 40.696 152.04 37.6777C168.547 49.355 185.054 61.0322 201.57 72.7055C201.867 72.3046 202.165 71.9038 202.455 71.4966C185.9 59.7919 169.354 48.0832 152.799 36.3785C152.705 36.3133 152.608 36.2687 152.511 36.2241C153.911 31.9084 155.301 27.5968 156.701 23.2812C174.078 36.1835 191.445 49.0898 208.821 61.9921C209.08 61.5598 209.348 61.1235 209.607 60.6912C192.138 47.7134 174.669 34.7355 157.191 21.7617C158.24 18.5276 159.28 15.2974 160.33 12.0633C179.11 23.5589 197.906 35.0569 216.686 46.5526C216.871 46.0946 217.047 45.6405 217.215 45.1802C198.403 33.6697 179.592 22.1488 160.78 10.6383C161.901 7.19857 163.006 3.7566 164.127 0.3169C183.838 10.274 202.775 20.8406 220.858 31.964C220.949 31.4408 221.039 30.9278 221.111 30.4126C203.078 19.3641 184.2 8.86851 164.548 -1.01763C166.35 -6.60197 168.169 -12.184 169.971 -17.7684C187.654 -8.8777 204.737 0.478101 221.194 10.2533C221.093 9.62022 220.982 9.0015 220.864 8.37649C204.735 -1.15499 187.997 -10.2751 170.706 -18.9502C170.601 -19.0011 170.495 -19.0417 170.378 -19.068C171.131 -21.4181 171.9 -23.766 172.653 -26.1162C187.185 -19.3675 201.707 -12.6148 216.231 -5.87236C215.928 -6.53276 215.606 -7.18513 215.284 -7.8272C201.213 -14.3615 187.142 -20.8958 173.08 -27.4342C173.837 -29.7575 174.587 -32.087 175.336 -34.4063C173.758 -34.7609 172.149 -35.0725 170.543 -35.347C170.332 -34.7035 170.121 -34.06 169.909 -33.4164C155.355 -32.4192 140.801 -31.422 126.256 -30.4288C125.285 -29.956 124.344 -29.4478 123.416 -28.9166C138.77 -29.9635 154.116 -31.0167 169.478 -32.0676C168.799 -29.9911 168.136 -27.9123 167.456 -25.8357C149.332 -24.496 131.206 -23.1459 113.082 -21.8061C112.49 -21.3346 111.905 -20.8466 111.327 -20.3523C129.887 -21.7278 148.456 -23.1074 167.024 -24.4766C165.976 -21.2527 164.937 -18.0329 163.889 -14.809C143.232 -13.5222 122.583 -12.2291 101.926 -10.9423C101.543 -10.4847 101.16 -10.0272 100.783 -9.553C121.675 -10.8554 142.559 -12.1641 163.441 -13.4625C162.537 -10.6497 161.616 -7.83919 160.712 -5.02641C160.684 -4.94626 160.664 -4.87012 160.636 -4.78997C138.912 -2.71778 116.887 -1.37411 94.6364 -0.753848C94.3683 -0.317524 94.1079 0.125097 93.8553 0.574001C116.215 -0.026278 138.351 -1.36027 160.183 -3.41248C160.064 -3.05065 159.944 -2.68882 159.833 -2.331C159.78 -2.25941 159.752 -2.17926 159.758 -2.10484C158.996 0.249352 158.234 2.60354 157.463 4.96174C134.705 8.26977 111.565 10.8648 88.1106 12.7559C87.9517 13.2122 87.7758 13.6662 87.6246 14.1288C111.191 12.2949 134.33 9.71018 157.101 6.43534Z" fill="#286F7F"/>
<path d="M166.484 67.2402C182.128 68.6854 202.339 63.1245 209.505 60.9417C203.594 66.0912 198.259 71.3223 193.525 76.6343C141.173 78.0614 93.0966 94.4201 93.0966 94.4201C93.0966 94.4201 104.721 92.0008 137.517 89.5822C166.465 87.4445 185.866 80.4747 192.567 77.7207C188.195 82.7262 184.358 87.785 181.067 92.8935C179.874 94.7459 178.758 96.606 177.713 98.4672C163.793 103.238 139.442 99.9757 116.633 102.639C99.4678 104.64 83.8178 120.129 83.8178 120.129C83.8178 120.129 100.113 107.151 126.857 108.749C148.218 110.026 169.796 101.918 177.639 98.6008C174.329 104.528 171.749 110.509 169.921 116.521C165.132 117.037 149.149 118.855 133.498 121.633C115.06 124.91 75.8539 136.818 75.8539 136.818C75.8539 136.818 93.064 136.485 116.671 133.049C135.742 130.269 162.96 119.723 169.767 117.009C168.282 122.008 167.304 127.029 166.842 132.067C162.128 132.909 146.191 135.801 129.841 139.309C110.363 143.491 66.3216 162.294 66.3216 162.294C66.3216 162.294 80.7864 159.206 111.829 152.784C138.513 147.259 161.013 135.749 166.806 132.624C166.422 137.167 166.451 141.72 166.905 146.282C164.161 149.547 158.416 159.355 164.696 179.495C172.076 203.182 177.507 210.429 177.507 210.429C177.507 210.429 189.077 167.071 169.709 146.505C169.282 142.37 169.225 138.32 169.466 134.353C174.451 138.208 192.911 151.881 217.639 162.753C246.721 175.534 256.192 178.709 256.192 178.709C256.192 178.709 216.677 151.523 197.61 143.859C182.564 137.815 172.921 134.741 169.518 133.707C169.912 128.29 170.908 123.029 172.388 117.947C177.344 121.679 196.985 135.579 219.81 140.237C246.277 145.639 259.703 156.778 259.703 156.778C259.703 156.778 251.349 144.274 218.759 133.827C191.725 125.159 176.799 119.309 172.494 117.56C174.477 110.892 177.293 104.53 180.744 98.4962C184.528 101.98 197.113 112.424 217.779 118.667C242.861 126.246 267.503 140.246 267.503 140.246C267.503 140.246 243.923 118.383 215.017 107.293C194.17 99.2936 184.942 97.6529 181.405 97.3594C185.418 90.5077 190.223 84.0828 195.437 78.1225C198.006 81.356 207.457 91.7809 229.242 101.681C255.447 113.594 275.76 122.779 275.76 122.779C275.76 122.779 226.879 84.2683 196.075 77.3873C201.325 71.4817 206.973 66.0442 212.702 61.1071C214.402 64.0738 220.72 72.9216 238.271 79.7C259.66 87.9592 265.99 93.5204 272.805 101.539C272.805 101.539 263.401 83.6196 248.699 76.9906C231.499 69.2389 217.948 66.0134 212.913 60.9267C216.741 57.6296 220.599 54.5649 224.363 51.733C254.675 29.0031 286.746 16.103 287.069 15.9686C287.709 15.7099 287.894 15.195 287.485 14.8062C287.427 14.7586 287.37 14.711 287.302 14.667C286.851 14.4009 286.137 14.3497 285.569 14.5668C285.241 14.6948 252.863 27.7157 222.27 50.6412C218.111 53.7575 214.182 56.913 210.468 60.1049C203.939 60.1461 180.103 60.26 164.429 59.7128C146.127 59.0755 111.246 75.9164 111.246 75.9164C111.246 75.9164 147.133 65.4507 166.484 67.2402Z" fill="#E5674E"/>
<path d="M10.3074 285.47C10.3074 285.47 32.7347 384.715 104.206 421.768C128.466 434.341 152.9 439.243 174.602 440.22C219.866 442.268 268.305 410.54 263.183 382.219C260.727 368.631 251.936 353.493 230.932 338.779C169.071 295.443 10.3074 285.47 10.3074 285.47Z" fill="#BAE3DD"/>
<path d="M189.614 390.08C184.994 387.304 180.372 384.542 175.752 381.766C187.903 363.831 200.067 345.888 212.219 327.953C211.628 327.661 211.026 327.376 210.423 327.092C198.299 344.982 186.176 362.872 174.064 380.754C169.694 378.138 165.325 375.508 160.955 372.891C172.199 355.698 184.506 338.6 197.893 321.649C197.284 321.406 196.676 321.163 196.078 320.926C182.76 337.779 170.465 354.781 159.247 371.869C155.048 369.356 150.85 366.829 146.65 364.317C158.3 348.12 169.961 331.915 181.61 315.718C180.966 315.501 180.331 315.289 179.675 315.08C168.107 331.157 156.54 347.233 144.973 363.31C140.574 360.664 136.173 358.032 131.774 355.386C140.808 340.079 150.739 324.823 161.561 309.648C160.9 309.467 160.23 309.28 159.569 309.099C148.847 324.105 138.994 339.193 130.028 354.328C125.497 351.613 120.956 348.894 116.438 346.17C124.818 332.434 134.051 318.756 144.119 305.172C143.444 305.013 142.76 304.849 142.085 304.691C132.141 318.087 123.011 331.581 114.711 345.123C111.025 342.908 107.327 340.701 103.641 338.485C110.483 326.036 118.157 313.634 126.627 301.292C125.928 301.151 125.23 301.009 124.543 300.859C116.201 312.986 108.631 325.19 101.875 337.417C97.3743 334.718 92.874 332.019 88.3738 329.32C92.7386 318.647 98.8136 307.961 106.491 297.413C105.79 297.286 105.078 297.167 104.377 297.039C96.854 307.341 90.8922 317.76 86.4953 328.194C84.958 327.275 83.4308 326.362 81.9056 325.434C81.843 325.179 81.5887 324.973 81.1014 324.956C79.9966 324.292 78.8817 323.622 77.7769 322.958C80.6866 313.675 86.1308 304.32 93.8839 295.263C93.1714 295.144 92.457 295.038 91.7445 294.919C84.2461 303.709 78.8542 312.766 75.7989 321.765C72.4237 319.741 69.0586 317.722 65.6834 315.698C68.9856 308.056 73.1348 300.426 78.083 292.842C77.3463 292.739 76.6319 292.634 75.9073 292.523C71.1149 299.848 67.0909 307.203 63.8252 314.583C60.6917 312.699 57.5581 310.816 54.4226 308.946C57.8028 303.878 61.1849 298.796 64.5652 293.727C65.1168 292.889 65.6906 292.047 66.2422 291.209C65.5158 291.112 64.7893 291.015 64.0729 290.923C63.2474 292.167 62.3895 293.409 61.5659 294.639C58.6115 299.07 55.6691 303.492 52.7147 307.923C50.0625 306.335 47.4103 304.746 44.758 303.158C46.6377 298.553 48.8327 293.948 51.2987 289.352C50.55 289.258 49.7994 289.179 49.071 289.096C46.7423 293.408 44.6764 297.709 42.8694 302.026C39.7764 300.164 36.6815 298.316 33.5886 296.453C34.8992 293.596 36.4161 290.742 38.1169 287.895C37.3663 287.815 36.6157 287.735 35.8854 287.666C34.344 290.226 32.9766 292.787 31.7506 295.348C29.8823 294.227 28.014 293.106 26.1456 291.985C26.9011 290.305 27.6687 288.616 28.414 286.93C27.6412 286.854 26.8887 286.788 26.1584 286.719C25.5421 288.101 24.9036 289.487 24.2874 290.869C21.495 289.193 18.7128 287.522 15.9204 285.846C12.2897 285.585 10.3036 285.469 10.3036 285.469C10.3036 285.469 10.5715 286.675 11.1601 288.863C14.2633 290.73 17.3784 292.589 20.4917 294.462C17.9895 294.537 15.458 294.744 12.9131 295.049C13.0542 295.522 13.1933 296.009 13.3629 296.512C16.6452 296.148 19.9007 295.976 23.0951 296.01C25.2641 297.318 27.4349 298.611 29.6039 299.918C24.741 300.067 19.7954 300.499 14.8337 301.203C14.9969 301.673 15.1481 302.152 15.2974 302.645C20.5441 301.925 25.7689 301.521 30.881 301.457C31.2186 301.455 31.5354 301.368 31.7912 301.25C35.7898 303.643 39.7764 306.045 43.775 308.438C35.2953 309.088 26.7665 309.935 18.1785 310.973C18.3519 311.449 18.5234 311.938 18.7171 312.424C27.8788 311.329 36.9775 310.453 46.0455 309.798C49.642 311.952 53.2385 314.106 56.8129 316.264C45.1155 317.282 33.371 318.484 21.5914 319.86C21.7851 320.346 21.9807 320.818 22.1846 321.31C34.5176 319.866 46.8117 318.625 59.0548 317.594C63.4536 320.24 67.8644 322.877 72.2531 325.518C56.8682 326.528 41.3529 327.928 25.7433 329.695C25.9592 330.177 26.1752 330.66 26.3911 331.143C42.5623 329.328 58.6233 327.915 74.5723 326.918C77.4744 328.666 80.3784 330.401 83.2703 332.144C65.8562 335.074 48.4522 338.009 31.038 340.939C31.2679 341.4 31.4978 341.86 31.7378 342.326C49.576 339.32 67.402 336.323 85.23 333.312C90.8554 336.686 96.4908 340.064 102.116 343.438C80.2678 344.918 58.1686 347.186 35.9215 350.207C36.1717 350.678 36.4441 351.145 36.7044 351.622C59.4688 348.559 82.0693 346.286 104.437 344.824C109.59 347.922 114.754 351.011 119.896 354.103C95.0354 358 70.1749 361.896 45.3023 365.801C45.609 366.257 45.9056 366.707 46.2123 367.163C71.4402 363.206 96.6803 359.241 121.908 355.284C123.866 356.467 125.836 357.641 127.794 358.823C130.184 360.26 132.574 361.697 134.966 363.121C107.687 367.743 80.4308 372.361 53.1518 376.983C53.4928 377.427 53.8236 377.866 54.1646 378.31C81.7444 373.638 109.324 368.965 136.926 364.289C140.612 366.505 144.31 368.712 147.996 370.928C119.984 377.301 91.9505 383.677 63.9388 390.05C64.316 390.469 64.6932 390.888 65.0824 391.298C93.1727 384.906 121.263 378.515 149.353 372.123C149.511 372.087 149.648 372.04 149.765 371.982C155.039 375.143 160.313 378.304 165.575 381.473C135.198 387.874 104.831 394.28 74.4547 400.681C74.8985 401.09 75.3423 401.498 75.7982 401.899C106.332 395.462 136.889 389.021 167.423 382.584C171.371 384.95 175.319 387.317 179.277 389.689C149.964 397.829 120.674 405.966 91.3618 414.106C91.8881 414.469 92.4367 414.829 92.9751 415.183C122.322 407.031 151.668 398.88 181.003 390.736C185.213 393.254 189.41 395.781 193.62 398.299C165.914 407.882 137.839 416.592 109.541 424.402C110.225 424.728 110.921 425.046 111.606 425.358C139.763 417.55 167.674 408.843 195.247 399.279C202.079 403.37 208.888 407.463 215.719 411.554C190.923 420.164 165.859 428.116 140.615 435.398C141.594 435.641 142.564 435.864 143.534 436.088C168.194 428.932 192.683 421.125 216.911 412.693C217.06 412.637 217.177 412.579 217.306 412.513C220.179 414.232 223.041 415.959 225.914 417.677C206.34 425.037 186.768 432.383 167.194 439.743C168.355 439.844 169.496 439.935 170.661 440.008C189.614 432.888 208.567 425.767 227.533 418.638C230.376 420.341 233.219 422.044 236.05 423.755C237.646 422.764 239.18 421.741 240.654 420.687C239.86 420.214 239.076 419.746 238.294 419.265C246.727 408.059 255.147 396.861 263.579 385.655C263.548 384.705 263.462 383.757 263.319 382.823C254.433 394.637 245.534 406.46 236.647 418.274C234.117 416.749 231.564 415.228 229.034 413.703C239.378 399.7 249.721 385.697 260.087 371.69C259.799 371.022 259.501 370.348 259.181 369.678C248.583 384.022 237.985 398.367 227.377 412.706C223.439 410.345 219.501 407.983 215.563 405.622C227.707 389.786 239.84 373.945 251.983 358.109C251.585 357.606 251.177 357.097 250.759 356.583C238.481 372.601 226.204 388.618 213.927 404.636C210.491 402.58 207.056 400.511 203.62 398.455C203.519 398.402 203.429 398.341 203.34 398.279C215.08 381.271 228.065 364.392 242.252 347.709C241.798 347.295 241.332 346.89 240.878 346.475C226.594 363.226 213.501 380.182 201.675 397.264C201.232 397.004 200.791 396.73 200.348 396.47C200.283 396.391 200.182 396.339 200.066 396.308C197.183 394.584 194.311 392.852 191.427 391.128C202.086 372.742 214.018 354.426 227.207 336.232C226.656 335.886 226.106 335.54 225.556 335.194C212.28 353.388 200.315 371.701 189.614 390.08Z" fill="#97C9CE"/>
<path d="M174.72 362.97C189.867 359.083 212.403 361.608 220.473 362.713C212.462 358.408 205.012 353.918 198.137 349.265C144.936 355.9 90.064 346.746 90.064 346.746C90.064 346.746 102.711 347.404 136.643 344.792C166.588 342.486 188.89 346.558 196.718 348.319C190.319 343.921 184.439 339.379 179.076 334.704C177.131 333.013 175.279 331.296 173.481 329.571C157.592 326.879 134.397 333.96 110.43 334.785C92.3699 335.402 70.4525 322.118 70.4525 322.118C70.4525 322.118 92.0244 332.763 118.266 327.011C139.22 322.412 164.167 327.303 173.374 329.457C167.674 323.961 162.693 318.29 158.428 312.464C153.407 312.679 136.623 313.313 119.766 312.904C99.9193 312.424 55.7561 306.406 55.7561 306.406C55.7561 306.406 73.188 304.076 98.2969 303.922C118.574 303.788 150.166 310.288 158.092 311.991C154.6 307.15 151.604 302.208 149.12 297.164C144.043 297.04 126.876 296.57 109.032 295.532C87.7578 294.279 35.9679 282.007 35.9679 282.007C35.9679 282.007 51.7385 282.907 85.5108 284.627C114.545 286.101 141.76 294.303 148.835 296.585C146.631 292.034 144.847 287.408 143.464 282.708C139.394 279.816 129.689 270.761 127.946 249.349C125.887 224.174 128.425 215.982 128.425 215.982C128.425 215.982 157.426 258.187 146.193 282.039C147.412 286.297 148.97 290.423 150.817 294.402C154.279 289.715 167.36 272.993 187.861 258.149C211.973 240.685 220.209 236.007 220.209 236.007C220.209 236.007 191.384 269.692 175.288 280.421C162.591 288.874 154.132 293.496 151.106 295.068C153.673 300.506 156.776 305.681 160.307 310.611C163.801 306.067 177.959 288.918 199.04 280.667C223.481 271.101 232.504 257.722 232.504 257.722C232.504 257.722 229.125 271.7 200.55 287.333C176.853 300.308 164.206 308.547 160.57 310.983C165.237 317.438 170.609 323.456 176.49 329.048C178.907 324.93 187.359 312.395 205.635 302.861C227.805 291.294 246.974 273.291 246.974 273.291C246.974 273.291 232.033 299.121 207.423 314.836C189.672 326.176 181.055 329.262 177.625 330.108C184.405 336.444 191.802 342.219 199.441 347.455C200.728 343.772 206.049 331.743 223.99 318.325C245.557 302.189 262.288 289.731 262.288 289.731C262.288 289.731 228.588 336.358 200.374 348.092C208.004 353.275 215.874 357.918 223.61 362.045C224.142 358.774 226.931 348.81 241.859 339.227C260.052 327.545 264.18 320.926 267.828 311.736C267.828 311.736 265.561 331.373 253.438 340.367C239.256 350.89 226.938 356.258 223.908 362.192C229.066 364.94 234.17 367.457 239.113 369.749C278.683 388.141 316.082 396.268 316.442 396.353C317.199 396.515 317.585 397.013 317.32 397.474C317.292 397.537 317.231 397.588 317.188 397.64C316.835 397.977 316.135 398.143 315.481 398.009C315.102 397.933 277.343 389.722 237.42 371.191C231.996 368.677 226.78 366.078 221.77 363.414C215.197 364.375 191.186 367.946 175.644 370.924C157.507 374.394 115.694 362.706 115.694 362.706C115.694 362.706 155.972 367.769 174.72 362.97Z" fill="#FCF4DF"/>
<path d="M56.272 110.267C56.272 110.267 177.513 81.9214 220.086 35.4515C234.535 19.6855 239.532 5.02008 239.812 -7.47929C240.408 -33.538 199.279 -56.1013 164.619 -48.7375C147.997 -45.2066 129.734 -37.8243 112.518 -23.5729C61.7921 18.427 56.272 110.267 56.272 110.267Z" fill="#1A4143"/>
<path d="M177.189 -7.9859C173.979 -4.92429 170.766 -1.87042 167.556 1.19118C144.985 -2.89475 122.409 -6.98841 99.8271 -11.0732C99.4943 -10.6895 99.1614 -10.3059 98.8431 -9.9156C121.353 -5.83948 143.863 -1.76337 166.374 2.31275C163.34 5.2018 160.299 8.09971 157.266 10.9888C135.649 7.30622 114.097 2.99209 92.682 -1.9449C92.4175 -1.56025 92.1385 -1.18219 91.874 -0.797537C113.17 4.12754 134.582 8.43198 156.076 12.1192C153.159 14.8987 150.241 17.6783 147.323 20.4578C126.906 16.3823 106.5 12.3056 86.0823 8.23004C85.8468 8.62789 85.6114 9.02574 85.3797 9.43131C105.635 13.4752 125.904 17.5256 146.159 21.5694C143.104 24.485 140.035 27.394 136.98 30.3096C117.777 27.5841 98.5902 24.3376 79.4743 20.5643C79.2787 20.9742 79.0793 21.3764 78.8945 21.7852C97.801 25.5235 116.775 28.7517 135.77 31.4666C132.62 34.4651 129.47 37.4637 126.324 40.47C109.079 37.8645 91.8668 34.7689 74.7438 31.1851C74.5697 31.5928 74.4102 32.007 74.2361 32.4147C91.1352 35.9569 108.11 39.0287 125.12 41.6181C122.558 44.0603 119.985 46.5036 117.423 48.9458C101.83 47.0118 86.2446 44.6064 70.7129 41.7328C70.5678 42.1537 70.4191 42.5668 70.2741 42.9877C85.5496 45.8231 100.861 48.2003 116.188 50.1216C113.063 53.1013 109.938 56.0811 106.813 59.0608C93.504 58.2596 80.1045 56.4861 66.8132 53.7762C66.6897 54.1948 66.5662 54.6134 66.4465 55.0397C79.4273 57.6928 92.5027 59.4515 105.511 60.3085C104.444 61.3205 103.382 62.3403 102.315 63.3524C102.001 63.4258 101.771 63.604 101.759 63.8811C100.989 64.6188 100.214 65.3488 99.4435 66.0866C87.9141 65.8948 76.1723 64.2727 64.7051 61.2912C64.5961 61.7164 64.4834 62.1339 64.3745 62.5591C75.4977 65.4386 86.8623 67.0757 98.0603 67.3995C95.7128 69.6327 93.3761 71.8647 91.0287 74.0979C81.4912 73.4222 71.9356 72.2697 62.3981 70.6446C62.3037 71.0764 62.2055 71.5005 62.111 71.9323C71.3166 73.5028 80.5444 74.6327 89.7407 75.3278C87.5658 77.405 85.3765 79.4756 83.2017 81.5528C76.8147 80.4264 70.4423 79.3066 64.0554 78.1803C63.0048 77.9979 61.9359 77.8011 60.8853 77.6187C60.8017 78.0494 60.7142 78.4724 60.6268 78.8953C62.1973 79.1695 63.7538 79.4614 65.3028 79.7378C70.8738 80.7222 76.4411 81.6988 82.0121 82.6832C80.168 84.4418 78.3309 86.1916 76.4868 87.9503C70.7505 87.5999 64.9925 87.0895 59.2269 86.4013C59.147 86.8397 59.0779 87.277 59.005 87.7066C64.3993 88.3524 69.7902 88.8524 75.1633 89.2002C73.0094 91.2508 70.8664 93.3004 68.7087 95.3433C65.1347 95.043 61.5655 94.6367 57.9934 94.109C57.9281 94.554 57.8697 94.9902 57.8076 95.4186C61.0115 95.8874 64.2315 96.2734 67.4385 96.5633C66.1435 97.8021 64.8447 99.0331 63.5497 100.272C61.4422 100.103 59.3385 99.9408 57.2418 99.7702C57.1802 100.223 57.1326 100.658 57.0812 101.085C58.8104 101.221 60.5396 101.357 62.2579 101.494C60.3224 103.343 58.3832 105.185 56.4369 107.036C56.2473 109.125 56.1835 110.267 56.1835 110.267C56.1835 110.267 57.6572 109.927 60.3244 109.251C62.4852 107.191 64.646 105.132 66.8069 103.072C67.008 104.479 67.3674 105.886 67.849 107.288C68.4279 107.13 69.0176 106.972 69.6288 106.81C69.0518 105.004 68.6937 103.183 68.5945 101.36C70.0971 99.9209 71.6142 98.4886 73.1168 97.0496C73.5067 99.7921 74.2415 102.523 75.3213 105.242C75.9002 105.084 76.4754 104.919 77.0721 104.751C75.9637 101.881 75.2465 98.9775 74.9431 96.088C74.9279 95.8948 74.8057 95.7372 74.6409 95.6083C77.4213 92.9648 80.1909 90.3224 82.9713 87.6789C84.1326 92.3939 85.542 97.1072 87.1743 101.814C87.7564 101.639 88.3493 101.464 88.9385 101.28C87.2054 96.2519 85.7382 91.2119 84.5443 86.1758C87.0359 83.7977 89.5382 81.4186 92.0298 79.0405C93.7709 85.5207 95.753 92.0081 97.9542 98.4808C98.5434 98.2976 99.118 98.1077 99.7141 97.9157C97.4196 91.1362 95.3694 84.3476 93.5781 77.5562C96.6327 74.6406 99.6981 71.7239 102.753 68.8083C104.65 77.39 107.025 85.9786 109.861 94.5598C110.442 94.3611 111.024 94.1624 111.616 93.9626C108.694 85.0659 106.276 76.1573 104.361 67.2609C106.374 65.3386 108.397 63.4151 110.41 61.4928C114.758 70.9222 119.105 80.3517 123.452 89.7812C124.008 89.577 124.565 89.3729 125.132 89.1676C120.686 79.5131 116.229 69.8597 111.78 60.1975C115.693 56.4701 119.607 52.7426 123.52 49.0151C126.283 61.1985 130.003 73.3956 134.664 85.5512C135.235 85.3293 135.794 85.1086 136.365 84.8868C131.628 72.4388 127.869 59.9537 125.125 47.4844C128.704 44.0677 132.287 40.6588 135.876 37.241C141.73 50.7489 147.587 64.2646 153.441 77.7725C153.989 77.5286 154.541 77.2924 155.079 77.0497C149.138 63.3399 143.197 49.6302 137.245 35.9215C138.61 34.6186 139.976 33.3156 141.345 32.0204C143.003 30.4354 144.675 28.857 146.332 27.272C153.171 42.0322 160.013 56.8001 166.852 71.5602C167.382 71.302 167.923 71.0427 168.449 70.7768C161.527 55.8468 154.612 40.9079 147.691 25.9779C150.253 23.5357 152.815 21.0935 155.377 18.6513C164.405 33.5642 173.434 48.4771 182.473 63.3888C182.97 63.1097 183.467 62.8306 183.96 62.5438C174.902 47.5934 165.855 32.6419 156.797 17.6916C156.744 17.6078 156.678 17.5417 156.612 17.4756C160.279 13.9848 163.936 10.4952 167.603 7.00438C176.773 23.2494 185.933 39.4956 195.103 55.7407C195.582 55.4229 196.071 55.1041 196.549 54.7864C187.333 38.4487 178.117 22.111 168.891 5.77444C171.639 3.15857 174.377 0.543834 177.126 -2.07203C188.376 13.2905 199.641 28.6595 210.891 44.022C211.315 43.6614 211.727 43.3018 212.136 42.9346C200.864 27.55 189.598 12.1567 178.326 -3.22785C181.254 -6.00853 184.168 -8.7958 187.096 -11.5765C200.057 2.65794 211.962 17.2299 222.765 32.0711C223.136 31.6266 223.5 31.191 223.85 30.7488C213.052 15.9882 201.164 1.49567 188.218 -12.6593C192.955 -17.1787 197.707 -21.6915 202.444 -26.2109C214.094 -13.4787 224.93 -0.491107 234.952 12.7033C235.204 12.1089 235.439 11.5245 235.67 10.9324C225.821 -1.95545 215.179 -14.6387 203.776 -27.0722C203.706 -27.146 203.629 -27.211 203.534 -27.2661C205.522 -29.1696 207.525 -31.0665 209.513 -32.97C219.392 -23.0065 229.261 -13.0419 239.136 -3.08616C239.214 -3.7597 239.271 -4.43099 239.32 -5.09344C229.754 -14.7407 220.188 -24.3879 210.632 -34.0363C212.61 -35.9144 214.585 -37.8003 216.552 -39.6772C215.273 -40.42 213.94 -41.1329 212.591 -41.8116C212.042 -41.2917 211.493 -40.7718 210.944 -40.252C196.807 -43.2794 182.671 -46.3067 168.545 -49.3353C167.38 -49.173 166.223 -48.9711 165.067 -48.7449C179.977 -45.5467 194.883 -42.3562 209.803 -39.1592C208.033 -37.4813 206.277 -35.7968 204.507 -34.1188C186.849 -37.801 169.185 -41.4743 151.527 -45.1564C150.717 -44.8933 149.904 -44.6136 149.094 -44.3262C167.178 -40.5587 185.272 -36.7924 203.36 -33.0172C200.618 -30.4102 197.887 -27.8043 195.145 -25.1973C175.152 -29.6092 155.162 -34.0134 135.169 -38.4254C134.561 -38.1184 133.953 -37.8115 133.342 -37.4881C153.563 -33.0269 173.78 -28.5734 193.991 -24.1111C191.608 -21.8337 189.211 -19.5629 186.829 -17.2855C186.759 -17.2214 186.699 -17.1583 186.628 -17.0942C165.21 -21.0895 143.907 -25.8192 122.79 -31.2579C122.301 -30.939 121.816 -30.6125 121.334 -30.2782C142.543 -24.7922 163.943 -20.0241 185.453 -15.9814C185.143 -15.6894 184.833 -15.3974 184.534 -15.1065C184.445 -15.0567 184.375 -14.9925 184.341 -14.924C182.342 -13.0194 180.343 -11.1147 178.333 -9.20895C155.272 -12.3755 132.244 -16.284 109.308 -20.908C108.91 -20.5418 108.497 -20.1823 108.103 -19.8084C131.113 -15.1029 154.134 -11.1856 177.189 -7.9859Z" fill="#2F8C91"/>
</g>
<defs>
<clipPath id="clip0_1774_61">
<rect width="400" height="143" fill="white" transform="translate(143) rotate(90)"/>
</clipPath>
</defs>
</svg>
