<svg width="610" height="169" viewBox="0 0 610 169" fill="none" xmlns="http://www.w3.org/2000/svg">
<g clip-path="url(#clip0_1774_42)">
<path d="M256.282 131.343C256.282 131.343 80.4523 104.632 -16.8893 161.18C-49.9207 180.363 -70.3264 203.63 -82.854 226.017C-108.988 272.68 -80.7114 339.839 -31.1671 348.81C-7.40724 353.113 22.1123 351.517 57.0497 336.847C159.999 293.606 256.282 131.343 256.282 131.343Z" fill="#2F8C91"/>
<path d="M-7.35677 267.147C-0.43722 263.675 6.47943 260.22 13.399 256.748C37.0468 278.667 60.6917 300.602 84.3538 322.525C85.136 322.045 85.9182 321.565 86.689 321.064C63.1068 299.203 39.5245 277.342 15.9422 255.481C22.478 252.208 29.0309 248.924 35.5667 245.651C58.4391 266.225 80.6156 287.9 102.016 310.613C102.716 310.088 103.427 309.584 104.126 309.058C82.8594 286.443 60.8455 264.876 38.1271 244.372C44.4137 241.223 50.7003 238.073 56.9869 234.924C78.0071 255.437 99.013 275.945 120.033 296.458C120.71 295.89 121.387 295.322 122.067 294.738C101.214 274.386 80.3508 254.014 59.4987 233.663C66.086 230.356 72.6847 227.07 79.272 223.762C100.124 241.052 120.447 259.274 140.169 278.403C140.809 277.787 141.445 277.188 142.071 276.567C122.571 257.637 102.491 239.585 81.8841 222.449C88.669 219.053 95.4539 215.657 102.242 212.244C120.813 228.056 138.866 244.734 156.332 262.238C156.943 261.612 157.543 260.966 158.155 260.34C140.921 243.056 123.136 226.575 104.837 210.943C110.358 208.174 115.895 205.411 121.417 202.643C138.621 216.178 155.356 230.56 171.568 245.754C172.156 245.087 172.742 244.435 173.33 243.767C157.395 228.807 140.968 214.652 124.077 201.312C130.813 197.934 137.55 194.556 144.286 191.178C159.8 201.193 174.475 213.025 188.103 226.482C188.663 225.804 189.223 225.126 189.786 224.432C176.482 211.279 162.189 199.682 147.099 189.759C149.393 188.615 151.69 187.454 153.984 186.31C154.441 186.38 154.896 186.206 155.181 185.712C156.845 184.874 158.506 184.052 160.17 183.213C174.1 190.981 186.893 201.473 198.023 214.246C198.571 213.547 199.117 212.865 199.666 212.166C188.858 199.798 176.541 189.522 163.146 181.729C168.201 179.201 173.242 176.668 178.297 174.14C189.315 181.501 199.89 189.736 209.981 198.814C210.518 198.094 211.053 197.39 211.59 196.669C201.852 187.904 191.656 179.921 181.075 172.744C185.766 170.387 190.469 168.051 195.16 165.694C201.881 171.842 208.59 177.969 215.31 184.117C216.419 185.123 217.535 186.167 218.644 187.173C219.167 186.448 219.687 185.74 220.207 185.031C218.552 183.524 216.931 181.994 215.304 180.497C209.444 175.131 203.581 169.781 197.72 164.415C201.696 162.421 205.654 160.439 209.629 158.445C216.311 162.771 222.863 167.4 229.251 172.356C229.776 171.614 230.288 170.868 230.797 170.138C224.822 165.498 218.71 161.123 212.47 157.036C217.11 154.713 221.736 152.386 226.372 150.08C230.455 152.923 234.429 155.955 238.287 159.209C238.802 158.446 239.299 157.695 239.794 156.96C236.329 154.05 232.763 151.279 229.119 148.691C231.914 147.284 234.707 145.893 237.502 144.486C239.917 146.149 242.335 147.795 244.736 149.453C245.253 148.674 245.737 147.918 246.217 147.178C244.232 145.819 242.248 144.461 240.277 143.107C244.453 141.008 248.626 138.925 252.816 136.831C255.088 133.174 256.282 131.149 256.282 131.149C256.282 131.149 254.145 130.816 250.219 130.322C245.562 132.656 240.905 134.991 236.248 137.325C237.376 134.65 238.31 131.874 239.089 129.028C238.226 128.941 237.349 128.849 236.443 128.747C235.386 132.385 234.047 135.909 232.387 139.271C229.142 140.906 225.886 142.521 222.641 144.156C224.842 138.945 226.609 133.533 227.942 127.919C227.079 127.832 226.213 127.761 225.318 127.681C223.873 133.586 221.916 139.298 219.466 144.72C219.296 145.079 219.292 145.443 219.368 145.782C213.382 148.774 207.41 151.77 201.424 154.762C204.606 145.487 207.483 136.054 210.08 126.491C209.197 126.432 208.3 126.368 207.4 126.32C204.611 136.531 201.486 146.591 198.03 156.468C192.657 159.166 187.27 161.858 181.897 164.556C186.093 151.714 190.001 138.705 193.626 125.581C192.726 125.533 191.837 125.507 190.92 125.47C187.109 139.209 182.99 152.807 178.552 166.244C171.965 169.551 165.363 172.853 158.776 176.161C164.833 159.418 170.311 142.355 175.219 125.009C174.313 124.994 173.406 124.979 172.486 124.959C167.376 142.931 161.638 160.601 155.296 177.924C150.954 180.106 146.598 182.282 142.256 184.463C146.141 164.61 150.026 144.757 153.911 124.904C153.03 124.915 152.15 124.927 151.255 124.933C147.271 145.256 143.301 165.585 139.314 185.925C130.883 190.148 122.451 194.371 114.019 198.593C122.533 174.779 129.888 150.324 136.051 125.338C135.136 125.372 134.235 125.411 133.32 125.445C126.964 151.008 119.375 176.01 110.559 200.329C102.841 204.205 95.125 208.065 87.3921 211.936C93.4151 183.737 99.4411 155.521 105.464 127.322C104.555 127.41 103.648 127.482 102.753 127.575C96.6399 156.196 90.5267 184.816 84.4277 213.442C81.4835 214.919 78.5392 216.397 75.5979 217.859C72.0206 219.659 68.4321 221.437 64.8548 223.237C70.8945 192.139 76.937 161.024 82.9766 129.926C82.0756 130.052 81.1604 130.173 80.2565 130.315C74.1527 161.774 68.0316 193.244 61.9278 224.703C56.4059 227.471 50.884 230.24 45.3621 233.008C48.8695 200.224 52.377 167.44 55.8701 134.651C54.9889 134.836 54.1078 135.021 53.2237 135.222C49.7159 168.093 46.1939 200.959 42.6862 233.83C42.6683 234.015 42.6849 234.177 42.7014 234.339C34.8024 238.293 26.9176 242.251 19.0186 246.204C23.6531 210.919 28.3019 175.639 32.9365 140.354C32.0407 140.621 31.1306 140.883 30.2349 141.15C25.5653 176.632 20.8958 212.113 16.2405 247.6C10.3205 250.562 4.41479 253.529 -1.50518 256.491C-0.279167 221.464 0.935496 186.415 2.16152 151.388C1.29106 151.768 0.434873 152.152 -0.424227 152.554C-1.64474 187.635 -2.88243 222.728 -4.10295 257.809C-10.4038 260.954 -16.6933 264.12 -22.9942 267.264C-24.9648 233.176 -25.312 199.157 -24.0477 165.361C-24.936 165.926 -25.8071 166.479 -26.6668 167.054C-27.8591 200.702 -27.4542 234.566 -25.4258 268.5C-35.639 273.626 -45.8636 278.73 -56.0769 283.855C-57.9093 253.327 -58.4956 222.862 -57.8818 192.547C-58.7714 193.46 -59.6296 194.366 -60.4906 195.288C-61.0162 224.937 -60.3702 254.727 -58.5494 284.555C-58.5357 284.734 -58.5049 284.901 -58.4426 285.061C-62.7359 287.225 -67.0405 289.366 -71.3338 291.53C-73.7009 267.15 -76.0538 242.775 -78.4239 218.412C-79.1773 219.58 -79.9021 220.758 -80.6097 221.924C-78.3168 245.53 -76.0239 269.136 -73.7453 292.738C-78.0012 294.862 -82.2601 297.002 -86.5018 299.13C-85.6608 301.297 -84.7255 303.444 -83.7357 305.54C-82.5557 304.954 -81.3758 304.367 -80.1958 303.78C-65.8426 318.354 -51.4895 332.929 -37.1506 347.499C-35.5657 347.955 -33.952 348.334 -32.3152 348.67C-47.4486 333.288 -62.585 317.923 -77.7327 302.537C-73.9264 300.642 -70.1315 298.725 -66.3252 296.83C-48.3001 314.855 -30.2579 332.869 -12.2328 350.894C-10.9837 350.939 -9.71453 350.957 -8.44243 350.958C-26.9061 332.505 -45.3841 314.046 -63.8449 295.576C-57.9421 292.625 -52.0536 289.67 -46.1508 286.719C-25.978 307.568 -5.8023 328.4 14.3705 349.249C15.4145 349.085 16.4586 348.921 17.5227 348.729C-2.88076 327.645 -23.2872 306.577 -43.6763 285.498C-38.5353 282.912 -33.383 280.348 -28.242 277.762C-28.0931 277.691 -27.9584 277.616 -27.8095 277.545C-5.48475 298.558 15.9806 320.823 36.5268 344.253C37.4368 343.991 38.3498 343.712 39.2657 343.418C18.6543 319.844 -2.89348 297.446 -25.2835 276.289C-24.619 275.96 -23.9546 275.632 -23.3044 275.298C-23.147 275.265 -22.9981 275.194 -22.8891 275.092C-18.5816 272.934 -14.2741 270.776 -9.95226 268.622C15.1928 289.193 39.5725 311.084 63.1415 334.211C63.9863 333.805 64.8425 333.42 65.6903 332.997C42.1106 309.676 17.7481 287.773 -7.35677 267.147Z" fill="#286F7F"/>
<path d="M232.222 171.41C232.222 171.41 326.692 271.822 408.377 303.894C436.101 314.776 457.926 317.733 474.658 316.878C509.563 315.103 520.268 278.228 494.249 249.464C481.768 235.664 463.408 220.809 436.397 207.44C356.845 168.065 232.222 171.41 232.222 171.41Z" fill="#BAE3DD"/>
<path d="M446.306 263.878C440.726 261.412 435.156 258.961 429.577 256.496C424.426 236.961 419.277 217.416 414.125 197.881C413.461 197.63 412.795 197.389 412.128 197.148C417.265 216.634 422.402 236.12 427.541 255.597C422.271 253.274 416.991 250.938 411.721 248.615C406.484 229.923 402.105 211.237 398.635 192.611C397.996 192.413 397.358 192.215 396.732 192.021C400.175 210.541 404.489 229.126 409.661 247.707C404.598 245.477 399.526 243.233 394.462 241.002C390.307 223.303 386.154 205.593 381.998 187.894C381.354 187.725 380.721 187.561 380.074 187.402C384.195 204.971 388.316 222.54 392.438 240.108C387.123 237.758 381.818 235.422 376.504 233.071C371.124 216.513 366.443 199.932 362.481 183.356C361.854 183.226 361.214 183.091 360.586 182.961C364.488 199.353 369.094 215.756 374.388 232.131C368.923 229.721 363.446 227.306 357.983 224.886C353.356 210.004 349.401 195.108 346.136 180.238C345.515 180.133 344.883 180.022 344.262 179.917C347.472 194.583 351.357 209.28 355.891 223.955C351.439 221.987 346.985 220.029 342.533 218.061C337.785 204.637 333.687 191.192 330.221 177.74C329.596 177.654 328.971 177.568 328.348 177.472C331.739 190.692 335.758 203.924 340.394 217.111C334.964 214.715 329.533 212.318 324.102 209.922C318.928 198.543 315.002 187.003 312.362 175.469C311.747 175.397 311.129 175.336 310.513 175.264C313.073 186.532 316.873 197.786 321.836 208.922C319.983 208.106 318.142 207.295 316.291 206.47C316.045 206.213 315.696 206.022 315.324 206.046C313.99 205.456 312.644 204.862 311.31 204.272C306.157 194.451 302.812 184.337 301.4 174.334C300.782 174.272 300.174 174.225 299.556 174.163C300.945 183.869 304.094 193.67 308.917 203.212C304.844 201.414 300.783 199.622 296.71 197.824C293.136 189.662 290.193 181.439 287.875 173.194C287.253 173.152 286.644 173.104 286.024 173.052C288.254 181.016 291.072 188.945 294.467 196.834C290.682 195.161 286.898 193.488 283.122 191.829C281.627 186.313 280.122 180.783 278.627 175.267C278.374 174.355 278.135 173.438 277.882 172.526C277.271 172.489 276.661 172.451 276.062 172.418C276.432 173.772 276.777 175.126 277.137 176.465C278.445 181.287 279.755 186.099 281.063 190.921C277.864 189.511 274.665 188.101 271.466 186.691C269.231 181.781 267.228 176.846 265.431 171.895C264.807 171.863 264.192 171.845 263.591 171.822C265.266 176.468 267.126 181.08 269.188 185.687C265.45 184.032 261.721 182.392 257.983 180.737C256.702 177.678 255.576 174.605 254.59 171.524C253.975 171.506 253.361 171.488 252.769 171.479C253.646 174.251 254.653 177.009 255.763 179.755C253.508 178.76 251.253 177.764 248.998 176.769C248.234 174.972 247.472 173.164 246.696 171.362C246.067 171.35 245.462 171.346 244.87 171.338C245.503 172.816 246.122 174.3 246.755 175.778C243.384 174.29 240.025 172.806 236.654 171.317C233.778 171.359 232.226 171.41 232.226 171.41C232.226 171.41 233.37 172.631 235.522 174.836C239.272 176.495 243.024 178.145 246.785 179.808C245.003 180.1 243.304 180.531 241.671 181.063C242.147 181.539 242.632 182.03 243.152 182.534C245.28 181.876 247.54 181.42 249.917 181.181C252.539 182.343 255.152 183.49 257.774 184.651C254.314 185.222 251.015 186.092 247.919 187.244C248.409 187.715 248.896 188.196 249.393 188.691C252.687 187.499 256.212 186.633 259.923 186.128C260.169 186.097 260.334 185.981 260.429 185.836C265.251 187.961 270.07 190.095 274.891 192.219C269.165 193.617 263.556 195.223 258.055 197.03C258.556 197.506 259.066 197.995 259.591 198.48C265.469 196.564 271.474 194.88 277.63 193.426C281.967 195.339 286.305 197.251 290.629 199.169C282.826 201.223 275.131 203.471 267.547 205.9C268.071 206.385 268.586 206.855 269.122 207.344C277.06 204.797 285.128 202.462 293.324 200.348C298.638 202.698 303.955 205.039 309.257 207.385C298.734 209.747 288.422 212.523 278.327 215.684C278.865 216.163 279.403 216.642 279.941 217.122C290.411 213.863 301.115 211.027 312.063 208.63C315.571 210.183 319.07 211.722 322.566 213.271C312.059 217.787 301.563 222.307 291.056 226.823C291.586 227.278 292.117 227.733 292.66 228.193C303.42 223.562 314.177 218.942 324.926 214.307C331.714 217.303 338.514 220.303 345.302 223.298C330.394 226.7 315.92 230.935 301.928 235.959C302.483 236.423 303.05 236.882 303.616 237.351C317.955 232.24 332.793 227.955 348.098 224.528C354.322 227.28 360.547 230.022 366.759 232.768C351.533 238.92 336.307 245.071 321.08 251.232C321.663 251.676 322.235 252.115 322.819 252.559C338.268 246.314 353.719 240.059 369.167 233.814C371.536 234.865 373.907 235.906 376.276 236.957C379.164 238.233 382.051 239.51 384.929 240.772C368.494 247.879 352.073 254.981 335.638 262.088C336.238 262.517 336.826 262.941 337.426 263.37C354.042 256.184 370.658 248.999 387.288 241.809C391.74 243.777 396.194 245.735 400.646 247.703C385.048 256.679 369.437 265.66 353.839 274.635C354.445 275.034 355.051 275.434 355.66 275.823C371.301 266.822 386.943 257.821 402.584 248.819C402.671 248.768 402.735 248.708 402.775 248.638C409.138 251.445 415.501 254.251 421.861 257.067C404.545 266.274 387.241 275.486 369.925 284.693C370.573 285.076 371.221 285.46 371.871 285.834C389.273 276.575 406.69 267.312 424.093 258.054C428.856 260.155 433.62 262.256 438.395 264.362C423.228 275.271 408.075 286.175 392.909 297.084C393.581 297.413 394.267 297.737 394.942 298.056C410.124 287.132 425.307 276.208 440.487 265.294C445.562 267.528 450.634 269.773 455.709 272.008C442.858 284.267 429.05 295.658 414.369 306.139C415.129 306.416 415.89 306.684 416.64 306.948C431.217 296.48 444.907 285.107 457.676 272.879C465.914 276.51 474.139 280.146 482.378 283.778C470.903 294.784 458.713 305.135 445.866 314.809C446.776 314.975 447.665 315.123 448.554 315.27C461.072 305.775 472.952 295.623 484.149 284.849C484.215 284.779 484.256 284.71 484.298 284.63C487.762 286.156 491.224 287.691 494.688 289.216C486.071 298.484 477.446 307.739 468.83 317.008C469.763 317.012 470.673 317.007 471.588 316.983C479.936 308.015 488.283 299.046 496.633 290.068C500.062 291.579 503.491 293.091 506.918 294.612C507.313 293.453 507.638 292.267 507.894 291.053C506.939 290.634 505.995 290.22 505.042 289.79C502.44 277.512 499.837 265.244 497.236 252.966C496.466 251.989 495.658 251.019 494.82 250.069C497.565 263.013 500.307 275.966 503.052 288.91C499.992 287.555 496.919 286.205 493.86 284.85C490.467 269.524 487.075 254.198 483.697 238.867C482.96 238.203 482.211 237.534 481.449 236.87C484.922 252.57 488.396 268.27 491.858 283.965C487.106 281.868 482.355 279.771 477.603 277.675C474.095 260.305 470.574 242.93 467.066 225.56C466.378 225.075 465.678 224.586 464.966 224.092C468.519 241.661 472.072 259.23 475.625 276.799C471.482 274.974 467.33 273.135 463.187 271.31C463.071 271.265 462.957 271.209 462.843 271.153C458.117 252.609 454.408 234.091 451.737 215.673C451.078 215.285 450.417 214.907 449.757 214.519C452.41 233.016 456.1 251.622 460.821 270.25C460.291 270.019 459.751 269.775 459.221 269.545C459.112 269.469 458.996 269.423 458.887 269.402C455.411 267.872 451.938 266.333 448.463 264.803C441.858 244.93 436.246 225.022 431.654 205.13C430.977 204.821 430.301 204.511 429.624 204.202C434.152 224.1 439.738 244.01 446.306 263.878Z" fill="#97C9CE"/>
<path d="M279.855 154.23C279.828 153.977 279.78 153.725 279.744 153.485C279.732 153.447 279.742 153.408 279.73 153.371C279.694 153.131 279.657 152.891 279.61 152.664C279.61 152.639 279.599 152.601 279.598 152.576C279.551 152.324 279.514 152.084 279.457 151.845C279.456 151.794 279.434 151.744 279.433 151.693C279.376 151.454 279.339 151.214 279.282 150.975C279.271 150.937 279.27 150.887 279.259 150.849C279.202 150.61 279.145 150.371 279.088 150.132L279.077 150.119C279.021 149.88 278.953 149.629 278.887 149.403C278.875 149.366 278.864 149.328 278.853 149.29C278.787 149.064 278.72 148.838 278.653 148.612C278.642 148.575 278.631 148.537 278.61 148.487C278.543 148.261 278.466 148.023 278.399 147.797C278.389 147.785 278.398 147.772 278.388 147.759C278.321 147.534 278.245 147.321 278.169 147.108C278.158 147.07 278.147 147.058 278.136 147.02C278.06 146.808 277.983 146.595 277.896 146.37C277.885 146.332 277.874 146.294 277.863 146.257C277.787 146.044 277.7 145.819 277.614 145.619C277.603 145.607 277.603 145.581 277.582 145.557C277.505 145.344 277.409 145.132 277.323 144.933C277.312 144.92 277.322 144.907 277.312 144.895C277.225 144.695 277.129 144.483 277.043 144.284C277.032 144.246 277.011 144.221 277.01 144.196C276.924 143.996 276.828 143.81 276.742 143.61C276.732 143.598 276.72 143.56 276.71 143.548C276.518 143.149 276.315 142.764 276.113 142.379C276.103 142.366 276.092 142.329 276.081 142.317C275.985 142.13 275.88 141.957 275.774 141.783C275.764 141.771 275.743 141.746 275.742 141.721C275.53 141.349 275.309 141.015 275.089 140.681C275.078 140.669 275.078 140.669 275.068 140.657C274.952 140.496 274.857 140.335 274.742 140.175C274.731 140.163 274.721 140.15 274.711 140.138C274.595 139.978 274.49 139.83 274.375 139.67C274.145 139.374 273.915 139.079 273.686 138.809C273.675 138.797 273.665 138.785 273.665 138.785C273.55 138.65 273.426 138.528 273.321 138.405L273.311 138.393C273.072 138.137 272.844 137.917 272.596 137.699L272.585 137.687C272.472 137.578 272.348 137.481 272.235 137.397L272.224 137.385C271.863 137.108 271.514 136.869 271.145 136.681L271.135 136.669C270.777 136.493 270.43 136.356 270.085 136.269L270.074 136.257C269.962 136.223 269.851 136.215 269.729 136.195C269.496 136.167 269.284 136.163 269.053 136.186C268.942 136.203 268.842 136.208 268.732 136.25C268.732 136.25 268.732 136.25 268.722 136.264C267.278 136.605 266.078 138.143 265.383 141.186C262.186 155.1 270.332 170.118 273.603 175.393C271.459 174.493 269.317 173.644 267.155 172.822C265.676 172.262 264.199 171.728 262.721 171.194L260.652 170.456C255.17 168.53 249.67 166.681 244.216 164.665C244.264 164.574 244.312 164.483 244.371 164.404C244.515 164.156 244.65 163.922 244.795 163.674C244.882 163.53 244.949 163.388 245.036 163.244C245.161 163.023 245.266 162.802 245.391 162.581C245.468 162.425 245.544 162.269 245.621 162.113C245.726 161.893 245.841 161.684 245.937 161.477C246.013 161.321 246.09 161.165 246.156 160.997C246.251 160.79 246.356 160.569 246.441 160.35C246.518 160.194 246.574 160.039 246.64 159.871C246.725 159.651 246.821 159.444 246.905 159.224C246.962 159.069 247.028 158.901 247.095 158.758C247.18 158.539 247.265 158.319 247.339 158.087C247.395 157.932 247.452 157.777 247.498 157.635C247.573 157.403 247.647 157.171 247.732 156.926C247.778 156.784 247.825 156.643 247.872 156.501C247.955 156.23 248.029 155.973 248.112 155.702C248.14 155.587 248.177 155.484 248.215 155.38C248.316 155.007 248.417 154.635 248.507 154.249C248.506 154.224 248.526 154.198 248.525 154.172C248.607 153.826 248.688 153.479 248.77 153.132C248.797 153.017 248.814 152.889 248.841 152.773C248.894 152.517 248.948 152.26 248.992 152.017C249.018 151.876 249.045 151.735 249.071 151.594C249.106 151.364 249.16 151.133 249.194 150.903C249.22 150.762 249.237 150.608 249.253 150.455C249.287 150.225 249.311 150.008 249.345 149.778C249.361 149.624 249.377 149.471 249.404 149.33C249.428 149.113 249.453 148.896 249.477 148.679C249.493 148.526 249.509 148.372 249.525 148.219C249.55 148.002 249.564 147.773 249.578 147.569C249.594 147.416 249.601 147.275 249.617 147.122C249.631 146.893 249.635 146.677 249.649 146.447C249.655 146.307 249.662 146.167 249.668 146.027C249.682 145.798 249.686 145.556 249.689 145.314C249.686 145.187 249.693 145.073 249.699 144.933C249.702 144.666 249.694 144.386 249.697 144.119C249.695 144.043 249.703 143.954 249.69 143.865C249.681 143.51 249.671 143.154 249.662 142.799C249.66 142.748 249.649 142.71 249.658 142.672C249.65 142.367 249.622 142.063 249.613 141.759C249.6 141.645 249.587 141.531 249.594 141.416C249.577 141.176 249.562 140.96 249.535 140.732C249.521 140.593 249.508 140.479 249.494 140.34C249.478 140.125 249.453 139.923 249.427 139.72C249.413 139.581 249.399 139.442 249.376 139.316C249.35 139.114 249.325 138.911 249.3 138.734C249.286 138.595 249.252 138.457 249.238 138.318C249.203 138.128 249.187 137.938 249.152 137.749C249.138 137.61 249.104 137.472 249.09 137.332C249.055 137.143 249.019 136.954 248.995 136.777C248.971 136.651 248.947 136.5 248.923 136.374C248.888 136.185 248.843 136.009 248.807 135.819C248.784 135.693 248.75 135.555 248.726 135.429C248.691 135.24 248.635 135.051 248.6 134.862C248.566 134.749 248.543 134.623 248.509 134.51C248.453 134.297 248.407 134.095 248.351 133.882C248.328 133.781 248.306 133.706 248.283 133.605C248.205 133.316 248.126 133.027 248.028 132.739C247.995 132.651 247.972 132.55 247.939 132.463C247.884 132.275 247.818 132.074 247.762 131.886C247.719 131.761 247.685 131.648 247.642 131.522C247.587 131.359 247.542 131.209 247.478 131.059C247.434 130.934 247.39 130.809 247.346 130.683C247.292 130.546 247.238 130.408 247.194 130.258C247.15 130.133 247.086 130.008 247.042 129.883C246.988 129.745 246.944 129.62 246.88 129.496C246.837 129.371 246.773 129.246 246.729 129.121C246.676 129.009 246.621 128.871 246.568 128.759C246.504 128.635 246.46 128.51 246.396 128.385C246.343 128.273 246.289 128.161 246.225 128.037C246.162 127.912 246.108 127.8 246.044 127.676C245.991 127.564 245.927 127.465 245.874 127.353C245.81 127.228 245.757 127.116 245.683 127.005C245.62 126.906 245.577 126.806 245.524 126.72C245.46 126.595 245.386 126.484 245.333 126.372C245.28 126.285 245.238 126.211 245.185 126.124C244.921 125.69 244.647 125.27 244.364 124.888C244.312 124.827 244.28 124.765 244.228 124.703C244.154 124.592 244.071 124.494 243.988 124.396C243.935 124.334 243.883 124.273 243.841 124.199C243.758 124.101 243.685 124.015 243.601 123.917C243.549 123.855 243.497 123.794 243.445 123.733C243.372 123.647 243.288 123.549 243.206 123.476C243.154 123.415 243.112 123.366 243.05 123.317C242.967 123.245 242.894 123.159 242.812 123.086C242.77 123.037 242.708 122.989 242.657 122.953C242.574 122.88 242.491 122.807 242.409 122.735C242.357 122.699 242.316 122.65 242.264 122.614C242.181 122.541 242.089 122.482 242.006 122.409C241.955 122.373 241.914 122.349 241.862 122.313C241.77 122.254 241.687 122.181 241.595 122.121C241.554 122.098 241.523 122.086 241.482 122.063C241.39 122.003 241.297 121.943 241.195 121.897L241.185 121.885C240.826 121.684 240.469 121.559 240.114 121.486C240.094 121.487 240.063 121.475 240.033 121.464C239.931 121.443 239.84 121.434 239.749 121.425C239.709 121.427 239.678 121.415 239.628 121.405C239.536 121.396 239.456 121.399 239.365 121.391C239.324 121.392 239.284 121.394 239.233 121.384C239.153 121.387 239.072 121.39 238.982 121.407C238.941 121.409 238.891 121.424 238.851 121.425C238.77 121.429 238.69 121.458 238.6 121.474C238.55 121.489 238.51 121.491 238.47 121.518C238.39 121.547 238.31 121.576 238.23 121.604C238.18 121.619 238.14 121.646 238.11 121.66C238.03 121.689 237.951 121.743 237.871 121.772C237.832 121.799 237.792 121.827 237.762 121.841C237.683 121.895 237.593 121.937 237.514 121.991C237.484 122.005 237.455 122.044 237.425 122.058C236.614 122.678 235.865 123.714 235.261 125.265C230.262 137.871 239.523 157.938 242.594 164.01C238.851 162.581 235.126 161.05 231.446 159.326L231.303 159.256C231.19 159.197 231.088 159.151 230.966 159.105C230.966 159.105 230.966 159.105 230.955 159.093L228.849 158.065C224.255 155.757 219.813 153.088 215.522 150.056C215.787 149.383 216.136 148.491 216.52 147.395C216.567 147.278 216.595 147.163 216.642 147.046C216.801 146.569 216.989 146.053 217.156 145.512C217.202 145.37 217.239 145.241 217.286 145.099C217.378 144.79 217.481 144.468 217.583 144.146C217.658 143.914 217.732 143.682 217.796 143.438C217.852 143.258 217.907 143.077 217.962 142.872C218.148 142.254 218.322 141.598 218.495 140.917C218.587 140.582 218.669 140.236 218.75 139.889C219.814 135.56 220.675 130.427 220.625 125.23C220.618 124.976 220.622 124.735 220.615 124.481C220.613 124.405 220.611 124.328 220.609 124.252C220.594 124.062 220.599 123.871 220.584 123.681C220.581 123.605 220.58 123.554 220.578 123.478C220.561 123.237 220.555 122.984 220.538 122.743C220.537 122.692 220.536 122.667 220.535 122.616C220.529 122.413 220.503 122.21 220.488 122.02C220.486 121.944 220.474 121.881 220.472 121.805C220.457 121.615 220.442 121.425 220.417 121.248C220.416 121.197 220.414 121.147 220.403 121.109C220.377 120.881 220.35 120.654 220.324 120.426C220.323 120.375 220.311 120.312 220.3 120.275C220.275 120.098 220.25 119.921 220.225 119.744C220.213 119.681 220.201 119.618 220.19 119.555C220.164 119.352 220.138 119.15 220.103 118.961C220.102 118.936 220.092 118.923 220.102 118.91C220.065 118.696 220.029 118.481 219.993 118.267C219.982 118.204 219.97 118.166 219.969 118.115C219.934 117.951 219.9 117.788 219.875 117.636C219.874 117.585 219.852 117.536 219.851 117.485C219.805 117.283 219.76 117.082 219.714 116.881C219.714 116.881 219.703 116.868 219.713 116.855C219.678 116.666 219.622 116.478 219.577 116.302C219.566 116.264 219.554 116.201 219.543 116.163C219.499 116.013 219.464 115.849 219.419 115.698C219.408 115.661 219.408 115.635 219.397 115.598C219.341 115.409 219.296 115.233 219.231 115.058C219.23 115.033 219.219 115.021 219.209 115.008C219.165 114.858 219.11 114.695 219.056 114.557C219.044 114.52 219.033 114.482 219.022 114.444C218.967 114.281 218.913 114.119 218.848 113.969L218.837 113.957C218.783 113.794 218.708 113.632 218.643 113.482C218.633 113.47 218.632 113.444 218.611 113.42C218.557 113.282 218.493 113.158 218.439 113.02C218.428 113.008 218.417 112.97 218.407 112.958C218.268 112.672 218.139 112.398 217.991 112.15C217.981 112.138 217.971 112.125 217.97 112.1C217.896 111.989 217.843 111.877 217.769 111.765C217.759 111.753 217.759 111.753 217.748 111.741C217.591 111.506 217.433 111.297 217.277 111.113C217.267 111.1 217.256 111.088 217.246 111.076C217.079 110.88 216.923 110.721 216.748 110.563C216.665 110.491 216.572 110.431 216.5 110.371C216.49 110.358 216.49 110.358 216.479 110.346C216.315 110.226 216.13 110.132 215.947 110.064L215.936 110.052C215.845 110.017 215.763 109.995 215.672 109.961C215.672 109.961 215.661 109.949 215.651 109.962C215.469 109.919 215.286 109.901 215.095 109.897L215.074 109.898C213.553 109.976 211.896 111.813 210.314 115.999C206.576 125.959 211.749 142.642 213.978 148.927C210.137 146.104 206.431 143.022 202.877 139.628L200.815 137.619C200.14 136.949 199.476 136.265 198.812 135.582C196.163 132.81 193.632 129.881 191.207 126.807C191.303 126.625 191.399 126.417 191.513 126.184C191.581 126.066 191.638 125.937 191.695 125.807C191.829 125.547 191.963 125.262 192.116 124.95C192.575 124.016 193.11 122.874 193.749 121.512C193.949 121.059 194.178 120.592 194.397 120.087C194.511 119.827 194.625 119.568 194.75 119.322C195.931 116.704 197.307 113.48 198.85 109.69C198.926 109.508 199.002 109.327 199.057 109.147C199.086 109.082 199.105 109.031 199.133 108.966C199.18 108.849 199.217 108.721 199.274 108.591C199.303 108.526 199.321 108.449 199.35 108.385C199.397 108.268 199.424 108.153 199.471 108.036C199.489 107.959 199.528 107.881 199.546 107.804C199.583 107.701 199.62 107.572 199.658 107.469C199.676 107.392 199.714 107.314 199.732 107.237C199.77 107.134 199.797 107.018 199.834 106.889C199.852 106.812 199.88 106.722 199.909 106.657C199.936 106.542 199.973 106.439 200.01 106.31C200.028 106.233 200.046 106.156 200.075 106.091C200.112 105.962 200.139 105.847 200.166 105.731C200.184 105.654 200.203 105.603 200.221 105.526C200.257 105.371 200.294 105.217 200.33 105.063C200.339 105.025 200.348 104.986 200.357 104.948C200.402 104.755 200.447 104.563 200.493 104.37C200.512 104.318 200.52 104.254 200.519 104.204C200.545 104.063 200.571 103.922 200.608 103.793C200.626 103.716 200.635 103.652 200.653 103.575C200.68 103.46 200.697 103.332 200.724 103.216C200.742 103.139 200.75 103.05 200.768 102.973C200.795 102.857 200.802 102.743 200.819 102.64C200.838 102.563 200.845 102.474 200.853 102.385C200.87 102.282 200.887 102.154 200.905 102.052C200.912 101.963 200.93 101.886 200.938 101.796C200.955 101.694 200.962 101.579 200.99 101.464C200.997 101.374 201.015 101.297 201.023 101.208C201.03 101.093 201.047 100.991 201.064 100.863C201.072 100.774 201.08 100.71 201.088 100.62C201.105 100.493 201.112 100.378 201.128 100.25C201.137 100.186 201.135 100.11 201.143 100.046C201.158 99.8675 201.173 99.6635 201.189 99.4849C201.197 99.421 201.196 99.3703 201.204 99.3063C201.221 99.1785 201.217 99.0516 201.234 98.9237C201.242 98.8345 201.24 98.7583 201.247 98.669C201.254 98.5543 201.252 98.4527 201.269 98.3503C201.277 98.261 201.275 98.1848 201.272 98.0833C201.269 97.9817 201.277 97.8924 201.274 97.7908C201.282 97.7015 201.269 97.6131 201.277 97.5238C201.274 97.4222 201.282 97.3329 201.279 97.2314C201.287 97.1421 201.274 97.0536 201.282 96.9643C201.279 96.8628 201.277 96.7866 201.274 96.685C201.272 96.5835 201.27 96.5073 201.267 96.4057C201.275 96.3164 201.262 96.228 201.259 96.1264C201.257 96.0248 201.255 95.9487 201.252 95.8471C201.25 95.7709 201.247 95.6694 201.245 95.5932C201.242 95.4916 201.23 95.4032 201.237 95.3139C201.235 95.2377 201.223 95.1493 201.221 95.0731C201.206 94.8831 201.2 94.68 201.175 94.4777C201.163 94.4147 201.171 94.3508 201.159 94.2877C201.157 94.1862 201.134 94.0854 201.131 93.9839C201.129 93.9077 201.117 93.8447 201.115 93.7685C201.103 93.6801 201.089 93.5662 201.077 93.4778C201.065 93.4147 201.063 93.3386 201.051 93.2755C201.039 93.1871 201.026 93.0733 201.013 92.9848C201.001 92.9218 200.999 92.8456 200.987 92.7825C200.975 92.6941 200.952 92.5934 200.949 92.4918C200.938 92.4288 200.926 92.3658 200.914 92.3027C200.891 92.202 200.879 92.1136 200.856 92.0129C200.844 91.9498 200.832 91.8868 200.82 91.8237C200.797 91.723 200.785 91.6346 200.762 91.5339C200.761 91.4831 200.739 91.4332 200.738 91.3824C200.715 91.2817 200.692 91.181 200.669 91.0803C200.668 91.0549 200.657 91.0173 200.647 91.005C200.556 90.6276 200.445 90.251 200.344 89.8867C200.343 89.8613 200.333 89.8491 200.332 89.8237C200.299 89.7107 200.266 89.6231 200.223 89.5233C200.212 89.4856 200.201 89.448 200.19 89.4103C200.157 89.3228 200.114 89.2229 200.091 89.1222C200.08 89.0846 200.069 89.0469 200.048 88.997C200.015 88.9094 199.982 88.8218 199.939 88.722C199.928 88.6843 199.917 88.6467 199.886 88.6099C199.853 88.5223 199.821 88.4348 199.768 88.348C199.757 88.3104 199.736 88.2859 199.725 88.2482C199.692 88.1606 199.639 88.0739 199.607 87.9863C199.586 87.9618 199.585 87.9364 199.564 87.9119C199.521 87.8121 199.468 87.7253 199.426 87.6509C199.416 87.6386 199.416 87.6386 199.405 87.6264C199.182 87.2165 198.95 86.8451 198.689 86.5131C198.678 86.5008 198.668 86.4886 198.668 86.4886C198.605 86.415 198.553 86.3537 198.491 86.2801C198.48 86.2678 198.459 86.2433 198.449 86.231C198.397 86.1697 198.334 86.0961 198.282 86.0348C198.261 86.0103 198.251 85.998 198.23 85.9735C198.178 85.9121 198.116 85.864 198.054 85.7904C198.033 85.7658 198.022 85.7536 197.992 85.7422C197.93 85.694 197.878 85.6327 197.806 85.5722C197.795 85.5599 197.774 85.5354 197.754 85.5363C197.692 85.4881 197.62 85.4276 197.558 85.3794C197.548 85.3672 197.548 85.3672 197.537 85.3549C197.218 85.1271 196.89 84.9377 196.543 84.8001C196.462 84.7781 196.39 84.743 196.309 84.7211C196.289 84.722 196.278 84.7097 196.258 84.7106C196.177 84.6886 196.106 84.679 196.034 84.6439C196.014 84.6447 195.984 84.6334 195.964 84.6342C195.893 84.6245 195.811 84.6026 195.74 84.5929C195.72 84.5938 195.69 84.5824 195.669 84.5832C195.599 84.5736 195.507 84.5648 195.437 84.5551C195.416 84.5559 195.386 84.5445 195.366 84.5454C195.285 84.5489 195.214 84.5392 195.123 84.5304C195.103 84.5312 195.083 84.5321 195.063 84.533C194.195 84.5447 193.244 84.8269 192.21 85.4049C182.547 90.8517 187.784 116.264 189.896 124.969C186.035 119.91 182.468 114.483 179.254 108.736C179.254 108.711 179.254 108.711 179.253 108.685L178.055 106.538C176.216 103.121 174.496 99.5976 172.905 95.9798C172.914 95.9413 172.923 95.9027 172.932 95.8642C172.996 95.5946 173.06 95.3504 173.113 95.0939C173.122 95.0553 173.122 95.0299 173.131 94.9914C173.184 94.7349 173.238 94.4784 173.281 94.2097C173.281 94.1843 173.29 94.1458 173.299 94.1326C173.343 93.8639 173.386 93.5951 173.429 93.3263C173.428 93.2756 173.446 93.2239 173.445 93.1731C173.478 92.9175 173.522 92.6487 173.545 92.3808C173.543 92.33 173.552 92.2915 173.551 92.2407C173.584 91.9597 173.607 91.6918 173.629 91.3985L173.629 91.3731C173.652 91.1052 173.664 90.8251 173.677 90.5449C173.676 90.4941 173.685 90.4556 173.683 90.4048C173.696 90.1247 173.699 89.8576 173.702 89.5906C173.7 89.5398 173.699 89.489 173.707 89.4251C173.71 89.1581 173.723 88.8779 173.715 88.5986C173.724 88.5601 173.713 88.5224 173.712 88.4716C173.715 88.2046 173.707 87.9253 173.69 87.6591C173.689 87.6337 173.688 87.6083 173.688 87.5829C173.68 87.3036 173.662 87.0121 173.645 86.7459C173.644 86.6951 173.642 86.6443 173.641 86.5936C173.624 86.3274 173.596 86.0489 173.579 85.7828C173.577 85.732 173.576 85.6812 173.575 85.6304C173.547 85.352 173.519 85.0735 173.491 84.7951C173.491 84.7697 173.48 84.7574 173.48 84.7321C173.452 84.4536 173.415 84.1883 173.387 83.9099C173.376 83.8722 173.374 83.8214 173.374 83.796C173.336 83.5307 173.298 83.24 173.261 82.9747C173.259 82.9239 173.247 82.8609 173.236 82.8232C173.189 82.5456 173.151 82.2803 173.103 82.0028C173.092 81.9651 173.091 81.9143 173.08 81.8767C173.032 81.5991 172.974 81.3346 172.926 81.0571C172.916 81.0448 172.926 81.0317 172.915 81.0194C172.857 80.7296 172.799 80.4651 172.741 80.1753C172.73 80.1376 172.718 80.0746 172.707 80.0369C172.649 79.7725 172.581 79.4957 172.524 79.2313C172.502 79.1814 172.501 79.1306 172.479 79.0807C172.411 78.804 172.343 78.5273 172.266 78.2637C172.265 78.2383 172.244 78.2137 172.243 78.1884C172.166 77.9248 172.108 77.6603 172.03 77.3967C172.019 77.3591 172.008 77.3214 172.007 77.296C171.93 77.0324 171.852 76.7689 171.774 76.5053C171.753 76.4553 171.751 76.4046 171.73 76.3546C171.652 76.0911 171.564 75.8406 171.487 75.577C171.475 75.5394 171.454 75.4894 171.443 75.4518C171.355 75.1759 171.267 74.9255 171.179 74.6496C171.081 74.3869 170.993 74.111 170.895 73.8483C170.884 73.8107 170.862 73.7607 170.851 73.7231C170.764 73.4726 170.656 73.223 170.569 72.9726C170.547 72.9227 170.536 72.885 170.514 72.8351C170.407 72.5855 170.319 72.335 170.212 72.0854C170.2 72.0478 170.19 72.0355 170.179 71.9979C170.082 71.7605 169.974 71.5109 169.877 71.2736C169.866 71.2613 169.855 71.2237 169.845 71.2114C169.737 70.9618 169.64 70.7245 169.523 70.488C169.501 70.4381 169.49 70.4004 169.468 70.3505C169.361 70.1263 169.254 69.8767 169.147 69.6525C169.136 69.6148 169.104 69.5781 169.093 69.5404C168.976 69.3039 168.858 69.0675 168.741 68.831L168.731 68.8187C168.613 68.5823 168.496 68.3458 168.379 68.1347C168.368 68.097 168.347 68.0725 168.336 68.0349C168.219 67.8238 168.112 67.5996 167.985 67.3762C167.964 67.3263 167.943 67.3018 167.921 67.2519C167.805 67.0408 167.677 66.8174 167.561 66.6064C167.54 66.5818 167.539 66.5564 167.518 66.5319C167.402 66.3208 167.275 66.1229 167.158 65.9118C167.148 65.8995 167.138 65.8873 167.137 65.8619C167.01 65.6639 166.894 65.4529 166.767 65.2549C166.746 65.2304 166.725 65.1805 166.704 65.1559C166.578 64.958 166.462 64.7723 166.335 64.5743C166.314 64.5498 166.303 64.5122 166.272 64.4754C166.145 64.2774 166.009 64.0926 165.883 63.8946L165.872 63.8824C165.736 63.6975 165.62 63.5119 165.484 63.327C165.463 63.3025 165.453 63.2902 165.432 63.2657C165.306 63.0931 165.18 62.9206 165.055 62.748C165.034 62.7235 165.013 62.699 164.982 62.6622C164.856 62.4896 164.72 62.3302 164.605 62.1699C164.584 62.1453 164.574 62.1331 164.553 62.1086C164.417 61.9491 164.292 61.7766 164.157 61.6425L164.146 61.6303C164.011 61.4708 163.886 61.3237 163.751 61.1896C163.73 61.1651 163.709 61.1406 163.699 61.1283C163.574 60.9811 163.439 60.8471 163.314 60.7253C163.294 60.7008 163.283 60.6885 163.262 60.664C163.128 60.5299 162.993 60.3959 162.868 60.2741C162.858 60.2618 162.858 60.2618 162.847 60.2496C162.723 60.1278 162.588 59.9938 162.454 59.8851C162.444 59.8728 162.433 59.8606 162.423 59.8483C162.298 59.7265 162.164 59.6179 162.041 59.5215C162.02 59.497 162 59.4978 161.979 59.4733C161.855 59.3769 161.721 59.2683 161.597 59.1719C161.587 59.1596 161.567 59.1605 161.546 59.1359C161.278 58.944 161.031 58.7766 160.775 58.6224C160.765 58.6101 160.744 58.611 160.734 58.5987C160.611 58.5277 160.488 58.4567 160.375 58.398C160.365 58.3857 160.345 58.3866 160.324 58.3621C160.201 58.2911 160.078 58.2455 159.956 58.1999C159.956 58.1999 159.946 58.1876 159.936 58.2007C159.814 58.1551 159.691 58.1095 159.579 58.0762L159.559 58.077C159.447 58.0437 159.335 58.0103 159.214 57.9901C159.194 57.991 159.183 57.9787 159.163 57.9796C158.924 58.0915 158.822 58.0704 158.711 58.0625C158.691 58.0634 158.691 58.0634 158.671 58.0642C158.448 58.0483 158.216 58.0455 158.005 58.0673C157.985 58.0682 157.985 58.0682 157.964 58.069C157.854 58.0865 157.763 58.103 157.663 58.1327C157.643 58.1336 157.633 58.1467 157.613 58.1476C157.513 58.1773 157.413 58.207 157.314 58.2621C157.314 58.2621 157.304 58.2752 157.284 58.2761C157.194 58.3181 157.094 58.3732 156.995 58.4283L156.985 58.4414C156.886 58.4965 156.797 58.5638 156.708 58.6312C156.698 58.6443 156.678 58.6452 156.668 58.6583C156.579 58.7257 156.501 58.8053 156.412 58.898C156.403 58.9112 156.393 58.9243 156.383 58.9374C156.314 59.0039 156.226 59.0967 156.148 59.2017C155.241 60.3717 154.641 62.4437 154.464 65.6289C153.512 84.2011 166.036 93.8969 170.647 96.8136C172.271 100.544 174.034 104.168 175.916 107.684L176.977 109.622C180.276 115.569 183.941 121.208 187.908 126.465C181.476 123.004 165.158 115.58 158.517 124.927C156.757 127.404 156.161 129.628 156.404 131.537C156.415 131.55 156.405 131.563 156.415 131.575C156.491 132.131 156.637 132.671 156.852 133.17L156.862 133.183C157.078 133.682 157.363 134.165 157.698 134.609L157.709 134.621C158.043 135.064 158.449 135.492 158.893 135.867C158.903 135.879 158.903 135.879 158.914 135.891C158.996 135.964 159.089 136.049 159.182 136.109C159.553 136.398 159.954 136.673 160.375 136.947C160.386 136.959 160.416 136.971 160.427 136.983C160.519 137.043 160.621 137.089 160.724 137.161C160.735 137.173 160.755 137.172 160.765 137.185C161.083 137.362 161.41 137.526 161.758 137.689C161.768 137.701 161.788 137.7 161.799 137.712C161.901 137.759 162.003 137.805 162.105 137.852C162.136 137.863 162.177 137.887 162.208 137.898C162.31 137.945 162.401 137.979 162.513 138.012C162.544 138.024 162.575 138.035 162.616 138.059C162.952 138.184 163.288 138.31 163.624 138.41C163.665 138.433 163.706 138.432 163.736 138.443C163.828 138.477 163.929 138.498 164.031 138.519C164.082 138.53 164.143 138.553 164.194 138.563C164.295 138.584 164.387 138.618 164.488 138.64C164.549 138.662 164.6 138.673 164.671 138.683C164.773 138.704 164.864 138.738 164.955 138.747C165.006 138.757 165.057 138.768 165.108 138.778C165.29 138.821 165.473 138.864 165.655 138.882C165.726 138.892 165.797 138.901 165.858 138.924C165.95 138.933 166.031 138.955 166.122 138.964C166.193 138.973 166.274 138.995 166.355 138.992C166.446 139.001 166.527 139.023 166.618 139.031C166.7 139.053 166.78 139.05 166.871 139.059C166.962 139.068 167.033 139.077 167.124 139.086C167.246 139.106 167.357 139.114 167.489 139.121C167.59 139.142 167.691 139.138 167.793 139.159C167.904 139.167 167.995 139.176 168.106 139.184C168.177 139.193 168.258 139.19 168.329 139.2C168.42 139.209 168.52 139.204 168.611 139.213C168.692 139.21 168.763 139.219 168.844 139.216C168.944 139.211 169.056 139.219 169.147 139.228C169.218 139.238 169.278 139.235 169.359 139.232C169.531 139.237 169.692 139.23 169.864 139.236C169.904 139.234 169.944 139.232 169.995 139.243C170.126 139.25 170.257 139.232 170.388 139.239C170.449 139.236 170.53 139.233 170.59 139.23C170.691 139.226 170.812 139.221 170.913 139.216C170.973 139.214 171.054 139.21 171.114 139.208C171.235 139.202 171.346 139.185 171.467 139.18C171.527 139.177 171.588 139.175 171.648 139.172C171.819 139.152 171.99 139.132 172.161 139.112C172.182 139.111 172.211 139.097 172.242 139.109C172.393 139.089 172.544 139.07 172.695 139.051C172.755 139.048 172.805 139.034 172.875 139.018C172.986 139 173.117 138.982 173.227 138.965C173.288 138.962 173.358 138.946 173.408 138.932C173.528 138.901 173.649 138.896 173.77 138.865C173.82 138.85 173.88 138.848 173.93 138.833C174.111 138.8 174.272 138.767 174.442 138.722C174.462 138.721 174.472 138.708 174.482 138.72C174.643 138.688 174.793 138.643 174.954 138.611C175.004 138.596 175.054 138.581 175.124 138.566C175.244 138.535 175.365 138.505 175.474 138.462C175.534 138.434 175.595 138.431 175.654 138.403C175.775 138.373 175.885 138.33 176.005 138.299C176.055 138.284 176.105 138.27 176.155 138.255C176.315 138.197 176.485 138.152 176.655 138.081C176.655 138.081 176.665 138.068 176.675 138.08C176.835 138.022 176.995 137.965 177.155 137.907C177.205 137.892 177.255 137.877 177.305 137.837C177.414 137.794 177.534 137.738 177.644 137.695C177.704 137.667 177.754 137.652 177.814 137.624C177.923 137.582 178.043 137.526 178.142 137.471C178.192 137.456 178.242 137.416 178.292 137.401C178.451 137.318 178.601 137.248 178.76 137.165C181.109 135.946 182.996 134.823 184.503 133.817C184.939 133.519 185.336 133.248 185.712 132.978C186.088 132.707 186.434 132.451 186.75 132.183C187.224 131.807 187.649 131.446 188.013 131.113C188.131 131.006 188.25 130.899 188.368 130.792C188.821 130.366 189.174 129.995 189.467 129.652C189.546 129.573 189.604 129.494 189.673 129.402C189.77 129.271 189.878 129.152 189.956 129.047C192.421 132.144 195.004 135.109 197.684 137.918L199.791 140.078C203.722 143.989 207.855 147.575 212.161 150.797C204.982 149.947 184.308 148.659 183.216 161.657C183.17 162.218 183.144 162.728 183.137 163.237C183.141 163.364 183.134 163.478 183.137 163.605L183.138 163.631C183.141 163.758 183.144 163.859 183.157 163.973L183.158 163.998C183.16 164.1 183.174 164.214 183.176 164.315L183.177 164.341C183.182 164.518 183.195 164.632 183.198 164.734L183.198 164.759C183.201 164.861 183.224 164.961 183.227 165.063C183.237 165.075 183.227 165.088 183.238 165.101C183.25 165.189 183.264 165.303 183.276 165.391C183.286 165.404 183.277 165.417 183.287 165.429C183.3 165.517 183.322 165.618 183.335 165.707C183.345 165.719 183.336 165.732 183.346 165.744C183.359 165.833 183.371 165.921 183.404 166.009C183.414 166.021 183.404 166.034 183.415 166.046C183.427 166.135 183.449 166.21 183.482 166.298C183.493 166.31 183.483 166.323 183.493 166.335C183.515 166.411 183.528 166.499 183.561 166.587C183.571 166.599 183.561 166.612 183.572 166.624C183.594 166.7 183.616 166.775 183.649 166.862C183.659 166.875 183.649 166.888 183.66 166.9C183.682 166.975 183.704 167.051 183.747 167.125C183.757 167.137 183.747 167.151 183.758 167.163C183.78 167.238 183.812 167.3 183.845 167.388C183.855 167.4 183.855 167.4 183.856 167.426C183.888 167.488 183.91 167.563 183.952 167.638C183.963 167.65 183.963 167.65 183.963 167.675C183.995 167.737 184.027 167.8 184.07 167.874C184.08 167.886 184.08 167.886 184.091 167.899C184.122 167.961 184.154 168.023 184.197 168.097C184.207 168.11 184.207 168.11 184.218 168.122C184.25 168.184 184.302 168.245 184.334 168.308C184.344 168.32 184.344 168.32 184.355 168.332C184.386 168.394 184.439 168.456 184.48 168.505L184.491 168.517C184.532 168.566 184.585 168.627 184.616 168.689L184.627 168.702C184.669 168.751 184.721 168.812 184.762 168.861L184.773 168.873C184.815 168.923 184.867 168.984 184.918 169.02C184.918 169.02 184.918 169.02 184.929 169.032C184.981 169.093 185.032 169.129 185.084 169.191C185.146 169.239 185.188 169.288 185.25 169.336C186.57 170.398 188.423 170.611 190.582 170.201C190.672 170.184 190.762 170.168 190.853 170.151C190.853 170.151 190.853 170.151 190.863 170.138C190.953 170.122 191.043 170.105 191.123 170.076L191.143 170.075C191.234 170.059 191.314 170.03 191.404 170.013C191.414 170 191.424 170.012 191.434 169.999C191.524 169.983 191.604 169.954 191.705 169.924C191.714 169.911 191.725 169.923 191.734 169.91C191.825 169.894 191.905 169.865 191.995 169.823C192.015 169.822 192.024 169.809 192.035 169.821C192.115 169.792 192.205 169.776 192.295 169.734C192.315 169.733 192.325 169.72 192.345 169.719C192.425 169.69 192.515 169.673 192.605 169.631C192.625 169.631 192.635 169.617 192.655 169.617C192.735 169.588 192.815 169.559 192.915 169.529C192.935 169.528 192.945 169.515 192.965 169.514C193.045 169.485 193.135 169.443 193.215 169.415C193.235 169.414 193.245 169.401 193.275 169.387C193.355 169.358 193.444 169.316 193.524 169.287C193.544 169.286 193.564 169.26 193.584 169.259C193.664 169.23 193.754 169.188 193.834 169.159C193.854 169.158 193.884 169.145 193.893 169.131C193.973 169.103 194.063 169.061 194.143 169.032C194.163 169.031 194.193 169.017 194.203 169.004C194.283 168.975 194.373 168.933 194.453 168.904C194.482 168.89 194.503 168.889 194.522 168.863C194.602 168.834 194.692 168.792 194.772 168.763C194.802 168.749 194.822 168.748 194.841 168.722C194.921 168.693 195.011 168.651 195.09 168.597C195.12 168.583 195.14 168.582 195.16 168.556C195.249 168.514 195.319 168.473 195.409 168.431C195.439 168.417 195.459 168.416 195.489 168.402C195.578 168.36 195.648 168.319 195.738 168.277C195.767 168.263 195.797 168.249 195.807 168.236C195.897 168.194 195.966 168.153 196.056 168.111C196.086 168.097 196.116 168.083 196.126 168.07C196.215 168.028 196.285 167.987 196.375 167.945C196.404 167.931 196.434 167.917 196.454 167.891C196.544 167.849 196.623 167.794 196.703 167.766C196.733 167.752 196.763 167.738 196.792 167.724C196.882 167.682 196.961 167.627 197.051 167.585C197.081 167.571 197.111 167.557 197.121 167.544C197.21 167.502 197.29 167.448 197.379 167.406C197.409 167.392 197.439 167.378 197.459 167.352C197.538 167.298 197.628 167.256 197.707 167.201C197.737 167.187 197.756 167.161 197.786 167.147C197.865 167.093 197.955 167.051 198.034 166.997C198.064 166.983 198.094 166.969 198.114 166.943C198.193 166.888 198.283 166.846 198.362 166.792C198.392 166.778 198.411 166.752 198.432 166.751C198.511 166.697 198.61 166.642 198.69 166.587C198.719 166.573 198.739 166.547 198.759 166.546C198.838 166.492 198.938 166.437 199.017 166.383C199.047 166.369 199.057 166.356 199.087 166.342C199.176 166.274 199.265 166.232 199.354 166.165C199.374 166.164 199.394 166.138 199.414 166.137C199.503 166.07 199.603 166.015 199.692 165.947C199.701 165.934 199.722 165.933 199.741 165.907C199.84 165.852 199.929 165.785 200.028 165.704C200.038 165.691 200.058 165.69 200.058 165.69C200.167 165.622 200.256 165.554 200.365 165.486C201.149 164.957 201.92 164.39 202.692 163.798C202.781 163.731 202.879 163.65 202.968 163.583C202.988 163.556 203.008 163.556 203.028 163.529C203.107 163.475 203.185 163.395 203.265 163.341C203.295 163.327 203.324 163.288 203.354 163.274C203.433 163.22 203.502 163.153 203.581 163.099C203.621 163.072 203.65 163.032 203.68 163.018C203.749 162.952 203.828 162.898 203.887 162.844C203.927 162.817 203.966 162.79 203.996 162.751C204.065 162.684 204.134 162.643 204.203 162.577C204.243 162.549 204.292 162.509 204.332 162.482C204.391 162.429 204.47 162.375 204.529 162.321C204.578 162.281 204.618 162.254 204.667 162.214C204.727 162.16 204.786 162.107 204.865 162.053C204.914 162.012 204.954 161.985 205.003 161.945C205.063 161.892 205.122 161.838 205.181 161.785C205.23 161.745 205.279 161.704 205.319 161.677C205.378 161.624 205.437 161.571 205.496 161.517C205.546 161.477 205.595 161.437 205.645 161.396C205.704 161.343 205.763 161.29 205.822 161.236C205.871 161.196 205.921 161.156 205.97 161.116C206.029 161.062 206.088 161.009 206.147 160.955C206.197 160.915 206.246 160.875 206.285 160.822C206.344 160.769 206.403 160.716 206.463 160.662C206.512 160.622 206.561 160.582 206.6 160.529C206.659 160.476 206.709 160.436 206.768 160.382C206.817 160.342 206.876 160.289 206.915 160.236C206.974 160.183 207.024 160.143 207.072 160.077C207.122 160.037 207.181 159.983 207.22 159.931C207.279 159.877 207.328 159.837 207.377 159.772C207.426 159.731 207.486 159.678 207.525 159.625C207.584 159.572 207.633 159.532 207.682 159.466C207.731 159.426 207.78 159.36 207.829 159.32C207.888 159.267 207.927 159.214 207.986 159.161C208.036 159.121 208.084 159.055 208.134 159.015C208.183 158.974 208.232 158.909 208.281 158.869C208.331 158.828 208.379 158.763 208.429 158.722C208.478 158.682 208.527 158.617 208.576 158.576C208.626 158.536 208.674 158.471 208.724 158.43C208.773 158.39 208.822 158.324 208.871 158.284C208.92 158.244 208.969 158.178 209.018 158.138C209.068 158.098 209.117 158.032 209.166 157.992C209.215 157.952 209.264 157.886 209.313 157.846C209.363 157.806 209.411 157.74 209.461 157.7C209.51 157.659 209.559 157.594 209.608 157.554C209.658 157.513 209.706 157.448 209.756 157.407C209.795 157.355 209.854 157.302 209.893 157.249C209.932 157.197 209.991 157.143 210.03 157.091C210.069 157.038 210.128 156.985 210.167 156.932C210.206 156.88 210.255 156.839 210.304 156.774C210.343 156.721 210.402 156.668 210.441 156.615C210.48 156.563 210.529 156.523 210.568 156.47C210.607 156.418 210.666 156.364 210.705 156.312C210.744 156.259 210.793 156.219 210.832 156.167C210.871 156.114 210.931 156.061 210.969 156.008C211.008 155.956 211.058 155.915 211.097 155.863C211.136 155.81 211.195 155.757 211.234 155.705C211.273 155.652 211.322 155.612 211.361 155.559C211.4 155.507 211.459 155.453 211.498 155.401C211.537 155.348 211.576 155.296 211.625 155.256C211.664 155.203 211.713 155.137 211.762 155.097C211.801 155.045 211.84 154.992 211.89 154.952C211.929 154.899 211.968 154.847 212.027 154.794C212.066 154.741 212.105 154.689 212.144 154.636C212.183 154.584 212.231 154.518 212.27 154.465C212.309 154.413 212.348 154.36 212.377 154.321C212.416 154.269 212.455 154.216 212.504 154.15C212.543 154.098 212.582 154.045 212.611 154.006C212.65 153.953 212.689 153.901 212.728 153.848C212.767 153.796 212.796 153.757 212.835 153.704C212.874 153.652 212.913 153.599 212.952 153.547C212.991 153.494 213.02 153.455 213.059 153.402C213.098 153.35 213.137 153.297 213.176 153.245C213.215 153.192 213.244 153.153 213.283 153.1C213.322 153.048 213.361 152.995 213.4 152.943C213.429 152.903 213.468 152.851 213.497 152.811C213.536 152.759 213.575 152.706 213.624 152.641C213.653 152.601 213.692 152.549 213.721 152.51C213.76 152.457 213.809 152.391 213.837 152.327C213.847 152.313 213.867 152.287 213.876 152.274C217.046 154.553 220.312 156.625 223.652 158.49C224.595 159.009 225.537 159.528 226.499 160.021L228.27 160.924C232.024 162.784 235.843 164.426 239.709 165.951C233.101 166.411 219.515 169.382 214.628 185.365C213.673 188.494 213.481 190.752 213.866 192.286C213.866 192.286 213.876 192.299 213.867 192.312C213.901 192.45 213.944 192.575 213.988 192.701C213.988 192.701 213.999 192.713 213.989 192.726C214.033 192.851 214.086 192.963 214.13 193.088C214.247 193.325 214.374 193.523 214.52 193.72C214.593 193.806 214.666 193.892 214.749 193.964L214.759 193.977C214.842 194.049 214.925 194.122 215.017 194.182C215.017 194.182 215.017 194.182 215.028 194.194C215.306 194.398 215.612 194.538 215.948 194.638C215.948 194.638 215.958 194.65 215.968 194.637C216.08 194.67 216.202 194.69 216.314 194.724C216.314 194.724 216.324 194.736 216.334 194.723C216.699 194.783 217.093 194.805 217.516 194.761L217.536 194.76C217.677 194.754 217.808 194.736 217.958 194.717L217.979 194.716C218.421 194.646 218.892 194.537 219.382 194.376C219.392 194.363 219.403 194.375 219.412 194.362C219.572 194.305 219.722 194.26 219.892 194.189C219.902 194.176 219.922 194.175 219.922 194.175C220.082 194.117 220.252 194.047 220.421 193.976L220.431 193.963C220.77 193.821 221.129 193.653 221.488 193.485C221.498 193.472 221.518 193.471 221.518 193.471C221.697 193.387 221.866 193.291 222.046 193.207C222.066 193.206 222.076 193.193 222.105 193.179C222.274 193.083 222.464 192.986 222.633 192.89C222.642 192.877 222.662 192.876 222.662 192.876C223.03 192.669 223.398 192.438 223.785 192.205C223.795 192.192 223.815 192.191 223.824 192.178C224.003 192.069 224.192 191.946 224.37 191.811C224.4 191.797 224.409 191.784 224.439 191.77C224.628 191.648 224.806 191.513 224.994 191.391C225.004 191.378 225.034 191.364 225.044 191.35C225.42 191.08 225.815 190.784 226.211 190.487C226.221 190.474 226.241 190.473 226.251 190.46C226.439 190.312 226.626 190.164 226.814 190.016C226.844 190.002 226.864 189.976 226.893 189.962C227.081 189.814 227.269 189.666 227.446 189.506C227.466 189.48 227.496 189.466 227.515 189.44C227.713 189.279 227.89 189.119 228.088 188.958C228.097 188.945 228.107 188.931 228.127 188.931C228.325 188.77 228.512 188.596 228.699 188.423C228.709 188.41 228.718 188.397 228.739 188.396C228.926 188.223 229.113 188.05 229.3 187.876C229.319 187.85 229.359 187.823 229.378 187.797C229.565 187.623 229.753 187.45 229.929 187.265C229.958 187.225 229.988 187.211 230.018 187.172C230.205 186.999 230.391 186.8 230.578 186.627C230.598 186.601 230.618 186.6 230.637 186.574C230.834 186.387 231.011 186.202 231.197 186.003C231.207 185.99 231.217 185.977 231.226 185.964C231.413 185.765 231.599 185.566 231.786 185.368C231.815 185.328 231.845 185.314 231.874 185.275C232.051 185.089 232.237 184.891 232.403 184.693C232.432 184.654 232.472 184.627 232.501 184.587C232.688 184.389 232.854 184.191 233.04 183.992C233.06 183.966 233.089 183.927 233.119 183.913C233.295 183.702 233.491 183.49 233.667 183.279L233.677 183.266C233.853 183.055 234.038 182.831 234.214 182.62C234.244 182.581 234.263 182.554 234.292 182.515C234.468 182.304 234.644 182.093 234.8 181.883C234.829 181.844 234.858 181.804 234.888 181.765C235.064 181.554 235.229 181.331 235.385 181.121C235.414 181.082 235.434 181.055 235.463 181.016C235.638 180.78 235.804 180.557 235.979 180.32C235.989 180.307 235.989 180.307 235.999 180.294C236.164 180.071 236.339 179.835 236.505 179.611C236.524 179.585 236.554 179.546 236.573 179.52C236.739 179.296 236.894 179.061 237.059 178.838C237.089 178.798 237.118 178.759 237.147 178.72C237.302 178.484 237.458 178.274 237.613 178.039C237.642 177.999 237.672 177.96 237.69 177.908C237.845 177.673 238.001 177.438 238.165 177.189C238.175 177.176 238.195 177.15 238.204 177.136C238.36 176.901 238.504 176.653 238.659 176.418C238.679 176.392 238.698 176.365 238.707 176.327C238.852 176.079 239.007 175.844 239.142 175.609C239.171 175.57 239.19 175.518 239.219 175.479C239.354 175.244 239.499 174.997 239.634 174.762C239.663 174.723 239.682 174.671 239.711 174.632C239.856 174.384 239.981 174.137 240.115 173.877C240.134 173.851 240.143 173.812 240.153 173.799C240.278 173.552 240.412 173.292 240.536 173.046C240.546 173.033 240.555 172.994 240.565 172.981C240.699 172.721 240.824 172.474 240.938 172.215C240.957 172.163 240.986 172.124 240.995 172.085C241.12 171.839 241.234 171.58 241.338 171.334C241.357 171.282 241.386 171.243 241.405 171.191C241.519 170.932 241.633 170.673 241.737 170.427C241.747 170.388 241.766 170.362 241.775 170.324C241.889 170.064 241.993 169.793 242.107 169.534C242.117 169.521 242.126 169.508 242.116 169.495C242.22 169.224 242.323 168.953 242.417 168.695C242.426 168.656 242.445 168.604 242.465 168.578C242.559 168.32 242.653 168.062 242.747 167.803C242.765 167.752 242.784 167.7 242.793 167.662C242.84 167.52 242.887 167.378 242.943 167.223C248.754 169.389 254.631 171.362 260.46 173.426L263.211 174.401C266.442 175.572 269.654 176.795 272.829 178.121C266.78 181.748 247.83 193.871 246.634 203.035C246.276 205.834 247.036 207.835 248.483 209.07C248.503 209.094 248.524 209.093 248.544 209.118C248.802 209.323 249.07 209.515 249.367 209.693C249.398 209.704 249.408 209.716 249.439 209.728C249.736 209.88 250.053 210.032 250.379 210.145C250.409 210.156 250.429 210.156 250.46 210.167C250.633 210.223 250.796 210.267 250.969 210.323C250.969 210.323 250.979 210.335 250.989 210.322C251.152 210.366 251.324 210.397 251.507 210.44C251.538 210.451 251.558 210.45 251.588 210.462C251.761 210.493 251.953 210.523 252.135 210.54C252.156 210.539 252.166 210.552 252.186 210.551C252.368 210.568 252.54 210.574 252.722 210.591C252.742 210.59 252.773 210.602 252.803 210.588C252.995 210.592 253.187 210.597 253.388 210.588C253.408 210.587 253.449 210.586 253.469 210.585C253.65 210.577 253.832 210.569 254.023 210.548C254.043 210.547 254.063 210.547 254.093 210.533C254.295 210.524 254.496 210.49 254.697 210.456C254.737 210.454 254.767 210.44 254.797 210.452C254.989 210.431 255.179 210.384 255.37 210.364C255.391 210.363 255.411 210.362 255.431 210.361C255.632 210.327 255.842 210.28 256.053 210.233C256.093 210.231 256.133 210.204 256.173 210.202C256.374 210.143 256.575 210.109 256.785 210.036C256.794 210.023 256.805 210.035 256.814 210.022C257.024 209.95 257.245 209.889 257.455 209.817C257.505 209.802 257.535 209.788 257.585 209.773C258.005 209.628 258.434 209.444 258.853 209.249C258.903 209.234 258.942 209.207 258.992 209.192C259.202 209.094 259.411 208.996 259.63 208.885C259.64 208.872 259.66 208.871 259.66 208.871C259.859 208.761 260.048 208.664 260.247 208.553C260.286 208.526 260.346 208.498 260.386 208.471C260.594 208.348 260.793 208.238 260.992 208.102C261.021 208.088 261.041 208.062 261.071 208.048C261.259 207.925 261.438 207.816 261.616 207.681C261.656 207.654 261.705 207.614 261.745 207.587C261.943 207.451 262.131 207.303 262.339 207.155C262.378 207.128 262.398 207.101 262.437 207.074C262.615 206.94 262.773 206.806 262.951 206.671C262.991 206.644 263.04 206.604 263.069 206.564C263.267 206.403 263.444 206.243 263.631 206.07C263.671 206.043 263.71 205.99 263.75 205.963C263.917 205.816 264.074 205.657 264.232 205.498C264.261 205.458 264.301 205.431 264.33 205.392C264.506 205.206 264.683 205.021 264.86 204.835C264.899 204.783 264.938 204.756 264.977 204.703C265.134 204.519 265.291 204.359 265.437 204.162C265.457 204.136 265.486 204.097 265.505 204.07C265.671 203.873 265.837 203.65 266.003 203.452C266.042 203.399 266.081 203.347 266.12 203.294C266.266 203.097 266.422 202.887 266.558 202.678C266.567 202.665 266.587 202.639 266.597 202.626C266.752 202.39 266.897 202.168 267.052 201.933C267.091 201.88 267.12 201.815 267.159 201.763C267.303 201.515 267.459 201.28 267.583 201.033C271.779 193.456 273.586 186.363 274.373 181.855C274.582 180.626 274.716 179.603 274.805 178.799C280.003 181.055 285.119 183.632 290.048 186.777L290.141 186.836C290.203 186.884 290.274 186.919 290.336 186.968L291.939 188.018C291.939 188.018 291.939 188.018 291.959 188.017C292.072 188.101 292.195 188.172 292.309 188.256L292.36 188.292C293.419 189.022 294.469 189.765 295.509 190.547C308.036 199.975 318.742 212.965 326.716 228.346C327.483 229.838 329.182 228.101 328.426 226.62C321.377 213.017 312.168 201.222 301.506 192.095C299.057 190.001 296.522 188.076 293.951 186.304L291.886 184.931C286.646 181.52 281.191 178.691 275.614 176.235C275.74 176.039 275.855 175.83 275.971 175.622C276 175.583 276.028 175.518 276.058 175.478C276.212 175.218 276.356 174.945 276.5 174.672C276.52 174.645 276.519 174.62 276.538 174.594C276.673 174.334 276.807 174.074 276.941 173.814C276.96 173.762 276.98 173.736 277.009 173.696C277.133 173.424 277.267 173.164 277.391 172.892C277.41 172.84 277.438 172.776 277.467 172.736C277.591 172.464 277.705 172.205 277.809 171.934C277.818 171.895 277.847 171.856 277.856 171.817C277.96 171.546 278.064 171.3 278.168 171.029C278.177 170.99 278.187 170.977 278.206 170.951C278.31 170.679 278.403 170.396 278.497 170.137C278.516 170.086 278.535 170.034 278.554 169.983C278.637 169.712 278.731 169.454 278.804 169.171C278.823 169.119 278.832 169.081 278.851 169.029C278.934 168.759 279.008 168.476 279.091 168.206L279.101 168.192C279.174 167.91 279.247 167.627 279.32 167.344C279.339 167.293 279.338 167.242 279.356 167.19C279.42 166.92 279.483 166.651 279.536 166.369C279.544 166.305 279.563 166.253 279.562 166.203C279.615 165.921 279.678 165.651 279.721 165.382C279.721 165.357 279.73 165.318 279.74 165.305C279.783 165.037 279.836 164.78 279.87 164.524C279.879 164.486 279.878 164.435 279.887 164.397C279.93 164.128 279.963 163.847 279.996 163.591C280.004 163.527 280.003 163.476 280.011 163.413C280.035 163.145 280.078 162.876 280.101 162.608C280.11 162.569 280.108 162.519 280.117 162.48C280.141 162.212 280.164 161.97 280.178 161.715C280.177 161.69 280.186 161.651 280.185 161.626C280.208 161.358 280.211 161.091 280.224 160.811C280.222 160.76 280.231 160.696 280.229 160.645C280.232 160.378 280.246 160.123 280.249 159.856C280.247 159.805 280.246 159.755 280.244 159.704C280.247 159.437 280.25 159.17 280.253 158.903L280.252 158.877C280.255 158.61 280.248 158.331 280.23 158.065C280.229 158.014 280.228 157.963 280.226 157.913C280.22 157.659 280.202 157.392 280.195 157.139C280.194 157.088 280.193 157.037 280.181 156.974C280.164 156.708 280.146 156.442 280.119 156.189C280.119 156.163 280.118 156.138 280.117 156.112C280.101 155.872 280.074 155.619 280.047 155.365C280.045 155.315 280.034 155.277 280.033 155.226C280.006 154.973 279.979 154.72 279.942 154.48C279.868 154.344 279.866 154.293 279.855 154.23Z" fill="#3D4775"/>
<path d="M320.612 142.559C320.612 142.559 402.281 241.196 475.929 257.519C500.918 263.062 520.906 260.359 536.407 254.351C568.728 241.838 580.652 192.239 558.215 163.67C547.456 149.969 531.321 136.672 507.13 127.794C435.843 101.641 320.612 142.559 320.612 142.559Z" fill="#2F8C91"/>
<path d="M513.085 195.911C508.072 194.457 503.067 192.996 498.054 191.543C494.376 168.461 490.706 145.372 487.023 122.281C486.422 122.164 485.82 122.046 485.216 121.946C488.883 144.965 492.549 167.984 496.215 191.004C491.483 189.627 486.737 188.249 482.005 186.872C478.199 164.883 475.196 142.637 473.013 120.206C472.437 120.152 471.863 120.082 471.287 120.029C473.438 142.343 476.399 164.453 480.152 186.331C475.6 185.008 471.048 183.685 466.495 182.362C463.636 161.292 460.783 140.233 457.924 119.164C457.342 119.144 456.761 119.124 456.172 119.112C459.007 140.014 461.84 160.932 464.675 181.834C459.902 180.451 455.132 179.052 450.359 177.669C446.304 158.409 442.899 138.902 440.17 119.198C439.589 119.221 439.016 119.237 438.441 119.27C441.132 138.762 444.479 158.061 448.465 177.122C443.553 175.692 438.641 174.262 433.721 172.84C430.275 155.465 427.446 137.874 425.252 120.121C424.683 120.163 424.11 120.223 423.541 120.265C425.699 137.788 428.466 155.146 431.842 172.295C427.842 171.134 423.837 169.963 419.838 168.801C416.202 153.302 413.149 137.573 410.695 121.659C410.12 121.735 409.554 121.804 408.979 121.88C411.381 137.536 414.363 152.996 417.912 168.241C413.033 166.824 408.153 165.408 403.274 163.992C399.123 151.19 396.136 137.815 394.345 124.071C393.781 124.166 393.218 124.261 392.646 124.363C394.387 137.79 397.268 150.855 401.233 163.405C399.574 162.92 397.907 162.441 396.248 161.956C396.036 161.699 395.728 161.575 395.382 161.703C394.175 161.355 392.976 161 391.769 160.652C387.554 149.814 385.02 138.059 384.268 125.879C383.702 125.99 383.144 126.095 382.578 126.207C383.323 138.016 385.693 149.427 389.617 160.023C385.958 158.956 382.305 157.899 378.646 156.833C375.796 147.608 373.528 138.126 371.849 128.424C371.28 128.552 370.719 128.674 370.151 128.803C371.769 138.168 373.939 147.333 376.632 156.25C373.233 155.267 369.835 154.266 366.435 153.282C365.358 146.766 364.278 140.267 363.2 133.75C363.019 132.68 362.849 131.585 362.669 130.515C362.105 130.653 361.55 130.784 360.995 130.915C361.264 132.516 361.505 134.112 361.762 135.694C362.7 141.379 363.645 147.056 364.583 152.741C361.703 151.906 358.837 151.072 355.957 150.237C354.175 144.716 352.581 139.095 351.203 133.378C350.632 133.523 350.066 133.678 349.508 133.826C350.795 139.176 352.26 144.45 353.906 149.631C350.547 148.654 347.193 147.685 343.842 146.701C342.832 143.22 341.955 139.69 341.226 136.097C340.653 136.26 340.093 136.424 339.54 136.581C340.2 139.802 340.967 142.996 341.848 146.129C339.821 145.545 337.802 144.952 335.775 144.368C335.17 142.319 334.558 140.278 333.958 138.238C333.376 138.408 332.822 138.582 332.275 138.749C332.775 140.428 333.275 142.108 333.77 143.777C330.743 142.902 327.725 142.02 324.692 141.135C322.044 142.007 320.611 142.521 320.611 142.521C320.611 142.521 321.6 143.723 323.463 145.869C326.836 146.849 330.209 147.828 333.581 148.808C331.925 149.702 330.329 150.742 328.787 151.895C329.205 152.355 329.628 152.825 330.063 153.313C332.066 151.869 334.172 150.622 336.382 149.614C338.736 150.292 341.087 150.986 343.441 151.664C340.211 153.404 337.128 155.459 334.194 157.83C334.612 158.29 335.038 158.743 335.475 159.215C338.585 156.741 341.886 154.616 345.331 152.883C345.563 152.772 345.71 152.579 345.805 152.361C350.137 153.624 354.463 154.879 358.795 156.142C353.432 159.591 348.167 163.27 342.996 167.153C343.435 167.608 343.881 168.072 344.334 168.529C349.863 164.391 355.509 160.494 361.255 156.854C365.148 157.981 369.047 159.119 372.94 160.247C365.625 165.122 358.394 170.225 351.265 175.524C351.719 175.981 352.175 176.421 352.642 176.88C360.112 171.34 367.688 166.022 375.367 160.944C380.14 162.327 384.919 163.719 389.692 165.102C379.847 171.177 370.177 177.701 360.695 184.65C361.165 185.092 361.634 185.534 362.109 185.986C371.947 178.798 381.994 172.073 392.22 165.823C395.367 166.734 398.519 167.654 401.665 168.565C391.721 177.348 381.777 186.131 371.832 194.915C372.299 195.331 372.765 195.747 373.237 196.172C383.421 187.184 393.599 178.186 403.79 169.19C409.896 170.966 416.001 172.741 422.106 174.517C408.156 183.206 394.558 192.795 381.375 203.239C381.869 203.659 382.357 204.069 382.85 204.489C396.365 193.828 410.303 184.06 424.613 175.244C430.206 176.863 435.791 178.491 441.389 180.12C426.999 192.354 412.602 204.595 398.212 216.829C398.724 217.217 399.228 217.613 399.735 217.992C414.34 205.575 428.945 193.159 443.544 180.733C445.677 181.351 447.81 181.969 449.935 182.595C452.529 183.344 455.12 184.109 457.713 184.858C442.161 198.638 426.6 212.426 411.047 226.207C411.57 226.571 412.098 226.944 412.629 227.301C428.359 213.358 444.103 199.417 459.833 185.474C463.832 186.636 467.832 187.797 471.831 188.958C456.935 204.856 442.04 220.753 427.149 236.66C427.685 236.983 428.221 237.306 428.765 237.621C443.696 221.678 458.632 205.743 473.562 189.8C473.645 189.709 473.701 189.614 473.757 189.519C479.476 191.184 485.189 192.839 490.907 194.504C474.424 211.202 457.936 227.891 441.453 244.589C442.029 244.875 442.611 245.171 443.187 245.457C459.767 228.67 476.346 211.883 492.92 195.086C497.206 196.335 501.486 197.573 505.771 198.821C491.179 217.014 476.584 235.224 461.992 253.417C462.6 253.631 463.203 253.835 463.813 254.031C478.424 235.806 493.048 217.584 507.659 199.359C512.217 200.692 516.777 202.007 521.335 203.34C508.794 222.561 495.429 240.967 481.307 258.482C481.998 258.605 482.675 258.725 483.355 258.829C497.38 241.36 510.654 223.008 523.103 203.842C530.503 205.987 537.899 208.149 545.299 210.294C534.103 227.54 522.278 244.156 509.884 260.115C510.714 260.052 511.525 259.978 512.344 259.896C524.427 244.251 535.952 227.969 546.875 211.104C546.939 211.001 546.989 210.897 547.02 210.781C550.134 211.678 553.245 212.592 556.359 213.489C547.892 227.695 539.42 241.891 530.961 256.089C531.822 255.824 532.671 255.54 533.507 255.253C541.704 241.498 549.902 227.742 558.106 213.996C561.184 214.897 564.271 215.79 567.344 216.681C567.766 215.116 568.13 213.517 568.445 211.919C567.593 211.668 566.74 211.417 565.887 211.166C564.161 196.476 562.435 181.785 560.714 167.103C560.064 166.099 559.369 165.123 558.644 164.159C560.458 179.656 562.28 195.146 564.1 210.653C561.348 209.845 558.594 209.055 555.842 208.247C553.564 189.947 551.272 171.645 548.993 153.345C548.356 152.722 547.697 152.104 547.03 151.494C549.368 170.234 551.712 188.984 554.042 207.732C549.77 206.486 545.503 205.249 541.232 204.003C538.951 183.16 536.662 162.324 534.381 141.481C533.768 141.069 533.155 140.657 532.52 140.25C534.828 161.33 537.145 182.402 539.447 203.473C535.72 202.396 531.996 201.302 528.269 200.226C528.163 200.192 528.062 200.168 527.956 200.135C524.611 178.173 522.217 155.951 520.767 133.545C520.186 133.25 519.596 132.961 518.998 132.681C520.424 155.195 522.809 177.528 526.13 199.598C525.651 199.456 525.171 199.314 524.697 199.181C524.602 199.124 524.495 199.09 524.398 199.092C521.278 198.186 518.159 197.279 515.034 196.363C510.034 173.287 505.961 149.87 502.805 126.178C502.2 125.991 501.598 125.788 500.985 125.608C504.069 149.409 508.128 172.824 513.085 195.911Z" fill="#286F7F"/>
<path d="M424.518 172.484C422.606 188.128 429.965 208.339 432.854 215.505C426.039 209.594 419.116 204.259 412.086 199.525C410.197 147.173 388.547 99.0967 388.547 99.0967C388.547 99.0967 391.749 110.721 394.95 143.517C397.779 172.465 407.003 191.866 410.648 198.567C404.023 194.195 397.328 190.358 390.567 187.067C388.116 185.874 385.654 184.758 383.191 183.713C376.877 169.793 381.194 145.442 377.67 122.633C375.022 105.468 354.523 89.8178 354.523 89.8178C354.523 89.8178 371.698 106.113 369.583 132.857C367.893 154.218 378.624 175.796 383.014 183.639C375.17 180.329 367.254 177.749 359.297 175.921C358.615 171.132 356.208 155.15 352.532 139.498C348.195 121.06 332.436 81.8539 332.436 81.8539C332.436 81.8539 332.876 99.064 337.424 122.671C341.103 141.742 355.059 168.96 358.652 175.767C352.035 174.282 345.391 173.304 338.723 172.842C337.608 168.128 333.782 152.191 329.139 135.841C323.604 116.363 298.719 72.3217 298.719 72.3217C298.719 72.3217 302.806 86.7865 311.305 117.829C318.617 144.514 333.851 167.013 337.987 172.806C331.974 172.422 325.947 172.451 319.911 172.905C315.59 170.161 302.609 164.416 275.955 170.696C244.606 178.076 235.015 183.507 235.015 183.507C235.015 183.507 292.397 195.077 319.616 175.709C325.088 175.282 330.448 175.225 335.698 175.466C330.595 180.451 312.5 198.911 298.112 223.639C281.196 252.722 276.995 262.192 276.995 262.192C276.995 262.192 312.975 222.677 323.117 203.61C331.116 188.564 335.185 178.921 336.553 175.518C343.722 175.912 350.685 176.908 357.41 178.388C352.471 183.344 334.075 202.985 327.91 225.81C320.761 252.277 306.019 265.703 306.019 265.703C306.019 265.703 322.568 257.349 336.393 224.759C347.865 197.725 355.608 182.799 357.923 178.494C366.747 180.477 375.168 183.293 383.153 186.744C378.542 190.528 364.72 203.113 356.457 223.779C346.427 248.861 327.899 273.503 327.899 273.503C327.899 273.503 356.833 249.923 371.511 221.017C382.097 200.17 384.269 190.942 384.657 187.406C393.725 191.418 402.228 196.223 410.116 201.437C405.837 204.006 392.04 213.457 378.937 235.242C363.171 261.447 351.015 281.76 351.015 281.76C351.015 281.76 401.982 232.879 411.089 202.075C418.905 207.325 426.101 212.973 432.635 218.702C428.709 220.402 416.999 226.72 408.028 244.271C397.098 265.66 389.738 271.99 379.126 278.805C379.126 278.805 402.841 269.401 411.614 254.699C421.873 237.499 426.142 223.948 432.874 218.913C437.238 222.741 441.293 226.599 445.041 230.364C475.123 260.675 492.196 292.746 492.374 293.069C492.716 293.709 493.398 293.894 493.912 293.485C493.975 293.427 494.038 293.37 494.096 293.302C494.449 292.851 494.516 292.137 494.229 291.57C494.06 291.241 476.827 258.863 446.486 228.27C442.362 224.111 438.186 220.182 433.962 216.468C433.907 209.939 433.756 186.103 434.48 170.429C435.324 152.127 413.036 117.246 413.036 117.246C413.036 117.246 426.887 153.133 424.518 172.484Z" fill="#E5674E"/>
<path d="M112.953 4.54134C112.953 4.54134 -17.8926 29.9095 -67.6797 102.269C-84.5746 126.831 -91.3835 151.332 -92.9904 172.992C-96.3552 218.167 -55.3494 265.481 -18.0293 259.516C-0.124795 256.655 19.9134 247.433 39.5748 226.052C97.4815 163.08 112.953 4.54134 112.953 4.54134Z" fill="#BAE3DD"/>
<path d="M-27.2749 186.43C-23.5557 181.741 -19.8547 177.05 -16.1355 172.361C7.26904 183.927 30.6846 195.505 54.0892 207.072C54.4828 206.474 54.8654 205.865 55.248 205.256C31.9018 193.716 8.55558 182.176 -14.7796 170.648C-11.2742 166.213 -7.75061 161.78 -4.24519 157.344C18.1975 168.028 40.4995 179.775 62.5924 192.602C62.9206 191.988 63.2487 191.374 63.5698 190.771C41.6047 178.009 19.4296 166.273 -2.87505 155.611C0.491546 151.349 3.87626 147.089 7.24285 142.827C28.3693 153.945 49.5067 165.075 70.6331 176.193C70.9282 175.545 71.2161 174.906 71.5002 174.245C50.5307 163.205 29.5612 152.164 8.5917 141.124C12.1365 136.66 15.6633 132.194 19.2081 127.729C39.2034 136.268 59.1173 145.701 78.9135 156.026C79.1613 155.363 79.4161 154.689 79.6639 154.025C60.09 143.794 40.3946 134.433 20.6248 125.956C24.2619 121.358 27.9062 116.75 31.5544 112.164C49.4939 120.099 67.3442 128.885 85.0579 138.507C85.2765 137.83 85.5022 137.143 85.7208 136.466C68.2515 126.962 50.6417 118.272 32.9568 110.411C35.9251 106.67 38.8823 102.918 41.8505 99.1766C58.1202 105.618 74.3147 112.888 90.4192 120.955C90.6158 120.255 90.8122 119.554 91.0198 118.866C75.196 110.919 59.2601 103.746 43.2814 97.3832C46.8972 92.816 50.5131 88.2487 54.1289 83.6815C68.0996 87.7074 82.0619 93.4375 95.819 100.769C95.9973 100.067 96.1647 99.3528 96.343 98.6508C82.9069 91.4656 69.2939 85.8403 55.6379 81.775C56.8692 80.2149 58.0934 78.6651 59.3358 77.1168C59.6717 77.0467 59.947 76.787 59.9763 76.3008C60.866 75.1795 61.7629 74.048 62.6527 72.9267C74.8169 75.5446 87.039 80.6864 98.834 88.1385C99.0013 87.4247 99.1505 86.7095 99.3179 85.9958C87.8706 78.7895 76.0404 73.6908 64.2508 70.919C66.9627 67.4936 69.6674 64.0785 72.3793 60.653C82.3796 63.7119 92.3521 67.6155 102.253 72.3167C102.398 71.5795 102.547 70.8642 102.703 70.1387C93.1419 65.5848 83.5298 61.7977 73.8741 58.7671C76.3975 55.5868 78.9208 52.4065 81.426 49.2246C88.0409 52.4396 94.6738 55.656 101.289 58.871C102.383 59.3953 103.481 59.9416 104.576 60.4659C104.714 59.7389 104.852 59.0119 104.983 58.2952C103.36 57.5102 101.739 56.6929 100.134 55.9094C94.351 53.0995 88.5791 50.3013 82.7962 47.4914C84.9244 44.7997 87.0525 42.1081 89.1807 39.4165C95.2091 41.1499 101.231 43.1978 107.239 45.5158C107.373 44.7668 107.489 44.0163 107.609 43.2878C101.973 41.0979 96.3475 39.1696 90.6968 37.4998C93.1917 34.3605 95.6686 31.2198 98.1635 28.0806C101.902 29.3 105.633 30.7251 109.351 32.3338C109.467 31.5833 109.583 30.8327 109.685 30.1028C106.342 28.6443 102.994 27.3593 99.6441 26.2152C101.146 24.3191 102.648 22.4229 104.15 20.5267C106.348 21.2287 108.558 21.9424 110.763 22.634C110.875 21.8614 110.973 21.1094 111.075 20.3794C109.266 19.8073 107.453 19.213 105.644 18.6408C107.89 15.8069 110.129 12.9832 112.374 10.1492C112.772 6.52262 112.954 4.53964 112.954 4.53964C112.954 4.53964 111.364 4.84327 108.478 5.49642C105.976 8.64593 103.485 11.8072 100.976 14.967C100.915 12.4754 100.68 9.95868 100.318 7.43151C99.6929 7.58646 99.0502 7.73993 98.3861 7.92423C98.8168 11.1845 98.9936 14.424 98.9015 17.6087C97.1503 19.8102 95.4173 22.0131 93.6662 24.2145C93.5426 19.3724 93.0484 14.4564 92.1954 9.53264C91.5747 9.70964 90.943 9.87487 90.2932 10.0386C91.1611 15.2459 91.6159 20.441 91.6235 25.5341C91.6211 25.8706 91.7306 26.1836 91.8827 26.435C88.6763 30.493 85.4588 34.5392 82.2523 38.5972C81.523 30.1655 80.5359 21.6909 79.298 13.1631C78.6703 13.3504 78.0244 13.5362 77.3824 13.744C78.6864 22.8418 79.7034 31.8835 80.4302 40.9013C77.544 44.5513 74.6578 48.2013 71.7676 51.8292C70.6014 40.2019 69.1953 28.5331 67.5607 16.8347C66.9187 17.0425 66.2949 17.2518 65.6458 17.4699C67.3608 29.7179 68.8109 41.9332 69.9849 54.1041C66.4401 58.5686 62.9063 63.0449 59.3685 67.4991C58.2692 52.1963 56.6574 36.7753 54.5661 21.2715C53.9281 21.5014 53.2901 21.7312 52.6521 21.9611C54.7984 38.0232 56.4181 53.9877 57.4928 69.8531C55.1508 72.7986 52.827 75.7456 50.4922 78.6809C46.8974 61.4139 43.2956 44.1571 39.7008 26.8901C39.092 27.1333 38.4831 27.3764 37.8672 27.6298C41.5549 45.317 45.2316 62.9925 48.9264 80.6695C44.4066 86.3786 39.8797 92.0979 35.3599 97.8069C33.7376 76.0765 31.083 54.12 27.4411 32.0389C26.8181 32.3026 26.199 32.5883 25.5688 32.8622C29.2579 55.4575 31.9124 77.9135 33.5023 100.162C29.3524 105.392 25.2136 110.633 21.0709 115.851C16.316 91.1923 11.5612 66.5331 6.79536 41.8622C6.19123 42.1817 5.5942 42.491 4.99008 42.8105C9.81895 67.834 14.6589 92.8693 19.4877 117.893C17.9038 119.88 16.331 121.879 14.7471 123.866C12.8216 126.292 10.8962 128.718 8.98884 131.146C3.31581 104.098 -2.35328 77.0727 -8.02631 50.0253C-8.61546 50.3786 -9.19752 50.7216 -9.78667 51.075C-4.0514 78.4207 1.68388 105.766 7.42308 133.134C4.45485 136.875 1.49764 140.628 -1.4706 144.369C-9.43592 116.644 -17.4052 88.8978 -25.3705 61.1733C-25.9266 61.5619 -26.4826 61.9505 -27.0276 62.3509C-19.0394 90.1533 -11.0512 117.956 -3.06306 145.758C-3.01736 145.914 -2.95744 146.049 -2.88334 146.164C-7.1184 151.516 -11.3534 156.869 -15.5995 162.209C-23.5659 132.128 -31.5395 102.058 -39.5059 71.977C-40.0501 72.4318 -40.5943 72.8865 -41.1275 73.353C-33.1154 103.59 -25.0993 133.848 -17.0872 164.085C-20.2582 168.091 -23.4291 172.098 -26.6072 176.115C-36.8765 147.148 -47.1419 118.203 -57.4113 89.2355C-57.8963 89.7711 -58.3775 90.3288 -58.8516 90.8761C-48.5673 119.877 -38.2829 148.878 -28.0097 177.867C-31.3834 182.14 -34.7681 186.4 -38.1418 190.672C-50.3332 163.35 -61.3709 135.633 -71.2201 107.667C-71.6595 108.358 -72.0879 109.061 -72.5091 109.754C-62.6583 137.579 -51.623 165.133 -39.4551 192.323C-44.9357 199.256 -50.4202 206.167 -55.9008 213.101C-66.8555 188.648 -76.9412 163.909 -86.142 138.972C-86.4758 139.954 -86.7843 140.927 -87.0929 141.901C-78.0489 166.261 -68.1452 190.432 -57.4159 214.322C-57.345 214.469 -57.2708 214.584 -57.1857 214.71C-59.4882 217.627 -61.8017 220.531 -64.1042 223.447C-73.4924 204.162 -82.8623 184.878 -92.2504 165.593C-92.4005 166.754 -92.5364 167.893 -92.6502 169.057C-83.5679 187.73 -74.4856 206.404 -65.3924 225.09C-67.6736 227.975 -69.9548 230.86 -72.247 233.734C-70.9674 235.294 -69.6453 236.793 -68.2805 238.229C-67.6471 237.424 -67.0208 236.628 -66.3764 235.834C-51.7647 243.898 -37.164 251.95 -22.5523 260.014C-21.3032 259.953 -20.0548 259.839 -18.8253 259.668C-34.2295 251.17 -49.6447 242.661 -65.0488 234.163C-63.0058 231.594 -60.9668 229.004 -58.9238 226.436C-40.6629 236.32 -22.402 246.203 -4.13711 256.109C-3.25383 255.802 -2.36346 255.484 -1.47702 255.144C-20.1834 245.018 -38.8898 234.891 -57.5892 224.754C-54.4253 220.757 -51.2614 216.761 -48.0976 212.765C-27.4531 224.386 -6.80154 235.998 13.8429 247.619C14.511 247.207 15.1861 246.785 15.8683 246.353C-5.01352 234.603 -25.8953 222.853 -46.7771 211.103C-44.0227 207.616 -41.25 204.131 -38.4956 200.644C-38.4246 200.541 -38.3425 200.45 -38.2605 200.359C-16.0679 211.543 5.9359 223.972 27.6635 237.604C28.2148 237.139 28.7551 236.662 29.3064 236.197C7.49052 222.471 -14.6127 209.936 -36.9006 198.668C-36.552 198.219 -36.1852 197.772 -35.8365 197.323C-35.7324 197.255 -35.6614 197.152 -35.6196 197.036C-33.31 194.11 -30.9894 191.195 -28.6798 188.269C-4.65902 198.333 19.2495 209.669 42.9803 222.261C43.4433 221.702 43.9063 221.143 44.3693 220.584C20.6409 207.905 -3.26443 196.536 -27.2749 186.43Z" fill="#97C9CE"/>
<path d="M41.071 210.72C46.2157 225.867 42.8727 248.403 41.4111 256.473C47.1087 248.462 53.051 241.012 59.2082 234.137C50.427 180.936 62.5429 126.064 62.5429 126.064C62.5429 126.064 61.6711 138.711 65.128 172.643C68.1803 202.588 62.7919 224.89 60.4602 232.718C66.281 226.319 72.2924 220.439 78.4801 215.076C80.7168 213.131 82.9895 211.279 85.2725 209.481C88.8359 193.592 79.4637 170.397 78.3722 146.43C77.5563 128.37 95.1359 106.452 95.1359 106.452C95.1359 106.452 81.0489 128.024 88.6609 154.266C94.7477 175.22 88.2738 200.167 85.4237 209.374C92.6967 203.674 100.203 198.693 107.913 194.428C107.628 189.407 106.789 172.623 107.33 155.766C107.965 135.919 115.93 91.7561 115.93 91.7561C115.93 91.7561 119.014 109.188 119.218 134.297C119.395 154.574 110.793 186.165 108.54 194.092C114.946 190.6 121.487 187.604 128.162 185.12C128.326 180.043 128.947 162.876 130.322 145.032C131.98 123.758 148.221 71.9679 148.221 71.9679C148.221 71.9679 147.03 87.7385 144.755 121.511C142.804 150.545 131.949 177.76 128.928 184.835C134.952 182.631 141.073 180.847 147.293 179.464C151.121 175.394 163.105 165.689 191.443 163.946C224.761 161.887 235.602 164.425 235.602 164.425C235.602 164.425 179.746 193.426 148.179 182.193C142.544 183.412 137.084 184.97 131.817 186.817C138.02 190.279 160.152 203.36 179.796 223.861C202.91 247.973 209.1 256.209 209.1 256.209C209.1 256.209 164.52 227.384 150.32 211.288C139.133 198.591 133.017 190.132 130.936 187.106C123.739 189.673 116.889 192.776 110.366 196.307C116.38 199.801 139.076 213.959 149.995 235.04C162.655 259.481 180.362 268.504 180.362 268.504C180.362 268.504 161.862 265.124 141.172 236.55C124.001 212.853 113.097 200.206 109.873 196.57C101.331 201.237 93.3659 206.609 85.9649 212.49C91.4146 214.907 108.004 223.359 120.622 241.635C135.93 263.805 159.757 282.974 159.757 282.974C159.757 282.974 125.572 268.033 104.774 243.423C89.7663 225.672 85.6816 217.055 84.5622 213.625C76.1773 220.405 68.5342 227.802 61.6036 235.441C66.4787 236.727 82.3989 242.049 100.157 259.99C121.512 281.557 137.999 298.288 137.999 298.288C137.999 298.288 76.2908 264.588 60.7604 236.374C53.9023 244.004 47.7567 251.874 42.2945 259.61C46.6242 260.142 59.8108 262.931 72.4929 277.859C87.9542 296.052 96.7145 300.18 108.877 303.828C108.877 303.828 82.8874 301.561 70.9844 289.438C57.0576 275.256 49.9541 262.938 42.1004 259.908C38.4637 265.066 35.1318 270.17 32.0984 275.113C7.75803 314.683 -2.99708 352.082 -3.10988 352.442C-3.32391 353.199 -3.98304 353.585 -4.59359 353.32C-4.67751 353.292 -4.74459 353.231 -4.81298 353.188C-5.25941 352.835 -5.47939 352.135 -5.30165 351.481C-5.20174 351.102 5.66618 313.343 30.1904 273.42C33.5175 267.996 36.958 262.78 40.4835 257.77C39.2117 251.197 34.4847 227.186 30.5442 211.644C25.952 193.506 41.42 151.694 41.42 151.694C41.42 151.694 34.7192 191.972 41.071 210.72Z" fill="#FCF4DF"/>
<path d="M431.068 100.008C431.068 100.008 471.85 229.331 533.229 278.663C554.054 295.404 573.128 302.184 589.246 303.817C622.849 307.236 650.483 266.82 639.778 229.93C634.644 212.238 624.49 192.424 605.52 172.962C549.616 115.619 431.068 100.008 431.068 100.008Z" fill="#1A4143"/>
<path d="M587.802 238.812C583.741 235.138 579.691 231.46 575.63 227.786C580.107 204.698 584.593 181.606 589.067 158.507C588.561 158.119 588.055 157.73 587.54 157.357C583.074 180.382 578.608 203.407 574.142 226.433C570.311 222.96 566.467 219.479 562.635 216.007C566.625 193.871 571.431 171.87 577.046 150.078C576.54 149.761 576.043 149.43 575.538 149.113C569.935 170.782 565.136 192.637 561.136 214.645C557.449 211.306 553.762 207.966 550.076 204.626C554.614 183.783 559.155 162.95 563.694 142.106C563.172 141.818 562.651 141.53 562.12 141.245C557.616 161.923 553.105 182.615 548.601 203.293C544.735 199.796 540.876 196.284 537.009 192.787C539.849 173.063 543.362 153.413 547.557 133.893C547.021 133.645 546.496 133.394 545.962 133.157C541.805 152.463 538.308 171.893 535.474 191.401C531.497 187.795 527.52 184.19 523.533 180.588C526.287 162.893 529.675 145.284 533.695 127.821C533.163 127.596 532.624 127.385 532.092 127.16C528.117 144.394 524.752 161.757 522.01 179.21C518.771 176.277 515.53 173.333 512.291 170.4C514.238 154.354 516.792 138.367 519.952 122.486C519.405 122.29 518.867 122.09 518.319 121.894C515.199 137.512 512.671 153.217 510.732 168.986C506.78 165.408 502.828 161.831 498.875 158.253C499.441 144.467 501.258 130.691 504.286 117.128C503.742 116.954 503.198 116.78 502.644 116.61C499.678 129.855 497.869 143.295 497.221 156.762C495.878 155.542 494.526 154.324 493.184 153.104C493.078 152.768 492.84 152.509 492.482 152.468C491.504 151.585 490.535 150.699 489.557 149.817C489.4 137.82 491.079 125.755 494.521 114.123C493.969 113.964 493.427 113.801 492.875 113.642C489.552 124.927 487.84 136.597 487.816 148.234C484.854 145.547 481.893 142.872 478.931 140.185C479.468 130.316 480.618 120.48 482.379 110.713C481.819 110.568 481.269 110.42 480.709 110.276C479.007 119.702 477.873 129.199 477.3 138.71C474.545 136.22 471.798 133.716 469.043 131.226C470.272 124.689 471.492 118.167 472.72 111.631C472.918 110.556 473.135 109.463 473.333 108.387C472.775 108.254 472.226 108.117 471.678 107.98C471.379 109.588 471.058 111.179 470.755 112.764C469.682 118.465 468.618 124.163 467.544 129.864C465.212 127.753 462.891 125.65 460.558 123.539C460.809 117.598 461.265 111.651 461.95 105.715C461.382 105.584 460.815 105.465 460.259 105.343C459.615 110.897 459.16 116.462 458.9 122.025C456.18 119.56 453.462 117.106 450.752 114.637C451.014 110.944 451.412 107.268 451.967 103.601C451.391 103.485 450.827 103.377 450.272 103.267C449.78 106.556 449.395 109.871 449.134 113.182C447.491 111.699 445.858 110.213 444.215 108.73C444.36 106.552 444.495 104.376 444.641 102.209C444.055 102.096 443.492 102 442.939 101.901C442.825 103.688 442.71 105.476 442.594 107.253C440.141 105.036 437.699 102.817 435.244 100.59C432.544 100.168 431.068 99.9784 431.068 99.9784C431.068 99.9784 431.559 101.551 432.524 104.404C435.256 106.877 437.987 109.351 440.719 111.825C438.912 111.883 437.11 112.107 435.319 112.458C435.543 113.078 435.768 113.71 435.998 114.364C438.306 113.957 440.642 113.779 442.99 113.872C444.898 115.593 446.798 117.328 448.706 119.049C445.184 119.161 441.688 119.633 438.22 120.466C438.443 121.087 438.677 121.704 438.914 122.344C442.577 121.497 446.295 121.062 450.011 121.056C450.259 121.061 450.458 120.95 450.618 120.792C454.125 123.974 457.629 127.145 461.136 130.327C455.097 131.031 449.068 131.994 443.057 133.19C443.302 133.815 443.549 134.452 443.806 135.086C450.23 133.82 456.677 132.832 463.129 132.128C466.283 134.981 469.439 137.845 472.593 140.697C464.298 141.816 456.002 143.185 447.733 144.784C447.99 145.418 448.255 146.037 448.523 146.679C457.185 145.016 465.867 143.608 474.561 142.471C478.428 145.968 482.297 149.477 486.164 152.974C475.164 154.029 464.173 155.582 453.207 157.616C453.484 158.243 453.76 158.871 454.039 159.51C465.408 157.42 476.811 155.856 488.215 154.816C490.765 157.121 493.316 159.437 495.866 161.742C483.859 165.26 471.853 168.778 459.846 172.296C460.129 172.898 460.412 173.5 460.696 174.113C472.989 170.516 485.281 166.908 497.584 163.308C502.528 167.788 507.472 172.267 512.416 176.747C496.802 178.318 481.205 180.885 465.694 184.438C466 185.056 466.304 185.663 466.611 186.281C482.496 182.682 498.463 180.105 514.446 178.584C518.977 182.682 523.499 186.783 528.032 190.891C510.819 195.542 493.597 200.195 476.384 204.845C476.718 205.443 477.041 206.043 477.373 206.63C494.843 201.91 512.313 197.191 529.782 192.46C531.51 194.023 533.238 195.586 534.956 197.153C537.058 199.051 539.152 200.963 541.254 202.861C522.461 208.403 503.658 213.949 484.865 219.491C485.217 220.072 485.57 220.663 485.932 221.24C504.941 215.629 523.961 210.027 542.971 204.416C546.21 207.349 549.449 210.282 552.688 213.215C533.775 221.023 514.862 228.832 495.951 236.652C496.328 237.2 496.705 237.748 497.092 238.293C516.053 230.457 535.015 222.633 553.975 214.798C554.082 214.752 554.165 214.691 554.247 214.629C558.877 218.826 563.506 223.012 568.136 227.21C547.51 235.023 526.882 242.825 506.256 250.639C506.683 251.171 507.111 251.715 507.537 252.248C528.281 244.397 549.025 236.546 569.767 228.685C573.237 231.831 576.704 234.965 580.174 238.111C560.759 248.188 541.336 258.278 521.921 268.354C522.401 268.834 522.879 269.303 523.367 269.768C542.81 259.671 562.264 249.583 581.707 239.486C585.395 242.837 589.091 246.174 592.78 249.525C574.88 261.506 556.507 272.349 537.749 282.015C538.335 282.449 538.91 282.876 539.492 283.287C558.147 273.618 576.417 262.783 594.216 250.811C600.21 256.234 606.196 261.671 612.19 267.094C596.181 277.87 579.814 287.77 563.151 296.798C563.927 297.125 564.688 297.433 565.46 297.737C581.733 288.856 597.714 279.125 613.347 268.576C613.44 268.511 613.521 268.437 613.588 268.345C616.113 270.621 618.629 272.913 621.154 275.19C608.653 284.417 596.15 293.632 583.659 302.856C584.53 303.01 585.397 303.141 586.253 303.264C598.358 294.329 610.462 285.394 622.568 276.471C625.059 278.734 627.56 280.995 630.05 283.247C630.963 281.993 631.835 280.681 632.663 279.347C631.973 278.719 631.283 278.091 630.594 277.463C634.001 263.053 637.409 248.643 640.818 234.245C640.568 233.013 640.267 231.786 639.935 230.556C636.334 245.754 632.743 260.948 629.145 276.157C626.919 274.131 624.685 272.12 622.459 270.095C626.587 252.085 630.704 234.067 634.832 216.058C634.465 215.185 634.075 214.307 633.676 213.432C629.453 231.877 625.232 250.333 620.998 268.781C617.54 265.643 614.084 262.516 610.626 259.378C615.614 239.012 620.591 218.649 625.578 198.283C625.161 197.617 624.744 196.95 624.306 196.278C619.263 216.876 614.23 237.471 609.185 258.058C606.165 255.33 603.153 252.588 600.132 249.86C600.047 249.779 599.964 249.71 599.878 249.63C604.279 227.734 609.63 206.037 615.901 184.61C615.473 184.066 615.035 183.526 614.587 182.988C608.257 204.505 602.86 226.299 598.402 248.285C598.015 247.931 597.628 247.577 597.242 247.234C597.175 247.136 597.089 247.056 597 247.012C594.474 244.724 591.947 242.436 589.419 240.136C592.693 216.439 596.925 192.856 602.082 169.445C601.596 168.991 601.118 168.523 600.622 168.072C595.362 191.55 591.119 215.125 587.802 238.812Z" fill="#2F8C91"/>
</g>
<defs>
<clipPath id="clip0_1774_42">
<rect width="610" height="169" fill="white" transform="translate(610 169) rotate(-180)"/>
</clipPath>
</defs>
</svg>
