<svg width="610" height="169" viewBox="0 0 610 169" fill="none" xmlns="http://www.w3.org/2000/svg">
<g clip-path="url(#clip0_1774_23)">
<path d="M353.718 37.6574C353.718 37.6574 529.548 64.3679 626.889 7.81968C659.921 -11.3625 680.326 -34.6295 692.854 -57.0165C718.988 -103.68 690.711 -170.839 641.167 -179.81C617.407 -184.113 587.888 -182.517 552.95 -167.847C450.001 -124.606 353.718 37.6574 353.718 37.6574Z" fill="#2F8C91"/>
<path d="M617.357 -98.1469C610.437 -94.6752 603.521 -91.2199 596.601 -87.7483C572.953 -109.667 549.308 -131.602 525.646 -153.525C524.864 -153.045 524.082 -152.565 523.311 -152.064C546.893 -130.203 570.475 -108.342 594.058 -86.4809C587.522 -83.2081 580.969 -79.9238 574.433 -76.651C551.561 -97.2252 529.384 -118.9 507.984 -141.613C507.284 -141.088 506.573 -140.584 505.874 -140.058C527.141 -117.443 549.155 -95.8761 571.873 -75.3722C565.586 -72.2227 559.3 -69.0732 553.013 -65.9237C531.993 -86.4368 510.987 -106.945 489.967 -127.458C489.29 -126.89 488.613 -126.322 487.933 -125.738C508.786 -105.386 529.649 -85.014 550.501 -64.6629C543.914 -61.3556 537.315 -58.0696 530.728 -54.7624C509.876 -72.0522 489.553 -90.2738 469.831 -109.402C469.191 -108.787 468.555 -108.188 467.929 -107.567C487.429 -88.6367 507.509 -70.5852 528.116 -53.449C521.331 -50.0529 514.546 -46.6568 507.758 -43.2444C489.187 -59.0563 471.134 -75.7343 453.668 -93.2375C453.057 -92.6122 452.457 -91.9656 451.845 -91.3403C469.079 -74.0564 486.864 -57.5746 505.163 -41.9425C499.642 -39.1744 494.105 -36.4111 488.583 -33.643C471.379 -47.1775 454.644 -61.56 438.432 -76.7544C437.844 -76.0865 437.258 -75.4351 436.67 -74.7672C452.605 -59.8066 469.032 -45.6515 485.923 -32.3115C479.187 -28.9336 472.45 -25.5556 465.714 -22.1776C450.2 -32.193 435.525 -44.0254 421.897 -57.4818C421.337 -56.8041 420.777 -56.1264 420.214 -55.4324C433.518 -42.2787 447.811 -30.6817 462.901 -20.759C460.607 -19.615 458.31 -18.4545 456.016 -17.3104C455.559 -17.3801 455.104 -17.2057 454.819 -16.712C453.155 -15.8737 451.494 -15.0518 449.83 -14.2135C435.9 -21.9812 423.107 -32.4727 411.977 -45.2463C411.429 -44.5474 410.883 -43.8648 410.334 -43.1658C421.142 -30.7982 433.459 -20.5223 446.854 -12.7291C441.799 -10.201 436.758 -7.6679 431.703 -5.13974C420.685 -12.5006 410.11 -20.7357 400.019 -29.8138C399.482 -29.0935 398.947 -28.3897 398.41 -27.6694C408.148 -18.9038 418.344 -10.9206 428.925 -3.74418C424.234 -1.38701 419.531 0.948876 414.84 3.30605C408.119 -2.84217 401.41 -8.96909 394.69 -15.1173C393.581 -16.1235 392.465 -17.1673 391.356 -18.1734C390.833 -17.4483 390.313 -16.7396 389.793 -16.0308C391.448 -14.524 393.069 -12.9943 394.696 -11.4973C400.556 -6.1311 406.419 -0.781278 412.28 4.58492C408.304 6.57883 404.346 8.56123 400.371 10.5551C393.689 6.22918 387.137 1.59984 380.749 -3.35586C380.224 -2.61433 379.712 -1.8679 379.203 -1.13788C385.178 3.50218 391.29 7.87654 397.53 11.9639C392.89 14.2866 388.264 16.6142 383.628 18.9204C379.545 16.0769 375.571 13.0447 371.713 9.79105C371.198 10.5539 370.701 11.3052 370.206 12.0401C373.671 14.9502 377.237 17.7208 380.881 20.3094C378.086 21.7165 375.293 23.1071 372.498 24.5142C370.083 22.8513 367.665 21.2047 365.264 19.5467C364.747 20.3259 364.263 21.0821 363.783 21.8219C365.768 23.1807 367.752 24.5395 369.723 25.8934C365.547 27.9925 361.374 30.0752 357.184 32.1694C354.912 35.8257 353.718 37.8514 353.718 37.8514C353.718 37.8514 355.855 38.184 359.781 38.6779C364.438 36.3437 369.095 34.0095 373.752 31.6753C372.624 34.3499 371.69 37.1258 370.911 39.9719C371.774 40.059 372.651 40.1511 373.557 40.253C374.614 36.6149 375.953 33.0912 377.613 29.7291C380.858 28.0936 384.114 26.4794 387.359 24.8438C385.158 30.0552 383.391 35.4675 382.058 41.0806C382.921 41.1678 383.787 41.2386 384.682 41.3192C386.127 35.4141 388.084 29.7017 390.534 24.2801C390.704 23.921 390.708 23.5572 390.632 23.2181C396.618 20.2264 402.59 17.2297 408.576 14.238C405.394 23.5134 402.517 32.9456 399.92 42.5086C400.803 42.5678 401.7 42.632 402.6 42.6798C405.389 32.4693 408.514 22.409 411.97 12.5318C417.343 9.83435 422.73 7.14181 428.103 4.44437C423.907 17.2856 419.999 30.2952 416.374 43.4191C417.274 43.4669 418.163 43.4934 419.08 43.5297C422.891 29.791 427.01 16.1927 431.448 2.75624C438.035 -0.551044 444.637 -3.85343 451.224 -7.1607C445.167 9.58204 439.689 26.6451 434.781 43.9908C435.687 44.0058 436.594 44.0208 437.514 44.0407C442.624 26.0687 448.362 8.39887 454.704 -8.92442C459.046 -11.1057 463.402 -13.2821 467.744 -15.4634C463.859 4.38969 459.974 24.2428 456.089 44.0958C456.97 44.0847 457.85 44.0735 458.745 44.0672C462.729 23.7436 466.699 3.41519 470.686 -16.9248C479.117 -21.1476 487.549 -25.3705 495.981 -29.5934C487.467 -5.77893 480.112 18.6762 473.949 43.6621C474.864 43.6279 475.765 43.5889 476.68 43.5547C483.036 17.9916 490.625 -7.00956 499.441 -31.3293C507.159 -35.2053 514.875 -39.0649 522.608 -42.936C516.585 -14.7367 510.559 13.479 504.536 41.6783C505.445 41.5901 506.352 41.5182 507.247 41.4251C513.36 12.8044 519.473 -15.8162 525.572 -44.4417C528.517 -45.9194 531.461 -47.3972 534.402 -48.8586C537.979 -50.6585 541.568 -52.4371 545.145 -54.2371C539.106 -23.1387 533.063 7.976 527.023 39.0743C527.924 38.9484 528.84 38.8274 529.743 38.6851C535.847 7.2261 541.968 -24.2443 548.072 -55.7033C553.594 -58.4714 559.116 -61.2396 564.638 -64.0077C561.13 -31.2237 557.623 1.56034 554.13 34.3493C555.011 34.1644 555.892 33.9795 556.776 33.7782C560.284 0.907328 563.806 -31.9587 567.314 -64.8296C567.332 -65.0147 567.315 -65.177 567.299 -65.3392C575.198 -69.2925 583.082 -73.2507 590.981 -77.204C586.347 -41.9192 581.698 -6.63918 577.064 28.6457C577.959 28.3788 578.869 28.1169 579.765 27.85C584.435 -7.63154 589.104 -43.1131 593.76 -78.5996C599.679 -81.5617 605.585 -84.5287 611.505 -87.4908C610.279 -52.4635 609.064 -17.415 607.838 17.6123C608.709 17.2324 609.565 16.8477 610.424 16.4465C611.645 -18.6349 612.882 -53.7277 614.103 -88.8091C620.404 -91.9537 626.693 -95.1196 632.994 -98.2642C634.965 -64.1759 635.312 -30.1572 634.048 3.63942C634.936 3.07432 635.807 2.52073 636.667 1.94585C637.859 -31.7016 637.454 -65.5661 635.426 -99.5003C645.639 -104.626 655.864 -109.73 666.077 -114.855C667.909 -84.3274 668.496 -53.862 667.882 -23.5471C668.771 -24.4596 669.63 -25.3655 670.491 -26.2878C671.016 -55.9372 670.37 -85.7274 668.549 -115.555C668.536 -115.734 668.505 -115.901 668.443 -116.061C672.736 -118.225 677.04 -120.366 681.334 -122.53C683.701 -98.15 686.054 -73.7753 688.424 -49.412C689.177 -50.58 689.902 -51.7577 690.61 -52.924C688.317 -76.5302 686.024 -100.136 683.745 -123.738C688.001 -125.862 692.26 -128.002 696.502 -130.13C695.661 -132.297 694.725 -134.444 693.736 -136.54C692.556 -135.954 691.376 -135.367 690.196 -134.78C675.843 -149.354 661.489 -163.929 647.151 -178.499C645.566 -178.955 643.952 -179.334 642.315 -179.67C657.449 -164.288 672.585 -148.923 687.733 -133.537C683.926 -131.642 680.131 -129.725 676.325 -127.83C658.3 -145.855 640.258 -163.869 622.233 -181.894C620.984 -181.939 619.715 -181.957 618.442 -181.958C636.906 -163.505 655.384 -145.046 673.845 -126.576C667.942 -123.625 662.054 -120.67 656.151 -117.719C635.978 -138.568 615.802 -159.4 595.629 -180.249C594.585 -180.085 593.541 -179.921 592.477 -179.729C612.881 -158.645 633.287 -137.577 653.676 -116.498C648.535 -113.912 643.383 -111.348 638.242 -108.762C638.093 -108.691 637.958 -108.616 637.809 -108.545C615.485 -129.558 594.019 -151.823 573.473 -175.253C572.563 -174.991 571.65 -174.712 570.734 -174.418C591.346 -150.844 612.893 -128.446 635.283 -107.289C634.619 -106.96 633.955 -106.632 633.304 -106.298C633.147 -106.265 632.998 -106.194 632.889 -106.092C628.582 -103.934 624.274 -101.776 619.952 -99.6225C594.807 -120.193 570.427 -142.084 546.858 -165.211C546.014 -164.805 545.157 -164.42 544.31 -163.997C567.889 -140.676 592.252 -118.773 617.357 -98.1469Z" fill="#286F7F"/>
<path d="M377.778 -2.41008C377.778 -2.41008 283.308 -102.822 201.623 -134.894C173.899 -145.776 152.074 -148.733 135.342 -147.877C100.437 -146.103 89.732 -109.228 115.751 -80.464C128.232 -66.6642 146.592 -51.8089 173.603 -38.4397C253.155 0.935333 377.778 -2.41008 377.778 -2.41008Z" fill="#BAE3DD"/>
<path d="M163.694 -94.8781C169.274 -92.4124 174.844 -89.9611 180.423 -87.4955C185.574 -67.9607 190.723 -48.416 195.875 -28.8812C196.539 -28.6301 197.205 -28.3889 197.872 -28.1476C192.735 -47.634 187.598 -67.1203 182.459 -86.5969C187.729 -84.2744 193.009 -81.9376 198.279 -79.6152C203.516 -60.923 207.895 -42.2374 211.365 -23.6107C212.004 -23.4127 212.642 -23.2147 213.268 -23.0212C209.825 -41.5412 205.511 -60.1259 200.339 -78.7074C205.402 -76.4772 210.474 -74.2326 215.538 -72.0024C219.693 -54.3027 223.846 -36.5932 228.002 -18.8935C228.646 -18.725 229.279 -18.561 229.926 -18.4023C225.805 -35.971 221.684 -53.5397 217.562 -71.1083C222.877 -68.7578 228.182 -66.4216 233.496 -64.071C238.876 -47.5131 243.557 -30.9317 247.519 -14.3556C248.146 -14.2257 248.786 -14.0912 249.414 -13.9614C245.512 -30.3534 240.906 -46.756 235.612 -63.1305C241.077 -60.7205 246.554 -58.3058 252.017 -55.8859C256.644 -41.0035 260.599 -26.108 263.864 -11.2382C264.485 -11.1326 265.117 -11.0224 265.738 -10.9167C262.528 -25.5828 258.643 -40.2798 254.109 -54.9546C258.561 -52.9866 263.015 -51.0285 267.467 -49.0605C272.215 -35.6374 276.313 -22.1921 279.779 -8.73973C280.404 -8.65375 281.029 -8.56778 281.652 -8.47197C278.261 -21.6918 274.242 -34.9242 269.606 -48.1109C275.036 -45.7146 280.467 -43.3182 285.898 -40.9219C291.072 -29.5428 294.998 -18.0034 297.638 -6.46887C298.253 -6.3973 298.871 -6.33557 299.487 -6.264C296.927 -17.5319 293.127 -28.7863 288.164 -39.9219C290.017 -39.1063 291.858 -38.2954 293.709 -37.47C293.955 -37.2127 294.304 -37.0216 294.676 -37.0462C296.01 -36.4562 297.356 -35.8617 298.69 -35.2718C303.843 -25.4508 307.188 -15.3374 308.6 -5.3338C309.218 -5.27206 309.826 -5.22472 310.444 -5.16297C309.055 -14.8691 305.906 -24.6701 301.083 -34.2116C305.156 -32.4144 309.217 -30.6217 313.29 -28.8244C316.864 -20.6619 319.807 -12.4385 322.125 -4.19361C322.747 -4.15152 323.356 -4.10419 323.976 -4.05228C321.746 -12.0161 318.928 -19.9448 315.533 -27.8336C319.318 -26.1606 323.102 -24.4876 326.878 -22.829C328.373 -17.3132 329.878 -11.7829 331.373 -6.26711C331.626 -5.35523 331.865 -4.4381 332.118 -3.52622C332.729 -3.48872 333.339 -3.45121 333.938 -3.41829C333.568 -4.7717 333.223 -6.12578 332.863 -7.46478C331.555 -12.2869 330.245 -17.0991 328.937 -21.9212C332.136 -20.5112 335.335 -19.1011 338.534 -17.691C340.769 -12.7812 342.772 -7.8457 344.569 -2.89492C345.193 -2.86267 345.808 -2.84482 346.409 -2.82173C344.734 -7.46792 342.874 -12.0799 340.812 -16.6865C344.55 -15.0318 348.279 -13.3915 352.017 -11.7368C353.298 -8.67794 354.424 -5.60515 355.41 -2.52375C356.025 -2.5059 356.639 -2.48807 357.231 -2.47937C356.354 -5.25095 355.347 -8.0093 354.237 -10.7551C356.492 -9.75971 358.747 -8.76429 361.002 -7.76887C361.766 -5.97153 362.528 -4.16437 363.304 -2.36246C363.933 -2.34987 364.538 -2.34643 365.13 -2.33774C364.497 -3.81608 363.878 -5.29968 363.245 -6.77802C366.616 -5.28947 369.975 -3.80549 373.346 -2.31694C376.222 -2.35926 377.774 -2.41032 377.774 -2.41032C377.774 -2.41032 376.63 -3.63074 374.478 -5.8358C370.728 -7.49506 366.976 -9.1445 363.215 -10.8083C364.997 -11.1001 366.696 -11.5313 368.329 -12.0634C367.853 -12.5393 367.368 -13.0297 366.848 -13.5338C364.72 -12.8762 362.46 -12.4202 360.083 -12.1811C357.461 -13.3427 354.848 -14.4898 352.226 -15.6513C355.686 -16.2223 358.985 -17.0918 362.081 -18.2443C361.591 -18.715 361.104 -19.1956 360.607 -19.6905C357.313 -18.4986 353.788 -17.6327 350.077 -17.1285C349.831 -17.0975 349.666 -16.9807 349.571 -16.8365C344.749 -18.9607 339.93 -21.0948 335.109 -23.2191C340.836 -24.6174 346.444 -26.2227 351.945 -28.0304C351.444 -28.5057 350.934 -28.9954 350.409 -29.4799C344.531 -27.5644 338.526 -25.8801 332.37 -24.4264C328.033 -26.3387 323.695 -28.2511 319.371 -30.1687C327.174 -32.2233 334.869 -34.4705 342.453 -36.9004C341.929 -37.3849 341.414 -37.8549 340.878 -38.3439C332.94 -35.7971 324.872 -33.4618 316.676 -31.3479C311.362 -33.6984 306.045 -36.0392 300.743 -38.3852C311.266 -40.7467 321.578 -43.5228 331.673 -46.6841C331.135 -47.1632 330.597 -47.6424 330.059 -48.1216C319.589 -44.8625 308.885 -42.0271 297.937 -39.6298C294.429 -41.1831 290.93 -42.722 287.434 -44.2707C297.941 -48.7867 308.437 -53.3072 318.944 -57.8231C318.414 -58.2781 317.883 -58.733 317.34 -59.1925C306.58 -54.5624 295.823 -49.9421 285.074 -45.3073C278.286 -48.3028 271.486 -51.3028 264.698 -54.2982C279.606 -57.6999 294.08 -61.9353 308.072 -66.9593C307.517 -67.4234 306.95 -67.8823 306.384 -68.3509C292.045 -63.2396 277.207 -58.9553 261.901 -55.5284C255.678 -58.2799 249.453 -61.0215 243.241 -63.7684C258.467 -69.9197 273.693 -76.071 288.92 -82.2322C288.337 -82.676 287.764 -83.1152 287.181 -83.5589C271.732 -77.3137 256.281 -71.0587 240.833 -64.8135C238.464 -65.8645 236.093 -66.9057 233.724 -67.9568C230.836 -69.2334 227.949 -70.5101 225.071 -71.7723C241.506 -78.8793 257.927 -85.981 274.362 -93.088C273.762 -93.5167 273.174 -93.9408 272.574 -94.3695C255.958 -87.1844 239.342 -79.9993 222.712 -72.8089C218.26 -74.7769 213.806 -76.735 209.354 -78.703C224.952 -87.6786 240.563 -96.6596 256.161 -105.635C255.555 -106.034 254.949 -106.434 254.34 -106.823C238.699 -97.8217 223.057 -88.8205 207.416 -79.8192C207.329 -79.768 207.265 -79.7077 207.225 -79.6382C200.862 -82.4446 194.499 -85.251 188.139 -88.0672C205.455 -97.2743 222.759 -106.486 240.075 -115.693C239.427 -116.076 238.779 -116.46 238.129 -116.833C220.727 -107.575 203.31 -98.3118 185.907 -89.0535C181.144 -91.1549 176.38 -93.2562 171.605 -95.3622C186.772 -106.271 201.925 -117.175 217.091 -128.084C216.419 -128.413 215.733 -128.736 215.058 -129.056C199.876 -118.132 184.693 -107.208 169.513 -96.2935C164.438 -98.5283 159.366 -100.773 154.291 -103.008C167.142 -115.267 180.95 -126.658 195.631 -137.138C194.871 -137.416 194.11 -137.684 193.36 -137.948C178.783 -127.48 165.093 -116.107 152.324 -103.879C144.085 -107.51 135.861 -111.146 127.622 -114.778C139.097 -125.784 151.287 -136.134 164.134 -145.809C163.224 -145.975 162.335 -146.123 161.446 -146.27C148.928 -136.775 137.048 -126.623 125.851 -115.849C125.785 -115.779 125.744 -115.71 125.702 -115.63C122.238 -117.156 118.776 -118.691 115.312 -120.216C123.929 -129.484 132.554 -138.739 141.17 -148.008C140.237 -148.012 139.327 -148.007 138.412 -147.983C130.064 -139.015 121.717 -130.046 113.367 -121.068C109.938 -122.579 106.509 -124.091 103.082 -125.612C102.687 -124.453 102.362 -123.267 102.106 -122.053C103.061 -121.634 104.005 -121.219 104.958 -120.79C107.56 -108.512 110.163 -96.2437 112.764 -83.9655C113.534 -82.9892 114.342 -82.0188 115.18 -81.0687C112.435 -94.0126 109.693 -106.966 106.948 -119.91C110.008 -118.555 113.081 -117.205 116.14 -115.85C119.533 -100.524 122.925 -85.1984 126.303 -69.8674C127.04 -69.203 127.789 -68.5339 128.551 -67.8702C125.078 -83.57 121.604 -99.2698 118.142 -114.965C122.894 -112.868 127.645 -110.771 132.397 -108.675C135.905 -91.3047 139.426 -73.9301 142.934 -56.5601C143.622 -56.0752 144.322 -55.5856 145.034 -55.0915C141.481 -72.6606 137.928 -90.2298 134.375 -107.799C138.518 -105.974 142.67 -104.135 146.812 -102.31C146.929 -102.265 147.043 -102.209 147.157 -102.153C151.883 -83.6089 155.592 -65.0911 158.263 -46.6728C158.922 -46.2848 159.583 -45.9066 160.243 -45.5185C157.59 -64.0156 153.9 -82.6218 149.179 -101.249C149.709 -101.019 150.249 -100.775 150.779 -100.544C150.888 -100.469 151.004 -100.423 151.113 -100.402C154.589 -98.8721 158.062 -97.3326 161.537 -95.8028C168.142 -75.9304 173.754 -56.0218 178.346 -36.1301C179.023 -35.8207 179.699 -35.5114 180.376 -35.202C175.848 -55.1003 170.262 -75.0096 163.694 -94.8781Z" fill="#97C9CE"/>
<path d="M330.145 14.7703C330.172 15.0233 330.22 15.2755 330.256 15.5154C330.268 15.5531 330.258 15.5916 330.27 15.6293C330.306 15.8692 330.343 16.1091 330.39 16.3359C330.39 16.3613 330.401 16.3989 330.402 16.4243C330.449 16.6765 330.486 16.9164 330.543 17.1555C330.544 17.2063 330.566 17.2562 330.567 17.307C330.624 17.546 330.661 17.786 330.718 18.025C330.729 18.0627 330.73 18.1135 330.741 18.1511C330.798 18.3902 330.855 18.6292 330.912 18.8683L330.923 18.8806C330.979 19.1196 331.047 19.3709 331.113 19.5969C331.125 19.6345 331.136 19.6722 331.147 19.7098C331.213 19.9358 331.28 20.1617 331.347 20.3876C331.358 20.4253 331.369 20.4629 331.39 20.5128C331.457 20.7388 331.534 20.977 331.601 21.2029C331.611 21.2152 331.602 21.2283 331.612 21.2406C331.679 21.4665 331.755 21.6793 331.831 21.8921C331.842 21.9298 331.853 21.942 331.864 21.9797C331.94 22.1925 332.017 22.4053 332.104 22.6304C332.115 22.668 332.126 22.7057 332.137 22.7433C332.213 22.9561 332.3 23.1812 332.386 23.3809C332.397 23.3931 332.397 23.4185 332.418 23.4431C332.495 23.6559 332.591 23.8678 332.677 24.0675C332.688 24.0798 332.678 24.0929 332.688 24.1052C332.775 24.3048 332.871 24.5168 332.957 24.7164C332.968 24.7541 332.989 24.7786 332.99 24.804C333.076 25.0037 333.172 25.1902 333.258 25.3899C333.268 25.4022 333.28 25.4399 333.29 25.4521C333.482 25.8506 333.685 26.236 333.887 26.6213C333.897 26.6336 333.908 26.6713 333.919 26.6835C334.015 26.8701 334.12 27.0435 334.226 27.2169C334.236 27.2292 334.257 27.2537 334.258 27.2791C334.47 27.6513 334.691 27.9851 334.911 28.3188C334.922 28.331 334.922 28.331 334.932 28.3433C335.048 28.5036 335.143 28.6648 335.258 28.8251C335.269 28.8373 335.279 28.8496 335.289 28.8619C335.405 29.0222 335.51 29.1702 335.625 29.3305C335.855 29.6257 336.085 29.9209 336.314 30.1907C336.325 30.203 336.335 30.2152 336.335 30.2152C336.45 30.3501 336.574 30.4719 336.679 30.5945L336.689 30.6068C336.928 30.8635 337.156 31.0825 337.404 31.3007L337.414 31.313C337.528 31.4225 337.652 31.5189 337.765 31.603L337.776 31.6153C338.137 31.8922 338.486 32.1314 338.855 32.319L338.865 32.3313C339.223 32.5066 339.57 32.6443 339.915 32.7312L339.926 32.7434C340.038 32.7768 340.149 32.7847 340.271 32.8049C340.504 32.8331 340.716 32.8367 340.947 32.8141C341.058 32.7967 341.158 32.7924 341.268 32.7495C341.268 32.7495 341.268 32.7495 341.278 32.7364C342.722 32.395 343.922 30.8565 344.617 27.8145C347.814 13.8998 339.668 -1.11828 336.397 -6.39287C338.541 -5.4932 340.683 -4.64431 342.845 -3.82169C344.324 -3.26217 345.801 -2.72802 347.279 -2.19389L349.348 -1.45625C354.83 0.469914 360.33 2.31902 365.784 4.33535C365.736 4.42638 365.688 4.5174 365.629 4.59617C365.485 4.84386 365.35 5.07841 365.205 5.3261C365.118 5.46962 365.051 5.6123 364.964 5.75583C364.839 5.97727 364.734 6.19783 364.609 6.41927C364.532 6.57506 364.456 6.73087 364.379 6.88666C364.274 7.10723 364.159 7.31554 364.063 7.52297C363.987 7.67878 363.91 7.83458 363.844 8.00264C363.749 8.21009 363.644 8.43065 363.559 8.65036C363.482 8.80616 363.426 8.96108 363.36 9.12915C363.275 9.34885 363.179 9.55631 363.095 9.77601C363.038 9.93095 362.972 10.099 362.905 10.2417C362.82 10.4614 362.735 10.6811 362.661 10.9131C362.605 11.068 362.548 11.2229 362.502 11.3647C362.427 11.5967 362.353 11.8287 362.268 12.0738C362.222 12.2156 362.175 12.3574 362.128 12.4992C362.045 12.7697 361.971 13.0271 361.888 13.2976C361.86 13.4131 361.823 13.5164 361.785 13.6197C361.684 13.9926 361.583 14.3655 361.493 14.7507C361.494 14.7761 361.474 14.8023 361.475 14.8277C361.393 15.1744 361.312 15.5211 361.23 15.8677C361.203 15.9833 361.186 16.1111 361.159 16.2267C361.106 16.4832 361.052 16.7396 361.008 16.983C360.982 17.124 360.955 17.2649 360.929 17.4059C360.894 17.6361 360.84 17.8672 360.806 18.0975C360.78 18.2384 360.763 18.3916 360.747 18.5448C360.713 18.7751 360.689 18.9922 360.655 19.2224C360.639 19.3756 360.623 19.5289 360.596 19.6698C360.572 19.8869 360.547 20.104 360.523 20.3212C360.507 20.4744 360.491 20.6276 360.475 20.7808C360.45 20.9979 360.436 21.2273 360.422 21.4313C360.406 21.5845 360.399 21.7246 360.383 21.8778C360.369 22.1072 360.365 22.3234 360.351 22.5528C360.345 22.6929 360.338 22.833 360.332 22.973C360.318 23.2024 360.314 23.4441 360.311 23.6857C360.314 23.8127 360.307 23.9274 360.301 24.0675C360.298 24.3345 360.306 24.6138 360.303 24.8808C360.305 24.957 360.297 25.0463 360.31 25.1347C360.319 25.4902 360.329 25.8457 360.338 26.2012C360.34 26.252 360.351 26.2896 360.342 26.3281C360.35 26.6328 360.378 26.9367 360.387 27.2413C360.4 27.3552 360.413 27.469 360.406 27.5837C360.423 27.8245 360.438 28.0399 360.465 28.2675C360.479 28.4067 360.492 28.5206 360.506 28.6598C360.522 28.8752 360.547 29.0775 360.573 29.2797C360.587 29.4189 360.601 29.5582 360.624 29.6843C360.65 29.8865 360.675 30.0888 360.7 30.2657C360.714 30.4049 360.748 30.5432 360.762 30.6825C360.797 30.8716 360.813 31.0616 360.848 31.2507C360.862 31.39 360.896 31.5283 360.91 31.6675C360.945 31.8567 360.981 32.0458 361.005 32.2227C361.029 32.3488 361.053 32.5003 361.077 32.6264C361.112 32.8155 361.157 32.9915 361.193 33.1807C361.216 33.3067 361.25 33.4451 361.274 33.5712C361.309 33.7603 361.365 33.9486 361.4 34.1377C361.434 34.2507 361.457 34.3768 361.491 34.4898C361.547 34.7034 361.593 34.9048 361.649 35.1185C361.672 35.2192 361.694 35.2945 361.717 35.3952C361.795 35.6842 361.874 35.9732 361.972 36.2613C362.005 36.3489 362.028 36.4496 362.06 36.5371C362.116 36.7254 362.182 36.926 362.238 37.1142C362.281 37.2395 362.315 37.3524 362.358 37.4777C362.413 37.6406 362.458 37.7912 362.522 37.9409C362.566 38.0662 362.61 38.1914 362.654 38.3166C362.708 38.4541 362.762 38.5916 362.806 38.7422C362.85 38.8675 362.914 38.9918 362.958 39.1171C363.012 39.2546 363.056 39.3798 363.12 39.5041C363.163 39.6294 363.227 39.7537 363.271 39.879C363.324 39.9911 363.379 40.1286 363.432 40.2407C363.496 40.3651 363.54 40.4903 363.604 40.6146C363.657 40.7268 363.711 40.8388 363.775 40.9632C363.838 41.0876 363.892 41.1997 363.956 41.3241C364.009 41.4362 364.073 41.5351 364.126 41.6472C364.19 41.7716 364.243 41.8837 364.317 41.9949C364.38 42.0939 364.423 42.1938 364.476 42.2805C364.54 42.4048 364.614 42.5161 364.667 42.6282C364.72 42.7149 364.762 42.7893 364.815 42.8761C365.079 43.3096 365.353 43.73 365.636 44.112C365.688 44.1733 365.72 44.2355 365.772 44.2968C365.846 44.408 365.929 44.5061 366.012 44.6043C366.065 44.6656 366.117 44.7269 366.159 44.8013C366.242 44.8995 366.315 44.9853 366.399 45.0834C366.451 45.1447 366.503 45.2061 366.555 45.2674C366.628 45.3532 366.712 45.4513 366.794 45.5241C366.846 45.5854 366.888 45.6345 366.95 45.6826C367.033 45.7554 367.106 45.8412 367.188 45.9139C367.23 45.963 367.292 46.0112 367.343 46.0471C367.426 46.1198 367.509 46.1926 367.591 46.2653C367.643 46.3012 367.684 46.3503 367.736 46.3862C367.819 46.4589 367.911 46.5185 367.994 46.5912C368.045 46.6272 368.086 46.6508 368.138 46.6868C368.23 46.7464 368.313 46.8191 368.405 46.8787C368.446 46.9023 368.477 46.9137 368.518 46.9374C368.61 46.997 368.703 47.0566 368.805 47.1031L368.815 47.1153C369.174 47.3161 369.531 47.4406 369.886 47.5144C369.906 47.5135 369.937 47.5249 369.967 47.5363C370.069 47.5574 370.16 47.5662 370.251 47.575C370.291 47.5733 370.322 47.5847 370.372 47.5952C370.464 47.604 370.544 47.6006 370.635 47.6094C370.676 47.6077 370.716 47.606 370.767 47.6165C370.847 47.613 370.928 47.6096 371.018 47.593C371.059 47.5913 371.109 47.5764 371.149 47.5747C371.23 47.5713 371.31 47.5424 371.4 47.5258C371.45 47.511 371.49 47.5093 371.53 47.4822C371.61 47.4533 371.69 47.4245 371.77 47.3956C371.82 47.3808 371.86 47.3537 371.89 47.3397C371.97 47.3108 372.049 47.2566 372.129 47.2277C372.168 47.2006 372.208 47.1735 372.238 47.1595C372.317 47.1053 372.407 47.0633 372.486 47.0091C372.516 46.9951 372.545 46.9557 372.575 46.9417C373.386 46.3224 374.135 45.2862 374.739 43.7351C379.738 31.1287 370.477 11.0616 367.406 4.9904C371.149 6.41903 374.874 7.95008 378.554 9.67372L378.697 9.74386C378.81 9.80259 378.912 9.84906 379.034 9.89466C379.034 9.89466 379.034 9.89466 379.045 9.90693L381.151 10.9353C385.745 13.2426 390.187 15.9123 394.478 18.9444C394.213 19.6166 393.864 20.5086 393.48 21.6054C393.433 21.7218 393.405 21.8374 393.358 21.9538C393.199 22.4309 393.011 22.9473 392.844 23.4883C392.798 23.6301 392.761 23.7588 392.714 23.9006C392.622 24.2096 392.519 24.5317 392.417 24.8539C392.342 25.0858 392.268 25.3178 392.204 25.562C392.148 25.7424 392.093 25.9227 392.038 26.1284C391.852 26.7464 391.678 27.4021 391.505 28.0832C391.413 28.4176 391.331 28.7642 391.25 29.1109C390.186 33.4398 389.325 38.5734 389.375 43.7698C389.382 44.0237 389.378 44.2653 389.385 44.5192C389.387 44.5954 389.389 44.6716 389.391 44.7477C389.406 44.9377 389.401 45.1286 389.416 45.3186C389.419 45.3948 389.42 45.4456 389.422 45.5217C389.439 45.7625 389.445 46.0164 389.462 46.2572C389.463 46.308 389.464 46.3334 389.465 46.3842C389.471 46.5873 389.497 46.7896 389.512 46.9796C389.514 47.0557 389.526 47.1188 389.528 47.195C389.543 47.385 389.558 47.575 389.583 47.7518C389.584 47.8026 389.586 47.8534 389.597 47.8911C389.623 48.1187 389.65 48.3464 389.676 48.574C389.677 48.6248 389.689 48.6879 389.7 48.7255C389.725 48.9024 389.75 49.0793 389.775 49.2561C389.787 49.3192 389.799 49.3822 389.81 49.4453C389.836 49.6476 389.862 49.8498 389.897 50.039C389.898 50.0644 389.908 50.0766 389.898 50.0897C389.935 50.3043 389.971 50.5188 390.007 50.7333C390.018 50.7964 390.03 50.834 390.031 50.8848C390.066 51.0486 390.1 51.2123 390.125 51.3638C390.126 51.4146 390.148 51.4645 390.149 51.5153C390.195 51.7167 390.24 51.9181 390.286 52.1195C390.286 52.1195 390.297 52.1318 390.287 52.1449C390.322 52.334 390.378 52.5223 390.423 52.6983C390.434 52.736 390.446 52.799 390.457 52.8367C390.501 52.9873 390.536 53.151 390.581 53.3017C390.592 53.3393 390.592 53.3647 390.603 53.4024C390.659 53.5906 390.704 53.7666 390.769 53.9418C390.77 53.9672 390.781 53.9795 390.791 53.9917C390.835 54.1423 390.89 54.3052 390.944 54.4427C390.956 54.4804 390.967 54.518 390.978 54.5557C391.033 54.7186 391.087 54.8815 391.152 55.0312L391.163 55.0435C391.217 55.2064 391.292 55.3684 391.357 55.5181C391.367 55.5304 391.368 55.5558 391.389 55.5803C391.443 55.7178 391.507 55.8422 391.561 55.9797C391.572 55.9919 391.583 56.0296 391.593 56.0419C391.732 56.3283 391.861 56.6024 392.009 56.8503C392.019 56.8625 392.029 56.8748 392.03 56.9002C392.104 57.0114 392.157 57.1235 392.231 57.2348C392.241 57.247 392.241 57.247 392.252 57.2593C392.409 57.494 392.567 57.7034 392.723 57.8873C392.733 57.8996 392.744 57.9119 392.754 57.9241C392.921 58.1204 393.077 58.2789 393.252 58.4366C393.335 58.5094 393.428 58.569 393.5 58.6294C393.51 58.6417 393.51 58.6417 393.521 58.654C393.685 58.774 393.87 58.8678 394.053 58.9362L394.064 58.9485C394.155 58.9827 394.237 59.0046 394.328 59.0388C394.328 59.0388 394.339 59.0511 394.349 59.038C394.531 59.081 394.714 59.0986 394.905 59.1031L394.926 59.1022C396.447 59.0244 398.104 57.1868 399.686 53.001C403.424 43.0414 398.251 26.3582 396.022 20.0731C399.863 22.8956 403.569 25.9781 407.123 29.3722L409.185 31.3811C409.86 32.0513 410.524 32.7347 411.188 33.418C413.837 36.1899 416.368 39.1193 418.793 42.1931C418.697 42.3752 418.601 42.5826 418.487 42.8163C418.419 42.9336 418.362 43.0631 418.305 43.1927C418.171 43.4526 418.037 43.738 417.884 44.0496C417.425 44.9844 416.89 46.1257 416.251 47.4877C416.051 47.9411 415.822 48.4085 415.603 48.9135C415.489 49.1726 415.375 49.4317 415.25 49.6785C414.069 52.2965 412.693 55.5203 411.15 59.3104C411.074 59.4916 410.998 59.6728 410.943 59.8531C410.914 59.9179 410.895 59.9695 410.867 60.0343C410.82 60.1507 410.783 60.2794 410.726 60.4089C410.697 60.4737 410.679 60.5507 410.65 60.6155C410.603 60.7319 410.576 60.8475 410.529 60.9639C410.511 61.0409 410.472 61.1188 410.454 61.1959C410.417 61.2991 410.38 61.4278 410.342 61.5311C410.324 61.6081 410.286 61.686 410.268 61.7631C410.23 61.8664 410.203 61.9819 410.166 62.1106C410.148 62.1876 410.12 62.2778 410.091 62.3426C410.064 62.4581 410.027 62.5614 409.99 62.6901C409.972 62.7671 409.954 62.8442 409.925 62.9089C409.888 63.0376 409.861 63.1532 409.834 63.2687C409.816 63.3458 409.797 63.3974 409.779 63.4745C409.743 63.6285 409.706 63.7826 409.67 63.9367C409.661 63.9752 409.652 64.0137 409.643 64.0522C409.598 64.2448 409.553 64.4374 409.507 64.63C409.488 64.6816 409.48 64.7456 409.481 64.7963C409.455 64.9373 409.429 65.0782 409.392 65.2069C409.374 65.2839 409.365 65.3479 409.347 65.4249C409.32 65.5404 409.303 65.6683 409.276 65.7838C409.258 65.8609 409.25 65.9502 409.232 66.0272C409.205 66.1427 409.198 66.2574 409.181 66.3599C409.162 66.4369 409.155 66.5262 409.147 66.6155C409.13 66.7179 409.113 66.8457 409.095 66.9482C409.088 67.0375 409.07 67.1145 409.062 67.2038C409.045 67.3062 409.038 67.4209 409.01 67.5365C409.003 67.6258 408.985 67.7028 408.977 67.7921C408.97 67.9068 408.953 68.0092 408.936 68.1371C408.928 68.2264 408.92 68.2903 408.912 68.3796C408.895 68.5074 408.888 68.6221 408.872 68.7499C408.863 68.8138 408.865 68.89 408.857 68.9539C408.842 69.1325 408.827 69.3365 408.811 69.5151C408.803 69.579 408.804 69.6298 408.796 69.6937C408.779 69.8215 408.783 69.9485 408.766 70.0763C408.758 70.1656 408.76 70.2417 408.753 70.331C408.746 70.4457 408.748 70.5473 408.731 70.6497C408.723 70.739 408.725 70.8152 408.728 70.9168C408.731 71.0183 408.723 71.1076 408.726 71.2092C408.718 71.2985 408.731 71.3869 408.723 71.4762C408.726 71.5778 408.718 71.6671 408.721 71.7687C408.713 71.858 408.726 71.9464 408.718 72.0357C408.721 72.1373 408.723 72.2134 408.726 72.315C408.728 72.4166 408.73 72.4927 408.733 72.5943C408.725 72.6836 408.738 72.772 408.741 72.8736C408.743 72.9752 408.745 73.0514 408.748 73.1529C408.75 73.2291 408.753 73.3306 408.755 73.4068C408.758 73.5084 408.77 73.5968 408.763 73.6861C408.765 73.7623 408.777 73.8507 408.779 73.9269C408.794 74.1169 408.8 74.32 408.825 74.5223C408.837 74.5853 408.829 74.6493 408.841 74.7123C408.843 74.8139 408.866 74.9146 408.869 75.0161C408.871 75.0923 408.883 75.1554 408.885 75.2315C408.897 75.32 408.911 75.4338 408.923 75.5222C408.935 75.5853 408.937 75.6615 408.949 75.7245C408.961 75.8129 408.974 75.9268 408.987 76.0152C408.999 76.0783 409.001 76.1544 409.013 76.2175C409.025 76.3059 409.048 76.4066 409.051 76.5082C409.062 76.5712 409.074 76.6343 409.086 76.6973C409.109 76.798 409.121 76.8865 409.144 76.9872C409.156 77.0502 409.168 77.1132 409.18 77.1763C409.203 77.277 409.215 77.3654 409.238 77.4661C409.239 77.5169 409.261 77.5668 409.262 77.6176C409.285 77.7183 409.308 77.819 409.331 77.9197C409.332 77.9451 409.343 77.9828 409.353 77.995C409.444 78.3724 409.555 78.749 409.656 79.1133C409.657 79.1387 409.667 79.1509 409.668 79.1763C409.701 79.2893 409.734 79.3769 409.777 79.4767C409.788 79.5144 409.799 79.552 409.81 79.5897C409.843 79.6773 409.886 79.7771 409.909 79.8778C409.92 79.9155 409.931 79.9531 409.952 80.003C409.985 80.0906 410.018 80.1782 410.061 80.278C410.072 80.3157 410.083 80.3533 410.114 80.3901C410.147 80.4777 410.179 80.5653 410.232 80.652C410.243 80.6896 410.264 80.7142 410.275 80.7518C410.308 80.8394 410.361 80.9261 410.393 81.0137C410.414 81.0382 410.415 81.0636 410.436 81.0881C410.479 81.188 410.532 81.2747 410.574 81.3491C410.584 81.3614 410.584 81.3614 410.595 81.3737C410.818 81.7836 411.05 82.1549 411.311 82.4869C411.322 82.4992 411.332 82.5115 411.332 82.5115C411.395 82.585 411.447 82.6464 411.509 82.7199C411.52 82.7322 411.541 82.7567 411.551 82.769C411.603 82.8303 411.666 82.9039 411.718 82.9652C411.739 82.9898 411.749 83.002 411.77 83.0266C411.822 83.0879 411.884 83.1361 411.946 83.2097C411.967 83.2342 411.978 83.2464 412.008 83.2578C412.07 83.306 412.122 83.3674 412.194 83.4278C412.205 83.4401 412.226 83.4646 412.246 83.4637C412.308 83.5119 412.38 83.5724 412.442 83.6206C412.452 83.6329 412.452 83.6329 412.463 83.6451C412.782 83.873 413.11 84.0623 413.457 84.2C413.538 84.2219 413.61 84.257 413.691 84.2789C413.711 84.2781 413.722 84.2903 413.742 84.2895C413.823 84.3114 413.894 84.3211 413.966 84.3561C413.986 84.3553 414.016 84.3667 414.036 84.3658C414.107 84.3755 414.189 84.3974 414.26 84.4071C414.28 84.4062 414.31 84.4176 414.331 84.4168C414.401 84.4265 414.493 84.4353 414.563 84.4449C414.584 84.4441 414.614 84.4555 414.634 84.4546C414.715 84.4512 414.786 84.4608 414.877 84.4697C414.897 84.4688 414.917 84.4679 414.937 84.4671C415.805 84.4554 416.756 84.1732 417.79 83.5951C427.453 78.1483 422.216 52.7359 420.104 44.0308C423.965 49.0895 427.532 54.5166 430.746 60.264C430.746 60.2894 430.746 60.2894 430.747 60.3148L431.945 62.4623C433.784 65.879 435.504 69.4024 437.095 73.0203C437.086 73.0588 437.077 73.0973 437.068 73.1358C437.004 73.4054 436.94 73.6497 436.887 73.9062C436.878 73.9447 436.878 73.9701 436.869 74.0086C436.816 74.2651 436.762 74.5216 436.719 74.7904C436.719 74.8157 436.71 74.8543 436.701 74.8674C436.657 75.1362 436.614 75.4049 436.571 75.6737C436.572 75.7245 436.554 75.7761 436.555 75.8269C436.522 76.0825 436.478 76.3513 436.455 76.6192C436.457 76.67 436.448 76.7085 436.449 76.7593C436.416 77.0403 436.393 77.3082 436.371 77.6015L436.371 77.6269C436.348 77.8948 436.336 78.175 436.323 78.4551C436.324 78.5059 436.315 78.5444 436.317 78.5952C436.304 78.8754 436.301 79.1424 436.298 79.4094C436.3 79.4602 436.301 79.511 436.293 79.5749C436.29 79.842 436.277 80.1221 436.285 80.4014C436.276 80.4399 436.287 80.4776 436.288 80.5284C436.285 80.7954 436.293 81.0747 436.31 81.3409C436.311 81.3663 436.312 81.3917 436.312 81.4171C436.32 81.6964 436.338 81.9879 436.355 82.2541C436.356 82.3049 436.358 82.3557 436.359 82.4065C436.376 82.6726 436.404 82.9511 436.421 83.2173C436.423 83.268 436.424 83.3188 436.425 83.3696C436.453 83.648 436.481 83.9265 436.509 84.2049C436.509 84.2303 436.52 84.2426 436.52 84.268C436.548 84.5464 436.585 84.8117 436.613 85.0902C436.624 85.1278 436.626 85.1786 436.626 85.204C436.664 85.4693 436.702 85.76 436.739 86.0253C436.741 86.0761 436.753 86.1391 436.764 86.1768C436.811 86.4544 436.849 86.7197 436.897 86.9973C436.908 87.0349 436.909 87.0857 436.92 87.1234C436.968 87.4009 437.026 87.6654 437.074 87.943C437.084 87.9552 437.074 87.9684 437.085 87.9806C437.143 88.2705 437.201 88.5349 437.259 88.8247C437.27 88.8624 437.282 88.9255 437.293 88.9631C437.351 89.2276 437.419 89.5043 437.476 89.7687C437.498 89.8186 437.499 89.8694 437.521 89.9193C437.589 90.1961 437.657 90.4728 437.734 90.7364C437.735 90.7617 437.756 90.7863 437.757 90.8117C437.834 91.0753 437.892 91.3397 437.97 91.6033C437.981 91.6409 437.992 91.6786 437.993 91.704C438.07 91.9676 438.148 92.2312 438.226 92.4948C438.247 92.5447 438.249 92.5955 438.27 92.6454C438.348 92.909 438.436 93.1594 438.513 93.423C438.525 93.4607 438.546 93.5106 438.557 93.5482C438.645 93.8241 438.733 94.0745 438.821 94.3504C438.919 94.6131 439.007 94.889 439.105 95.1517C439.116 95.1894 439.138 95.2393 439.149 95.2769C439.236 95.5274 439.344 95.777 439.431 96.0274C439.453 96.0774 439.464 96.115 439.486 96.1649C439.593 96.4145 439.681 96.665 439.788 96.9146C439.8 96.9522 439.81 96.9645 439.821 97.0022C439.918 97.2395 440.026 97.4891 440.123 97.7264C440.134 97.7387 440.145 97.7764 440.155 97.7886C440.263 98.0382 440.36 98.2755 440.477 98.512C440.499 98.5619 440.51 98.5996 440.532 98.6495C440.639 98.8737 440.746 99.1233 440.853 99.3475C440.864 99.3852 440.896 99.422 440.907 99.4596C441.024 99.6961 441.142 99.9326 441.259 100.169L441.269 100.181C441.387 100.418 441.504 100.654 441.621 100.865C441.632 100.903 441.653 100.928 441.664 100.965C441.781 101.176 441.888 101.4 442.015 101.624C442.036 101.674 442.057 101.698 442.079 101.748C442.195 101.959 442.323 102.183 442.439 102.394C442.46 102.418 442.461 102.444 442.482 102.468C442.598 102.679 442.725 102.877 442.842 103.088C442.852 103.1 442.862 103.113 442.863 103.138C442.99 103.336 443.106 103.547 443.233 103.745C443.254 103.77 443.275 103.82 443.296 103.844C443.422 104.042 443.538 104.228 443.665 104.426C443.686 104.45 443.697 104.488 443.728 104.525C443.855 104.723 443.991 104.907 444.117 105.105L444.128 105.118C444.264 105.302 444.38 105.488 444.516 105.673C444.537 105.698 444.547 105.71 444.568 105.734C444.694 105.907 444.82 106.079 444.945 106.252C444.966 106.277 444.987 106.301 445.018 106.338C445.144 106.51 445.28 106.67 445.395 106.83C445.416 106.855 445.426 106.867 445.447 106.891C445.583 107.051 445.708 107.223 445.843 107.358L445.854 107.37C445.989 107.529 446.114 107.676 446.249 107.81C446.27 107.835 446.291 107.859 446.301 107.872C446.426 108.019 446.561 108.153 446.686 108.275C446.706 108.299 446.717 108.312 446.738 108.336C446.872 108.47 447.007 108.604 447.132 108.726C447.142 108.738 447.142 108.738 447.153 108.75C447.277 108.872 447.412 109.006 447.546 109.115C447.556 109.127 447.567 109.139 447.577 109.152C447.702 109.273 447.836 109.382 447.959 109.479C447.98 109.503 448 109.502 448.021 109.527C448.145 109.623 448.279 109.732 448.403 109.828C448.413 109.84 448.433 109.84 448.454 109.864C448.722 110.056 448.969 110.223 449.225 110.378C449.235 110.39 449.256 110.389 449.266 110.401C449.389 110.472 449.512 110.543 449.625 110.602C449.635 110.614 449.655 110.613 449.676 110.638C449.799 110.709 449.922 110.755 450.044 110.8C450.044 110.8 450.054 110.812 450.064 110.799C450.186 110.845 450.309 110.891 450.421 110.924L450.441 110.923C450.553 110.956 450.665 110.99 450.786 111.01C450.806 111.009 450.817 111.021 450.837 111.02C451.076 110.909 451.178 110.93 451.289 110.938C451.309 110.937 451.309 110.937 451.329 110.936C451.552 110.952 451.784 110.954 451.995 110.933C452.015 110.932 452.015 110.932 452.036 110.931C452.146 110.914 452.237 110.897 452.337 110.867C452.357 110.866 452.367 110.853 452.387 110.852C452.487 110.823 452.587 110.793 452.686 110.738C452.686 110.738 452.696 110.725 452.716 110.724C452.806 110.682 452.906 110.627 453.005 110.572L453.015 110.559C453.114 110.504 453.203 110.436 453.292 110.369C453.302 110.356 453.322 110.355 453.332 110.342C453.421 110.274 453.499 110.195 453.588 110.102C453.597 110.089 453.607 110.076 453.617 110.063C453.686 109.996 453.774 109.903 453.852 109.798C454.759 108.628 455.359 106.556 455.536 103.371C456.488 84.7989 443.964 75.1031 439.353 72.1864C437.729 68.4556 435.966 64.8323 434.084 61.3159L433.023 59.3785C429.724 53.4315 426.059 47.7924 422.092 42.5349C428.524 45.9965 444.842 53.42 451.483 44.0735C453.243 41.5959 453.839 39.3715 453.596 37.4627C453.585 37.4504 453.595 37.4373 453.585 37.425C453.509 36.869 453.363 36.3287 453.148 35.8295L453.138 35.8173C452.922 35.3181 452.637 34.8346 452.302 34.3914L452.291 34.3791C451.956 33.9359 451.551 33.5083 451.107 33.1333C451.097 33.1211 451.097 33.1211 451.086 33.1088C451.004 33.0361 450.911 32.9511 450.818 32.8915C450.447 32.6023 450.046 32.3272 449.625 32.0529C449.614 32.0406 449.584 32.0292 449.573 32.0169C449.481 31.9573 449.379 31.9109 449.276 31.839C449.265 31.8267 449.245 31.8276 449.235 31.8153C448.917 31.6383 448.59 31.4743 448.242 31.3113C448.232 31.299 448.212 31.2999 448.201 31.2876C448.099 31.2411 447.997 31.1947 447.895 31.1482C447.864 31.1368 447.823 31.1131 447.792 31.1017C447.69 31.0553 447.599 31.0211 447.487 30.9877C447.456 30.9763 447.425 30.9649 447.384 30.9412C447.048 30.8158 446.712 30.6904 446.376 30.5904C446.335 30.5667 446.294 30.5685 446.264 30.5571C446.172 30.5228 446.071 30.5018 445.969 30.4807C445.918 30.4702 445.857 30.4474 445.806 30.4368C445.705 30.4157 445.613 30.3815 445.512 30.3605C445.451 30.3377 445.4 30.3271 445.329 30.3174C445.227 30.2964 445.136 30.2622 445.045 30.2533C444.994 30.2428 444.943 30.2323 444.892 30.2217C444.709 30.1787 444.527 30.1357 444.345 30.1181C444.274 30.1084 444.203 30.0987 444.142 30.0759C444.05 30.0671 443.969 30.0452 443.878 30.0363C443.807 30.0267 443.726 30.0047 443.645 30.0082C443.554 29.9994 443.473 29.9774 443.382 29.9686C443.3 29.9467 443.22 29.9501 443.129 29.9413C443.038 29.9325 442.967 29.9228 442.876 29.914C442.754 29.8938 442.643 29.8858 442.511 29.8788C442.41 29.8577 442.309 29.862 442.207 29.8409C442.096 29.833 442.005 29.8242 441.894 29.8162C441.823 29.8065 441.742 29.81 441.671 29.8003C441.58 29.7915 441.48 29.7958 441.389 29.787C441.308 29.7904 441.237 29.7808 441.156 29.7842C441.056 29.7885 440.944 29.7806 440.853 29.7718C440.782 29.7621 440.722 29.7647 440.641 29.7681C440.469 29.7628 440.308 29.7697 440.136 29.7643C440.096 29.766 440.056 29.7678 440.005 29.7572C439.874 29.7501 439.743 29.7684 439.612 29.7614C439.551 29.7639 439.47 29.7674 439.41 29.77C439.309 29.7743 439.188 29.7795 439.087 29.7838C439.027 29.7864 438.946 29.7898 438.886 29.7924C438.765 29.7976 438.654 29.815 438.533 29.8202C438.473 29.8228 438.412 29.8254 438.352 29.828C438.181 29.848 438.01 29.868 437.839 29.8881C437.818 29.8889 437.789 29.9029 437.758 29.8915C437.607 29.9107 437.456 29.9298 437.305 29.949C437.245 29.9516 437.195 29.9664 437.125 29.9822C437.014 29.9996 436.883 30.0179 436.773 30.0354C436.712 30.0379 436.642 30.0537 436.592 30.0685C436.472 30.0991 436.351 30.1043 436.23 30.1348C436.18 30.1497 436.12 30.1523 436.07 30.1671C435.889 30.2003 435.728 30.2326 435.558 30.278C435.538 30.2788 435.528 30.292 435.518 30.2797C435.357 30.312 435.207 30.3566 435.046 30.3889C434.996 30.4037 434.946 30.4186 434.876 30.4343C434.756 30.4648 434.635 30.4954 434.526 30.5382C434.466 30.5662 434.405 30.5688 434.346 30.5968C434.225 30.6274 434.115 30.6702 433.995 30.7008C433.945 30.7156 433.895 30.7305 433.845 30.7453C433.685 30.803 433.515 30.8484 433.345 30.9192C433.345 30.9192 433.335 30.9324 433.325 30.9201C433.165 30.9778 433.005 31.0355 432.845 31.0931C432.795 31.108 432.745 31.1229 432.695 31.1631C432.586 31.2059 432.466 31.2619 432.356 31.3047C432.296 31.3327 432.246 31.3476 432.186 31.3755C432.077 31.4184 431.957 31.4743 431.858 31.5294C431.808 31.5443 431.758 31.5845 431.708 31.5994C431.549 31.6824 431.399 31.7524 431.24 31.8355C428.891 33.0545 427.004 34.1775 425.497 35.1825C425.061 35.4808 424.664 35.752 424.288 36.0223C423.912 36.2926 423.566 36.5489 423.25 36.8166C422.776 37.1928 422.351 37.5541 421.987 37.8875C421.869 37.9942 421.75 38.101 421.632 38.2077C421.179 38.6338 420.826 39.0048 420.533 39.3478C420.454 39.4275 420.396 39.5062 420.327 39.5981C420.23 39.7294 420.122 39.8484 420.044 39.9534C417.579 36.8559 414.996 33.8906 412.316 31.0819L410.209 28.9224C406.278 25.0106 402.145 21.4253 397.839 18.2032C405.018 19.0526 425.692 20.3414 426.784 7.34289C426.83 6.7817 426.856 6.27215 426.863 5.76346C426.859 5.63651 426.866 5.52181 426.863 5.39486L426.862 5.36947C426.859 5.24252 426.856 5.14094 426.843 5.02712L426.842 5.00173C426.84 4.90016 426.826 4.78634 426.824 4.68477L426.823 4.65938C426.818 4.48164 426.805 4.36782 426.802 4.26625L426.802 4.24086C426.799 4.13929 426.776 4.03859 426.773 3.93703C426.763 3.92477 426.773 3.91163 426.762 3.89937C426.75 3.81093 426.736 3.69711 426.724 3.60867C426.714 3.5964 426.723 3.58327 426.713 3.57101C426.7 3.48257 426.678 3.38187 426.665 3.29343C426.655 3.28117 426.664 3.26805 426.654 3.25578C426.641 3.16735 426.629 3.07891 426.596 2.99133C426.586 2.97907 426.596 2.96594 426.585 2.95367C426.573 2.86524 426.551 2.78993 426.518 2.70235C426.507 2.69009 426.517 2.67696 426.507 2.66469C426.485 2.58938 426.472 2.50095 426.439 2.41337C426.429 2.40111 426.439 2.38798 426.428 2.37572C426.406 2.30041 426.384 2.2251 426.351 2.13752C426.341 2.12526 426.351 2.11213 426.34 2.09987C426.318 2.02456 426.296 1.94924 426.253 1.8748C426.243 1.86253 426.253 1.84941 426.242 1.83714C426.22 1.76184 426.188 1.69965 426.155 1.61208C426.145 1.59981 426.145 1.59981 426.144 1.57442C426.112 1.51224 426.09 1.43693 426.048 1.36247C426.037 1.35021 426.037 1.35021 426.037 1.32482C426.005 1.26263 425.973 1.20045 425.93 1.12601C425.92 1.11374 425.92 1.11374 425.909 1.10148C425.878 1.03929 425.846 0.977109 425.803 0.902663C425.793 0.890397 425.793 0.890397 425.782 0.878136C425.75 0.81595 425.698 0.754625 425.666 0.692445C425.656 0.680179 425.656 0.680185 425.645 0.667919C425.614 0.605739 425.561 0.544414 425.52 0.49536L425.509 0.483088C425.468 0.434035 425.415 0.372716 425.384 0.310536L425.373 0.298264C425.331 0.249211 425.279 0.187886 425.238 0.138833L425.227 0.126567C425.185 0.0775134 425.133 0.0161883 425.082 -0.0197378C425.082 -0.0197378 425.082 -0.0197378 425.071 -0.032004C425.019 -0.0933233 424.968 -0.129249 424.916 -0.190575C424.854 -0.238767 424.812 -0.28782 424.75 -0.336018C423.43 -1.39801 421.577 -1.61106 419.418 -1.20092C419.328 -1.18435 419.238 -1.16777 419.147 -1.15119C419.147 -1.15119 419.147 -1.15119 419.137 -1.13806C419.047 -1.12148 418.957 -1.1049 418.877 -1.07606L418.857 -1.0752C418.766 -1.05863 418.686 -1.02978 418.596 -1.0132C418.586 -1.00008 418.576 -1.01234 418.566 -0.999215C418.476 -0.982633 418.396 -0.953791 418.295 -0.924088C418.286 -0.910961 418.275 -0.923222 418.266 -0.910095C418.175 -0.893519 418.095 -0.864677 418.005 -0.822708C417.985 -0.821847 417.976 -0.808714 417.965 -0.820981C417.885 -0.792138 417.795 -0.775562 417.705 -0.733593C417.685 -0.732733 417.675 -0.719606 417.655 -0.718739C417.575 -0.689897 417.485 -0.673321 417.395 -0.631352C417.375 -0.630486 417.365 -0.617359 417.345 -0.616498C417.265 -0.587656 417.185 -0.558814 417.085 -0.529105C417.065 -0.528245 417.055 -0.515117 417.035 -0.514257C416.955 -0.485414 416.865 -0.443446 416.785 -0.414598C416.765 -0.413737 416.755 -0.40061 416.725 -0.386622C416.645 -0.35778 416.556 -0.315811 416.476 -0.286968C416.456 -0.286102 416.436 -0.259854 416.416 -0.258987C416.336 -0.230145 416.246 -0.188176 416.166 -0.159334C416.146 -0.158474 416.116 -0.144486 416.107 -0.131359C416.027 -0.102517 415.937 -0.0605424 415.857 -0.0317002C415.837 -0.0308393 415.807 -0.0168517 415.797 -0.00372462C415.717 0.0251172 415.627 0.0670869 415.547 0.0959288C415.518 0.109923 415.497 0.110783 415.478 0.137037C415.398 0.165879 415.308 0.207854 415.228 0.236696C415.198 0.250684 415.178 0.251544 415.159 0.277798C415.079 0.30664 414.989 0.348609 414.91 0.402844C414.88 0.416832 414.86 0.417693 414.84 0.443947C414.751 0.485916 414.681 0.527025 414.591 0.568994C414.561 0.582987 414.541 0.583848 414.511 0.597835C414.422 0.639804 414.352 0.680912 414.262 0.722881C414.233 0.736869 414.203 0.750863 414.193 0.76399C414.103 0.805959 414.034 0.847061 413.944 0.88903C413.914 0.903017 413.884 0.917017 413.874 0.930144C413.785 0.972113 413.715 1.01322 413.625 1.05518C413.596 1.06917 413.566 1.08317 413.546 1.10942C413.456 1.15139 413.377 1.20562 413.297 1.23447C413.267 1.24845 413.237 1.26244 413.208 1.27643C413.118 1.3184 413.039 1.37263 412.949 1.4146C412.919 1.4286 412.889 1.44258 412.879 1.45571C412.79 1.49768 412.71 1.55191 412.621 1.59388C412.591 1.60787 412.561 1.62187 412.541 1.64812C412.462 1.70235 412.372 1.74432 412.293 1.79855C412.263 1.81254 412.244 1.83879 412.214 1.85279C412.135 1.90702 412.045 1.94899 411.966 2.00322C411.936 2.01722 411.906 2.0312 411.886 2.05746C411.807 2.11169 411.717 2.15366 411.638 2.20789C411.608 2.22188 411.589 2.24814 411.568 2.249C411.489 2.30323 411.39 2.35833 411.31 2.41256C411.281 2.42655 411.261 2.45281 411.241 2.45367C411.162 2.5079 411.062 2.563 410.983 2.61723C410.953 2.63122 410.943 2.64435 410.913 2.65834C410.824 2.7257 410.735 2.76767 410.646 2.83503C410.626 2.83589 410.606 2.86214 410.586 2.863C410.497 2.93037 410.397 2.98546 410.308 3.05282C410.299 3.06595 410.278 3.06681 410.259 3.09307C410.16 3.14816 410.071 3.21552 409.972 3.29601C409.962 3.30913 409.942 3.31 409.942 3.31C409.833 3.37823 409.744 3.44558 409.635 3.5138C408.851 4.04301 408.08 4.60988 407.308 5.20213C407.219 5.26949 407.121 5.34998 407.032 5.41733C407.012 5.44359 406.992 5.44445 406.972 5.47071C406.893 5.52494 406.815 5.60457 406.735 5.6588C406.705 5.67279 406.676 5.71217 406.646 5.72616C406.567 5.78039 406.498 5.84689 406.419 5.90112C406.379 5.92824 406.35 5.96763 406.32 5.98161C406.251 6.04811 406.172 6.10234 406.113 6.15571C406.073 6.18283 406.034 6.20995 406.004 6.24933C405.935 6.31582 405.866 6.35693 405.797 6.42343C405.757 6.45054 405.708 6.49079 405.668 6.51791C405.609 6.57128 405.53 6.62551 405.471 6.67888C405.422 6.71912 405.382 6.74625 405.333 6.78649C405.273 6.83986 405.214 6.89323 405.135 6.94746C405.086 6.98771 405.046 7.01483 404.997 7.05507C404.937 7.10844 404.878 7.16181 404.819 7.21518C404.77 7.25543 404.721 7.29567 404.681 7.32279C404.622 7.37616 404.563 7.42952 404.504 7.48289C404.454 7.52314 404.405 7.56338 404.355 7.60363C404.296 7.657 404.237 7.71036 404.178 7.76374C404.129 7.80398 404.079 7.84423 404.03 7.88447C403.971 7.93784 403.912 7.99121 403.853 8.04458C403.803 8.08483 403.754 8.12506 403.715 8.17757C403.656 8.23095 403.597 8.28432 403.537 8.33768C403.488 8.37793 403.439 8.41818 403.4 8.47069C403.341 8.52405 403.291 8.5643 403.232 8.61767C403.183 8.65792 403.124 8.71128 403.085 8.76379C403.026 8.81716 402.976 8.8574 402.928 8.92304C402.878 8.96329 402.819 9.01665 402.78 9.06916C402.721 9.12253 402.672 9.16278 402.623 9.22841C402.574 9.26866 402.514 9.32202 402.475 9.37453C402.416 9.4279 402.367 9.46815 402.318 9.53378C402.269 9.57402 402.22 9.63967 402.171 9.67991C402.112 9.73328 402.073 9.78578 402.014 9.83915C401.964 9.87939 401.916 9.94503 401.866 9.98528C401.817 10.0255 401.768 10.0912 401.719 10.1314C401.669 10.1716 401.621 10.2373 401.571 10.2775C401.522 10.3178 401.473 10.3834 401.424 10.4236C401.374 10.4639 401.326 10.5295 401.276 10.5698C401.227 10.61 401.178 10.6756 401.129 10.7159C401.08 10.7561 401.031 10.8218 400.982 10.862C400.932 10.9023 400.883 10.9679 400.834 11.0081C400.785 11.0484 400.736 11.114 400.687 11.1542C400.637 11.1945 400.589 11.2601 400.539 11.3004C400.49 11.3406 400.441 11.4062 400.392 11.4465C400.342 11.4867 400.294 11.5524 400.244 11.5926C400.205 11.6451 400.146 11.6985 400.107 11.751C400.068 11.8035 400.009 11.8569 399.97 11.9094C399.931 11.9619 399.872 12.0153 399.833 12.0678C399.794 12.1203 399.745 12.1605 399.696 12.2262C399.657 12.2787 399.598 12.332 399.559 12.3845C399.52 12.4371 399.471 12.4773 399.432 12.5298C399.393 12.5823 399.334 12.6357 399.295 12.6882C399.256 12.7407 399.207 12.7809 399.168 12.8335C399.129 12.886 399.069 12.9393 399.031 12.9918C398.992 13.0443 398.942 13.0846 398.903 13.1371C398.864 13.1896 398.805 13.243 398.766 13.2955C398.727 13.348 398.678 13.3882 398.639 13.4407C398.6 13.4933 398.541 13.5466 398.502 13.5991C398.463 13.6516 398.424 13.7041 398.375 13.7444C398.336 13.7969 398.287 13.8625 398.238 13.9028C398.199 13.9553 398.16 14.0078 398.11 14.048C398.071 14.1005 398.032 14.1531 397.973 14.2064C397.934 14.2589 397.895 14.3114 397.856 14.364C397.817 14.4165 397.769 14.4821 397.73 14.5346C397.691 14.5871 397.652 14.6396 397.623 14.679C397.584 14.7315 397.545 14.784 397.496 14.8496C397.457 14.9022 397.418 14.9547 397.389 14.994C397.35 15.0466 397.311 15.0991 397.272 15.1516C397.233 15.2041 397.204 15.2435 397.165 15.296C397.126 15.3485 397.087 15.401 397.048 15.4535C397.009 15.506 396.98 15.5454 396.941 15.5979C396.902 15.6504 396.863 15.7029 396.824 15.7554C396.785 15.8079 396.756 15.8473 396.717 15.8998C396.678 15.9523 396.639 16.0048 396.6 16.0573C396.571 16.0967 396.532 16.1492 396.503 16.1886C396.464 16.2411 396.425 16.2936 396.376 16.3592C396.347 16.3986 396.308 16.4511 396.279 16.4905C396.24 16.543 396.191 16.6087 396.163 16.6734C396.153 16.6865 396.133 16.7128 396.124 16.7259C392.954 14.4466 389.688 12.3748 386.348 10.5095C385.405 9.99062 384.463 9.47171 383.501 8.97904L381.73 8.07612C377.976 6.21584 374.157 4.57441 370.291 3.0494C376.899 2.58867 390.485 -0.382203 395.372 -16.3647C396.327 -19.4942 396.519 -21.7521 396.134 -23.2863C396.134 -23.2863 396.124 -23.2985 396.133 -23.3117C396.099 -23.45 396.056 -23.5753 396.012 -23.7005C396.012 -23.7005 396.001 -23.7128 396.011 -23.7259C395.967 -23.8511 395.914 -23.9632 395.87 -24.0885C395.753 -24.3249 395.626 -24.5229 395.48 -24.72C395.407 -24.8058 395.334 -24.8917 395.251 -24.9644L395.241 -24.9766C395.158 -25.0494 395.075 -25.1221 394.983 -25.1817C394.983 -25.1817 394.983 -25.1817 394.972 -25.1939C394.694 -25.3981 394.388 -25.5375 394.052 -25.6376C394.052 -25.6376 394.042 -25.6498 394.032 -25.6367C393.92 -25.67 393.798 -25.6903 393.686 -25.7236C393.686 -25.7236 393.676 -25.7359 393.666 -25.7227C393.301 -25.7834 392.907 -25.8046 392.484 -25.7611L392.464 -25.7603C392.323 -25.7542 392.192 -25.7359 392.042 -25.7168L392.021 -25.7159C391.579 -25.6461 391.108 -25.537 390.618 -25.3762C390.608 -25.3631 390.597 -25.3753 390.588 -25.3622C390.428 -25.3045 390.278 -25.26 390.108 -25.1891C390.098 -25.176 390.078 -25.1752 390.078 -25.1752C389.918 -25.1175 389.748 -25.0467 389.579 -24.9758L389.569 -24.9627C389.23 -24.8211 388.871 -24.6532 388.512 -24.4853C388.502 -24.4722 388.482 -24.4714 388.482 -24.4714C388.303 -24.3874 388.134 -24.2912 387.954 -24.2073C387.934 -24.2064 387.924 -24.1933 387.895 -24.1793C387.726 -24.0831 387.536 -23.986 387.367 -23.8898C387.358 -23.8767 387.338 -23.8758 387.338 -23.8758C386.97 -23.6694 386.602 -23.4377 386.215 -23.205C386.205 -23.1919 386.185 -23.191 386.176 -23.1779C385.997 -23.0686 385.808 -22.9461 385.63 -22.8114C385.6 -22.7974 385.591 -22.7843 385.561 -22.7703C385.372 -22.6478 385.194 -22.5131 385.006 -22.3906C384.996 -22.3775 384.966 -22.3635 384.956 -22.3504C384.58 -22.0801 384.185 -21.7835 383.789 -21.487C383.779 -21.4739 383.759 -21.473 383.749 -21.4599C383.561 -21.312 383.374 -21.1642 383.186 -21.0163C383.156 -21.0023 383.136 -20.9761 383.107 -20.9621C382.919 -20.8142 382.731 -20.6664 382.554 -20.5063C382.534 -20.48 382.504 -20.466 382.485 -20.4398C382.287 -20.2788 382.11 -20.1187 381.912 -19.9577C381.903 -19.9446 381.893 -19.9315 381.873 -19.9306C381.675 -19.7696 381.488 -19.5964 381.301 -19.4231C381.291 -19.41 381.282 -19.3969 381.261 -19.396C381.074 -19.2228 380.887 -19.0496 380.7 -18.8763C380.681 -18.8501 380.641 -18.8229 380.622 -18.7967C380.435 -18.6235 380.247 -18.4502 380.071 -18.2647C380.042 -18.2253 380.012 -18.2113 379.982 -18.172C379.795 -17.9987 379.609 -17.8001 379.422 -17.6269C379.402 -17.6006 379.382 -17.5997 379.363 -17.5735C379.166 -17.3871 378.989 -17.2016 378.803 -17.003C378.793 -16.9899 378.783 -16.9767 378.774 -16.9636C378.587 -16.765 378.401 -16.5664 378.214 -16.3677C378.185 -16.3283 378.155 -16.3143 378.126 -16.275C377.949 -16.0895 377.763 -15.8908 377.597 -15.6931C377.568 -15.6537 377.528 -15.6266 377.499 -15.5872C377.312 -15.3886 377.146 -15.1908 376.96 -14.9922C376.94 -14.9659 376.911 -14.9265 376.881 -14.9125C376.705 -14.7016 376.509 -14.4899 376.333 -14.279L376.323 -14.2659C376.147 -14.055 375.962 -13.8309 375.786 -13.62C375.756 -13.5807 375.737 -13.5544 375.708 -13.515C375.532 -13.3041 375.356 -13.0933 375.2 -12.8832C375.171 -12.8438 375.141 -12.8045 375.112 -12.7651C374.936 -12.5542 374.771 -12.331 374.615 -12.121C374.586 -12.0816 374.566 -12.0554 374.537 -12.016C374.362 -11.7797 374.196 -11.5565 374.021 -11.3202C374.011 -11.3071 374.011 -11.3071 374.001 -11.294C373.836 -11.0708 373.661 -10.8345 373.495 -10.6114C373.476 -10.5851 373.446 -10.5458 373.427 -10.5195C373.261 -10.2963 373.106 -10.0609 372.941 -9.83777C372.911 -9.79839 372.882 -9.75901 372.853 -9.71963C372.698 -9.48421 372.542 -9.27416 372.387 -9.03874C372.358 -8.99936 372.328 -8.95998 372.31 -8.90833C372.155 -8.67291 371.999 -8.43749 371.835 -8.18894C371.825 -8.17581 371.805 -8.14956 371.796 -8.13643C371.64 -7.90101 371.496 -7.65332 371.341 -7.4179C371.321 -7.39165 371.302 -7.3654 371.293 -7.32687C371.148 -7.07919 370.993 -6.84377 370.858 -6.60921C370.829 -6.56983 370.81 -6.51818 370.781 -6.4788C370.646 -6.24424 370.501 -5.99656 370.366 -5.76199C370.337 -5.72261 370.318 -5.67096 370.289 -5.63158C370.144 -5.38389 370.019 -5.13707 369.885 -4.87712C369.866 -4.85086 369.857 -4.81236 369.847 -4.79923C369.722 -4.55241 369.588 -4.29246 369.464 -4.04562C369.454 -4.0325 369.445 -3.99399 369.435 -3.98086C369.301 -3.72091 369.176 -3.47408 369.062 -3.21499C369.043 -3.16334 369.014 -3.12397 369.005 -3.08545C368.88 -2.83862 368.766 -2.57954 368.662 -2.33358C368.643 -2.28194 368.614 -2.24256 368.595 -2.19091C368.481 -1.93182 368.367 -1.67273 368.263 -1.42677C368.253 -1.38825 368.234 -1.362 368.225 -1.32348C368.111 -1.06439 368.007 -0.793041 367.893 -0.533946C367.883 -0.520818 367.874 -0.50769 367.884 -0.495424C367.78 -0.224075 367.677 0.0472658 367.583 0.305487C367.574 0.344009 367.555 0.395656 367.535 0.421908C367.441 0.680145 367.347 0.938369 367.253 1.19659C367.235 1.24824 367.216 1.29989 367.207 1.33839C367.16 1.48021 367.113 1.62201 367.057 1.77694C361.246 -0.389318 355.369 -2.36212 349.54 -4.42596L346.789 -5.40131C343.558 -6.57219 340.346 -7.79473 337.171 -9.12056C343.22 -12.7476 362.17 -24.8706 363.366 -34.035C363.724 -36.8339 362.964 -38.835 361.517 -40.0695C361.497 -40.0941 361.476 -40.0932 361.456 -40.1177C361.198 -40.3228 360.93 -40.5147 360.633 -40.6926C360.602 -40.704 360.592 -40.7163 360.561 -40.7277C360.264 -40.8802 359.947 -41.0319 359.621 -41.145C359.591 -41.1564 359.571 -41.1556 359.54 -41.167C359.367 -41.2231 359.204 -41.267 359.031 -41.3231C359.031 -41.3231 359.021 -41.3354 359.011 -41.3223C358.848 -41.3662 358.676 -41.3969 358.493 -41.4399C358.462 -41.4513 358.442 -41.4505 358.412 -41.4619C358.239 -41.4926 358.047 -41.5225 357.865 -41.5401C357.844 -41.5393 357.834 -41.5515 357.814 -41.5507C357.632 -41.5683 357.46 -41.5737 357.278 -41.5913C357.258 -41.5904 357.227 -41.6018 357.197 -41.5878C357.005 -41.5923 356.813 -41.5968 356.612 -41.5882C356.592 -41.5873 356.551 -41.5856 356.531 -41.5847C356.35 -41.577 356.168 -41.5692 355.977 -41.5483C355.957 -41.5475 355.937 -41.5466 355.907 -41.5326C355.705 -41.524 355.504 -41.49 355.303 -41.456C355.263 -41.4542 355.233 -41.4402 355.203 -41.4516C355.011 -41.4308 354.821 -41.3845 354.63 -41.3636C354.609 -41.3627 354.589 -41.3618 354.569 -41.361C354.368 -41.327 354.158 -41.2798 353.947 -41.2327C353.907 -41.2309 353.867 -41.2038 353.827 -41.2021C353.626 -41.1427 353.425 -41.1087 353.215 -41.0361C353.206 -41.023 353.195 -41.0353 353.185 -41.0221C352.976 -40.9496 352.755 -40.8893 352.545 -40.8168C352.495 -40.8019 352.465 -40.788 352.415 -40.7731C351.995 -40.628 351.566 -40.4444 351.147 -40.2486C351.097 -40.2337 351.058 -40.2066 351.008 -40.1918C350.798 -40.0938 350.589 -39.9959 350.37 -39.8848C350.36 -39.8717 350.34 -39.8709 350.34 -39.8709C350.141 -39.7607 349.952 -39.6636 349.753 -39.5534C349.714 -39.5263 349.654 -39.4983 349.614 -39.4712C349.406 -39.3479 349.207 -39.2377 349.008 -39.1021C348.979 -39.0881 348.959 -39.0619 348.929 -39.0479C348.741 -38.9254 348.562 -38.8161 348.384 -38.6814C348.344 -38.6542 348.295 -38.614 348.255 -38.5869C348.057 -38.4513 347.869 -38.3035 347.661 -38.1547C347.622 -38.1276 347.602 -38.1014 347.563 -38.0742C347.385 -37.9395 347.227 -37.8057 347.049 -37.6709C347.009 -37.6438 346.96 -37.6036 346.93 -37.5642C346.733 -37.4032 346.556 -37.2431 346.369 -37.0699C346.329 -37.0428 346.29 -36.9903 346.25 -36.9631C346.083 -36.8162 345.926 -36.6569 345.768 -36.4977C345.739 -36.4583 345.699 -36.4312 345.67 -36.3918C345.494 -36.2063 345.317 -36.0208 345.14 -35.8353C345.101 -35.7828 345.062 -35.7556 345.023 -35.7031C344.866 -35.5185 344.709 -35.3593 344.563 -35.1624C344.543 -35.1361 344.514 -35.0967 344.495 -35.0705C344.329 -34.8727 344.163 -34.6495 343.997 -34.4518C343.958 -34.3993 343.919 -34.3467 343.88 -34.2942C343.734 -34.0973 343.578 -33.8873 343.442 -33.6781C343.433 -33.665 343.413 -33.6388 343.403 -33.6256C343.248 -33.3902 343.103 -33.1679 342.948 -32.9325C342.909 -32.88 342.88 -32.8152 342.841 -32.7627C342.697 -32.515 342.541 -32.2796 342.417 -32.0328C338.221 -24.4559 336.414 -17.3625 335.627 -12.8548C335.418 -11.6257 335.284 -10.6032 335.195 -9.7986C329.997 -12.0547 324.881 -14.632 319.952 -17.7765L319.859 -17.8361C319.797 -17.8843 319.726 -17.9194 319.664 -17.9676L318.061 -19.0175C318.061 -19.0175 318.061 -19.0175 318.041 -19.0166C317.928 -19.1008 317.805 -19.1718 317.691 -19.2559L317.64 -19.2918C316.581 -20.0218 315.531 -20.7649 314.491 -21.5466C301.964 -30.9753 291.258 -43.9646 283.284 -59.3459C282.517 -60.8383 280.818 -59.1006 281.574 -57.6204C288.623 -44.0171 297.832 -32.2221 308.494 -23.0948C310.943 -21.0007 313.478 -19.0756 316.049 -17.3045L318.114 -15.9312C323.354 -12.5203 328.809 -9.69057 334.386 -7.23464C334.26 -7.0386 334.145 -6.83031 334.029 -6.62201C334 -6.58262 333.971 -6.51784 333.942 -6.47845C333.788 -6.21765 333.644 -5.94457 333.5 -5.6715C333.48 -5.64524 333.481 -5.61985 333.462 -5.59359C333.327 -5.33364 333.193 -5.0737 333.059 -4.81375C333.04 -4.7621 333.02 -4.73584 332.991 -4.69646C332.867 -4.42425 332.733 -4.1643 332.609 -3.89207C332.59 -3.84044 332.562 -3.77567 332.533 -3.73629C332.409 -3.46408 332.295 -3.20499 332.191 -2.93364C332.182 -2.89512 332.153 -2.85573 332.144 -2.81721C332.04 -2.54585 331.936 -2.2999 331.832 -2.02855C331.823 -1.99002 331.813 -1.9769 331.794 -1.95064C331.69 -1.6793 331.597 -1.39568 331.503 -1.13745C331.484 -1.08581 331.465 -1.03418 331.446 -0.98253C331.363 -0.712036 331.269 -0.453815 331.196 -0.171061C331.177 -0.119414 331.168 -0.0808745 331.149 -0.0292395C331.066 0.241248 330.992 0.524002 330.909 0.794484L330.899 0.807609C330.826 1.09036 330.753 1.37312 330.68 1.65588C330.661 1.70752 330.662 1.75829 330.644 1.80994C330.58 2.07957 330.517 2.3492 330.464 2.63109C330.456 2.695 330.437 2.74665 330.438 2.79743C330.385 3.07932 330.322 3.34894 330.279 3.61771C330.279 3.64309 330.27 3.68163 330.26 3.69476C330.217 3.96351 330.164 4.22001 330.13 4.47564C330.121 4.51416 330.122 4.56495 330.113 4.60347C330.07 4.87223 330.037 5.15326 330.004 5.40889C329.996 5.4728 329.997 5.52358 329.989 5.58749C329.965 5.85539 329.922 6.12416 329.899 6.39206C329.89 6.43058 329.892 6.48136 329.882 6.51988C329.859 6.78779 329.836 7.03029 329.822 7.28507C329.823 7.31046 329.814 7.34897 329.815 7.37436C329.792 7.64227 329.789 7.90931 329.776 8.18947C329.778 8.24026 329.769 8.30416 329.771 8.35494C329.768 8.62198 329.754 8.87675 329.751 9.14379C329.753 9.19458 329.754 9.24535 329.756 9.29614C329.753 9.56317 329.75 9.83023 329.747 10.0973L329.748 10.1227C329.745 10.3897 329.752 10.669 329.77 10.9352C329.771 10.9859 329.772 11.0367 329.774 11.0875C329.78 11.3414 329.798 11.6076 329.805 11.8615C329.806 11.9123 329.807 11.9631 329.819 12.0261C329.836 12.2923 329.854 12.5585 329.881 12.8115C329.881 12.8369 329.882 12.8623 329.883 12.8877C329.899 13.1285 329.926 13.3815 329.953 13.6346C329.955 13.6854 329.966 13.723 329.967 13.7738C329.994 14.0268 330.021 14.2799 330.058 14.5198C330.132 14.6564 330.134 14.7072 330.145 14.7703Z" fill="#3D4775"/>
<path d="M289.388 26.4407C289.388 26.4407 207.719 -72.196 134.071 -88.5191C109.082 -94.0616 89.0942 -91.3586 73.5932 -85.3506C41.2717 -72.8376 29.348 -23.2388 51.7845 5.32969C62.5439 19.031 78.6788 32.3277 102.87 41.2056C174.157 67.3591 289.388 26.4407 289.388 26.4407Z" fill="#2F8C91"/>
<path d="M96.9154 -26.9111C101.928 -25.4574 106.933 -23.9962 111.946 -22.5425C115.624 0.538958 119.294 23.6278 122.977 46.7188C123.578 46.8363 124.18 46.9539 124.784 47.0546C121.117 24.0352 117.451 1.01579 113.785 -22.0036C118.517 -20.6271 123.263 -19.2486 127.995 -17.8721C131.801 4.11718 134.804 26.3632 136.987 48.7943C137.563 48.8477 138.137 48.918 138.713 48.9713C136.562 26.657 133.601 4.5467 129.848 -17.3311C134.4 -16.0079 138.952 -14.6846 143.505 -13.3614C146.364 7.70769 149.217 28.7674 152.076 49.8365C152.658 49.8562 153.239 49.8758 153.828 49.8881C150.993 28.9864 148.16 8.06772 145.325 -12.834C150.098 -11.4513 154.868 -10.0518 159.641 -8.66909C163.696 10.5914 167.101 30.0977 169.83 49.8025C170.411 49.779 170.984 49.7629 171.559 49.7299C168.868 30.2377 165.521 10.9387 161.535 -8.12187C166.447 -6.69212 171.359 -5.26237 176.279 -3.84001C179.725 13.535 182.554 31.1263 184.748 48.8791C185.317 48.8367 185.89 48.7775 186.459 48.735C184.301 31.2116 181.534 13.8539 178.158 -3.29486C182.158 -2.13354 186.163 -0.962743 190.162 0.198581C193.798 15.6978 196.851 31.427 199.305 47.3407C199.88 47.2646 200.446 47.1958 201.021 47.1197C198.619 31.4638 195.637 16.004 192.088 0.759413C196.967 2.17556 201.847 3.59169 206.726 5.00783C210.877 17.8103 213.864 31.1852 215.655 44.9293C216.219 44.8343 216.782 44.7392 217.354 44.6367C215.613 31.2105 212.732 18.1449 208.767 5.59471C210.426 6.08037 212.093 6.55864 213.752 7.04431C213.964 7.30071 214.272 7.42528 214.618 7.29704C215.825 7.64479 217.024 7.99994 218.231 8.34768C222.446 19.1862 224.98 30.9406 225.732 43.1215C226.298 43.0096 226.856 42.9051 227.422 42.7932C226.677 30.9839 224.307 19.5735 220.383 8.97745C224.042 10.0438 227.695 11.1006 231.354 12.167C234.204 21.3925 236.472 30.8742 238.151 40.5763C238.72 40.4476 239.281 40.3262 239.849 40.1974C238.231 30.8321 236.061 21.6671 233.368 12.7497C236.767 13.7334 240.165 14.7341 243.565 15.7178C244.642 22.2341 245.722 28.7335 246.8 35.2498C246.981 36.3202 247.151 37.4149 247.331 38.4853C247.895 38.3471 248.45 38.2162 249.005 38.0854C248.736 36.4845 248.495 34.8877 248.238 33.3058C247.3 27.621 246.355 21.9436 245.417 16.2588C248.297 17.0943 251.163 17.9277 254.043 18.7632C255.825 24.2838 257.419 29.9049 258.797 35.6223C259.368 35.4767 259.934 35.3216 260.492 35.1739C259.205 29.8237 257.74 24.5498 256.094 19.369C259.453 20.3465 262.807 21.3146 266.158 22.2995C267.168 25.7803 268.045 29.3098 268.774 32.9029C269.347 32.7404 269.907 32.5758 270.46 32.4187C269.8 29.1982 269.033 26.0043 268.152 22.8707C270.179 23.4555 272.198 24.0477 274.225 24.6325C274.83 26.6812 275.442 28.7225 276.042 30.7617C276.624 30.5918 277.178 30.4178 277.725 30.2512C277.225 28.5718 276.725 26.8925 276.23 25.2227C279.257 26.0978 282.275 26.9803 285.308 27.8649C287.956 26.9931 289.389 26.479 289.389 26.479C289.389 26.479 288.4 25.2767 286.537 23.1311C283.164 22.1514 279.791 21.1719 276.419 20.1922C278.075 19.2985 279.671 18.2576 281.213 17.1051C280.795 16.6449 280.372 16.1752 279.937 15.6866C277.934 17.1308 275.828 18.3783 273.618 19.3861C271.264 18.7083 268.913 18.0137 266.559 17.336C269.789 15.5961 272.872 13.5408 275.806 11.1699C275.388 10.7097 274.962 10.2569 274.525 9.78513C271.415 12.2586 268.114 14.384 264.669 16.117C264.437 16.2281 264.29 16.4211 264.195 16.6393C259.863 15.3756 255.537 14.1213 251.205 12.8576C256.568 9.409 261.833 5.73002 267.004 1.84698C266.565 1.39211 266.119 0.927769 265.666 0.470821C260.137 4.60952 254.491 8.50632 248.745 12.1464C244.852 11.0186 240.953 9.88121 237.06 8.75331C244.375 3.87854 251.606 -1.22452 258.735 -6.52425C258.281 -6.98121 257.825 -7.4213 257.358 -7.88034C249.888 -2.33972 242.312 2.97793 234.633 8.05575C229.86 6.67306 225.081 5.28089 220.308 3.89818C230.153 -2.1767 239.823 -8.70077 249.305 -15.6498C248.835 -16.092 248.366 -16.5341 247.891 -16.9858C238.053 -9.79793 228.006 -3.07289 217.78 3.17665C214.633 2.26599 211.481 1.34586 208.335 0.435201C218.279 -8.34811 228.223 -17.1314 238.168 -25.9148C237.701 -26.3306 237.235 -26.7465 236.763 -27.1718C226.579 -18.1836 216.401 -9.18598 206.21 -0.190428C200.104 -1.96585 193.999 -3.74129 187.894 -5.51671C201.844 -14.2064 215.442 -23.7945 228.625 -34.2387C228.131 -34.6587 227.643 -35.0693 227.15 -35.4893C213.635 -24.8284 199.697 -15.0594 185.387 -6.24357C179.794 -7.86333 174.209 -9.49049 168.611 -11.1197C183.001 -23.3537 197.398 -35.595 211.788 -47.829C211.276 -48.2173 210.772 -48.6131 210.265 -48.992C195.66 -36.5754 181.055 -24.1587 166.456 -11.7326C164.323 -12.3509 162.19 -12.9691 160.065 -13.5948C157.471 -14.3436 154.88 -15.1092 152.287 -15.8579C167.839 -29.6383 183.4 -43.4261 198.953 -57.2065C198.43 -57.5706 197.902 -57.9442 197.371 -58.3009C181.641 -44.3579 165.897 -30.4171 150.167 -16.4741C146.168 -17.6354 142.168 -18.7968 138.169 -19.9581C153.065 -35.8554 167.96 -51.7528 182.851 -67.6596C182.315 -67.9826 181.779 -68.3057 181.235 -68.6213C166.304 -52.6775 151.368 -36.7432 136.438 -20.7995C136.355 -20.7087 136.299 -20.6138 136.243 -20.5189C130.524 -22.1837 124.811 -23.8389 119.093 -25.5037C135.576 -42.2019 152.064 -58.8907 168.547 -75.5889C167.971 -75.875 167.389 -76.1705 166.813 -76.4566C150.233 -59.6697 133.654 -42.8828 117.08 -26.0864C112.794 -27.3344 108.514 -28.573 104.229 -29.8211C118.821 -48.0142 133.416 -66.2242 148.008 -84.4173C147.4 -84.6306 146.797 -84.8345 146.187 -85.031C131.576 -66.8062 116.952 -48.5836 102.341 -30.3588C97.7831 -31.6915 93.2227 -33.0073 88.6647 -34.34C101.206 -53.5612 114.571 -71.9672 128.693 -89.4821C128.002 -89.6047 127.325 -89.7253 126.645 -89.8289C112.62 -72.3595 99.3462 -54.0084 86.8968 -34.8422C79.4975 -36.9873 72.1007 -39.1492 64.7014 -41.2943C75.897 -58.5401 87.7217 -75.1556 100.116 -91.1154C99.2858 -91.0523 98.4749 -90.9777 97.6558 -90.8958C85.5729 -75.2505 74.0484 -58.9684 63.1254 -42.1034C63.0614 -42.0011 63.011 -41.8968 62.9798 -41.7809C59.8659 -42.6779 56.7546 -43.5918 53.6408 -44.4889C62.1076 -58.6945 70.5799 -72.8907 79.0386 -87.089C78.1783 -86.8237 77.329 -86.5395 76.4933 -86.2532C68.2955 -72.4978 60.0978 -58.7424 51.8944 -44.9964C48.8159 -45.8967 45.7292 -46.7896 42.6562 -47.6804C42.2345 -46.1158 41.8702 -44.5165 41.5547 -42.9184C42.4075 -42.6678 43.2602 -42.4171 44.113 -42.1664C45.8392 -27.4755 47.5653 -12.7846 49.286 1.8969C49.9357 2.90091 50.6312 3.87745 51.3565 4.84128C49.5422 -10.656 47.7199 -26.1459 45.9001 -41.6526C48.6518 -40.8453 51.406 -40.0548 54.1577 -39.2474C56.4362 -20.9472 58.7282 -2.64496 61.0067 15.6552C61.6439 16.2781 62.3027 16.8957 62.9695 17.5058C60.6317 -1.23434 58.2882 -19.984 55.9584 -38.7316C60.2303 -37.4856 64.4966 -36.2491 68.7684 -35.0032C71.0492 -14.1601 73.3381 6.67562 75.6189 27.5187C76.2319 27.931 76.8449 28.3434 77.4795 28.7504C75.1715 7.67049 72.8555 -13.4021 70.553 -34.4725C74.2798 -33.3958 78.0041 -32.3023 81.731 -31.2256C81.8373 -31.1922 81.938 -31.1682 82.0443 -31.1348C85.3889 -9.17281 87.7834 13.0494 89.2325 35.4549C89.8143 35.7505 90.4041 36.0386 91.002 36.3194C89.576 13.8053 87.1911 -8.52745 83.8697 -30.5979C84.3492 -30.4558 84.8287 -30.3138 85.3027 -30.1812C85.3984 -30.1235 85.5047 -30.0901 85.6024 -30.0924C88.7218 -29.1859 91.8412 -28.2794 94.9661 -27.3634C99.9663 -4.2872 104.039 19.1303 107.195 42.8216C107.8 43.0087 108.402 43.2125 109.015 43.3922C105.931 19.5912 101.872 -3.82424 96.9154 -26.9111Z" fill="#286F7F"/>
<path d="M185.482 -3.48422C187.394 -19.1279 180.035 -39.3393 177.146 -46.5047C183.961 -40.5941 190.884 -35.2586 197.914 -30.5254C199.803 21.8274 221.453 69.9034 221.453 69.9034C221.453 69.9034 218.251 58.2795 215.05 25.4834C212.221 -3.46506 202.997 -22.8664 199.352 -29.5672C205.977 -25.1948 212.672 -21.3578 219.433 -18.0668C221.884 -16.8741 224.346 -15.758 226.809 -14.7125C233.123 -0.792549 228.806 23.5584 232.33 46.3666C234.978 63.5322 255.477 79.1822 255.477 79.1822C255.477 79.1822 238.302 62.8868 240.417 36.1426C242.107 14.782 231.376 -6.79574 226.986 -14.6394C234.83 -11.3289 242.746 -8.74931 250.703 -6.92074C251.385 -2.1322 253.792 13.8505 257.468 29.5019C261.805 47.9396 277.564 87.1461 277.564 87.1461C277.564 87.1461 277.124 69.936 272.576 46.3292C268.897 27.2578 254.941 0.0398061 251.348 -6.76661C257.965 -5.28196 264.609 -4.30352 271.277 -3.8419C272.392 0.871958 276.218 16.8094 280.861 33.1588C286.396 52.6366 311.281 96.6784 311.281 96.6784C311.281 96.6784 307.194 82.2136 298.695 51.1713C291.383 24.4865 276.149 1.98666 272.013 -3.80608C278.026 -3.42211 284.053 -3.45141 290.089 -3.90459C294.41 -1.16072 307.391 4.58376 334.045 -1.69586C365.394 -9.07646 374.985 -14.5073 374.985 -14.5073C374.985 -14.5073 317.603 -26.0768 290.384 -6.70891C284.912 -6.28236 279.552 -6.22481 274.302 -6.46561C279.405 -11.4512 297.5 -29.9107 311.888 -54.6392C328.804 -83.7215 333.005 -93.1921 333.005 -93.1921C333.005 -93.1921 297.025 -53.6772 286.883 -34.6104C278.884 -19.5643 274.815 -9.92082 273.447 -6.51757C266.278 -6.91207 259.315 -7.90807 252.59 -9.3876C257.529 -14.3437 275.925 -33.9847 282.09 -56.8104C289.239 -83.2765 303.981 -96.7028 303.981 -96.7028C303.981 -96.7028 287.432 -88.3486 273.607 -55.7586C262.135 -28.7248 254.392 -13.7994 252.077 -9.49368C243.253 -11.4768 234.832 -14.2931 226.847 -17.7436C231.458 -21.5279 245.28 -34.1127 253.543 -54.7791C263.573 -79.8611 282.101 -104.503 282.101 -104.503C282.101 -104.503 253.167 -80.9226 238.489 -52.0165C227.903 -31.1699 225.731 -21.9416 225.343 -18.4055C216.275 -22.4182 207.772 -27.2231 199.884 -32.437C204.163 -35.0059 217.96 -44.4571 231.063 -66.2423C246.829 -92.4473 258.985 -112.76 258.985 -112.76C258.985 -112.76 208.018 -63.8789 198.911 -33.0751C191.095 -38.325 183.899 -43.9733 177.365 -49.7017C181.291 -51.4016 193.001 -57.7196 201.972 -75.2708C212.902 -96.6603 220.262 -102.99 230.874 -109.805C230.874 -109.805 207.159 -100.401 198.386 -85.6985C188.127 -68.4991 183.858 -54.9483 177.126 -49.913C172.762 -53.7406 168.707 -57.5991 164.959 -61.3635C134.877 -91.6749 117.804 -123.746 117.626 -124.068C117.284 -124.709 116.602 -124.894 116.088 -124.484C116.025 -124.427 115.962 -124.37 115.903 -124.302C115.551 -123.851 115.484 -123.137 115.771 -122.569C115.94 -122.241 133.173 -89.8627 163.514 -59.2703C167.638 -55.1111 171.814 -51.1824 176.038 -47.4676C176.093 -40.9394 176.244 -17.1033 175.52 -1.42885C174.676 16.8733 196.964 51.7544 196.964 51.7544C196.964 51.7544 183.113 15.8671 185.482 -3.48422Z" fill="#E5674E"/>
<path d="M497.047 164.459C497.047 164.459 627.893 139.091 677.68 66.7313C694.575 42.1693 701.384 17.6685 702.99 -3.99173C706.355 -49.1673 665.349 -96.4814 628.029 -90.5155C610.125 -87.655 590.087 -78.4334 570.425 -57.0522C512.519 5.92038 497.047 164.459 497.047 164.459Z" fill="#BAE3DD"/>
<path d="M637.275 -17.4297C633.556 -12.7407 629.855 -8.05012 626.136 -3.36107C602.731 -14.9273 579.315 -26.5053 555.911 -38.0716C555.517 -37.4741 555.135 -36.865 554.752 -36.2558C578.098 -24.716 601.444 -13.1763 624.78 -1.64837C621.274 2.7868 617.751 7.22048 614.245 11.6556C591.803 0.971991 569.5 -10.7751 547.408 -23.6016C547.079 -22.988 546.751 -22.3743 546.43 -21.7709C568.395 -9.00917 590.57 2.72747 612.875 13.3889C609.508 17.6509 606.124 21.9114 602.757 26.1734C581.631 15.055 560.493 3.92491 539.367 -7.19344C539.072 -6.54449 538.784 -5.90581 538.5 -5.2451C559.469 5.79522 580.439 16.8355 601.408 27.8758C597.863 32.3403 594.337 36.8063 590.792 41.2708C570.797 32.732 550.883 23.2986 531.086 12.9737C530.839 13.6374 530.584 14.3114 530.336 14.9751C549.91 25.2057 569.605 34.5668 589.375 43.0437C585.738 47.6417 582.094 52.2501 578.446 56.8364C560.506 48.9009 542.656 40.115 524.942 30.4933C524.724 31.1702 524.498 31.8575 524.279 32.5344C541.749 42.0383 559.358 50.7285 577.043 58.5887C574.075 62.3297 571.118 66.0824 568.149 69.8234C551.88 63.3825 535.685 56.1116 519.581 48.0447C519.384 48.7452 519.188 49.4457 518.98 50.1344C534.804 58.0805 550.74 65.2541 566.719 71.6168C563.103 76.184 559.487 80.7513 555.871 85.3185C541.9 81.2926 527.938 75.5625 514.181 68.2315C514.003 68.9335 513.835 69.6472 513.657 70.3492C527.093 77.5344 540.706 83.1597 554.362 87.225C553.131 88.7851 551.907 90.3349 550.664 91.8832C550.328 91.9533 550.053 92.213 550.024 92.6992C549.134 93.8205 548.237 94.952 547.347 96.0733C535.183 93.4554 522.961 88.3136 511.166 80.8615C510.999 81.5753 510.849 82.2905 510.682 83.0042C522.129 90.2106 533.96 95.3093 545.749 98.081C543.037 101.506 540.333 104.922 537.621 108.347C527.62 105.288 517.648 101.384 507.747 96.6833C507.602 97.4206 507.453 98.1358 507.297 98.8613C516.858 103.415 526.47 107.202 536.126 110.233C533.603 113.413 531.079 116.594 528.574 119.775C521.959 116.56 515.326 113.344 508.711 110.129C507.617 109.605 506.519 109.058 505.424 108.534C505.286 109.261 505.148 109.988 505.017 110.705C506.64 111.49 508.261 112.307 509.866 113.091C515.649 115.901 521.421 118.699 527.204 121.509C525.076 124.2 522.947 126.892 520.819 129.584C514.791 127.85 508.769 125.802 502.761 123.484C502.627 124.233 502.511 124.984 502.391 125.712C508.027 127.902 513.653 129.83 519.303 131.5C516.808 134.639 514.331 137.78 511.837 140.919C508.098 139.7 504.368 138.275 500.649 136.666C500.533 137.417 500.417 138.167 500.315 138.897C503.658 140.356 507.006 141.641 510.356 142.785C508.854 144.681 507.352 146.577 505.85 148.473C503.652 147.771 501.442 147.058 499.237 146.366C499.125 147.139 499.027 147.891 498.925 148.621C500.734 149.193 502.547 149.787 504.356 150.359C502.11 153.193 499.871 156.017 497.626 158.851C497.228 162.477 497.046 164.46 497.046 164.46C497.046 164.46 498.636 164.157 501.522 163.504C504.024 160.354 506.515 157.193 509.024 154.033C509.085 156.525 509.32 159.041 509.683 161.569C510.307 161.414 510.95 161.26 511.614 161.076C511.183 157.815 511.006 154.576 511.099 151.391C512.85 149.19 514.583 146.987 516.334 144.786C516.457 149.628 516.952 154.544 517.805 159.467C518.425 159.29 519.057 159.125 519.707 158.961C518.839 153.754 518.384 148.559 518.377 143.466C518.379 143.129 518.269 142.816 518.117 142.565C521.324 138.507 524.541 134.461 527.748 130.403C528.477 138.835 529.464 147.309 530.702 155.837C531.33 155.65 531.976 155.464 532.618 155.256C531.314 146.158 530.297 137.116 529.57 128.099C532.456 124.449 535.342 120.799 538.232 117.171C539.399 128.798 540.805 140.467 542.439 152.165C543.081 151.958 543.705 151.748 544.354 151.53C542.639 139.282 541.189 127.067 540.015 114.896C543.56 110.431 547.094 105.955 550.631 101.501C551.731 116.804 553.343 132.225 555.434 147.728C556.072 147.499 556.71 147.269 557.348 147.039C555.202 130.977 553.582 115.012 552.507 99.1469C554.849 96.2014 557.173 93.2544 559.508 90.3191C563.103 107.586 566.704 124.843 570.299 142.11C570.908 141.867 571.517 141.624 572.133 141.37C568.445 123.683 564.768 106.007 561.074 88.3305C565.593 82.6214 570.12 76.9021 574.64 71.1931C576.262 92.9235 578.917 114.88 582.559 136.961C583.182 136.697 583.801 136.412 584.431 136.138C580.742 113.542 578.088 91.0865 576.498 68.8375C580.648 63.6084 584.786 58.3675 588.929 53.1486C593.684 77.8078 598.439 102.467 603.205 127.138C603.809 126.818 604.406 126.509 605.01 126.19C600.181 101.166 595.341 76.1307 590.512 51.1071C592.096 49.12 593.669 47.1211 595.253 45.1339C597.178 42.7079 599.104 40.282 601.011 37.8545C606.684 64.9019 612.353 91.9273 618.026 118.975C618.615 118.621 619.198 118.278 619.787 117.925C614.051 90.5793 608.316 63.2336 602.577 35.8659C605.545 32.1249 608.502 28.3722 611.471 24.6312C619.436 52.3557 627.405 80.1022 635.371 107.827C635.927 107.438 636.483 107.049 637.028 106.649C629.039 78.8467 621.051 51.0443 613.063 23.242C613.017 23.0862 612.957 22.951 612.883 22.8363C617.118 17.4839 621.353 12.1314 625.6 6.79077C633.566 36.8716 641.539 66.9422 649.506 97.023C650.05 96.5682 650.594 96.1135 651.128 95.647C643.115 65.4104 635.099 35.1518 627.087 4.91515C630.258 0.908546 633.429 -3.09807 636.607 -7.11495C646.877 21.8522 657.142 50.7973 667.411 79.7645C667.896 79.2289 668.378 78.6712 668.852 78.1239C658.567 49.1229 648.283 20.1219 638.01 -8.86729C641.383 -13.1395 644.768 -17.4 648.142 -21.6723C660.333 5.65041 671.371 33.3669 681.22 61.3331C681.66 60.6417 682.088 59.9386 682.509 59.2457C672.658 31.4205 661.623 3.86709 649.455 -23.3234C654.936 -30.2564 660.42 -37.1675 665.901 -44.1005C676.856 -19.6484 686.941 5.09073 696.142 30.0285C696.476 29.0461 696.784 28.0725 697.093 27.0989C688.049 2.73867 678.145 -21.4317 667.416 -45.3224C667.345 -45.4694 667.271 -45.5841 667.186 -45.7105C669.488 -48.6267 671.802 -51.5311 674.104 -54.4473C683.492 -35.1621 692.862 -15.8785 702.25 3.40672C702.401 2.24635 702.536 1.10654 702.65 -0.0567893C693.568 -18.7304 684.486 -37.4041 675.392 -56.0896C677.674 -58.9749 679.955 -61.8603 682.247 -64.7338C680.967 -66.294 679.645 -67.7926 678.281 -69.2295C677.647 -68.4238 677.021 -67.6283 676.376 -66.8343C661.765 -74.898 647.164 -82.9499 632.552 -91.0135C631.303 -90.9534 630.055 -90.8388 628.825 -90.6684C644.23 -82.1705 659.645 -73.6607 675.049 -65.1627C673.006 -62.5944 670.967 -60.004 668.924 -57.4357C650.663 -67.3195 632.402 -77.2033 614.137 -87.1092C613.254 -86.8018 612.363 -86.4841 611.477 -86.1444C630.183 -76.0176 648.89 -65.8908 667.589 -55.7538C664.425 -51.7575 661.261 -47.7611 658.098 -43.7648C637.453 -55.3864 616.802 -66.9978 596.157 -78.6195C595.489 -78.2075 594.814 -77.7852 594.132 -77.3527C615.014 -65.6029 635.895 -53.8532 656.777 -42.1034C654.023 -38.6164 651.25 -35.1308 648.496 -31.6437C648.425 -31.5409 648.343 -31.45 648.261 -31.359C626.068 -42.5433 604.064 -54.9716 582.337 -68.6042C581.785 -68.1392 581.245 -67.6624 580.694 -67.1974C602.509 -53.4707 624.613 -40.9364 646.901 -29.6683C646.552 -29.2192 646.185 -28.7716 645.837 -28.3225C645.732 -28.255 645.661 -28.1523 645.62 -28.0363C643.31 -25.1098 640.989 -22.1951 638.68 -19.2687C614.659 -29.3329 590.751 -40.6691 567.02 -53.2611C566.557 -52.702 566.094 -52.1428 565.631 -51.5837C589.359 -38.905 613.264 -27.5365 637.275 -17.4297Z" fill="#97C9CE"/>
<path d="M568.929 -41.7195C563.784 -56.8667 567.127 -79.4032 568.589 -87.4733C562.891 -79.4624 556.949 -72.0122 550.792 -65.1369C559.573 -11.9361 547.457 42.936 547.457 42.936C547.457 42.936 548.329 30.289 544.872 -3.64303C541.82 -33.5875 547.208 -55.8897 549.54 -63.7181C543.719 -57.3191 537.708 -51.4391 531.52 -46.0764C529.283 -44.1312 527.01 -42.2789 524.727 -40.4811C521.164 -24.5918 530.536 -1.39745 531.628 22.5703C532.444 40.6301 514.864 62.5476 514.864 62.5476C514.864 62.5476 528.951 40.9756 521.339 14.7341C515.252 -6.21981 521.726 -31.1672 524.576 -40.3742C517.303 -34.6742 509.797 -29.6933 502.087 -25.4281C502.372 -20.4069 503.211 -3.62259 502.67 13.2343C502.034 33.0808 494.07 77.2439 494.07 77.2439C494.07 77.2439 490.986 59.812 490.782 34.7032C490.605 14.4263 499.207 -17.1655 501.46 -25.0916C495.054 -21.6003 488.513 -18.6037 481.838 -16.1196C481.674 -11.0432 481.053 6.12408 479.678 23.9685C478.02 45.2422 461.779 97.0321 461.779 97.0321C461.779 97.0321 462.97 81.2616 465.245 47.4892C467.196 18.4552 478.051 -8.75972 481.072 -15.8346C475.048 -13.6309 468.927 -11.8467 462.707 -10.4644C458.879 -6.39365 446.895 3.31145 418.557 5.0536C385.239 7.11283 374.398 4.57477 374.398 4.57477C374.398 4.57477 430.254 -24.4261 461.821 -13.1934C467.456 -14.4119 472.916 -15.97 478.183 -17.8166C471.98 -21.279 449.848 -34.36 430.204 -54.861C407.09 -78.9728 400.9 -87.2094 400.9 -87.2094C400.9 -87.2094 445.48 -58.3836 459.68 -42.2878C470.867 -29.5908 476.983 -21.1319 479.064 -18.1062C486.261 -20.6726 493.111 -23.7758 499.634 -27.307C493.62 -30.801 470.924 -44.9586 460.005 -66.0401C447.345 -90.481 429.638 -99.5045 429.638 -99.5045C429.638 -99.5045 448.138 -96.1245 468.828 -67.5502C485.999 -43.853 496.902 -31.2061 500.127 -27.5701C508.669 -32.237 516.634 -37.6091 524.035 -43.4897C518.585 -45.9072 501.996 -54.3587 489.378 -72.6345C474.07 -94.8046 450.243 -113.974 450.243 -113.974C450.243 -113.974 484.428 -99.0327 505.226 -74.4227C520.234 -56.6721 524.318 -48.0554 525.438 -44.625C533.823 -51.4048 541.466 -58.8022 548.396 -66.4411C543.521 -67.7275 527.601 -73.0488 509.843 -90.9902C488.488 -112.557 472.001 -129.288 472.001 -129.288C472.001 -129.288 533.709 -95.5881 549.24 -67.3742C556.098 -75.0035 562.243 -82.8743 567.705 -90.6103C563.376 -91.1419 550.189 -93.9308 537.507 -108.859C522.046 -127.052 513.286 -131.18 501.123 -134.828C501.123 -134.828 527.113 -132.561 539.016 -120.438C552.942 -106.256 560.046 -93.9378 567.9 -90.9076C571.536 -96.0655 574.868 -101.17 577.902 -106.113C602.242 -145.683 612.997 -183.082 613.11 -183.442C613.324 -184.199 613.983 -184.585 614.594 -184.32C614.677 -184.292 614.745 -184.231 614.813 -184.188C615.259 -183.835 615.479 -183.135 615.302 -182.481C615.202 -182.102 604.334 -144.343 579.81 -104.42C576.482 -98.9963 573.042 -93.7804 569.516 -88.7695C570.788 -82.1971 575.515 -58.1857 579.456 -42.6439C584.048 -24.5065 568.58 17.3058 568.58 17.3058C568.58 17.3058 575.281 -22.9722 568.929 -41.7195Z" fill="#FCF4DF"/>
<path d="M178.932 68.9917C178.932 68.9917 138.15 -60.331 76.7708 -109.662C55.9463 -126.404 36.8717 -133.184 20.754 -134.817C-12.8487 -138.236 -40.4833 -97.8201 -29.7776 -60.9296C-24.6443 -43.2376 -14.4902 -23.4236 4.47951 -3.96191C60.3842 53.3814 178.932 68.9917 178.932 68.9917Z" fill="#1A4143"/>
<path d="M22.1979 -69.812C26.2585 -66.1377 30.3093 -62.4602 34.3698 -58.7858C29.8934 -35.6976 25.4072 -12.6062 20.9326 10.4934C21.439 10.8815 21.9454 11.2697 22.4599 11.6434C26.9258 -11.382 31.3917 -34.4073 35.8576 -57.4326C39.6895 -53.9601 43.5331 -50.4794 47.365 -47.0068C43.3752 -24.8706 38.5687 -2.86971 32.9543 18.9217C33.4596 19.2387 33.9569 19.5702 34.4622 19.8872C40.0654 -1.78148 44.8643 -23.637 48.8644 -45.6454C52.551 -42.3057 56.2376 -38.9661 59.9243 -35.6264C55.3856 -14.7824 50.8451 6.05017 46.3065 26.8941C46.8278 27.1823 47.349 27.4704 47.8801 27.7555C52.3836 7.07753 56.8951 -13.6148 61.3986 -34.2928C65.2654 -30.7955 69.1243 -27.2839 72.9911 -23.7866C70.1508 -4.06295 66.6379 15.5872 62.4433 35.1071C62.9788 35.355 63.5044 35.606 64.038 35.8426C68.1949 16.5372 71.6915 -2.89333 74.5255 -22.4005C78.5027 -18.7951 82.4799 -15.1898 86.4669 -11.5875C83.7125 6.1072 80.3249 23.7159 76.3048 41.1789C76.8366 41.4042 77.3764 41.615 77.9082 41.8402C81.8826 24.6062 85.2478 7.24281 87.9896 -10.2096C91.2288 -7.27672 94.4697 -4.33248 97.7089 -1.39958C95.7624 14.6459 93.2077 30.6331 90.0475 46.5138C90.5953 46.7102 91.1333 46.9096 91.6811 47.106C94.8011 31.4883 97.3289 15.7835 99.2683 0.014363C103.22 3.59192 107.172 7.16947 111.125 10.747C110.559 24.5333 108.742 38.3095 105.714 51.8725C106.258 52.0462 106.802 52.2199 107.356 52.3905C110.322 39.1451 112.131 25.705 112.779 12.2382C114.122 13.4585 115.474 14.6758 116.816 15.8961C116.922 16.2321 117.16 16.4906 117.518 16.5325C118.496 17.4151 119.465 18.3007 120.443 19.1832C120.6 31.1802 118.921 43.2448 115.479 54.8773C116.031 55.0365 116.573 55.1989 117.125 55.3581C120.448 44.0732 122.16 32.4033 122.184 20.7661C125.146 23.4528 128.107 26.1283 131.069 28.8151C130.532 38.6838 129.382 48.5201 127.621 58.2869C128.181 58.4317 128.731 58.5796 129.291 58.7244C130.993 49.2979 132.127 39.8008 132.7 30.2898C135.455 32.7798 138.202 35.2843 140.957 37.7744C139.728 44.3108 138.508 50.8327 137.28 57.3691C137.082 58.4445 136.865 59.5375 136.667 60.613C137.225 60.7465 137.774 60.883 138.322 61.0196C138.621 59.4121 138.942 57.821 139.245 56.2362C140.318 50.535 141.382 44.837 142.456 39.1359C144.788 41.247 147.109 43.3498 149.442 45.461C149.191 51.4025 148.735 57.3494 148.05 63.2852C148.618 63.4156 149.185 63.5346 149.741 63.6568C150.385 58.1035 150.84 52.538 151.1 46.9748C153.82 49.4402 156.538 51.8942 159.248 54.3627C158.986 58.0557 158.588 61.7325 158.033 65.3991C158.609 65.515 159.173 65.6227 159.728 65.7335C160.22 62.4443 160.605 59.1294 160.866 55.8178C162.509 57.3007 164.142 58.7867 165.785 60.2696C165.64 62.4482 165.505 64.6236 165.359 66.7908C165.945 66.9036 166.508 66.9999 167.061 67.0994C167.175 65.3116 167.29 63.5238 167.406 61.7474C169.859 63.9636 172.301 66.1828 174.756 68.4103C177.456 68.8324 178.932 69.0216 178.932 69.0216C178.932 69.0216 178.441 67.4489 177.476 64.5962C174.744 62.1226 172.013 59.649 169.281 57.1754C171.088 57.1169 172.89 56.8935 174.681 56.5422C174.457 55.9218 174.232 55.29 174.002 54.6356C171.694 55.0431 169.358 55.2207 167.01 55.1281C165.102 53.4073 163.202 51.6721 161.294 49.9513C164.816 49.8395 168.312 49.367 171.78 48.5336C171.557 47.9132 171.323 47.2959 171.086 46.6559C167.423 47.5029 163.705 47.9385 159.989 47.9443C159.741 47.9394 159.542 48.0499 159.382 48.2078C155.875 45.0257 152.371 41.8549 148.864 38.6728C154.903 37.9688 160.932 37.0061 166.943 35.8104C166.698 35.1849 166.451 34.548 166.194 33.9143C159.77 35.1805 153.323 36.1683 146.871 36.8717C143.717 34.0191 140.561 31.1552 137.407 28.3026C145.702 27.184 153.998 25.8149 162.267 24.216C162.01 23.5822 161.745 22.9629 161.477 22.3209C152.815 23.9841 144.133 25.3917 135.439 26.5293C131.572 23.032 127.703 19.5235 123.836 16.0262C134.836 14.9709 145.827 13.4177 156.793 11.3841C156.516 10.7566 156.24 10.129 155.961 9.49009C144.592 11.5798 133.189 13.1437 121.785 14.1839C119.235 11.8792 116.684 9.56315 114.134 7.25843C126.141 3.74026 138.147 0.222108 150.154 -3.29605C149.871 -3.89784 149.588 -4.49963 149.304 -5.11275C137.011 -1.51596 124.719 2.09219 112.416 5.69209C107.472 1.2124 102.528 -3.26728 97.5842 -7.74697C113.198 -9.31816 128.795 -11.8852 144.306 -15.4378C144 -16.0561 143.696 -16.663 143.389 -17.2813C127.504 -13.6819 111.537 -11.1052 95.554 -9.58414C91.0226 -13.6818 86.5011 -17.7825 81.9679 -21.8914C99.1807 -26.5416 116.403 -31.1948 133.616 -35.845C133.282 -36.4426 132.959 -37.0433 132.627 -37.6296C115.157 -32.9101 97.6866 -28.1906 80.2183 -23.4598C78.4902 -25.023 76.7622 -26.5863 75.0439 -28.1527C72.9419 -30.0506 70.8479 -31.963 68.7459 -33.8609C87.5389 -39.4034 106.342 -44.9489 125.135 -50.4914C124.783 -51.0714 124.43 -51.6629 124.068 -52.2398C105.059 -46.6291 86.0386 -41.0266 67.0295 -35.4159C63.7903 -38.3488 60.5512 -41.2817 57.3121 -44.2146C76.2251 -52.0232 95.1382 -59.8318 114.049 -67.6517C113.672 -68.1998 113.295 -68.7479 112.908 -69.2929C93.9472 -61.4574 74.985 -53.6333 56.0247 -45.7979C55.9184 -45.7524 55.8355 -45.6905 55.7526 -45.6286C51.1225 -49.8261 46.4943 -54.0122 41.8643 -58.2098C62.4902 -66.0231 83.1179 -73.8252 103.744 -81.6385C103.317 -82.1711 102.889 -82.715 102.463 -83.2476C81.7188 -75.397 60.975 -67.5464 40.233 -59.6844C36.7634 -62.8305 33.2956 -65.9653 29.826 -69.1113C49.2409 -79.1875 68.6637 -89.278 88.0785 -99.3541C87.5986 -99.8341 87.1205 -100.303 86.6326 -100.768C67.1901 -90.6714 47.736 -80.5829 28.2935 -70.4861C24.605 -73.8371 20.9086 -77.1737 17.2201 -80.5247C35.1203 -92.5056 53.4928 -103.349 72.2511 -113.015C71.6649 -113.449 71.0904 -113.876 70.5079 -114.287C51.8533 -104.618 33.5827 -93.7834 15.7844 -81.811C9.79042 -87.2339 3.80442 -92.6713 -2.18958 -98.0943C13.8195 -108.87 30.1864 -118.77 46.8487 -127.798C46.0734 -128.125 45.3116 -128.433 44.5399 -128.737C28.2669 -119.856 12.2856 -110.125 -3.34701 -99.5757C-3.43976 -99.5106 -3.52086 -99.4373 -3.58849 -99.3445C-6.11286 -101.621 -8.62923 -103.913 -11.1536 -106.19C1.34741 -115.417 13.8503 -124.632 26.3415 -133.856C25.4702 -134.01 24.6026 -134.141 23.7466 -134.264C11.6424 -125.329 -0.461805 -116.394 -12.5678 -107.471C-15.0591 -109.734 -17.5602 -111.995 -20.0496 -114.247C-20.9625 -112.993 -21.835 -111.681 -22.6627 -110.347C-21.9731 -109.719 -21.2835 -109.091 -20.5938 -108.463C-24.0014 -94.053 -27.4089 -79.6433 -30.8182 -65.2448C-30.5682 -64.0131 -30.2671 -62.7856 -29.9348 -61.556C-26.3342 -76.7536 -22.7434 -91.9481 -19.1447 -107.157C-16.9189 -105.131 -14.685 -103.12 -12.4592 -101.094C-16.5875 -83.085 -20.704 -65.0673 -24.8322 -47.0578C-24.4645 -46.1849 -24.0753 -45.307 -23.6762 -44.4321C-19.453 -62.8767 -15.2315 -81.3327 -10.9984 -99.7804C-7.54044 -96.6426 -4.08429 -93.5161 -0.626312 -90.3783C-5.61361 -70.0122 -10.5911 -49.6493 -15.5784 -29.2832C-15.1613 -28.6166 -14.7442 -27.95 -14.3056 -27.2783C-9.26279 -47.8764 -4.22979 -68.4713 0.814843 -89.058C3.83516 -86.3301 6.84744 -83.5877 9.86774 -80.8597C9.95295 -80.7794 10.0363 -80.7104 10.1215 -80.6301C5.72148 -58.7336 0.370437 -37.0373 -5.90144 -15.6102C-5.47313 -15.0663 -5.03502 -14.5255 -4.58709 -13.9878C1.74259 -35.5047 7.1398 -57.299 11.5977 -79.2851C11.9851 -78.9309 12.3725 -78.5766 12.7581 -78.2337C12.8254 -78.1358 12.9107 -78.0555 13.0002 -78.0123C15.5264 -75.724 18.0526 -73.4358 20.5806 -71.1362C17.3069 -47.4388 13.0754 -23.856 7.91797 -0.445402C8.40406 0.0087648 8.88218 0.477359 9.37809 0.928423C14.6381 -22.5503 18.8813 -46.1249 22.1979 -69.812Z" fill="#2F8C91"/>
</g>
<defs>
<clipPath id="clip0_1774_23">
<rect width="610" height="169" fill="white"/>
</clipPath>
</defs>
</svg>
