<svg width="17" height="38" viewBox="0 0 17 38" fill="none" xmlns="http://www.w3.org/2000/svg">
<path d="M5.19743 4.5008C4.93419 4.23776 4.93419 3.80637 5.19743 3.54333L8.55643 0.19743C8.81266 -0.0585978 9.22683 -0.0656125 9.49007 0.176386L12.7999 3.47318C12.9333 3.60646 13 3.77831 13 3.95367C13 4.12553 12.9333 4.30089 12.8034 4.43065C12.5402 4.6937 12.112 4.6972 11.8452 4.43065L9.00219 1.63189L6.15564 4.50431C5.8924 4.76735 5.46419 4.76735 5.19743 4.5008Z" fill="#2F2926"/>
<path d="M12.8026 33.4992C13.0658 33.7622 13.0658 34.1936 12.8026 34.4567L9.44357 37.8026C9.18734 38.0586 8.77317 38.0656 8.50993 37.8236L5.20007 34.5268C5.06669 34.3935 5 34.2217 5 34.0463C5 33.8745 5.06669 33.6991 5.19656 33.5693C5.4598 33.3063 5.88801 33.3028 6.15477 33.5693L8.99781 36.3681L11.8444 33.4957C12.1076 33.2327 12.5358 33.2327 12.8026 33.4992Z" fill="#2F2926"/>
<path d="M12.4423 21.8538L10.9443 21.8538L10.9443 24.0238L9.19431 24.0238L9.19431 21.8538L4.58831 21.8538L4.58831 20.8318L8.63431 14.7838L10.9443 14.7838L10.9443 20.4538L12.4423 20.4538L12.4423 21.8538ZM6.45031 20.4538L9.19431 20.4538L9.19431 17.6258L9.23631 16.1138L9.20831 16.1138C9.00298 16.5898 8.72298 17.0985 8.36831 17.6398L6.45031 20.4538Z" fill="#2F2926"/>
</svg>
